<?xml version="1.0" encoding="UTF-8" standalone="no"?>
<!-- Created with Inkscape (http://www.inkscape.org/) -->

<svg
   xmlns:dc="http://purl.org/dc/elements/1.1/"
   xmlns:cc="http://creativecommons.org/ns#"
   xmlns:rdf="http://www.w3.org/1999/02/22-rdf-syntax-ns#"
   xmlns:svg="http://www.w3.org/2000/svg"
   xmlns="http://www.w3.org/2000/svg"
   xmlns:sodipodi="http://sodipodi.sourceforge.net/DTD/sodipodi-0.dtd"
   xmlns:inkscape="http://www.inkscape.org/namespaces/inkscape"
   width="35.948181mm"
   height="26.670626mm"
   viewBox="0 0 127.37544 94.502218"
   id="svg22398"
   version="1.1"
   inkscape:version="0.91 r13725"
   sodipodi:docname="metu.svg">
  <sodipodi:namedview
     id="base"
     pagecolor="#ffffff"
     bordercolor="#666666"
     borderopacity="1.0"
     inkscape:pageopacity="0.0"
     inkscape:pageshadow="2"
     inkscape:zoom="3.7570833"
     inkscape:cx="-2.6743882"
     inkscape:cy="65.433148"
     inkscape:document-units="px"
     inkscape:current-layer="layer1"
     showgrid="false"
     fit-margin-top="0.1"
     fit-margin-left="0.1"
     fit-margin-bottom="0.1"
     fit-margin-right="0.1"
     inkscape:window-width="1920"
     inkscape:window-height="1016"
     inkscape:window-x="0"
     inkscape:window-y="27"
     inkscape:window-maximized="1" />
  <defs
     id="defs22400">
    <clipPath
       clipPathUnits="userSpaceOnUse"
       id="clipPath638-2-4-6-9">
      <path
         d="m 695.137,3213.8 0,0 -48.551,-19.41 -5.926,-2.38 2.856,5.72 9.707,19.41 2.172,-1.08 -2.172,-1.09 -9.707,19.42 -2.856,5.72 5.926,-2.38 48.551,-19.42 5.629,-2.25 -5.629,-2.26 m -1.809,4.51 0.902,-2.25 -0.902,-2.26 -48.547,19.43 0.903,2.25 2.171,1.09 9.708,-19.43 0.546,-1.08 -0.546,-1.09 -9.708,-19.42 -2.171,1.09 -0.903,2.25 48.547,19.42 z"
         id="path640-9-9-9-9"
         inkscape:connector-curvature="0" />
    </clipPath>
    <clipPath
       clipPathUnits="userSpaceOnUse"
       id="clipPath628-3-9-2-3">
      <path
         d="m 694.23,3216.06 -48.546,-19.42 9.711,19.42 -9.711,19.42 48.546,-19.42 z"
         id="path630-1-9-9-9"
         inkscape:connector-curvature="0" />
    </clipPath>
    <clipPath
       clipPathUnits="userSpaceOnUse"
       id="clipPath618-1-4-0-4">
      <path
         d="m 475.77,3220.91 0,0 388.378,0 4.856,0 0,-9.71 -4.856,0 -388.378,0 -4.856,0 0,9.71 4.856,0 z"
         id="path620-2-9-3-6"
         inkscape:connector-curvature="0" />
    </clipPath>
    <clipPath
       clipPathUnits="userSpaceOnUse"
       id="clipPath638-2-4-4">
      <path
         d="m 695.137,3213.8 0,0 -48.551,-19.41 -5.926,-2.38 2.856,5.72 9.707,19.41 2.172,-1.08 -2.172,-1.09 -9.707,19.42 -2.856,5.72 5.926,-2.38 48.551,-19.42 5.629,-2.25 -5.629,-2.26 m -1.809,4.51 0.902,-2.25 -0.902,-2.26 -48.547,19.43 0.903,2.25 2.171,1.09 9.708,-19.43 0.546,-1.08 -0.546,-1.09 -9.708,-19.42 -2.171,1.09 -0.903,2.25 48.547,19.42 z"
         id="path640-9-9-5"
         inkscape:connector-curvature="0" />
    </clipPath>
    <clipPath
       clipPathUnits="userSpaceOnUse"
       id="clipPath628-3-9-5">
      <path
         d="m 694.23,3216.06 -48.546,-19.42 9.711,19.42 -9.711,19.42 48.546,-19.42 z"
         id="path630-1-9-5"
         inkscape:connector-curvature="0" />
    </clipPath>
    <clipPath
       clipPathUnits="userSpaceOnUse"
       id="clipPath618-1-4-6">
      <path
         d="m 475.77,3220.91 0,0 388.378,0 4.856,0 0,-9.71 -4.856,0 -388.378,0 -4.856,0 0,9.71 4.856,0 z"
         id="path620-2-9-0"
         inkscape:connector-curvature="0" />
    </clipPath>
    <clipPath
       clipPathUnits="userSpaceOnUse"
       id="clipPath638-2-4-6">
      <path
         d="m 695.137,3213.8 0,0 -48.551,-19.41 -5.926,-2.38 2.856,5.72 9.707,19.41 2.172,-1.08 -2.172,-1.09 -9.707,19.42 -2.856,5.72 5.926,-2.38 48.551,-19.42 5.629,-2.25 -5.629,-2.26 m -1.809,4.51 0.902,-2.25 -0.902,-2.26 -48.547,19.43 0.903,2.25 2.171,1.09 9.708,-19.43 0.546,-1.08 -0.546,-1.09 -9.708,-19.42 -2.171,1.09 -0.903,2.25 48.547,19.42 z"
         id="path640-9-9-9"
         inkscape:connector-curvature="0" />
    </clipPath>
    <clipPath
       clipPathUnits="userSpaceOnUse"
       id="clipPath628-3-9-2">
      <path
         d="m 694.23,3216.06 -48.546,-19.42 9.711,19.42 -9.711,19.42 48.546,-19.42 z"
         id="path630-1-9-9"
         inkscape:connector-curvature="0" />
    </clipPath>
    <clipPath
       clipPathUnits="userSpaceOnUse"
       id="clipPath618-1-4-0">
      <path
         d="m 475.77,3220.91 0,0 388.378,0 4.856,0 0,-9.71 -4.856,0 -388.378,0 -4.856,0 0,9.71 4.856,0 z"
         id="path620-2-9-3"
         inkscape:connector-curvature="0" />
    </clipPath>
    <clipPath
       clipPathUnits="userSpaceOnUse"
       id="clipPath638-2-4">
      <path
         d="m 695.137,3213.8 0,0 -48.551,-19.41 -5.926,-2.38 2.856,5.72 9.707,19.41 2.172,-1.08 -2.172,-1.09 -9.707,19.42 -2.856,5.72 5.926,-2.38 48.551,-19.42 5.629,-2.25 -5.629,-2.26 m -1.809,4.51 0.902,-2.25 -0.902,-2.26 -48.547,19.43 0.903,2.25 2.171,1.09 9.708,-19.43 0.546,-1.08 -0.546,-1.09 -9.708,-19.42 -2.171,1.09 -0.903,2.25 48.547,19.42 z"
         id="path640-9-9"
         inkscape:connector-curvature="0" />
    </clipPath>
    <clipPath
       clipPathUnits="userSpaceOnUse"
       id="clipPath628-3-9">
      <path
         d="m 694.23,3216.06 -48.546,-19.42 9.711,19.42 -9.711,19.42 48.546,-19.42 z"
         id="path630-1-9"
         inkscape:connector-curvature="0" />
    </clipPath>
    <clipPath
       clipPathUnits="userSpaceOnUse"
       id="clipPath618-1-4">
      <path
         d="m 475.77,3220.91 0,0 388.378,0 4.856,0 0,-9.71 -4.856,0 -388.378,0 -4.856,0 0,9.71 4.856,0 z"
         id="path620-2-9"
         inkscape:connector-curvature="0" />
    </clipPath>
    <clipPath
       clipPathUnits="userSpaceOnUse"
       id="clipPath638-2-4-6-9-5">
      <path
         d="m 695.137,3213.8 0,0 -48.551,-19.41 -5.926,-2.38 2.856,5.72 9.707,19.41 2.172,-1.08 -2.172,-1.09 -9.707,19.42 -2.856,5.72 5.926,-2.38 48.551,-19.42 5.629,-2.25 -5.629,-2.26 m -1.809,4.51 0.902,-2.25 -0.902,-2.26 -48.547,19.43 0.903,2.25 2.171,1.09 9.708,-19.43 0.546,-1.08 -0.546,-1.09 -9.708,-19.42 -2.171,1.09 -0.903,2.25 48.547,19.42 z"
         id="path640-9-9-9-9-0"
         inkscape:connector-curvature="0" />
    </clipPath>
    <clipPath
       clipPathUnits="userSpaceOnUse"
       id="clipPath628-3-9-2-3-6">
      <path
         d="m 694.23,3216.06 -48.546,-19.42 9.711,19.42 -9.711,19.42 48.546,-19.42 z"
         id="path630-1-9-9-9-0"
         inkscape:connector-curvature="0" />
    </clipPath>
    <clipPath
       clipPathUnits="userSpaceOnUse"
       id="clipPath618-1-4-0-4-8">
      <path
         d="m 475.77,3220.91 0,0 388.378,0 4.856,0 0,-9.71 -4.856,0 -388.378,0 -4.856,0 0,9.71 4.856,0 z"
         id="path620-2-9-3-6-3"
         inkscape:connector-curvature="0" />
    </clipPath>
    <clipPath
       clipPathUnits="userSpaceOnUse"
       id="clipPath638-2-4-4-7">
      <path
         d="m 695.137,3213.8 0,0 -48.551,-19.41 -5.926,-2.38 2.856,5.72 9.707,19.41 2.172,-1.08 -2.172,-1.09 -9.707,19.42 -2.856,5.72 5.926,-2.38 48.551,-19.42 5.629,-2.25 -5.629,-2.26 m -1.809,4.51 0.902,-2.25 -0.902,-2.26 -48.547,19.43 0.903,2.25 2.171,1.09 9.708,-19.43 0.546,-1.08 -0.546,-1.09 -9.708,-19.42 -2.171,1.09 -0.903,2.25 48.547,19.42 z"
         id="path640-9-9-5-8"
         inkscape:connector-curvature="0" />
    </clipPath>
    <clipPath
       clipPathUnits="userSpaceOnUse"
       id="clipPath628-3-9-5-2">
      <path
         d="m 694.23,3216.06 -48.546,-19.42 9.711,19.42 -9.711,19.42 48.546,-19.42 z"
         id="path630-1-9-5-1"
         inkscape:connector-curvature="0" />
    </clipPath>
    <clipPath
       clipPathUnits="userSpaceOnUse"
       id="clipPath618-1-4-6-0">
      <path
         d="m 475.77,3220.91 0,0 388.378,0 4.856,0 0,-9.71 -4.856,0 -388.378,0 -4.856,0 0,9.71 4.856,0 z"
         id="path620-2-9-0-5"
         inkscape:connector-curvature="0" />
    </clipPath>
    <clipPath
       clipPathUnits="userSpaceOnUse"
       id="clipPath638-2-4-6-8">
      <path
         d="m 695.137,3213.8 0,0 -48.551,-19.41 -5.926,-2.38 2.856,5.72 9.707,19.41 2.172,-1.08 -2.172,-1.09 -9.707,19.42 -2.856,5.72 5.926,-2.38 48.551,-19.42 5.629,-2.25 -5.629,-2.26 m -1.809,4.51 0.902,-2.25 -0.902,-2.26 -48.547,19.43 0.903,2.25 2.171,1.09 9.708,-19.43 0.546,-1.08 -0.546,-1.09 -9.708,-19.42 -2.171,1.09 -0.903,2.25 48.547,19.42 z"
         id="path640-9-9-9-5"
         inkscape:connector-curvature="0" />
    </clipPath>
    <clipPath
       clipPathUnits="userSpaceOnUse"
       id="clipPath628-3-9-2-5">
      <path
         d="m 694.23,3216.06 -48.546,-19.42 9.711,19.42 -9.711,19.42 48.546,-19.42 z"
         id="path630-1-9-9-0"
         inkscape:connector-curvature="0" />
    </clipPath>
    <clipPath
       clipPathUnits="userSpaceOnUse"
       id="clipPath618-1-4-0-7">
      <path
         d="m 475.77,3220.91 0,0 388.378,0 4.856,0 0,-9.71 -4.856,0 -388.378,0 -4.856,0 0,9.71 4.856,0 z"
         id="path620-2-9-3-3"
         inkscape:connector-curvature="0" />
    </clipPath>
    <clipPath
       clipPathUnits="userSpaceOnUse"
       id="clipPath638-2-4-8">
      <path
         d="m 695.137,3213.8 0,0 -48.551,-19.41 -5.926,-2.38 2.856,5.72 9.707,19.41 2.172,-1.08 -2.172,-1.09 -9.707,19.42 -2.856,5.72 5.926,-2.38 48.551,-19.42 5.629,-2.25 -5.629,-2.26 m -1.809,4.51 0.902,-2.25 -0.902,-2.26 -48.547,19.43 0.903,2.25 2.171,1.09 9.708,-19.43 0.546,-1.08 -0.546,-1.09 -9.708,-19.42 -2.171,1.09 -0.903,2.25 48.547,19.42 z"
         id="path640-9-9-2"
         inkscape:connector-curvature="0" />
    </clipPath>
    <clipPath
       clipPathUnits="userSpaceOnUse"
       id="clipPath628-3-9-3">
      <path
         d="m 694.23,3216.06 -48.546,-19.42 9.711,19.42 -9.711,19.42 48.546,-19.42 z"
         id="path630-1-9-0"
         inkscape:connector-curvature="0" />
    </clipPath>
    <clipPath
       clipPathUnits="userSpaceOnUse"
       id="clipPath618-1-4-7">
      <path
         d="m 475.77,3220.91 0,0 388.378,0 4.856,0 0,-9.71 -4.856,0 -388.378,0 -4.856,0 0,9.71 4.856,0 z"
         id="path620-2-9-7"
         inkscape:connector-curvature="0" />
    </clipPath>
    <clipPath
       clipPathUnits="userSpaceOnUse"
       id="clipPath638-2-4-6-8-2">
      <path
         d="m 695.137,3213.8 0,0 -48.551,-19.41 -5.926,-2.38 2.856,5.72 9.707,19.41 2.172,-1.08 -2.172,-1.09 -9.707,19.42 -2.856,5.72 5.926,-2.38 48.551,-19.42 5.629,-2.25 -5.629,-2.26 m -1.809,4.51 0.902,-2.25 -0.902,-2.26 -48.547,19.43 0.903,2.25 2.171,1.09 9.708,-19.43 0.546,-1.08 -0.546,-1.09 -9.708,-19.42 -2.171,1.09 -0.903,2.25 48.547,19.42 z"
         id="path640-9-9-9-5-8"
         inkscape:connector-curvature="0" />
    </clipPath>
    <clipPath
       clipPathUnits="userSpaceOnUse"
       id="clipPath628-3-9-2-5-3">
      <path
         d="m 694.23,3216.06 -48.546,-19.42 9.711,19.42 -9.711,19.42 48.546,-19.42 z"
         id="path630-1-9-9-0-8"
         inkscape:connector-curvature="0" />
    </clipPath>
    <clipPath
       clipPathUnits="userSpaceOnUse"
       id="clipPath618-1-4-0-7-0">
      <path
         d="m 475.77,3220.91 0,0 388.378,0 4.856,0 0,-9.71 -4.856,0 -388.378,0 -4.856,0 0,9.71 4.856,0 z"
         id="path620-2-9-3-3-4"
         inkscape:connector-curvature="0" />
    </clipPath>
    <clipPath
       clipPathUnits="userSpaceOnUse"
       id="clipPath638-2-4-6-8-6">
      <path
         d="m 695.137,3213.8 0,0 -48.551,-19.41 -5.926,-2.38 2.856,5.72 9.707,19.41 2.172,-1.08 -2.172,-1.09 -9.707,19.42 -2.856,5.72 5.926,-2.38 48.551,-19.42 5.629,-2.25 -5.629,-2.26 m -1.809,4.51 0.902,-2.25 -0.902,-2.26 -48.547,19.43 0.903,2.25 2.171,1.09 9.708,-19.43 0.546,-1.08 -0.546,-1.09 -9.708,-19.42 -2.171,1.09 -0.903,2.25 48.547,19.42 z"
         id="path640-9-9-9-5-89"
         inkscape:connector-curvature="0" />
    </clipPath>
    <clipPath
       clipPathUnits="userSpaceOnUse"
       id="clipPath628-3-9-2-5-0">
      <path
         d="m 694.23,3216.06 -48.546,-19.42 9.711,19.42 -9.711,19.42 48.546,-19.42 z"
         id="path630-1-9-9-0-6"
         inkscape:connector-curvature="0" />
    </clipPath>
    <clipPath
       clipPathUnits="userSpaceOnUse"
       id="clipPath618-1-4-0-7-8">
      <path
         d="m 475.77,3220.91 0,0 388.378,0 4.856,0 0,-9.71 -4.856,0 -388.378,0 -4.856,0 0,9.71 4.856,0 z"
         id="path620-2-9-3-3-7"
         inkscape:connector-curvature="0" />
    </clipPath>
    <clipPath
       clipPathUnits="userSpaceOnUse"
       id="clipPath638-2-4-6-8-6-0">
      <path
         d="m 695.137,3213.8 0,0 -48.551,-19.41 -5.926,-2.38 2.856,5.72 9.707,19.41 2.172,-1.08 -2.172,-1.09 -9.707,19.42 -2.856,5.72 5.926,-2.38 48.551,-19.42 5.629,-2.25 -5.629,-2.26 m -1.809,4.51 0.902,-2.25 -0.902,-2.26 -48.547,19.43 0.903,2.25 2.171,1.09 9.708,-19.43 0.546,-1.08 -0.546,-1.09 -9.708,-19.42 -2.171,1.09 -0.903,2.25 48.547,19.42 z"
         id="path640-9-9-9-5-89-2"
         inkscape:connector-curvature="0" />
    </clipPath>
    <clipPath
       clipPathUnits="userSpaceOnUse"
       id="clipPath628-3-9-2-5-0-0">
      <path
         d="m 694.23,3216.06 -48.546,-19.42 9.711,19.42 -9.711,19.42 48.546,-19.42 z"
         id="path630-1-9-9-0-6-1"
         inkscape:connector-curvature="0" />
    </clipPath>
    <clipPath
       clipPathUnits="userSpaceOnUse"
       id="clipPath618-1-4-0-7-8-9">
      <path
         d="m 475.77,3220.91 0,0 388.378,0 4.856,0 0,-9.71 -4.856,0 -388.378,0 -4.856,0 0,9.71 4.856,0 z"
         id="path620-2-9-3-3-7-6"
         inkscape:connector-curvature="0" />
    </clipPath>
    <clipPath
       clipPathUnits="userSpaceOnUse"
       id="clipPath638-2-4-6-8-6-0-4">
      <path
         d="m 695.137,3213.8 0,0 -48.551,-19.41 -5.926,-2.38 2.856,5.72 9.707,19.41 2.172,-1.08 -2.172,-1.09 -9.707,19.42 -2.856,5.72 5.926,-2.38 48.551,-19.42 5.629,-2.25 -5.629,-2.26 m -1.809,4.51 0.902,-2.25 -0.902,-2.26 -48.547,19.43 0.903,2.25 2.171,1.09 9.708,-19.43 0.546,-1.08 -0.546,-1.09 -9.708,-19.42 -2.171,1.09 -0.903,2.25 48.547,19.42 z"
         id="path640-9-9-9-5-89-2-1"
         inkscape:connector-curvature="0" />
    </clipPath>
    <clipPath
       clipPathUnits="userSpaceOnUse"
       id="clipPath628-3-9-2-5-0-0-6">
      <path
         d="m 694.23,3216.06 -48.546,-19.42 9.711,19.42 -9.711,19.42 48.546,-19.42 z"
         id="path630-1-9-9-0-6-1-5"
         inkscape:connector-curvature="0" />
    </clipPath>
    <clipPath
       clipPathUnits="userSpaceOnUse"
       id="clipPath618-1-4-0-7-8-9-7">
      <path
         d="m 475.77,3220.91 0,0 388.378,0 4.856,0 0,-9.71 -4.856,0 -388.378,0 -4.856,0 0,9.71 4.856,0 z"
         id="path620-2-9-3-3-7-6-8"
         inkscape:connector-curvature="0" />
    </clipPath>
    <clipPath
       clipPathUnits="userSpaceOnUse"
       id="clipPath638-2-4-6-8-5">
      <path
         d="m 695.137,3213.8 0,0 -48.551,-19.41 -5.926,-2.38 2.856,5.72 9.707,19.41 2.172,-1.08 -2.172,-1.09 -9.707,19.42 -2.856,5.72 5.926,-2.38 48.551,-19.42 5.629,-2.25 -5.629,-2.26 m -1.809,4.51 0.902,-2.25 -0.902,-2.26 -48.547,19.43 0.903,2.25 2.171,1.09 9.708,-19.43 0.546,-1.08 -0.546,-1.09 -9.708,-19.42 -2.171,1.09 -0.903,2.25 48.547,19.42 z"
         id="path640-9-9-9-5-9"
         inkscape:connector-curvature="0" />
    </clipPath>
    <clipPath
       clipPathUnits="userSpaceOnUse"
       id="clipPath628-3-9-2-5-2">
      <path
         d="m 694.23,3216.06 -48.546,-19.42 9.711,19.42 -9.711,19.42 48.546,-19.42 z"
         id="path630-1-9-9-0-7"
         inkscape:connector-curvature="0" />
    </clipPath>
  </defs>
  <metadata
     id="metadata22403">
    <rdf:RDF>
      <cc:Work
         rdf:about="">
        <dc:format>image/svg+xml</dc:format>
        <dc:type
           rdf:resource="http://purl.org/dc/dcmitype/StillImage" />
        <dc:title></dc:title>
      </cc:Work>
    </rdf:RDF>
  </metadata>
  <g
     inkscape:groupmode="layer"
     id="layer2"
     inkscape:label="Layer 2"
     transform="translate(-35.732024,-35.623128)">
    <g
       id="g614-9-8-0-9-2"
       transform="matrix(0.03027329,-0.07565665,-0.11605397,-0.04643789,434.93554,294.50123)"
       style="fill:#a0a0a0;fill-opacity:1;stroke:#a0a0a0;stroke-opacity:1">
      <g
         clip-path="url(#clipPath618-1-4-0-7-8-9-7)"
         id="g616-4-1-3-0-1"
         style="fill:#a0a0a0;fill-opacity:1;stroke:#a0a0a0;stroke-opacity:1">
        <path
           inkscape:connector-curvature="0"
           id="path622-7-6-3-3-2"
           style="fill:#a0a0a0;fill-opacity:1;fill-rule:nonzero;stroke:#a0a0a0;stroke-opacity:1"
           d="m 475.77,3220.91 393.234,0 0,-9.71 -398.09,0 0,9.71" />
      </g>
    </g>
    <g
       id="g624-8-3-7-3-0"
       transform="matrix(-0.04643789,0.11605396,-0.11605397,-0.04643789,480.85271,179.74859)"
       style="fill:#a0a0a0;fill-opacity:1;stroke:#a0a0a0;stroke-width:1.00000012;stroke-miterlimit:4;stroke-dasharray:none;stroke-opacity:1">
      <g
         clip-path="url(#clipPath628-3-9-2-5-0-0-6)"
         id="g626-4-9-9-3-7"
         style="fill:#a0a0a0;fill-opacity:1;stroke:#a0a0a0;stroke-width:1.00000012;stroke-miterlimit:4;stroke-dasharray:none;stroke-opacity:1">
        <path
           inkscape:connector-curvature="0"
           id="path632-5-3-4-7-3"
           style="fill:#a0a0a0;fill-opacity:1;fill-rule:nonzero;stroke:#a0a0a0;stroke-width:1.00000012;stroke-miterlimit:4;stroke-dasharray:none;stroke-opacity:1"
           d="m 694.23,3216.06 -48.546,-19.42 9.711,19.42 -9.711,19.42" />
      </g>
    </g>
    <g
       id="g634-0-3-9-3-1"
       transform="matrix(-0.04643789,0.11605396,-0.11605397,-0.04643789,480.85271,179.74859)"
       style="fill:#a0a0a0;fill-opacity:1;stroke:#a0a0a0;stroke-width:1.00000012;stroke-miterlimit:4;stroke-dasharray:none;stroke-opacity:1">
      <g
         clip-path="url(#clipPath638-2-4-6-8-6-0-4)"
         id="g636-3-4-9-2-1"
         style="fill:#a0a0a0;fill-opacity:1;stroke:#a0a0a0;stroke-width:1.00000012;stroke-miterlimit:4;stroke-dasharray:none;stroke-opacity:1">
        <path
           inkscape:connector-curvature="0"
           id="path642-6-6-1-6-9"
           style="fill:#a0a0a0;fill-opacity:1;fill-rule:nonzero;stroke:#a0a0a0;stroke-width:1.00000012;stroke-miterlimit:4;stroke-dasharray:none;stroke-opacity:1"
           d="m 695.137,3213.8 0,0 -48.551,-19.41 -5.926,-2.38 2.856,5.72 9.707,19.41 2.172,-1.08 -2.172,-1.09 -9.707,19.42 -2.856,5.72 5.926,-2.38 48.551,-19.42 5.629,-2.25 -5.629,-2.26 m -1.809,4.51 0.902,-2.25 -0.902,-2.26 -48.547,19.43 0.903,2.25 2.171,1.09 9.708,-19.43 0.546,-1.08 -0.546,-1.09 -9.708,-19.42 -2.171,1.09 -0.903,2.25 48.547,19.42" />
      </g>
    </g>
    <path
       style="fill:#000000;fill-rule:evenodd;stroke:#000000;stroke-width:1.00047326;stroke-linecap:butt;stroke-linejoin:miter;stroke-miterlimit:4;stroke-dasharray:1.00047332, 2.00094664;stroke-dashoffset:0;stroke-opacity:1"
       d="m 51.612234,77.590427 0,-20.741512"
       id="path6328"
       inkscape:connector-curvature="0" />
  </g>
  <g
     inkscape:label="Layer 1"
     inkscape:groupmode="layer"
     id="layer1"
     transform="translate(-360.89314,-228.30231)">
    <g
       id="g614-9-8"
       transform="matrix(0.125,0,0,-0.125,356.72948,673.5176)">
      <g
         clip-path="url(#clipPath618-1-4-7)"
         id="g616-4-1">
        <path
           inkscape:connector-curvature="0"
           id="path622-7-6"
           style="fill:#000000;fill-opacity:1;fill-rule:nonzero;stroke:none"
           d="m 475.77,3220.91 393.234,0 0,-9.71 -398.09,0 0,9.71" />
      </g>
    </g>
    <g
       id="g624-8-3"
       transform="matrix(0.125,0,0,-0.125,378.97126,673.5176)">
      <g
         clip-path="url(#clipPath628-3-9-3)"
         id="g626-4-9">
        <path
           inkscape:connector-curvature="0"
           id="path632-5-3"
           style="fill:#000000;fill-opacity:1;fill-rule:nonzero;stroke:none"
           d="m 694.23,3216.06 -48.546,-19.42 9.711,19.42 -9.711,19.42" />
      </g>
    </g>
    <g
       id="g634-0-3"
       transform="matrix(0.125,0,0,-0.125,378.97126,673.5176)">
      <g
         clip-path="url(#clipPath638-2-4-8)"
         id="g636-3-4">
        <path
           inkscape:connector-curvature="0"
           id="path642-6-6"
           style="fill:#000000;fill-opacity:1;fill-rule:nonzero;stroke:none"
           d="m 695.137,3213.8 0,0 -48.551,-19.41 -5.926,-2.38 2.856,5.72 9.707,19.41 2.172,-1.08 -2.172,-1.09 -9.707,19.42 -2.856,5.72 5.926,-2.38 48.551,-19.42 5.629,-2.25 -5.629,-2.26 m -1.809,4.51 0.902,-2.25 -0.902,-2.26 -48.547,19.43 0.903,2.25 2.171,1.09 9.708,-19.43 0.546,-1.08 -0.546,-1.09 -9.708,-19.42 -2.171,1.09 -0.903,2.25 48.547,19.42" />
      </g>
    </g>
    <g
       id="g624-8-3-7"
       transform="matrix(-0.125,0,0,-0.125,463.84028,673.70031)">
      <g
         clip-path="url(#clipPath628-3-9-2-5)"
         id="g626-4-9-9">
        <path
           inkscape:connector-curvature="0"
           id="path632-5-3-4"
           style="fill:#000000;fill-opacity:1;fill-rule:nonzero;stroke:none"
           d="m 694.23,3216.06 -48.546,-19.42 9.711,19.42 -9.711,19.42" />
      </g>
    </g>
    <g
       id="g634-0-3-9"
       transform="matrix(-0.125,0,0,-0.125,463.84028,673.70031)">
      <g
         clip-path="url(#clipPath638-2-4-6-8)"
         id="g636-3-4-9">
        <path
           inkscape:connector-curvature="0"
           id="path642-6-6-1"
           style="fill:#000000;fill-opacity:1;fill-rule:nonzero;stroke:none"
           d="m 695.137,3213.8 0,0 -48.551,-19.41 -5.926,-2.38 2.856,5.72 9.707,19.41 2.172,-1.08 -2.172,-1.09 -9.707,19.42 -2.856,5.72 5.926,-2.38 48.551,-19.42 5.629,-2.25 -5.629,-2.26 m -1.809,4.51 0.902,-2.25 -0.902,-2.26 -48.547,19.43 0.903,2.25 2.171,1.09 9.708,-19.43 0.546,-1.08 -0.546,-1.09 -9.708,-19.42 -2.171,1.09 -0.903,2.25 48.547,19.42" />
      </g>
    </g>
    <text
       xml:space="preserve"
       style="font-style:normal;font-weight:normal;font-size:15px;line-height:125%;font-family:sans-serif;letter-spacing:5px;word-spacing:0px;fill:#000000;fill-opacity:1;stroke:none;stroke-width:1px;stroke-linecap:butt;stroke-linejoin:miter;stroke-opacity:1"
       x="473.57642"
       y="275.14502"
       id="text6640-9-5-0-5-72-3"
       sodipodi:linespacing="125%"><tspan
         sodipodi:role="line"
         id="tspan6642-4-35-6-5-2-3"
         x="473.57642"
         y="275.14502"
         style="font-style:italic;font-variant:normal;font-weight:normal;font-stretch:normal;font-size:15px;font-family:'URW Palladio L';-inkscape-font-specification:'URW Palladio L Italic'">q</tspan></text>
    <text
       xml:space="preserve"
       style="font-style:normal;font-weight:normal;font-size:15px;line-height:125%;font-family:sans-serif;letter-spacing:5px;word-spacing:0px;fill:#a0a0a0;fill-opacity:1;stroke:none;stroke-width:1px;stroke-linecap:butt;stroke-linejoin:miter;stroke-opacity:1"
       x="388.45541"
       y="318.2052"
       id="text6640-9-5-0-9-1-6-0"
       sodipodi:linespacing="125%"><tspan
         sodipodi:role="line"
         id="tspan6642-4-35-6-9-4-39-4"
         x="388.45541"
         y="318.2052"
         style="font-style:normal;font-variant:normal;font-weight:500;font-stretch:normal;font-size:15px;font-family:'URW Palladio L';-inkscape-font-specification:'URW Palladio L Medium';letter-spacing:0px;fill:#a0a0a0;fill-opacity:1">jet</tspan></text>
    <circle
       style="opacity:1;fill:#000000;fill-opacity:1;stroke:none;stroke-width:1.20000005;stroke-linecap:round;stroke-linejoin:round;stroke-miterlimit:4;stroke-dasharray:none;stroke-dashoffset:0;stroke-opacity:1"
       id="path4241"
       cx="413.802"
       cy="271.53043"
       r="2.7779195" />
    <g
       id="g614-9-8-0-9"
       transform="matrix(0.08900801,0.05449574,0.06527014,-0.10660586,126.4494,566.41795)">
      <g
         clip-path="url(#clipPath618-1-4-0-7-8)"
         id="g616-4-1-3-0">
        <path
           inkscape:connector-curvature="0"
           id="path622-7-6-3-3"
           style="fill:#000000;fill-opacity:1;fill-rule:nonzero;stroke:none"
           d="m 475.77,3220.91 393.234,0 0,-9.71 -398.09,0 0,9.71" />
      </g>
    </g>
    <g
       id="g624-8-3-7-3"
       transform="matrix(-0.10660586,-0.06527014,0.06527014,-0.10660586,241.04774,636.58153)">
      <g
         clip-path="url(#clipPath628-3-9-2-5-0)"
         id="g626-4-9-9-3">
        <path
           inkscape:connector-curvature="0"
           id="path632-5-3-4-7"
           style="fill:#000000;fill-opacity:1;fill-rule:nonzero;stroke:none"
           d="m 694.23,3216.06 -48.546,-19.42 9.711,19.42 -9.711,19.42" />
      </g>
    </g>
    <g
       id="g634-0-3-9-3"
       transform="matrix(-0.10660586,-0.06527014,0.06527014,-0.10660586,241.04774,636.58153)">
      <g
         clip-path="url(#clipPath638-2-4-6-8-6)"
         id="g636-3-4-9-2">
        <path
           inkscape:connector-curvature="0"
           id="path642-6-6-1-6"
           style="fill:#000000;fill-opacity:1;fill-rule:nonzero;stroke:none"
           d="m 695.137,3213.8 0,0 -48.551,-19.41 -5.926,-2.38 2.856,5.72 9.707,19.41 2.172,-1.08 -2.172,-1.09 -9.707,19.42 -2.856,5.72 5.926,-2.38 48.551,-19.42 5.629,-2.25 -5.629,-2.26 m -1.809,4.51 0.902,-2.25 -0.902,-2.26 -48.547,19.43 0.903,2.25 2.171,1.09 9.708,-19.43 0.546,-1.08 -0.546,-1.09 -9.708,-19.42 -2.171,1.09 -0.903,2.25 48.547,19.42" />
      </g>
    </g>
    <path
       style="fill:none;fill-rule:evenodd;stroke:#000000;stroke-width:0.99999994;stroke-linecap:butt;stroke-linejoin:miter;stroke-miterlimit:4;stroke-dasharray:1.99999994, 0.99999997;stroke-dashoffset:0;stroke-opacity:1"
       d="m 413.73254,271.7793 -33.57143,0"
       id="path4471"
       inkscape:connector-curvature="0"
       sodipodi:nodetypes="cc" />
    <text
       xml:space="preserve"
       style="font-style:normal;font-weight:normal;font-size:15px;line-height:125%;font-family:sans-serif;letter-spacing:5px;word-spacing:0px;fill:#000000;fill-opacity:1;stroke:none;stroke-width:1px;stroke-linecap:butt;stroke-linejoin:miter;stroke-opacity:1"
       x="423.0336"
       y="263.42252"
       id="text6640-9-5-0-5-72-3-6"
       sodipodi:linespacing="125%"><tspan
         sodipodi:role="line"
         id="tspan6642-4-35-6-5-2-3-3"
         x="423.0336"
         y="263.42252"
         style="font-style:normal;font-variant:normal;font-weight:500;font-stretch:normal;font-size:15px;font-family:'URW Palladio L';-inkscape-font-specification:'URW Palladio L Medium';letter-spacing:0px">Z/γ</tspan></text>
    <text
       xml:space="preserve"
       style="font-style:normal;font-weight:normal;font-size:15px;line-height:125%;font-family:sans-serif;letter-spacing:5px;word-spacing:0px;fill:#000000;fill-opacity:1;stroke:none;stroke-width:1px;stroke-linecap:butt;stroke-linejoin:miter;stroke-opacity:1"
       x="362.40686"
       y="241.4239"
       id="text6640-9-5-0-5-72-3-9"
       sodipodi:linespacing="125%"><tspan
         sodipodi:role="line"
         id="tspan6642-4-35-6-5-2-3-9"
         x="362.40686"
         y="241.4239"
         style="font-style:italic;font-variant:normal;font-weight:normal;font-stretch:normal;font-size:15px;font-family:'URW Palladio L';-inkscape-font-specification:'URW Palladio L Italic'">p</tspan></text>
    <flowRoot
       xml:space="preserve"
       id="flowRoot6216"
       style="font-style:normal;font-weight:normal;font-size:10px;line-height:125%;font-family:sans-serif;letter-spacing:5px;word-spacing:0px;fill:#000000;fill-opacity:1;stroke:none;stroke-width:1px;stroke-linecap:butt;stroke-linejoin:miter;stroke-opacity:1"
       transform="translate(325.16111,192.67919)"><flowRegion
         id="flowRegion6218"><rect
           id="rect6220"
           width="1.0714285"
           height="66.785713"
           x="36.07143"
           y="20.171541" /></flowRegion><flowPara
         id="flowPara6222"></flowPara></flowRoot>    <text
       xml:space="preserve"
       style="font-style:normal;font-weight:normal;font-size:15px;line-height:125%;font-family:sans-serif;letter-spacing:5px;word-spacing:0px;fill:#000000;fill-opacity:1;stroke:none;stroke-width:1px;stroke-linecap:butt;stroke-linejoin:miter;stroke-opacity:1"
       x="360.76746"
       y="275.64233"
       id="text6640-9-5-0-5-72-3-5"
       sodipodi:linespacing="125%"><tspan
         sodipodi:role="line"
         id="tspan6642-4-35-6-5-2-3-1"
         x="360.76746"
         y="275.64233"
         style="font-style:italic;font-variant:normal;font-weight:normal;font-stretch:normal;font-size:15px;font-family:'URW Palladio L';-inkscape-font-specification:'URW Palladio L Italic'">u</tspan></text>
    <path
       style="fill:none;fill-rule:evenodd;stroke:#000000;stroke-width:0.74916542;stroke-linecap:butt;stroke-linejoin:miter;stroke-miterlimit:4;stroke-dasharray:none;stroke-opacity:1"
       d="m 370.05621,272.76849 0,7.55641"
       id="path6311"
       inkscape:connector-curvature="0" />
    <path
       style="fill:none;fill-rule:evenodd;stroke:#000000;stroke-width:0.74916542;stroke-linecap:butt;stroke-linejoin:miter;stroke-miterlimit:4;stroke-dasharray:none;stroke-opacity:1"
       d="m 371.79453,272.76295 0,7.55641"
       id="path6311-0"
       inkscape:connector-curvature="0" />
    <text
       xml:space="preserve"
       style="font-style:normal;font-weight:normal;font-size:11.77097511px;line-height:125%;font-family:sans-serif;letter-spacing:3.92365837px;word-spacing:0px;fill:#000000;fill-opacity:1;stroke:none;stroke-width:1px;stroke-linecap:butt;stroke-linejoin:miter;stroke-opacity:1"
       x="480.91052"
       y="281.2774"
       id="text6640-9-5-0-5-72-3-6-3"
       sodipodi:linespacing="125%"><tspan
         sodipodi:role="line"
         id="tspan6642-4-35-6-5-2-3-3-0"
         x="480.91052"
         y="281.2774"
         style="font-style:normal;font-variant:normal;font-weight:500;font-stretch:normal;font-size:11.77097511px;font-family:'URW Palladio L';-inkscape-font-specification:'URW Palladio L Medium';letter-spacing:0px">T</tspan></text>
    <text
       xml:space="preserve"
       style="font-style:normal;font-weight:normal;font-size:11.77097511px;line-height:125%;font-family:sans-serif;letter-spacing:3.92365837px;word-spacing:0px;fill:#000000;fill-opacity:1;stroke:none;stroke-width:1px;stroke-linecap:butt;stroke-linejoin:miter;stroke-opacity:1"
       x="368.19806"
       y="248.8736"
       id="text6640-9-5-0-5-72-3-6-3-4"
       sodipodi:linespacing="125%"><tspan
         sodipodi:role="line"
         id="tspan6642-4-35-6-5-2-3-3-0-5"
         x="368.19806"
         y="248.8736"
         style="font-style:normal;font-variant:normal;font-weight:500;font-stretch:normal;font-size:11.77097511px;font-family:'URW Palladio L';-inkscape-font-specification:'URW Palladio L Medium';letter-spacing:0px">T</tspan></text>
  </g>
  <g
     word-spacing="normal"
     letter-spacing="normal"
     font-size-adjust="none"
     font-stretch="normal"
     font-weight="normal"
     font-variant="normal"
     font-style="normal"
     stroke-miterlimit="10.433"
     xml:space="preserve"
     transform="matrix(0.41302755,0,0,-0.41302755,-191.02145,182.73491)"
     id="g5750"
     style="font-style:normal;font-variant:normal;font-weight:normal;font-stretch:normal;letter-spacing:normal;word-spacing:normal;text-anchor:start;fill:none;fill-opacity:1;fill-rule:evenodd;stroke:#000000;stroke-linecap:butt;stroke-linejoin:miter;stroke-miterlimit:10.43299961;stroke-dasharray:none;stroke-dashoffset:0;stroke-opacity:1"><path
       id="path5752"
       d="m 482.75,435.64 -0.07,-0.06 -0.07,-0.07 -0.08,-0.07 -0.08,-0.07 -0.09,-0.08 -0.09,-0.08 -0.09,-0.09 -0.09,-0.09 -0.1,-0.09 -0.09,-0.09 -0.2,-0.19 -0.19,-0.19 -0.19,-0.21 -0.09,-0.1 -0.09,-0.1 -0.09,-0.1 -0.08,-0.11 -0.08,-0.1 -0.08,-0.1 -0.07,-0.1 -0.06,-0.1 -0.06,-0.1 -0.05,-0.1 -0.05,-0.1 -0.04,-0.09 -0.03,-0.1 -0.02,-0.09 -0.02,-0.09 0,-0.08 c 0,-0.5 0.5,-1 1,-1 0.44,0 0.69,0.35 0.94,0.65 0.6,0.75 1.74,2.14 3.94,3.24 0.35,0.2 0.84,0.45 0.84,1.05 0,0.49 -0.34,0.74 -0.69,0.99 -1.1,0.75 -1.65,1.64 -2.05,2.84 -0.1,0.45 -0.3,1.1 -0.99,1.1 -0.7,0 -1,-0.65 -1,-1.05 0,-0.25 0.4,-1.84 1.2,-2.89 l -16.79,0 c -0.85,0 -1.74,0 -1.74,-0.99 0,-1 0.89,-1 1.74,-1 z"
       inkscape:connector-curvature="0"
       style="fill:#000000;stroke-width:0" /><g
       id="g6045"><g
         style="font-style:normal;font-variant:normal;font-weight:normal;font-stretch:normal;letter-spacing:normal;word-spacing:normal;text-anchor:start;fill:none;fill-opacity:1;fill-rule:evenodd;stroke:#000000;stroke-linecap:butt;stroke-linejoin:miter;stroke-miterlimit:10.43299961;stroke-dasharray:none;stroke-dashoffset:0;stroke-opacity:1"
         id="g6047"
         transform="matrix(0.16197975,0,0,-0.16197975,-28.346457,112.71341)"
         xml:space="preserve"
         stroke-miterlimit="10.433"
         font-style="normal"
         font-variant="normal"
         font-weight="normal"
         font-stretch="normal"
         font-size-adjust="none"
         letter-spacing="normal"
         word-spacing="normal" /></g></g>  <path
     inkscape:connector-curvature="0"
     id="path5899"
     d="M 1.8487182,17.915362 C 7.7986382,5.0394641 7.7986382,5.0394641 7.7986382,5.0394641"
     style="fill:none;fill-rule:evenodd;stroke:#000000;stroke-width:0.7948736px;stroke-linecap:butt;stroke-linejoin:miter;stroke-opacity:1" />
</svg>
