<?xml version="1.0" encoding="UTF-8" standalone="no"?>
<!-- Created with Inkscape (http://www.inkscape.org/) -->

<svg
   xmlns:dc="http://purl.org/dc/elements/1.1/"
   xmlns:cc="http://creativecommons.org/ns#"
   xmlns:rdf="http://www.w3.org/1999/02/22-rdf-syntax-ns#"
   xmlns:svg="http://www.w3.org/2000/svg"
   xmlns="http://www.w3.org/2000/svg"
   xmlns:sodipodi="http://sodipodi.sourceforge.net/DTD/sodipodi-0.dtd"
   xmlns:inkscape="http://www.inkscape.org/namespaces/inkscape"
   id="svg2"
   version="1.1"
   inkscape:version="0.91 r13725"
   xml:space="preserve"
   width="254.14099"
   height="229.85057"
   viewBox="0 0 254.14099 229.85057"
   sodipodi:docname="EFT_fit.svg"><metadata
     id="metadata8"><rdf:RDF><cc:Work
         rdf:about=""><dc:format>image/svg+xml</dc:format><dc:type
           rdf:resource="http://purl.org/dc/dcmitype/StillImage" /><dc:title></dc:title></cc:Work></rdf:RDF></metadata><defs
     id="defs6"><clipPath
       clipPathUnits="userSpaceOnUse"
       id="clipPath18"><path
         d="m 1.76563,7.0625 5939.23997,0 0,8404.78 -5939.23997,0 0,-8404.78 z"
         id="path20"
         inkscape:connector-curvature="0" /></clipPath><clipPath
       clipPathUnits="userSpaceOnUse"
       id="clipPath32"><path
         d="m 831.98,5716.33 4278.96,0 0,1855 -4278.96,0 0,-1855 z"
         id="path34"
         inkscape:connector-curvature="0" /></clipPath><clipPath
       clipPathUnits="userSpaceOnUse"
       id="clipPath612"><path
         d="m 0,7.0625 5950,0 0,8405.87 -5950,0 0,-8405.87 z"
         id="path614"
         inkscape:connector-curvature="0" /></clipPath></defs><sodipodi:namedview
     pagecolor="#ffffff"
     bordercolor="#666666"
     borderopacity="1"
     objecttolerance="10"
     gridtolerance="10"
     guidetolerance="10"
     inkscape:pageopacity="0"
     inkscape:pageshadow="2"
     inkscape:window-width="1920"
     inkscape:window-height="1016"
     id="namedview4"
     showgrid="false"
     inkscape:zoom="2.5368505"
     inkscape:cx="129.8536"
     inkscape:cy="113.26741"
     inkscape:window-x="0"
     inkscape:window-y="27"
     inkscape:window-maximized="1"
     inkscape:current-layer="g10"
     fit-margin-top="0.1"
     fit-margin-left="0.1"
     fit-margin-bottom="0.1"
     fit-margin-right="0.1" /><g
     id="g10"
     inkscape:groupmode="layer"
     inkscape:label="couplings"
     transform="matrix(1.25,0,0,-1.25,-210.35577,901.72765)"><text
       style="font-variant:normal;font-weight:normal;font-size:8.5026598px;font-family:HxhynhLMRoman10;-inkscape-font-specification:HxhynhLMRoman10-Regular;writing-mode:lr-tb;fill:#000000;fill-opacity:1;fill-rule:nonzero;stroke:none"
       id="text38"
       x="167.94945"
       y="-551.77228"
       transform="scale(1,-1)"><tspan
         x="167.94945 170.77802 213.66534 216.49391 220.74524 223.10239 268.85501 314.57373 318.82507 321.18222 366.89243"
         y="-551.77228"
         sodipodi:role="line"
         id="tspan40">-1-0.500.51</tspan></text>
<text
       style="font-variant:normal;font-weight:normal;font-size:8.5026598px;font-family:LppfkvLMRoman10;-inkscape-font-specification:LppfkvLMRoman10-Regular2;writing-mode:lr-tb;fill:#000000;fill-opacity:1;fill-rule:nonzero;stroke:none"
       id="text42"
       x="256.69745"
       y="-541.00629"
       transform="scale(1,-1)"><tspan
         x="256.69745"
         y="-541.00629"
         id="tspan44">¯</tspan></text>
<text
       style="font-variant:normal;font-weight:normal;font-size:8.5026598px;font-family:TnjdybLMMathItalic10;-inkscape-font-specification:TnjdybLMMathItalic10-Regular;writing-mode:lr-tb;fill:#000000;fill-opacity:1;fill-rule:nonzero;stroke:none"
       id="text46"
       x="254.467"
       y="-538.85669"
       transform="scale(1,-1)"><tspan
         x="254.467"
         y="-538.85669"
         id="tspan48">C</tspan></text>
<text
       style="font-variant:normal;font-weight:normal;font-size:6.21197987px;font-family:RpmpslLMMathItalic8;-inkscape-font-specification:RpmpslLMMathItalic8-Regular;writing-mode:lr-tb;fill:#000000;fill-opacity:1;fill-rule:nonzero;stroke:none"
       id="text50"
       x="260.54395"
       y="-537.58167"
       transform="scale(1,-1)"><tspan
         x="260.54395"
         y="-537.58167"
         id="tspan52">i</tspan></text>
<text
       style="font-variant:normal;font-weight:normal;font-size:8.5026598px;font-family:LppfkvLMRoman10;-inkscape-font-specification:LppfkvLMRoman10-Regular2;writing-mode:lr-tb;fill:#000000;fill-opacity:1;fill-rule:nonzero;stroke:none"
       id="text54"
       x="265.5408"
       y="-538.85669"
       transform="scale(1,-1)"><tspan
         x="265.5408"
         y="-538.85669"
         id="tspan56">=</tspan></text>
<text
       style="font-variant:normal;font-weight:normal;font-size:8.5026598px;font-family:TnjdybLMMathItalic10;-inkscape-font-specification:TnjdybLMMathItalic10-Regular;writing-mode:lr-tb;fill:#000000;fill-opacity:1;fill-rule:nonzero;stroke:none"
       id="text58"
       x="274.5162"
       y="-538.85669"
       transform="scale(1,-1)"><tspan
         x="274.5162"
         y="-538.85669"
         id="tspan60">C</tspan></text>
<text
       style="font-variant:normal;font-weight:normal;font-size:6.21197987px;font-family:RpmpslLMMathItalic8;-inkscape-font-specification:RpmpslLMMathItalic8-Regular;writing-mode:lr-tb;fill:#000000;fill-opacity:1;fill-rule:nonzero;stroke:none"
       id="text62"
       x="280.59354"
       y="-537.58167"
       transform="scale(1,-1)"><tspan
         x="280.59354"
         y="-537.58167"
         id="tspan64">i</tspan></text>
<text
       style="font-variant:normal;font-weight:normal;font-size:8.5026598px;font-family:TnjdybLMMathItalic10;-inkscape-font-specification:TnjdybLMMathItalic10-Regular;writing-mode:lr-tb;fill:#000000;fill-opacity:1;fill-rule:nonzero;stroke:none"
       id="text66"
       x="283.2287"
       y="-538.85669"
       transform="scale(1,-1)"><tspan
         x="283.2287"
         y="-538.85669"
         id="tspan68">v</tspan></text>
<text
       style="font-variant:normal;font-weight:normal;font-size:6.21197987px;font-family:KmgnnhLMRoman8;-inkscape-font-specification:KmgnnhLMRoman8-Regular;writing-mode:lr-tb;fill:#000000;fill-opacity:1;fill-rule:nonzero;stroke:none"
       id="text70"
       x="287.65488"
       y="-541.9422"
       transform="scale(1,-1)"><tspan
         x="287.65488"
         y="-541.9422"
         id="tspan72">2</tspan></text>
<text
       style="font-variant:normal;font-weight:normal;font-size:8.5026598px;font-family:TnjdybLMMathItalic10;-inkscape-font-specification:TnjdybLMMathItalic10-Regular;writing-mode:lr-tb;fill:#000000;fill-opacity:1;fill-rule:nonzero;stroke:none"
       id="text74"
       x="291.34393"
       y="-538.85669"
       transform="scale(1,-1)"><tspan
         x="291.34393"
         y="-538.85669"
         id="tspan76">/</tspan></text>
<text
       style="font-variant:normal;font-weight:normal;font-size:8.5026598px;font-family:LppfkvLMRoman10;-inkscape-font-specification:LppfkvLMRoman10-Regular2;writing-mode:lr-tb;fill:#000000;fill-opacity:1;fill-rule:nonzero;stroke:none"
       id="text78"
       x="295.5947"
       y="-538.85669"
       transform="scale(1,-1)"><tspan
         x="295.5947"
         y="-538.85669"
         id="tspan80">Λ</tspan></text>
<text
       style="font-variant:normal;font-weight:normal;font-size:6.21197987px;font-family:KmgnnhLMRoman8;-inkscape-font-specification:KmgnnhLMRoman8-Regular;writing-mode:lr-tb;fill:#000000;fill-opacity:1;fill-rule:nonzero;stroke:none"
       id="text82"
       x="301.49939"
       y="-541.9422"
       transform="scale(1,-1)"><tspan
         x="301.49939"
         y="-541.9422"
         id="tspan84">2</tspan></text>
<path
       inkscape:connector-curvature="0"
       id="path134"
       style="fill:none;stroke:#000000;stroke-width:0.0974262;stroke-linecap:butt;stroke-linejoin:miter;stroke-miterlimit:3.79999995;stroke-dasharray:0.389705, 0.77941;stroke-dashoffset:0;stroke-opacity:1"
       d="m 171.49235,562.45826 0,158.64801" /><path
       inkscape:connector-curvature="0"
       id="path136"
       style="fill:none;stroke:#000000;stroke-width:0.389705;stroke-linecap:butt;stroke-linejoin:miter;stroke-miterlimit:3.79999995;stroke-dasharray:none;stroke-opacity:1"
       d="m 171.49235,562.45826 0,2.455 m 0,156.19301 0,-2.455" /><path
       inkscape:connector-curvature="0"
       id="path138"
       style="fill:none;stroke:#808080;stroke-width:0.56;stroke-linecap:butt;stroke-linejoin:miter;stroke-miterlimit:3.79999995;stroke-dasharray:1.12,1.12;stroke-dashoffset:0;stroke-opacity:1"
       d="m 220.51765,562.45826 0,158.64801" /><path
       inkscape:connector-curvature="0"
       id="path140"
       style="fill:none;stroke:#000000;stroke-width:0.389705;stroke-linecap:butt;stroke-linejoin:miter;stroke-miterlimit:3.79999995;stroke-dasharray:none;stroke-opacity:1"
       d="m 220.51765,562.45826 0,2.455 m 0,156.19301 0,-2.455" /><path
       inkscape:connector-curvature="0"
       id="path142"
       style="fill:none;stroke:#808080;stroke-width:0.56;stroke-linecap:butt;stroke-linejoin:miter;stroke-miterlimit:3.79999995;stroke-dasharray:1.12,1.12;stroke-dashoffset:0;stroke-opacity:1"
       d="m 269.58065,562.45826 0,139.04701 m 0,17.146 0,2.455" /><path
       inkscape:connector-curvature="0"
       id="path144"
       style="fill:none;stroke:#000000;stroke-width:0.389705;stroke-linecap:butt;stroke-linejoin:miter;stroke-miterlimit:3.79999995;stroke-dasharray:none;stroke-opacity:1"
       d="m 269.58065,562.45826 0,2.455 m 0,156.19301 0,-2.455" /><path
       inkscape:connector-curvature="0"
       id="path146"
       style="fill:#808080;stroke:#808080;stroke-width:0.56;stroke-linecap:butt;stroke-linejoin:miter;stroke-miterlimit:3.79999995;stroke-dasharray:1.12,1.12;stroke-dashoffset:0;stroke-opacity:1"
       d="m 318.60565,562.45826 0,139.04701 m 0,17.146 0,2.455" /><path
       inkscape:connector-curvature="0"
       id="path148"
       style="fill:none;stroke:#000000;stroke-width:0.389705;stroke-linecap:butt;stroke-linejoin:miter;stroke-miterlimit:3.79999995;stroke-dasharray:none;stroke-opacity:1"
       d="m 318.60565,562.45826 0,2.455 m 0,156.19301 0,-2.455" /><path
       inkscape:connector-curvature="0"
       id="path150"
       style="fill:none;stroke:#000000;stroke-width:0.0974262;stroke-linecap:butt;stroke-linejoin:miter;stroke-miterlimit:3.79999995;stroke-dasharray:0.389705, 0.77941;stroke-dashoffset:0;stroke-opacity:1"
       d="m 367.63065,562.45826 0,158.64801" /><path
       inkscape:connector-curvature="0"
       id="path152"
       style="fill:none;stroke:#000000;stroke-width:0.389705;stroke-linecap:butt;stroke-linejoin:miter;stroke-miterlimit:3.79999995;stroke-dasharray:none;stroke-opacity:1"
       d="m 367.63065,562.45826 0,2.455 m 0,156.19301 0,-2.455" /><path
       inkscape:connector-curvature="0"
       id="path154"
       style="fill:none;stroke:#000000;stroke-width:0.389705;stroke-linecap:butt;stroke-linejoin:miter;stroke-miterlimit:3.79999995;stroke-dasharray:none;stroke-opacity:1"
       d="m 171.49235,562.45826 196.13901,0 0,158.64901 -196.13901,0 0,-158.64901 z" /><path
       inkscape:connector-curvature="0"
       id="path156"
       style="fill:none;stroke:#ff0000;stroke-width:0.584557;stroke-linecap:butt;stroke-linejoin:miter;stroke-miterlimit:3.79999995;stroke-dasharray:none;stroke-opacity:1"
       d="m 267.78865,705.24627 4.442,0 m -4.442,-1.209 0,2.417 m 4.442,-2.417 0,2.417" /><path
       inkscape:connector-curvature="0"
       id="path158"
       style="fill:#ff0000;fill-opacity:1;fill-rule:nonzero;stroke:none"
       d="m 271.39365,705.24627 c 0,0.678 -0.55,1.227 -1.228,1.227 -0.678,0 -1.228,-0.549 -1.228,-1.227 0,-0.679 0.55,-1.228 1.228,-1.228 0.678,0 1.228,0.549 1.228,1.228" /><path
       inkscape:connector-curvature="0"
       id="path160"
       style="fill:none;stroke:#ff0000;stroke-width:0.584557;stroke-linecap:butt;stroke-linejoin:miter;stroke-miterlimit:3.79999995;stroke-dasharray:none;stroke-opacity:1"
       d="m 267.78865,689.38527 5.612,0 m -5.612,-1.209 0,2.417 m 5.612,-2.417 0,2.417" /><path
       inkscape:connector-curvature="0"
       id="path162"
       style="fill:#ff0000;fill-opacity:1;fill-rule:nonzero;stroke:none"
       d="m 271.97765,689.38527 c 0,0.678 -0.549,1.227 -1.227,1.227 -0.679,0 -1.228,-0.549 -1.228,-1.227 0,-0.679 0.549,-1.228 1.228,-1.228 0.678,0 1.227,0.549 1.227,1.228" /><path
       inkscape:connector-curvature="0"
       id="path164"
       style="fill:none;stroke:#ff0000;stroke-width:0.584557;stroke-linecap:butt;stroke-linejoin:miter;stroke-miterlimit:3.79999995;stroke-dasharray:none;stroke-opacity:1"
       d="m 259.48765,673.52427 11.847,0 m -11.847,-1.209 0,2.417 m 11.847,-2.417 0,2.417" /><path
       inkscape:connector-curvature="0"
       id="path166"
       style="fill:#ff0000;fill-opacity:1;fill-rule:nonzero;stroke:none"
       d="m 267.22365,673.52427 c 0,0.678 -0.55,1.227 -1.228,1.227 -0.678,0 -1.227,-0.549 -1.227,-1.227 0,-0.678 0.549,-1.228 1.227,-1.228 0.678,0 1.228,0.55 1.228,1.228" /><path
       inkscape:connector-curvature="0"
       id="path168"
       style="fill:none;stroke:#ff0000;stroke-width:0.584557;stroke-linecap:butt;stroke-linejoin:miter;stroke-miterlimit:3.79999995;stroke-dasharray:none;stroke-opacity:1"
       d="m 252.35565,657.66327 20.772,0 m -20.772,-1.208 0,2.416 m 20.772,-2.416 0,2.416" /><path
       inkscape:connector-curvature="0"
       id="path170"
       style="fill:#ff0000;fill-opacity:1;fill-rule:nonzero;stroke:none"
       d="m 264.26165,657.66327 c 0,0.678 -0.549,1.227 -1.227,1.227 -0.679,0 -1.228,-0.549 -1.228,-1.227 0,-0.678 0.549,-1.228 1.228,-1.228 0.678,0 1.227,0.55 1.227,1.228" /><path
       inkscape:connector-curvature="0"
       id="path172"
       style="fill:none;stroke:#ff0000;stroke-width:0.584557;stroke-linecap:butt;stroke-linejoin:miter;stroke-miterlimit:3.79999995;stroke-dasharray:none;stroke-opacity:1"
       d="m 263.03465,641.80227 7.716,0 m -7.716,-1.20801 0,2.41601 m 7.716,-2.41601 0,2.41601" /><path
       inkscape:connector-curvature="0"
       id="path174"
       style="fill:#ff0000;fill-opacity:1;fill-rule:nonzero;stroke:none"
       d="m 268.43165,641.80227 c 0,0.678 -0.549,1.227 -1.228,1.227 -0.678,0 -1.227,-0.549 -1.227,-1.227 0,-0.67801 0.549,-1.22801 1.227,-1.22801 0.679,0 1.228,0.55 1.228,1.22801" /><path
       inkscape:connector-curvature="0"
       id="path176"
       style="fill:none;stroke:#ff0000;stroke-width:0.584557;stroke-linecap:butt;stroke-linejoin:miter;stroke-miterlimit:3.79999995;stroke-dasharray:none;stroke-opacity:1"
       d="m 334.31065,714.36527 23.032,0 m -23.032,1.208 0,-2.417 m 23.032,2.417 0,-2.417 m -98.478,-87.25401 19.017,0 m -19.017,-1.208 0,2.416 m 19.017,-2.416 0,2.416" /><path
       inkscape:connector-curvature="0"
       id="path178"
       style="fill:#ff0000;fill-opacity:1;fill-rule:nonzero;stroke:none"
       d="m 270.18565,625.90226 c 0,0.678 -0.55,1.227 -1.228,1.227 -0.678,0 -1.228,-0.549 -1.228,-1.227 0,-0.678 0.55,-1.228 1.228,-1.228 0.678,0 1.228,0.55 1.228,1.228" /><path
       inkscape:connector-curvature="0"
       id="path180"
       style="fill:#ff0000;fill-opacity:1;fill-rule:nonzero;stroke:none"
       d="m 347.03465,714.36527 c 0,0.678 -0.549,1.227 -1.227,1.227 -0.678,0 -1.228,-0.549 -1.228,-1.227 0,-0.678 0.55,-1.228 1.228,-1.228 0.678,0 1.227,0.55 1.227,1.228" /><path
       inkscape:connector-curvature="0"
       id="path182"
       style="fill:none;stroke:#ff0000;stroke-width:0.584557;stroke-linecap:butt;stroke-linejoin:miter;stroke-miterlimit:3.79999995;stroke-dasharray:none;stroke-opacity:1"
       d="m 254.73365,610.04126 29.656,0 m -29.656,-1.208 0,2.416 m 29.656,-2.416 0,2.416" /><path
       inkscape:connector-curvature="0"
       id="path184"
       style="fill:#ff0000;fill-opacity:1;fill-rule:nonzero;stroke:none"
       d="m 276.14765,610.04126 c 0,0.677 -0.549,1.227 -1.228,1.227 -0.678,0 -1.227,-0.55 -1.227,-1.227 0,-0.678 0.549,-1.228 1.227,-1.228 0.679,0 1.228,0.55 1.228,1.228" /><path
       inkscape:connector-curvature="0"
       id="path186"
       style="fill:none;stroke:#ff0000;stroke-width:0.584557;stroke-linecap:butt;stroke-linejoin:miter;stroke-miterlimit:3.79999995;stroke-dasharray:none;stroke-opacity:1"
       d="m 267.20365,594.18026 5.924,0 m -5.924,-1.208 0,2.416 m 5.924,-2.416 0,2.416" /><path
       inkscape:connector-curvature="0"
       id="path188"
       style="fill:#ff0000;fill-opacity:1;fill-rule:nonzero;stroke:none"
       d="m 270.80865,594.18026 c 0,0.677 -0.549,1.227 -1.228,1.227 -0.678,0 -1.227,-0.55 -1.227,-1.227 0,-0.678 0.549,-1.228 1.227,-1.228 0.679,0 1.228,0.55 1.228,1.228" /><path
       inkscape:connector-curvature="0"
       id="path190"
       style="fill:none;stroke:#ff0000;stroke-width:0.584557;stroke-linecap:butt;stroke-linejoin:miter;stroke-miterlimit:3.79999995;stroke-dasharray:none;stroke-opacity:1"
       d="m 254.14865,578.31926 24.318,0 m -24.318,-1.208 0,2.416 m 24.318,-2.416 0,2.416" /><path
       inkscape:connector-curvature="0"
       id="path192"
       style="fill:#ff0000;fill-opacity:1;fill-rule:nonzero;stroke:none"
       d="m 267.80765,578.31926 c 0,0.677 -0.549,1.227 -1.227,1.227 -0.678,0 -1.228,-0.55 -1.228,-1.227 0,-0.678 0.55,-1.228 1.228,-1.228 0.678,0 1.227,0.55 1.227,1.228" /><path
       inkscape:connector-curvature="0"
       id="path194"
       style="fill:none;stroke:#0000ff;stroke-width:0.584557;stroke-linecap:butt;stroke-linejoin:miter;stroke-miterlimit:3.79999995;stroke-dasharray:none;stroke-opacity:1"
       d="m 260.07265,701.27127 17.809,0 m -17.809,-1.209 0,2.417 m 17.809,-2.417 0,2.417" /><path
       inkscape:connector-curvature="0"
       id="path196"
       style="fill:#0000ff;fill-opacity:1;fill-rule:nonzero;stroke:none"
       d="m 271.97765,701.27127 c 0,0.678 -0.549,1.227 -1.227,1.227 -0.679,0 -1.228,-0.549 -1.228,-1.227 0,-0.679 0.549,-1.228 1.228,-1.228 0.678,0 1.227,0.549 1.227,1.228" /><path
       inkscape:connector-curvature="0"
       id="path198"
       style="fill:none;stroke:#0000ff;stroke-width:0.584557;stroke-linecap:butt;stroke-linejoin:miter;stroke-miterlimit:3.79999995;stroke-dasharray:none;stroke-opacity:1"
       d="m 261.86465,685.41027 14.809,0 m -14.809,-1.209 0,2.417 m 14.809,-2.417 0,2.417" /><path
       inkscape:connector-curvature="0"
       id="path200"
       style="fill:#0000ff;fill-opacity:1;fill-rule:nonzero;stroke:none"
       d="m 269.60065,685.41027 c 0,0.678 -0.55,1.227 -1.227,1.227 -0.679,0 -1.228,-0.549 -1.228,-1.227 0,-0.679 0.549,-1.228 1.228,-1.228 0.677,0 1.227,0.549 1.227,1.228" /><path
       inkscape:connector-curvature="0"
       id="path202"
       style="fill:none;stroke:#0000ff;stroke-width:0.584557;stroke-linecap:butt;stroke-linejoin:miter;stroke-miterlimit:3.79999995;stroke-dasharray:none;stroke-opacity:1"
       d="m 246.12065,669.54927 41.855,0 m -41.855,-1.209 0,2.417 m 41.855,-2.417 0,2.417" /><path
       inkscape:connector-curvature="0"
       id="path204"
       style="fill:#0000ff;fill-opacity:1;fill-rule:nonzero;stroke:none"
       d="m 273.77065,669.54927 c 0,0.678 -0.55,1.227 -1.228,1.227 -0.678,0 -1.227,-0.549 -1.227,-1.227 0,-0.678 0.549,-1.228 1.227,-1.228 0.678,0 1.228,0.55 1.228,1.228" /><path
       inkscape:connector-curvature="0"
       id="path206"
       style="fill:none;stroke:#0000ff;stroke-width:0.584557;stroke-linecap:butt;stroke-linejoin:miter;stroke-miterlimit:3.79999995;stroke-dasharray:none;stroke-opacity:1"
       d="m 227.99965,653.68827 68.276,0 m -68.276,-1.208 0,2.416 m 68.276,-2.416 0,2.416" /><path
       inkscape:connector-curvature="0"
       id="path208"
       style="fill:#0000ff;fill-opacity:1;fill-rule:nonzero;stroke:none"
       d="m 264.84665,653.68827 c 0,0.678 -0.55,1.227 -1.228,1.227 -0.678,0 -1.227,-0.549 -1.227,-1.227 0,-0.678 0.549,-1.228 1.227,-1.228 0.678,0 1.228,0.55 1.228,1.228" /><path
       inkscape:connector-curvature="0"
       id="path210"
       style="fill:none;stroke:#0000ff;stroke-width:0.584557;stroke-linecap:butt;stroke-linejoin:miter;stroke-miterlimit:3.79999995;stroke-dasharray:none;stroke-opacity:1"
       d="m 255.90265,637.82726 28.487,0 m -28.487,-1.208 0,2.416 m 28.487,-2.416 0,2.416" /><path
       inkscape:connector-curvature="0"
       id="path212"
       style="fill:#0000ff;fill-opacity:1;fill-rule:nonzero;stroke:none"
       d="m 274.35465,637.82726 c 0,0.678 -0.549,1.227 -1.227,1.227 -0.678,0 -1.228,-0.549 -1.228,-1.227 0,-0.678 0.55,-1.228 1.228,-1.228 0.678,0 1.227,0.55 1.227,1.228" /><path
       inkscape:connector-curvature="0"
       id="path214"
       style="fill:none;stroke:#0000ff;stroke-width:0.584557;stroke-linecap:butt;stroke-linejoin:miter;stroke-miterlimit:3.79999995;stroke-dasharray:none;stroke-opacity:1"
       d="m 334.31065,705.79127 23.032,0 m -23.032,1.208 0,-2.416 m 23.032,2.416 0,-2.416 m -137.644,-82.61801 102.103,0 m -102.103,-1.207 0,2.416 m 102.103,-2.416 0,2.416" /><path
       inkscape:connector-curvature="0"
       id="path216"
       style="fill:#0000ff;fill-opacity:1;fill-rule:nonzero;stroke:none"
       d="m 260.09165,621.96526 c 0,0.679 -0.549,1.228 -1.227,1.228 -0.679,0 -1.228,-0.549 -1.228,-1.228 0,-0.677 0.549,-1.227 1.228,-1.227 0.678,0 1.227,0.55 1.227,1.227" /><path
       inkscape:connector-curvature="0"
       id="path218"
       style="fill:#0000ff;fill-opacity:1;fill-rule:nonzero;stroke:none"
       d="m 347.03465,705.79127 c 0,0.678 -0.549,1.228 -1.227,1.228 -0.678,0 -1.228,-0.55 -1.228,-1.228 0,-0.678 0.55,-1.228 1.228,-1.228 0.678,0 1.227,0.55 1.227,1.228" /><path
       inkscape:connector-curvature="0"
       id="path220"
       style="fill:none;stroke:#0000ff;stroke-width:0.584557;stroke-linecap:butt;stroke-linejoin:miter;stroke-miterlimit:3.79999995;stroke-dasharray:none;stroke-opacity:1"
       d="m 245.80965,606.10526 43.919,0 m -43.919,-1.208 0,2.416 m 43.919,-2.416 0,2.416" /><path
       inkscape:connector-curvature="0"
       id="path222"
       style="fill:#0000ff;fill-opacity:1;fill-rule:nonzero;stroke:none"
       d="m 280.27865,606.10526 c 0,0.677 -0.55,1.227 -1.228,1.227 -0.678,0 -1.227,-0.55 -1.227,-1.227 0,-0.678 0.549,-1.228 1.227,-1.228 0.678,0 1.228,0.55 1.228,1.228" /><path
       inkscape:connector-curvature="0"
       id="path224"
       style="fill:none;stroke:#0000ff;stroke-width:0.584557;stroke-linecap:butt;stroke-linejoin:miter;stroke-miterlimit:3.79999995;stroke-dasharray:none;stroke-opacity:1"
       d="m 265.99565,590.20526 10.678,0 m -10.678,-1.208 0,2.416 m 10.678,-2.416 0,2.416" /><path
       inkscape:connector-curvature="0"
       id="path226"
       style="fill:#0000ff;fill-opacity:1;fill-rule:nonzero;stroke:none"
       d="m 271.97765,590.20526 c 0,0.677 -0.549,1.227 -1.227,1.227 -0.679,0 -1.228,-0.55 -1.228,-1.227 0,-0.678 0.549,-1.228 1.228,-1.228 0.678,0 1.227,0.55 1.227,1.228" /><path
       inkscape:connector-curvature="0"
       id="path228"
       style="fill:none;stroke:#0000ff;stroke-width:0.584557;stroke-linecap:butt;stroke-linejoin:miter;stroke-miterlimit:3.79999995;stroke-dasharray:none;stroke-opacity:1"
       d="m 244.63965,574.34426 36.789,0 m -36.789,-1.208 0,2.416 m 36.789,-2.416 0,2.416" /><path
       inkscape:connector-curvature="0"
       id="path230"
       style="fill:#0000ff;fill-opacity:1;fill-rule:nonzero;stroke:none"
       d="m 263.67665,574.34426 c 0,0.677 -0.549,1.227 -1.227,1.227 -0.678,0 -1.228,-0.55 -1.228,-1.227 0,-0.678 0.55,-1.228 1.228,-1.228 0.678,0 1.227,0.55 1.227,1.228" /><path
       inkscape:connector-curvature="0"
       id="path232"
       style="fill:none;stroke:#000000;stroke-width:0.389705;stroke-linecap:butt;stroke-linejoin:miter;stroke-miterlimit:3.79999995;stroke-dasharray:none;stroke-opacity:1"
       d="m 171.49235,562.45826 196.13901,0 0,158.64901 -196.13901,0 0,-158.64901 z" /><text
       style="font-variant:normal;font-weight:normal;font-size:8.5026598px;font-family:HxhynhLMRoman10;-inkscape-font-specification:HxhynhLMRoman10-Regular;writing-mode:lr-tb;fill:#000000;fill-opacity:1;fill-rule:nonzero;stroke:none"
       id="text324"
       x="292.08167"
       y="-712.24829"
       transform="scale(1,-1)"><tspan
         x="292.08167 294.43881 299.16156 303.88434 306.24149 310.72427 313.08142 317.80417 322.52695 326.77829"
         y="-712.24829"
         sodipodi:role="line"
         id="tspan326">individual</tspan><tspan
         x="281.90274 288.98264 293.23398 296.56137 300.81271 303.16986 307.89264 312.14395 314.50107 316.85822 320.62964 324.40106"
         y="-703.6756"
         sodipodi:role="line"
         id="tspan328">marginalized</tspan></text>
<text
       style="font-variant:normal;font-weight:normal;font-size:8.5026598px;font-family:LppfkvLMRoman10;-inkscape-font-specification:LppfkvLMRoman10-Regular2;writing-mode:lr-tb;fill:#000000;fill-opacity:1;fill-rule:nonzero;stroke:none"
       id="text330"
       x="193.01956"
       y="-705.22327"
       transform="scale(1,-1)"><tspan
         x="193.01956"
         y="-705.22327"
         id="tspan332">¯</tspan></text>
<text
       style="font-variant:normal;font-weight:normal;font-size:8.5026598px;font-family:TnjdybLMMathItalic10;-inkscape-font-specification:TnjdybLMMathItalic10-Regular;writing-mode:lr-tb;fill:#000000;fill-opacity:1;fill-rule:nonzero;stroke:none"
       id="text334"
       x="191.09378"
       y="-703.07367"
       transform="scale(1,-1)"><tspan
         x="191.09378"
         y="-703.07367"
         id="tspan336">C</tspan></text>
<text
       style="font-variant:normal;font-weight:normal;font-size:6.21197987px;font-family:RpmpslLMMathItalic8;-inkscape-font-specification:RpmpslLMMathItalic8-Regular;writing-mode:lr-tb;fill:#000000;fill-opacity:1;fill-rule:nonzero;stroke:none"
       id="text338"
       x="197.17073"
       y="-701.75806"
       transform="scale(1,-1)"><tspan
         x="197.17073"
         y="-701.75806"
         id="tspan340">G</tspan></text>
<text
       style="font-variant:normal;font-weight:normal;font-size:8.5026598px;font-family:LppfkvLMRoman10;-inkscape-font-specification:LppfkvLMRoman10-Regular2;writing-mode:lr-tb;fill:#000000;fill-opacity:1;fill-rule:nonzero;stroke:none"
       id="text342"
       x="193.01956"
       y="-689.3623"
       transform="scale(1,-1)"><tspan
         x="193.01956"
         y="-689.3623"
         id="tspan344">¯</tspan></text>
<text
       style="font-variant:normal;font-weight:normal;font-size:8.5026598px;font-family:TnjdybLMMathItalic10;-inkscape-font-specification:TnjdybLMMathItalic10-Regular;writing-mode:lr-tb;fill:#000000;fill-opacity:1;fill-rule:nonzero;stroke:none"
       id="text346"
       x="191.09378"
       y="-687.2135"
       transform="scale(1,-1)"><tspan
         x="191.09378"
         y="-687.2135"
         id="tspan348">C</tspan></text>
<text
       style="font-variant:normal;font-weight:normal;font-size:6.21197987px;font-family:KmgnnhLMRoman8;-inkscape-font-specification:KmgnnhLMRoman8-Regular;writing-mode:lr-tb;fill:#000000;fill-opacity:1;fill-rule:nonzero;stroke:none"
       id="text350"
       x="197.77855"
       y="-690.29944"
       transform="scale(1,-1)"><tspan
         x="197.77855 201.07556"
         y="-690.29944"
         sodipodi:role="line"
         id="tspan352">33</tspan></text>
<text
       style="font-variant:normal;font-weight:normal;font-size:6.21197987px;font-family:RpmpslLMMathItalic8;-inkscape-font-specification:RpmpslLMMathItalic8-Regular;writing-mode:lr-tb;fill:#000000;fill-opacity:1;fill-rule:nonzero;stroke:none"
       id="text354"
       x="197.17073"
       y="-684.81152"
       transform="scale(1,-1)"><tspan
         x="197.17073 200.99005"
         y="-684.81152"
         sodipodi:role="line"
         id="tspan356">uG</tspan></text>
<text
       style="font-variant:normal;font-weight:normal;font-size:8.5026598px;font-family:LppfkvLMRoman10;-inkscape-font-specification:LppfkvLMRoman10-Regular2;writing-mode:lr-tb;fill:#000000;fill-opacity:1;fill-rule:nonzero;stroke:none"
       id="text358"
       x="193.01956"
       y="-673.50214"
       transform="scale(1,-1)"><tspan
         x="193.01956"
         y="-673.50214"
         id="tspan360">¯</tspan></text>
<text
       style="font-variant:normal;font-weight:normal;font-size:8.5026598px;font-family:TnjdybLMMathItalic10;-inkscape-font-specification:TnjdybLMMathItalic10-Regular;writing-mode:lr-tb;fill:#000000;fill-opacity:1;fill-rule:nonzero;stroke:none"
       id="text362"
       x="191.09378"
       y="-671.35254"
       transform="scale(1,-1)"><tspan
         x="191.09378"
         y="-671.35254"
         id="tspan364">C</tspan></text>
<text
       style="font-variant:normal;font-weight:normal;font-size:6.21197987px;font-family:KmgnnhLMRoman8;-inkscape-font-specification:KmgnnhLMRoman8-Regular;writing-mode:lr-tb;fill:#000000;fill-opacity:1;fill-rule:nonzero;stroke:none"
       id="text366"
       x="197.77855"
       y="-674.43811"
       transform="scale(1,-1)"><tspan
         x="197.77855"
         y="-674.43811"
         id="tspan368">1</tspan></text>
<text
       style="font-variant:normal;font-weight:normal;font-size:6.21197987px;font-family:RpmpslLMMathItalic8;-inkscape-font-specification:RpmpslLMMathItalic8-Regular;writing-mode:lr-tb;fill:#000000;fill-opacity:1;fill-rule:nonzero;stroke:none"
       id="text370"
       x="197.17073"
       y="-669.25061"
       transform="scale(1,-1)"><tspan
         x="197.17073"
         y="-669.25061"
         id="tspan372">u</tspan></text>
<text
       style="font-variant:normal;font-weight:normal;font-size:8.5026598px;font-family:LppfkvLMRoman10;-inkscape-font-specification:LppfkvLMRoman10-Regular2;writing-mode:lr-tb;fill:#000000;fill-opacity:1;fill-rule:nonzero;stroke:none"
       id="text374"
       x="193.01956"
       y="-657.64197"
       transform="scale(1,-1)"><tspan
         x="193.01956"
         y="-657.64197"
         id="tspan376">¯</tspan></text>
<text
       style="font-variant:normal;font-weight:normal;font-size:8.5026598px;font-family:TnjdybLMMathItalic10;-inkscape-font-specification:TnjdybLMMathItalic10-Regular;writing-mode:lr-tb;fill:#000000;fill-opacity:1;fill-rule:nonzero;stroke:none"
       id="text378"
       x="191.09378"
       y="-655.49237"
       transform="scale(1,-1)"><tspan
         x="191.09378"
         y="-655.49237"
         id="tspan380">C</tspan></text>
<text
       style="font-variant:normal;font-weight:normal;font-size:6.21197987px;font-family:KmgnnhLMRoman8;-inkscape-font-specification:KmgnnhLMRoman8-Regular;writing-mode:lr-tb;fill:#000000;fill-opacity:1;fill-rule:nonzero;stroke:none"
       id="text382"
       x="197.77855"
       y="-658.57794"
       transform="scale(1,-1)"><tspan
         x="197.77855"
         y="-658.57794"
         id="tspan384">2</tspan></text>
<text
       style="font-variant:normal;font-weight:normal;font-size:6.21197987px;font-family:RpmpslLMMathItalic8;-inkscape-font-specification:RpmpslLMMathItalic8-Regular;writing-mode:lr-tb;fill:#000000;fill-opacity:1;fill-rule:nonzero;stroke:none"
       id="text386"
       x="197.17075"
       y="-653.39044"
       transform="scale(1,-1)"><tspan
         x="197.17075"
         y="-653.39044"
         id="tspan388">u</tspan></text>
<text
       style="font-variant:normal;font-weight:normal;font-size:8.5026598px;font-family:LppfkvLMRoman10;-inkscape-font-specification:LppfkvLMRoman10-Regular2;writing-mode:lr-tb;fill:#000000;fill-opacity:1;fill-rule:nonzero;stroke:none"
       id="text390"
       x="193.01958"
       y="-641.78101"
       transform="scale(1,-1)"><tspan
         x="193.01958"
         y="-641.78101"
         id="tspan392">¯</tspan></text>
<text
       style="font-variant:normal;font-weight:normal;font-size:8.5026598px;font-family:TnjdybLMMathItalic10;-inkscape-font-specification:TnjdybLMMathItalic10-Regular;writing-mode:lr-tb;fill:#000000;fill-opacity:1;fill-rule:nonzero;stroke:none"
       id="text394"
       x="191.0938"
       y="-639.63141"
       transform="scale(1,-1)"><tspan
         x="191.0938"
         y="-639.63141"
         id="tspan396">C</tspan></text>
<text
       style="font-variant:normal;font-weight:normal;font-size:6.21197987px;font-family:KmgnnhLMRoman8;-inkscape-font-specification:KmgnnhLMRoman8-Regular;writing-mode:lr-tb;fill:#000000;fill-opacity:1;fill-rule:nonzero;stroke:none"
       id="text398"
       x="197.77856"
       y="-642.71698"
       transform="scale(1,-1)"><tspan
         x="197.77856"
         y="-642.71698"
         id="tspan400">1</tspan></text>
<text
       style="font-variant:normal;font-weight:normal;font-size:6.21197987px;font-family:RpmpslLMMathItalic8;-inkscape-font-specification:RpmpslLMMathItalic8-Regular;writing-mode:lr-tb;fill:#000000;fill-opacity:1;fill-rule:nonzero;stroke:none"
       id="text402"
       x="197.17076"
       y="-637.1615"
       transform="scale(1,-1)"><tspan
         x="197.17076"
         y="-637.1615"
         id="tspan404">d</tspan></text>
<text
       style="font-variant:normal;font-weight:normal;font-size:8.5026598px;font-family:LppfkvLMRoman10;-inkscape-font-specification:LppfkvLMRoman10-Regular2;writing-mode:lr-tb;fill:#000000;fill-opacity:1;fill-rule:nonzero;stroke:none"
       id="text406"
       x="193.0188"
       y="-625.88177"
       transform="scale(1,-1)"><tspan
         x="193.0188"
         y="-625.88177"
         id="tspan408">¯</tspan></text>
<text
       style="font-variant:normal;font-weight:normal;font-size:8.5026598px;font-family:TnjdybLMMathItalic10;-inkscape-font-specification:TnjdybLMMathItalic10-Regular;writing-mode:lr-tb;fill:#000000;fill-opacity:1;fill-rule:nonzero;stroke:none"
       id="text410"
       x="191.09381"
       y="-623.73218"
       transform="scale(1,-1)"><tspan
         x="191.09381"
         y="-623.73218"
         id="tspan412">C</tspan></text>
<text
       style="font-variant:normal;font-weight:normal;font-size:6.21197987px;font-family:KmgnnhLMRoman8;-inkscape-font-specification:KmgnnhLMRoman8-Regular;writing-mode:lr-tb;fill:#000000;fill-opacity:1;fill-rule:nonzero;stroke:none"
       id="text414"
       x="197.77858"
       y="-626.81775"
       transform="scale(1,-1)"><tspan
         x="197.77858"
         y="-626.81775"
         id="tspan416">2</tspan></text>
<text
       style="font-variant:normal;font-weight:normal;font-size:6.21197987px;font-family:RpmpslLMMathItalic8;-inkscape-font-specification:RpmpslLMMathItalic8-Regular;writing-mode:lr-tb;fill:#000000;fill-opacity:1;fill-rule:nonzero;stroke:none"
       id="text418"
       x="197.17076"
       y="-621.26147"
       transform="scale(1,-1)"><tspan
         x="197.17076"
         y="-621.26147"
         id="tspan420">d</tspan></text>
<text
       style="font-variant:normal;font-weight:normal;font-size:8.5026598px;font-family:LppfkvLMRoman10;-inkscape-font-specification:LppfkvLMRoman10-Regular2;writing-mode:lr-tb;fill:#000000;fill-opacity:1;fill-rule:nonzero;stroke:none"
       id="text422"
       x="193.01881"
       y="-610.02087"
       transform="scale(1,-1)"><tspan
         x="193.01881"
         y="-610.02087"
         id="tspan424">¯</tspan></text>
<text
       style="font-variant:normal;font-weight:normal;font-size:8.5026598px;font-family:TnjdybLMMathItalic10;-inkscape-font-specification:TnjdybLMMathItalic10-Regular;writing-mode:lr-tb;fill:#000000;fill-opacity:1;fill-rule:nonzero;stroke:none"
       id="text426"
       x="191.09381"
       y="-607.87207"
       transform="scale(1,-1)"><tspan
         x="191.09381"
         y="-607.87207"
         id="tspan428">C</tspan></text>
<text
       style="font-variant:normal;font-weight:normal;font-size:6.21197987px;font-family:KmgnnhLMRoman8;-inkscape-font-specification:KmgnnhLMRoman8-Regular;writing-mode:lr-tb;fill:#000000;fill-opacity:1;fill-rule:nonzero;stroke:none"
       id="text430"
       x="197.77858"
       y="-610.95685"
       transform="scale(1,-1)"><tspan
         x="197.77858 201.07559"
         y="-610.95685"
         sodipodi:role="line"
         id="tspan432">33</tspan></text>
<text
       style="font-variant:normal;font-weight:normal;font-size:6.21197987px;font-family:RpmpslLMMathItalic8;-inkscape-font-specification:RpmpslLMMathItalic8-Regular;writing-mode:lr-tb;fill:#000000;fill-opacity:1;fill-rule:nonzero;stroke:none"
       id="text434"
       x="197.17076"
       y="-605.46973"
       transform="scale(1,-1)"><tspan
         x="197.17076 200.99008"
         y="-605.46973"
         sodipodi:role="line"
         id="tspan436">uW</tspan></text>
<text
       style="font-variant:normal;font-weight:normal;font-size:8.5026598px;font-family:LppfkvLMRoman10;-inkscape-font-specification:LppfkvLMRoman10-Regular2;writing-mode:lr-tb;fill:#000000;fill-opacity:1;fill-rule:nonzero;stroke:none"
       id="text438"
       x="193.01881"
       y="-594.16071"
       transform="scale(1,-1)"><tspan
         x="193.01881"
         y="-594.16071"
         id="tspan440">¯</tspan></text>
<text
       style="font-variant:normal;font-weight:normal;font-size:8.5026598px;font-family:TnjdybLMMathItalic10;-inkscape-font-specification:TnjdybLMMathItalic10-Regular;writing-mode:lr-tb;fill:#000000;fill-opacity:1;fill-rule:nonzero;stroke:none"
       id="text442"
       x="191.09381"
       y="-592.01111"
       transform="scale(1,-1)"><tspan
         x="191.09381"
         y="-592.01111"
         id="tspan444">C</tspan></text>
<text
       style="font-variant:normal;font-weight:normal;font-size:6.21197987px;font-family:RpmpslLMMathItalic8;-inkscape-font-specification:RpmpslLMMathItalic8-Regular;writing-mode:lr-tb;fill:#000000;fill-opacity:1;fill-rule:nonzero;stroke:none"
       id="text446"
       x="197.17076"
       y="-590.73572"
       transform="scale(1,-1)"><tspan
         x="197.17076"
         y="-590.73572"
         id="tspan448">t</tspan></text>
<text
       style="font-variant:normal;font-weight:normal;font-size:8.5026598px;font-family:LppfkvLMRoman10;-inkscape-font-specification:LppfkvLMRoman10-Regular2;writing-mode:lr-tb;fill:#000000;fill-opacity:1;fill-rule:nonzero;stroke:none"
       id="text450"
       x="193.01881"
       y="-578.55524"
       transform="scale(1,-1)"><tspan
         x="193.01881"
         y="-578.55524"
         id="tspan452">¯</tspan></text>
<text
       style="font-variant:normal;font-weight:normal;font-size:8.5026598px;font-family:TnjdybLMMathItalic10;-inkscape-font-specification:TnjdybLMMathItalic10-Regular;writing-mode:lr-tb;fill:#000000;fill-opacity:1;fill-rule:nonzero;stroke:none"
       id="text454"
       x="191.09381"
       y="-576.40564"
       transform="scale(1,-1)"><tspan
         x="191.09381"
         y="-576.40564"
         id="tspan456">C</tspan></text>
<text
       style="font-variant:normal;font-weight:normal;font-size:6.21197987px;font-family:KmgnnhLMRoman8;-inkscape-font-specification:KmgnnhLMRoman8-Regular;writing-mode:lr-tb;fill:#000000;fill-opacity:1;fill-rule:nonzero;stroke:none"
       id="text458"
       x="197.77858"
       y="-579.49115"
       transform="scale(1,-1)"><tspan
         x="197.77858"
         y="-579.49115"
         id="tspan460">3</tspan></text>
<text
       style="font-variant:normal;font-weight:normal;font-size:6.21197987px;font-family:RpmpslLMMathItalic8;-inkscape-font-specification:RpmpslLMMathItalic8-Regular;writing-mode:lr-tb;fill:#000000;fill-opacity:1;fill-rule:nonzero;stroke:none"
       id="text462"
       x="197.17078"
       y="-573.93494"
       transform="scale(1,-1)"><tspan
         x="197.17078 201.09297"
         y="-573.93494"
         sodipodi:role="line"
         id="tspan464">φq</tspan></text>
</g></svg>