<?xml version="1.0" encoding="UTF-8" standalone="no"?>
<!-- Created with Inkscape (http://www.inkscape.org/) -->

<svg
   xmlns:dc="http://purl.org/dc/elements/1.1/"
   xmlns:cc="http://creativecommons.org/ns#"
   xmlns:rdf="http://www.w3.org/1999/02/22-rdf-syntax-ns#"
   xmlns:svg="http://www.w3.org/2000/svg"
   xmlns="http://www.w3.org/2000/svg"
   xmlns:sodipodi="http://sodipodi.sourceforge.net/DTD/sodipodi-0.dtd"
   xmlns:inkscape="http://www.inkscape.org/namespaces/inkscape"
   width="42.588985mm"
   height="40.223927mm"
   viewBox="0 0 150.90585 142.52572"
   id="svg8051"
   version="1.1"
   inkscape:version="0.91 r13725"
   sodipodi:docname="flavorscheme.svg">
  <defs
     id="defs8053">
    <clipPath
       clipPathUnits="userSpaceOnUse"
       id="clipPath3318">
      <path
         d="m 3423.07,2746.02 0,0 c 0,-6.15 -4.99,-11.13 -11.14,-11.13 l 0,1.52 0,-1.52 c -6.15,0 -11.14,4.98 -11.14,11.13 l 1.52,0 -1.52,0 c 0,6.16 4.99,11.14 11.14,11.14 l 0,-1.52 0,1.52 c 6.15,0 11.14,-4.98 11.14,-11.14 l -1.52,0 1.52,0 m -3.04,0 0,0 c 0,4.47 -3.63,8.1 -8.1,8.1 l 0,0 c -4.47,0 -8.1,-3.63 -8.1,-8.1 l 0,0 c 0,-4.47 3.63,-8.09 8.1,-8.09 l 0,0 c 4.47,0 8.1,3.62 8.1,8.09 z"
         id="path3320"
         inkscape:connector-curvature="0" />
    </clipPath>
    <clipPath
       clipPathUnits="userSpaceOnUse"
       id="clipPath3308">
      <path
         d="m 3421.55,2746.02 c 0,-5.31 -4.31,-9.61 -9.62,-9.61 -5.31,0 -9.62,4.3 -9.62,9.61 0,5.31 4.31,9.62 9.62,9.62 5.31,0 9.62,-4.31 9.62,-9.62 z"
         id="path3310"
         inkscape:connector-curvature="0" />
    </clipPath>
    <clipPath
       clipPathUnits="userSpaceOnUse"
       id="clipPath3298">
      <path
         d="m 3262.95,2697 0,0 c -1.12,9.11 3.16,19.65 17.68,24.49 l 0.96,-2.88 -0.96,2.88 c 14.22,4.74 24.11,-4.03 27.18,-13.24 l 0,0 c 2.26,-6.76 1.23,-15.76 -6.88,-18.46 l -0.97,2.89 0.97,-2.89 c -7.57,-2.52 -13.59,3.09 -15.75,9.56 l 0,0 c -3.31,9.96 0.96,23.97 18.8,29.92 l 0.97,-2.88 -0.97,2.88 c 17.85,5.95 29.68,-2.7 33,-12.66 l 0,0 c 2.16,-6.46 0.7,-14.57 -6.86,-17.09 l -0.96,2.89 0.96,-2.89 c -7.57,-2.52 -13.58,3.09 -15.74,9.56 l 0,0 c -3.32,9.96 0.95,23.98 18.8,29.92 l 0.96,-2.88 -0.96,2.88 c 17.84,5.95 29.67,-2.7 32.99,-12.65 l 0,0 c 2.16,-6.47 0.71,-14.58 -6.86,-17.1 l -0.96,2.89 0.96,-2.89 c -7.56,-2.52 -13.58,3.09 -15.74,9.56 l 0,0 c -3.32,9.96 0.96,23.98 18.8,29.92 l 0.14,0.06 -0.14,-0.06 c 17.84,5.95 29.68,-2.7 32.99,-12.65 l 0,0 c 2.16,-6.47 0.71,-14.58 -6.85,-17.1 l -0.97,2.89 0.97,-2.89 c -8.11,-2.7 -14.34,3.88 -16.59,10.64 l 0,0 c -3.07,9.21 -0.41,22.17 13.8,26.9 l 0.97,-2.88 -0.97,2.88 c 14.53,4.84 24.27,-1.02 28.85,-8.98 l 1.51,-2.64 -5.27,-3.03 -1.52,2.64 c -3.15,5.49 -9.9,10.16 -21.64,6.24 l 0,0 0,0 c -10.31,-3.43 -12.22,-12.41 -9.96,-19.2 l 0,0 c 1.87,-5.62 5.68,-7.87 8.89,-6.8 l 0,0 0,0 c 3.01,1 4.63,4.54 3.01,9.41 l 0,0 c -2.18,6.56 -10.43,13.77 -25.3,8.81 l -0.96,2.88 0.96,-2.88 c -14.86,-4.96 -17.14,-15.67 -14.95,-22.24 l 0,0 c 1.62,-4.85 5.05,-6.71 8.05,-5.71 l -12.98,-4.32 12.98,4.32 c 3,1 4.63,4.54 3.01,9.41 l 0,0 c -2.19,6.55 -10.43,13.76 -25.3,8.81 l 0.19,0.06 -0.19,-0.06 c -14.87,-4.96 -17.14,-15.67 -14.95,-22.24 l 0,0 c 1.62,-4.86 5.05,-6.71 8.05,-5.71 l 0,0 c 3,1 4.63,4.54 3.01,9.4 l 0,0 c -2.19,6.56 -10.43,13.77 -25.3,8.81 l 0,0 c -14.87,-4.95 -17.14,-15.66 -14.96,-22.23 l 0,0 c 1.62,-4.86 5.05,-6.71 8.05,-5.71 l 0,0 c 3.21,1.07 4.91,5.16 3.04,10.77 l 0,0 c -2.26,6.8 -9.18,12.83 -19.49,9.39 l -0.06,-0.02 0.06,0.02 c -11.75,-3.92 -14.34,-11.7 -13.57,-17.98 l 0.37,-3.02 -6.03,-0.74 -0.37,3.02 z"
         id="path3300"
         inkscape:connector-curvature="0" />
    </clipPath>
    <clipPath
       clipPathUnits="userSpaceOnUse"
       id="clipPath3288">
      <path
         d="m 3543.38,2703.7 0,0 32.69,1.92 4,0.23 -2.83,-2.83 -9.61,-9.61 -1.08,1.07 1.5,0.22 1.93,-13.46 0.56,-3.96 -3.05,2.58 -25,21.16 -2.9,2.45 3.79,0.23 m 0.18,-3.04 -0.09,1.52 0.98,1.16 25,-21.16 -0.98,-1.16 -1.5,-0.22 -1.93,13.47 -0.1,0.75 0.53,0.54 9.62,9.62 1.07,-1.08 0.09,-1.52 -32.69,-1.92 z"
         id="path3290"
         inkscape:connector-curvature="0" />
    </clipPath>
    <clipPath
       clipPathUnits="userSpaceOnUse"
       id="clipPath3278">
      <path
         d="m 3543.47,2702.18 32.69,1.92 -9.61,-9.62 1.92,-13.46 -25,21.16 z"
         id="path3280"
         inkscape:connector-curvature="0" />
    </clipPath>
    <clipPath
       clipPathUnits="userSpaceOnUse"
       id="clipPath3268">
      <path
         d="m 3412.89,2748.91 0,0 291.93,-97.31 2.89,-0.96 -1.93,-5.77 -2.88,0.96 -291.93,97.31 -2.89,0.96 1.93,5.77 2.88,-0.96 z"
         id="path3270"
         inkscape:connector-curvature="0" />
    </clipPath>
    <clipPath
       clipPathUnits="userSpaceOnUse"
       id="clipPath3258">
      <path
         d="m 3500.32,2774 0,0 -25,-21.16 -3.06,-2.58 0.57,3.96 1.92,13.46 1.51,-0.22 -1.08,-1.07 -9.61,9.62 -2.83,2.83 3.99,-0.24 32.7,-1.92 3.79,-0.23 -2.9,-2.45 m -1.96,2.32 0.98,-1.16 -0.09,-1.52 -32.7,1.92 0.09,1.52 1.07,1.08 9.62,-9.62 0.54,-0.54 -0.11,-0.75 -1.92,-13.46 -1.5,0.21 -0.99,1.16 25.01,21.16 z"
         id="path3260"
         inkscape:connector-curvature="0" />
    </clipPath>
    <clipPath
       clipPathUnits="userSpaceOnUse"
       id="clipPath3248">
      <path
         d="m 3499.34,2775.16 -25,-21.16 1.92,13.46 -9.62,9.62 32.7,-1.92 z"
         id="path3250"
         inkscape:connector-curvature="0" />
    </clipPath>
    <clipPath
       clipPathUnits="userSpaceOnUse"
       id="clipPath3238">
      <path
         d="m 3410.97,2748.91 0,0 145.96,48.66 2.89,0.96 1.92,-5.77 -2.88,-0.97 -145.97,-48.65 -2.88,-0.96 -1.93,5.77 2.89,0.96 z"
         id="path3240"
         inkscape:connector-curvature="0" />
    </clipPath>
    <clipPath
       clipPathUnits="userSpaceOnUse"
       id="clipPath3228">
      <path
         d="m 3718.38,2739.7 0,0 -32.7,-1.93 -3.99,-0.23 2.82,2.83 9.62,9.61 1.07,-1.07 -1.5,-0.21 -1.92,13.46 -0.57,3.95 3.06,-2.57 25,-21.16 2.9,-2.46 -3.79,-0.22 m -0.18,3.03 0.09,-1.52 -0.99,-1.16 -25,21.16 0.98,1.16 1.51,0.22 1.92,-13.47 0.11,-0.75 -0.54,-0.54 -9.62,-9.61 -1.07,1.07 -0.09,1.52 32.7,1.92 z"
         id="path3230"
         inkscape:connector-curvature="0" />
    </clipPath>
    <clipPath
       clipPathUnits="userSpaceOnUse"
       id="clipPath3218">
      <path
         d="m 3718.29,2741.21 -32.7,-1.92 9.61,9.62 -1.92,13.46 25.01,-21.16 z"
         id="path3220"
         inkscape:connector-curvature="0" />
    </clipPath>
    <clipPath
       clipPathUnits="userSpaceOnUse"
       id="clipPath3208">
      <path
         d="m 3558.86,2797.57 0,0 291.93,-97.32 2.88,-0.96 -1.92,-5.77 -2.89,0.96 -291.93,97.31 -2.88,0.97 1.92,5.77 2.89,-0.96 z"
         id="path3210"
         inkscape:connector-curvature="0" />
    </clipPath>
    <clipPath
       clipPathUnits="userSpaceOnUse"
       id="clipPath3198">
      <path
         d="m 3719.27,3138.91 0,0 -25,-21.16 -3.06,-2.58 0.57,3.96 1.92,13.46 1.5,-0.21 -1.07,-1.08 -9.62,9.62 -2.82,2.83 3.99,-0.24 32.7,-1.92 3.79,-0.22 -2.9,-2.46 m -1.97,2.32 0.99,-1.16 -0.09,-1.52 -32.7,1.93 0.09,1.52 1.07,1.07 9.62,-9.62 0.54,-0.54 -0.11,-0.75 -1.92,-13.46 -1.51,0.21 -0.98,1.17 25,21.15 z"
         id="path3200"
         inkscape:connector-curvature="0" />
    </clipPath>
    <clipPath
       clipPathUnits="userSpaceOnUse"
       id="clipPath3188">
      <path
         d="m 3718.29,3140.07 -25.01,-21.16 1.92,13.47 -9.61,9.62 32.7,-1.93 z"
         id="path3190"
         inkscape:connector-curvature="0" />
    </clipPath>
    <clipPath
       clipPathUnits="userSpaceOnUse"
       id="clipPath3178">
      <path
         d="m 3556.93,3089.5 0,0 291.93,97.3 2.89,0.97 1.92,-5.77 -2.88,-0.97 -291.93,-97.31 -2.89,-0.96 -1.92,5.77 2.88,0.97 z"
         id="path3180"
         inkscape:connector-curvature="0" />
    </clipPath>
    <clipPath
       clipPathUnits="userSpaceOnUse"
       id="clipPath3168">
      <path
         d="m 3569.03,2794.68 0,0 c 0,-6.15 -4.99,-11.14 -11.14,-11.14 l 0,1.52 0,-1.52 c -6.15,0 -11.13,4.99 -11.13,11.14 l 1.52,0 -1.52,0 c 0,6.15 4.98,11.14 11.13,11.14 l 0,-1.53 0,1.53 c 6.15,0 11.14,-4.99 11.14,-11.14 l -1.52,0 1.52,0 m -3.04,0 0,0 c 0,4.47 -3.63,8.09 -8.1,8.09 l 0,0 c -4.47,0 -8.09,-3.62 -8.09,-8.09 l 0,0 c 0,-4.47 3.62,-8.1 8.09,-8.1 l 0,0 c 4.47,0 8.1,3.63 8.1,8.1 z"
         id="path3170"
         inkscape:connector-curvature="0" />
    </clipPath>
    <clipPath
       clipPathUnits="userSpaceOnUse"
       id="clipPath3158">
      <path
         d="m 3567.51,2794.68 c 0,-5.31 -4.3,-9.62 -9.62,-9.62 -5.31,0 -9.61,4.31 -9.61,9.62 0,5.31 4.3,9.61 9.61,9.61 5.32,0 9.62,-4.3 9.62,-9.61 z"
         id="path3160"
         inkscape:connector-curvature="0" />
    </clipPath>
    <clipPath
       clipPathUnits="userSpaceOnUse"
       id="clipPath3148">
      <path
         d="m 3569.03,3086.61 0,0 c 0,-6.15 -4.99,-11.14 -11.14,-11.14 l 0,1.52 0,-1.52 c -6.15,0 -11.13,4.99 -11.13,11.14 l 1.52,0 -1.52,0 c 0,6.15 4.98,11.14 11.13,11.14 l 0,-1.53 0,1.53 c 6.15,0 11.14,-4.99 11.14,-11.14 l -1.52,0 1.52,0 m -3.04,0 0,0 c 0,4.47 -3.63,8.09 -8.1,8.09 l 0,0 c -4.47,0 -8.09,-3.62 -8.09,-8.09 l 0,0 c 0,-4.47 3.62,-8.1 8.09,-8.1 l 0,0 c 4.47,0 8.1,3.63 8.1,8.1 z"
         id="path3150"
         inkscape:connector-curvature="0" />
    </clipPath>
    <clipPath
       clipPathUnits="userSpaceOnUse"
       id="clipPath3138">
      <path
         d="m 3567.51,3086.61 c 0,-5.31 -4.3,-9.62 -9.62,-9.62 -5.31,0 -9.61,4.31 -9.61,9.62 0,5.31 4.3,9.61 9.61,9.61 5.32,0 9.62,-4.3 9.62,-9.61 z"
         id="path3140"
         inkscape:connector-curvature="0" />
    </clipPath>
    <clipPath
       clipPathUnits="userSpaceOnUse"
       id="clipPath3128">
      <path
         d="m 3559.48,3089.2 0,0 c 11.54,-7.05 20.41,-13.54 15.17,-22.11 l 0,0 c -2.4,-3.93 -7.82,-7.78 -15.17,-12.27 l -1.59,2.59 1.59,-2.59 c -14.03,-8.58 -14.61,-11.37 -13.16,-13.75 l 0,0 c 1.51,-2.46 5.54,-5.6 13.16,-10.25 l -0.75,0.46 0.75,-0.46 c 11.54,-7.05 20.41,-13.55 15.17,-22.11 l 0,0 c -2.4,-3.94 -7.82,-7.78 -15.17,-12.27 l -0.75,-0.46 0.75,0.46 c -14.03,-8.58 -14.61,-11.38 -13.16,-13.75 l 0,0 c 1.51,-2.47 5.54,-5.6 13.16,-10.26 l -1.59,-2.59 1.59,2.59 c 11.54,-7.05 20.41,-13.54 15.17,-22.11 l 0,0 c -2.4,-3.93 -7.82,-7.78 -15.17,-12.27 l -1.59,2.59 1.59,-2.59 c -14.03,-8.58 -14.61,-11.37 -13.16,-13.75 l 0,0 c 1.51,-2.46 5.54,-5.6 13.16,-10.26 l -0.75,0.46 0.75,-0.46 c 11.54,-7.05 20.41,-13.54 15.17,-22.1 l 0,0 c -2.4,-3.94 -7.82,-7.78 -15.17,-12.28 l -1.59,2.6 1.59,-2.6 c -14.03,-8.57 -14.61,-11.37 -13.16,-13.75 l 0,0 c 1.51,-2.46 5.54,-5.6 13.16,-10.25 l -1.59,-2.59 1.59,2.59 c 11.54,-7.05 20.41,-13.54 15.17,-22.11 l 0,0 c -2.4,-3.94 -7.82,-7.78 -15.17,-12.27 l -1.59,2.59 1.59,-2.59 c -14.03,-8.58 -14.61,-11.37 -13.16,-13.75 l 0,0 c 1.51,-2.47 5.54,-5.6 13.16,-10.26 l 2.59,-1.58 -3.17,-5.19 -2.59,1.59 c -7.35,4.49 -12.77,8.33 -15.17,12.27 l 0,0 c -5.24,8.57 3.63,15.05 15.17,22.1 l 20.27,12.4 -20.27,-12.4 c 7.62,4.66 11.65,7.8 13.15,10.26 l 0,0 c 1.45,2.38 0.88,5.17 -13.15,13.75 l 0,0 c -7.35,4.49 -12.77,8.33 -15.17,12.27 l 0,0 c -5.24,8.57 3.63,15.06 15.17,22.11 l 0,0 c 7.62,4.66 11.65,7.79 13.15,10.26 l 0,0 c 1.46,2.37 0.88,5.17 -13.15,13.75 l 1.58,2.59 -1.58,-2.59 c -7.35,4.49 -12.77,8.33 -15.17,12.27 l 0,0 c -5.24,8.57 3.63,15.06 15.17,22.11 l 0,0 c 7.62,4.65 11.65,7.79 13.15,10.26 l 0,0 c 1.45,2.37 0.88,5.16 -13.15,13.74 l 0,0 c -7.35,4.49 -12.77,8.34 -15.17,12.28 l 0,0 c -5.24,8.57 3.63,15.05 15.17,22.11 l 1.58,-2.6 -1.58,2.6 c 7.62,4.65 11.65,7.78 13.15,10.25 l 0,0 c 1.45,2.37 0.88,5.17 -13.15,13.75 l 1.58,2.59 -1.58,-2.59 c -7.35,4.49 -12.77,8.33 -15.17,12.27 l 0,0 c -5.24,8.57 3.63,15.06 15.17,22.11 l 0,0 0,0 c 7.62,4.65 11.65,7.79 13.15,10.26 l 0,0 c 1.45,2.37 0.88,5.17 -13.15,13.75 l -2.6,1.58 3.18,5.19 2.59,-1.59 z"
         id="path3130"
         inkscape:connector-curvature="0" />
    </clipPath>
    <clipPath
       clipPathUnits="userSpaceOnUse"
       id="clipPath3118">
      <path
         d="m 3426.45,3128.94 0,0 -32.7,-1.93 -3.99,-0.23 2.82,2.83 9.62,9.61 1.07,-1.07 -1.5,-0.22 -1.92,13.46 -0.57,3.97 3.05,-2.59 25.01,-21.15 2.9,-2.46 -3.79,-0.22 m -0.18,3.03 0.09,-1.51 -0.99,-1.17 -25,21.16 0.98,1.16 1.51,0.22 1.92,-13.47 0.11,-0.75 -0.54,-0.54 -9.62,-9.61 -1.07,1.07 -0.09,1.52 32.7,1.92 z"
         id="path3120"
         inkscape:connector-curvature="0" />
    </clipPath>
    <clipPath
       clipPathUnits="userSpaceOnUse"
       id="clipPath3108">
      <path
         d="m 3426.36,3130.46 -32.7,-1.93 9.61,9.62 -1.92,13.46 25.01,-21.15 z"
         id="path3110"
         inkscape:connector-curvature="0" />
    </clipPath>
    <clipPath
       clipPathUnits="userSpaceOnUse"
       id="clipPath3098">
      <path
         d="m 3266.93,3186.8 0,0 291.93,-97.3 2.88,-0.97 -1.92,-5.77 -2.89,0.96 -291.93,97.31 -2.88,0.97 1.92,5.77 2.89,-0.97 z"
         id="path3100"
         inkscape:connector-curvature="0" />
    </clipPath>
  </defs>
  <sodipodi:namedview
     id="base"
     pagecolor="#ffffff"
     bordercolor="#666666"
     borderopacity="1.0"
     inkscape:pageopacity="0.0"
     inkscape:pageshadow="2"
     inkscape:zoom="2.8"
     inkscape:cx="4.471934"
     inkscape:cy="63.019489"
     inkscape:document-units="px"
     inkscape:current-layer="layer1"
     showgrid="false"
     fit-margin-top="0.1"
     fit-margin-left="0.1"
     fit-margin-bottom="0.1"
     fit-margin-right="0.1"
     inkscape:window-width="1920"
     inkscape:window-height="1016"
     inkscape:window-x="0"
     inkscape:window-y="27"
     inkscape:window-maximized="1" />
  <metadata
     id="metadata8056">
    <rdf:RDF>
      <cc:Work
         rdf:about="">
        <dc:format>image/svg+xml</dc:format>
        <dc:type
           rdf:resource="http://purl.org/dc/dcmitype/StillImage" />
        <dc:title></dc:title>
      </cc:Work>
    </rdf:RDF>
  </metadata>
  <g
     inkscape:label="Layer 1"
     inkscape:groupmode="layer"
     id="layer1"
     transform="translate(469.73864,-315.51898)">
    <g
       id="g3094"
       transform="matrix(0.19948815,0,0,-0.19948815,-1101.7661,959.02437)">
      <g
         clip-path="url(#clipPath3098)"
         id="g3096">
        <path
           inkscape:connector-curvature="0"
           id="path3102"
           style="fill:#000000;fill-opacity:1;fill-rule:nonzero;stroke:none"
           d="m 3266.93,3186.8 0,0 291.93,-97.3 2.88,-0.97 -1.92,-5.77 -2.89,0.96 -291.93,97.31 -2.88,0.97 1.92,5.77" />
      </g>
    </g>
    <g
       id="g3104"
       transform="matrix(0.19948815,0,0,-0.19948815,-1101.7661,959.02437)">
      <g
         clip-path="url(#clipPath3108)"
         id="g3106">
        <path
           inkscape:connector-curvature="0"
           id="path3112"
           style="fill:#000000;fill-opacity:1;fill-rule:nonzero;stroke:none"
           d="m 3426.36,3130.46 -32.7,-1.93 9.61,9.62 -1.92,13.46" />
      </g>
    </g>
    <g
       id="g3114"
       transform="matrix(0.19948815,0,0,-0.19948815,-1101.7661,959.02437)">
      <g
         clip-path="url(#clipPath3118)"
         id="g3116">
        <path
           inkscape:connector-curvature="0"
           id="path3122"
           style="fill:#000000;fill-opacity:1;fill-rule:nonzero;stroke:none"
           d="m 3426.45,3128.94 0,0 -32.7,-1.93 -3.99,-0.23 2.82,2.83 9.62,9.61 1.07,-1.07 -1.5,-0.22 -1.92,13.46 -0.57,3.97 3.05,-2.59 25.01,-21.15 2.9,-2.46 -3.79,-0.22 m -0.18,3.03 0.09,-1.51 -0.99,-1.17 -25,21.16 0.98,1.16 1.51,0.22 1.92,-13.47 0.11,-0.75 -0.54,-0.54 -9.62,-9.61 -1.07,1.07 -0.09,1.52 32.7,1.92" />
      </g>
    </g>
    <g
       id="g3124"
       transform="matrix(0.19948815,0,0,-0.19948815,-1101.7661,959.02437)">
      <g
         clip-path="url(#clipPath3128)"
         id="g3126">
        <path
           inkscape:connector-curvature="0"
           id="path3132"
           style="fill:#000000;fill-opacity:1;fill-rule:nonzero;stroke:none"
           d="m 3559.48,3089.2 0,0 c 11.54,-7.05 20.41,-13.54 15.17,-22.11 l 0,0 c -2.4,-3.93 -7.82,-7.78 -15.17,-12.27 l -1.59,2.59 1.59,-2.59 c -14.03,-8.58 -14.61,-11.37 -13.16,-13.75 l 0,0 c 1.51,-2.46 5.54,-5.6 13.16,-10.25 l -0.75,0.46 0.75,-0.46 c 11.54,-7.05 20.41,-13.55 15.17,-22.11 l 0,0 c -2.4,-3.94 -7.82,-7.78 -15.17,-12.27 l -0.75,-0.46 0.75,0.46 c -14.03,-8.58 -14.61,-11.38 -13.16,-13.75 l 0,0 c 1.51,-2.47 5.54,-5.6 13.16,-10.26 l -1.59,-2.59 1.59,2.59 c 11.54,-7.05 20.41,-13.54 15.17,-22.11 l 0,0 c -2.4,-3.93 -7.82,-7.78 -15.17,-12.27 l -1.59,2.59 1.59,-2.59 c -14.03,-8.58 -14.61,-11.37 -13.16,-13.75 l 0,0 c 1.51,-2.46 5.54,-5.6 13.16,-10.26 l -0.75,0.46 0.75,-0.46 c 11.54,-7.05 20.41,-13.54 15.17,-22.1 l 0,0 c -2.4,-3.94 -7.82,-7.78 -15.17,-12.28 l -1.59,2.6 1.59,-2.6 c -14.03,-8.57 -14.61,-11.37 -13.16,-13.75 l 0,0 c 1.51,-2.46 5.54,-5.6 13.16,-10.25 l -1.59,-2.59 1.59,2.59 c 11.54,-7.05 20.41,-13.54 15.17,-22.11 l 0,0 c -2.4,-3.94 -7.82,-7.78 -15.17,-12.27 l -1.59,2.59 1.59,-2.59 c -14.03,-8.58 -14.61,-11.37 -13.16,-13.75 l 0,0 c 1.51,-2.47 5.54,-5.6 13.16,-10.26 l 2.59,-1.58 -3.17,-5.19 -2.59,1.59 c -7.35,4.49 -12.77,8.33 -15.17,12.27 l 0,0 c -5.24,8.57 3.63,15.05 15.17,22.1 l 20.27,12.4 -20.27,-12.4 c 7.62,4.66 11.65,7.8 13.15,10.26 l 0,0 c 1.45,2.38 0.88,5.17 -13.15,13.75 l 0,0 c -7.35,4.49 -12.77,8.33 -15.17,12.27 l 0,0 c -5.24,8.57 3.63,15.06 15.17,22.11 l 0,0 c 7.62,4.66 11.65,7.79 13.15,10.26 l 0,0 c 1.46,2.37 0.88,5.17 -13.15,13.75 l 1.58,2.59 -1.58,-2.59 c -7.35,4.49 -12.77,8.33 -15.17,12.27 l 0,0 c -5.24,8.57 3.63,15.06 15.17,22.11 l 0,0 c 7.62,4.65 11.65,7.79 13.15,10.26 l 0,0 c 1.45,2.37 0.88,5.16 -13.15,13.74 l 0,0 c -7.35,4.49 -12.77,8.34 -15.17,12.28 l 0,0 c -5.24,8.57 3.63,15.05 15.17,22.11 l 1.58,-2.6 -1.58,2.6 c 7.62,4.65 11.65,7.78 13.15,10.25 l 0,0 c 1.45,2.37 0.88,5.17 -13.15,13.75 l 1.58,2.59 -1.58,-2.59 c -7.35,4.49 -12.77,8.33 -15.17,12.27 l 0,0 c -5.24,8.57 3.63,15.06 15.17,22.11 l 0,0 c 7.62,4.65 11.65,7.79 13.15,10.26 l 0,0 c 1.45,2.37 0.88,5.17 -13.15,13.75 l -2.6,1.58 3.18,5.19" />
      </g>
    </g>
    <g
       id="g3134"
       transform="matrix(0.19948815,0,0,-0.19948815,-1101.7661,959.02437)">
      <g
         clip-path="url(#clipPath3138)"
         id="g3136">
        <path
           inkscape:connector-curvature="0"
           id="path3142"
           style="fill:#000000;fill-opacity:1;fill-rule:nonzero;stroke:none"
           d="m 3567.51,3086.61 c 0,-5.31 -4.3,-9.62 -9.62,-9.62 -5.31,0 -9.61,4.31 -9.61,9.62 0,5.31 4.3,9.61 9.61,9.61 5.32,0 9.62,-4.3 9.62,-9.61" />
      </g>
    </g>
    <g
       id="g3144"
       transform="matrix(0.19948815,0,0,-0.19948815,-1101.7661,959.02437)">
      <g
         clip-path="url(#clipPath3148)"
         id="g3146">
        <path
           inkscape:connector-curvature="0"
           id="path3152"
           style="fill:#000000;fill-opacity:1;fill-rule:nonzero;stroke:none"
           d="m 3569.03,3086.61 0,0 c 0,-6.15 -4.99,-11.14 -11.14,-11.14 l 0,1.52 0,-1.52 c -6.15,0 -11.13,4.99 -11.13,11.14 l 1.52,0 -1.52,0 c 0,6.15 4.98,11.14 11.13,11.14 l 0,-1.53 0,1.53 c 6.15,0 11.14,-4.99 11.14,-11.14 l -1.52,0 1.52,0 m -3.04,0 0,0 c 0,4.47 -3.63,8.09 -8.1,8.09 l 0,0 c -4.47,0 -8.09,-3.62 -8.09,-8.09 l 0,0 c 0,-4.47 3.62,-8.1 8.09,-8.1 l 0,0 c 4.47,0 8.1,3.63 8.1,8.1" />
      </g>
    </g>
    <g
       id="g3154"
       transform="matrix(0.19948815,0,0,-0.19948815,-1101.7661,959.02437)">
      <g
         clip-path="url(#clipPath3158)"
         id="g3156">
        <path
           inkscape:connector-curvature="0"
           id="path3162"
           style="fill:#000000;fill-opacity:1;fill-rule:nonzero;stroke:none"
           d="m 3567.51,2794.68 c 0,-5.31 -4.3,-9.62 -9.62,-9.62 -5.31,0 -9.61,4.31 -9.61,9.62 0,5.31 4.3,9.61 9.61,9.61 5.32,0 9.62,-4.3 9.62,-9.61" />
      </g>
    </g>
    <g
       id="g3164"
       transform="matrix(0.19948815,0,0,-0.19948815,-1101.7661,959.02437)">
      <g
         clip-path="url(#clipPath3168)"
         id="g3166">
        <path
           inkscape:connector-curvature="0"
           id="path3172"
           style="fill:#000000;fill-opacity:1;fill-rule:nonzero;stroke:none"
           d="m 3569.03,2794.68 0,0 c 0,-6.15 -4.99,-11.14 -11.14,-11.14 l 0,1.52 0,-1.52 c -6.15,0 -11.13,4.99 -11.13,11.14 l 1.52,0 -1.52,0 c 0,6.15 4.98,11.14 11.13,11.14 l 0,-1.53 0,1.53 c 6.15,0 11.14,-4.99 11.14,-11.14 l -1.52,0 1.52,0 m -3.04,0 0,0 c 0,4.47 -3.63,8.09 -8.1,8.09 l 0,0 c -4.47,0 -8.09,-3.62 -8.09,-8.09 l 0,0 c 0,-4.47 3.62,-8.1 8.09,-8.1 l 0,0 c 4.47,0 8.1,3.63 8.1,8.1" />
      </g>
    </g>
    <g
       id="g3174"
       transform="matrix(0.19948815,0,0,-0.19948815,-1101.7661,959.02437)">
      <g
         clip-path="url(#clipPath3178)"
         id="g3176">
        <path
           inkscape:connector-curvature="0"
           id="path3182"
           style="fill:#000000;fill-opacity:1;fill-rule:nonzero;stroke:none"
           d="m 3556.93,3089.5 0,0 291.93,97.3 2.89,0.97 1.92,-5.77 -2.88,-0.97 -291.93,-97.31 -2.89,-0.96 -1.92,5.77" />
      </g>
    </g>
    <g
       id="g3184"
       transform="matrix(0.19948815,0,0,-0.19948815,-1101.7661,959.02437)">
      <g
         clip-path="url(#clipPath3188)"
         id="g3186">
        <path
           inkscape:connector-curvature="0"
           id="path3192"
           style="fill:#000000;fill-opacity:1;fill-rule:nonzero;stroke:none"
           d="m 3718.29,3140.07 -25.01,-21.16 1.92,13.47 -9.61,9.62" />
      </g>
    </g>
    <g
       id="g3194"
       transform="matrix(0.19948815,0,0,-0.19948815,-1101.7661,959.02437)">
      <g
         clip-path="url(#clipPath3198)"
         id="g3196">
        <path
           inkscape:connector-curvature="0"
           id="path3202"
           style="fill:#000000;fill-opacity:1;fill-rule:nonzero;stroke:none"
           d="m 3719.27,3138.91 0,0 -25,-21.16 -3.06,-2.58 0.57,3.96 1.92,13.46 1.5,-0.21 -1.07,-1.08 -9.62,9.62 -2.82,2.83 3.99,-0.24 32.7,-1.92 3.79,-0.22 -2.9,-2.46 m -1.97,2.32 0.99,-1.16 -0.09,-1.52 -32.7,1.93 0.09,1.52 1.07,1.07 9.62,-9.62 0.54,-0.54 -0.11,-0.75 -1.92,-13.46 -1.51,0.21 -0.98,1.17 25,21.15" />
      </g>
    </g>
    <g
       id="g3204"
       transform="matrix(0.19948815,0,0,-0.19948815,-1101.7661,959.02437)">
      <g
         clip-path="url(#clipPath3208)"
         id="g3206">
        <path
           inkscape:connector-curvature="0"
           id="path3212"
           style="fill:#000000;fill-opacity:1;fill-rule:nonzero;stroke:none"
           d="m 3558.86,2797.57 0,0 291.93,-97.32 2.88,-0.96 -1.92,-5.77 -2.89,0.96 -291.93,97.31 -2.88,0.97 1.92,5.77" />
      </g>
    </g>
    <g
       id="g3214"
       transform="matrix(0.19948815,0,0,-0.19948815,-1101.7661,959.02437)">
      <g
         clip-path="url(#clipPath3218)"
         id="g3216">
        <path
           inkscape:connector-curvature="0"
           id="path3222"
           style="fill:#000000;fill-opacity:1;fill-rule:nonzero;stroke:none"
           d="m 3718.29,2741.21 -32.7,-1.92 9.61,9.62 -1.92,13.46" />
      </g>
    </g>
    <g
       id="g3224"
       transform="matrix(0.19948815,0,0,-0.19948815,-1101.7661,959.02437)">
      <g
         clip-path="url(#clipPath3228)"
         id="g3226">
        <path
           inkscape:connector-curvature="0"
           id="path3232"
           style="fill:#000000;fill-opacity:1;fill-rule:nonzero;stroke:none"
           d="m 3718.38,2739.7 0,0 -32.7,-1.93 -3.99,-0.23 2.82,2.83 9.62,9.61 1.07,-1.07 -1.5,-0.21 -1.92,13.46 -0.57,3.95 3.06,-2.57 25,-21.16 2.9,-2.46 -3.79,-0.22 m -0.18,3.03 0.09,-1.52 -0.99,-1.16 -25,21.16 0.98,1.16 1.51,0.22 1.92,-13.47 0.11,-0.75 -0.54,-0.54 -9.62,-9.61 -1.07,1.07 -0.09,1.52 32.7,1.92" />
      </g>
    </g>
    <g
       id="g3234"
       transform="matrix(0.19948815,0,0,-0.19948815,-1101.7661,959.02437)">
      <g
         clip-path="url(#clipPath3238)"
         id="g3236">
        <path
           inkscape:connector-curvature="0"
           id="path3242"
           style="fill:#000000;fill-opacity:1;fill-rule:nonzero;stroke:none"
           d="m 3410.97,2748.91 0,0 145.96,48.66 2.89,0.96 1.92,-5.77 -2.88,-0.97 -145.97,-48.65 -2.88,-0.96 -1.93,5.77" />
      </g>
    </g>
    <g
       id="g3244"
       transform="matrix(0.19948815,0,0,-0.19948815,-1097.8644,957.8197)">
      <g
         clip-path="url(#clipPath3248)"
         id="g3246">
        <path
           inkscape:connector-curvature="0"
           id="path3252"
           style="fill:#000000;fill-opacity:1;fill-rule:nonzero;stroke:none"
           d="m 3499.34,2775.16 -25,-21.16 1.92,13.46 -9.62,9.62" />
      </g>
    </g>
    <g
       id="g3254"
       transform="matrix(0.19948815,0,0,-0.19948815,-1097.8644,957.8197)">
      <g
         clip-path="url(#clipPath3258)"
         id="g3256">
        <path
           inkscape:connector-curvature="0"
           id="path3262"
           style="fill:#000000;fill-opacity:1;fill-rule:nonzero;stroke:none"
           d="m 3500.32,2774 0,0 -25,-21.16 -3.06,-2.58 0.57,3.96 1.92,13.46 1.51,-0.22 -1.08,-1.07 -9.61,9.62 -2.83,2.83 3.99,-0.24 32.7,-1.92 3.79,-0.23 -2.9,-2.45 m -1.96,2.32 0.98,-1.16 -0.09,-1.52 -32.7,1.92 0.09,1.52 1.07,1.08 9.62,-9.62 0.54,-0.54 -0.11,-0.75 -1.92,-13.46 -1.5,0.21 -0.99,1.16 25.01,21.16" />
      </g>
    </g>
    <g
       id="g3264"
       transform="matrix(0.19948815,0,0,-0.19948815,-1101.7661,959.02437)">
      <g
         clip-path="url(#clipPath3268)"
         id="g3266">
        <path
           inkscape:connector-curvature="0"
           id="path3272"
           style="fill:#000000;fill-opacity:1;fill-rule:nonzero;stroke:none"
           d="m 3412.89,2748.91 0,0 291.93,-97.31 2.89,-0.96 -1.93,-5.77 -2.88,0.96 -291.93,97.31 -2.89,0.96 1.93,5.77" />
      </g>
    </g>
    <g
       id="g3274"
       transform="matrix(0.19948815,0,0,-0.19948815,-1101.7661,959.02437)">
      <g
         clip-path="url(#clipPath3278)"
         id="g3276">
        <path
           inkscape:connector-curvature="0"
           id="path3282"
           style="fill:#000000;fill-opacity:1;fill-rule:nonzero;stroke:none"
           d="m 3543.47,2702.18 32.69,1.92 -9.61,-9.62 1.92,-13.46" />
      </g>
    </g>
    <g
       id="g3284"
       transform="matrix(0.19948815,0,0,-0.19948815,-1101.7661,959.02437)">
      <g
         clip-path="url(#clipPath3288)"
         id="g3286">
        <path
           inkscape:connector-curvature="0"
           id="path3292"
           style="fill:#000000;fill-opacity:1;fill-rule:nonzero;stroke:none"
           d="m 3543.38,2703.7 0,0 32.69,1.92 4,0.23 -2.83,-2.83 -9.61,-9.61 -1.08,1.07 1.5,0.22 1.93,-13.46 0.56,-3.96 -3.05,2.58 -25,21.16 -2.9,2.45 3.79,0.23 m 0.18,-3.04 -0.09,1.52 0.98,1.16 25,-21.16 -0.98,-1.16 -1.5,-0.22 -1.93,13.47 -0.1,0.75 0.53,0.54 9.62,9.62 1.07,-1.08 0.09,-1.52 -32.69,-1.92" />
      </g>
    </g>
    <g
       id="g3294"
       transform="matrix(0.19948815,0,0,-0.19948815,-1101.7661,959.02437)">
      <g
         clip-path="url(#clipPath3298)"
         id="g3296">
        <path
           inkscape:connector-curvature="0"
           id="path3302"
           style="fill:#000000;fill-opacity:1;fill-rule:nonzero;stroke:none"
           d="m 3262.95,2697 0,0 c -1.12,9.11 3.16,19.65 17.68,24.49 l 0.96,-2.88 -0.96,2.88 c 14.22,4.74 24.11,-4.03 27.18,-13.24 l 0,0 c 2.26,-6.76 1.23,-15.76 -6.88,-18.46 l -0.97,2.89 0.97,-2.89 c -7.57,-2.52 -13.59,3.09 -15.75,9.56 l 0,0 c -3.31,9.96 0.96,23.97 18.8,29.92 l 0.97,-2.88 -0.97,2.88 c 17.85,5.95 29.68,-2.7 33,-12.66 l 0,0 c 2.16,-6.46 0.7,-14.57 -6.86,-17.09 l -0.96,2.89 0.96,-2.89 c -7.57,-2.52 -13.58,3.09 -15.74,9.56 l 0,0 c -3.32,9.96 0.95,23.98 18.8,29.92 l 0.96,-2.88 -0.96,2.88 c 17.84,5.95 29.67,-2.7 32.99,-12.65 l 0,0 c 2.16,-6.47 0.71,-14.58 -6.86,-17.1 l -0.96,2.89 0.96,-2.89 c -7.56,-2.52 -13.58,3.09 -15.74,9.56 l 0,0 c -3.32,9.96 0.96,23.98 18.8,29.92 l 0.14,0.06 -0.14,-0.06 c 17.84,5.95 29.68,-2.7 32.99,-12.65 l 0,0 c 2.16,-6.47 0.71,-14.58 -6.85,-17.1 l -0.97,2.89 0.97,-2.89 c -8.11,-2.7 -14.34,3.88 -16.59,10.64 l 0,0 c -3.07,9.21 -0.41,22.17 13.8,26.9 l 0.97,-2.88 -0.97,2.88 c 14.53,4.84 24.27,-1.02 28.85,-8.98 l 1.51,-2.64 -5.27,-3.03 -1.52,2.64 c -3.15,5.49 -9.9,10.16 -21.64,6.24 l 0,0 c -10.31,-3.43 -12.22,-12.41 -9.96,-19.2 l 0,0 c 1.87,-5.62 5.68,-7.87 8.89,-6.8 l 0,0 c 3.01,1 4.63,4.54 3.01,9.41 l 0,0 c -2.18,6.56 -10.43,13.77 -25.3,8.81 l -0.96,2.88 0.96,-2.88 c -14.86,-4.96 -17.14,-15.67 -14.95,-22.24 l 0,0 c 1.62,-4.85 5.05,-6.71 8.05,-5.71 l -12.98,-4.32 12.98,4.32 c 3,1 4.63,4.54 3.01,9.41 l 0,0 c -2.19,6.55 -10.43,13.76 -25.3,8.81 l 0.19,0.06 -0.19,-0.06 c -14.87,-4.96 -17.14,-15.67 -14.95,-22.24 l 0,0 c 1.62,-4.86 5.05,-6.71 8.05,-5.71 l 0,0 c 3,1 4.63,4.54 3.01,9.4 l 0,0 c -2.19,6.56 -10.43,13.77 -25.3,8.81 l 0,0 c -14.87,-4.95 -17.14,-15.66 -14.96,-22.23 l 0,0 c 1.62,-4.86 5.05,-6.71 8.05,-5.71 l 0,0 c 3.21,1.07 4.91,5.16 3.04,10.77 l 0,0 c -2.26,6.8 -9.18,12.83 -19.49,9.39 l -0.06,-0.02 0.06,0.02 c -11.75,-3.92 -14.34,-11.7 -13.57,-17.98 l 0.37,-3.02 -6.03,-0.74" />
      </g>
    </g>
    <g
       id="g3304"
       transform="matrix(0.19948815,0,0,-0.19948815,-1101.7661,959.02437)">
      <g
         clip-path="url(#clipPath3308)"
         id="g3306">
        <path
           inkscape:connector-curvature="0"
           id="path3312"
           style="fill:#000000;fill-opacity:1;fill-rule:nonzero;stroke:none"
           d="m 3421.55,2746.02 c 0,-5.31 -4.31,-9.61 -9.62,-9.61 -5.31,0 -9.62,4.3 -9.62,9.61 0,5.31 4.31,9.62 9.62,9.62 5.31,0 9.62,-4.31 9.62,-9.62" />
      </g>
    </g>
    <g
       id="g3314"
       transform="matrix(0.19948815,0,0,-0.19948815,-1101.7661,959.02437)">
      <g
         clip-path="url(#clipPath3318)"
         id="g3316">
        <path
           inkscape:connector-curvature="0"
           id="path3322"
           style="fill:#000000;fill-opacity:1;fill-rule:nonzero;stroke:none"
           d="m 3423.07,2746.02 0,0 c 0,-6.15 -4.99,-11.13 -11.14,-11.13 l 0,1.52 0,-1.52 c -6.15,0 -11.14,4.98 -11.14,11.13 l 1.52,0 -1.52,0 c 0,6.16 4.99,11.14 11.14,11.14 l 0,-1.52 0,1.52 c 6.15,0 11.14,-4.98 11.14,-11.14 l -1.52,0 1.52,0 m -3.04,0 0,0 c 0,4.47 -3.63,8.1 -8.1,8.1 l 0,0 c -4.47,0 -8.1,-3.63 -8.1,-8.1 l 0,0 c 0,-4.47 3.63,-8.09 8.1,-8.09 l 0,0 c 4.47,0 8.1,3.62 8.1,8.09" />
      </g>
    </g>
    <text
       xml:space="preserve"
       style="font-style:normal;font-weight:normal;font-size:15px;line-height:125%;font-family:sans-serif;letter-spacing:5px;word-spacing:0px;fill:#000000;fill-opacity:1;stroke:none;stroke-width:1px;stroke-linecap:butt;stroke-linejoin:miter;stroke-opacity:1"
       x="-461.90619"
       y="325.40625"
       id="text6640-9-5-061"
       sodipodi:linespacing="125%"><tspan
         sodipodi:role="line"
         id="tspan6642-4-35-5"
         x="-461.90619"
         y="325.40625"
         style="font-style:normal;font-variant:normal;font-weight:500;font-stretch:normal;font-size:15px;font-family:'URW Palladio L';-inkscape-font-specification:'URW Palladio L Medium'">q</tspan></text>
    <text
       xml:space="preserve"
       style="font-style:normal;font-weight:normal;font-size:15px;line-height:125%;font-family:sans-serif;letter-spacing:5px;word-spacing:0px;fill:#000000;fill-opacity:1;stroke:none;stroke-width:1px;stroke-linecap:butt;stroke-linejoin:miter;stroke-opacity:1"
       x="-461.66788"
       y="425.01266"
       id="text6640-9-5-0-94"
       sodipodi:linespacing="125%"><tspan
         sodipodi:role="line"
         id="tspan6642-4-35-6-90"
         x="-461.66788"
         y="425.01266"
         style="font-style:normal;font-variant:normal;font-weight:500;font-stretch:normal;font-size:15px;font-family:'URW Palladio L';-inkscape-font-specification:'URW Palladio L Medium'">g</tspan></text>
    <text
       xml:space="preserve"
       style="font-style:normal;font-weight:normal;font-size:15px;line-height:125%;font-family:sans-serif;letter-spacing:5px;word-spacing:0px;fill:#000000;fill-opacity:1;stroke:none;stroke-width:1px;stroke-linecap:butt;stroke-linejoin:miter;stroke-opacity:1"
       x="-331.06592"
       y="325.75568"
       id="text6640-9-5-06-9"
       sodipodi:linespacing="125%"><tspan
         sodipodi:role="line"
         id="tspan6642-4-35-1-1"
         x="-331.06592"
         y="325.75568"
         style="font-style:normal;font-variant:normal;font-weight:500;font-stretch:normal;font-size:15px;font-family:'URW Palladio L';-inkscape-font-specification:'URW Palladio L Medium'">q</tspan></text>
    <text
       xml:space="preserve"
       style="font-style:normal;font-weight:normal;font-size:15px;line-height:125%;font-family:sans-serif;letter-spacing:5px;word-spacing:0px;fill:#000000;fill-opacity:1;stroke:none;stroke-width:1px;stroke-linecap:butt;stroke-linejoin:miter;stroke-opacity:1"
       x="-330.82758"
       y="425.36209"
       id="text6640-9-5-0-5-77"
       sodipodi:linespacing="125%"><tspan
         sodipodi:role="line"
         id="tspan6642-4-35-6-5-1"
         x="-330.82758"
         y="425.36209"
         style="font-style:normal;font-variant:normal;font-weight:500;font-stretch:normal;font-size:15px;font-family:'URW Palladio L';-inkscape-font-specification:'URW Palladio L Medium'">t</tspan></text>
    <text
       xml:space="preserve"
       style="font-style:normal;font-weight:normal;font-size:15.57585144px;line-height:125%;font-family:sans-serif;letter-spacing:4.450243px;word-spacing:0px;fill:#000000;fill-opacity:1;stroke:none;stroke-width:1px;stroke-linecap:butt;stroke-linejoin:miter;stroke-opacity:1"
       x="-199.48303"
       y="380.97748"
       id="text5535-15"
       sodipodi:linespacing="125%"
       transform="matrix(0.82345048,0.33781035,-0.42642777,1.0394654,0,0)"><tspan
         sodipodi:role="line"
         id="tspan5537-9"
         x="-199.48303"
         y="380.97748"
         style="font-style:normal;font-variant:normal;font-weight:500;font-stretch:normal;font-size:17.80097198px;font-family:'URW Palladio L';-inkscape-font-specification:'URW Palladio L Medium'">'</tspan></text>
    <text
       xml:space="preserve"
       style="font-style:normal;font-weight:normal;font-size:15px;line-height:125%;font-family:sans-serif;letter-spacing:5px;word-spacing:0px;fill:#000000;fill-opacity:1;stroke:none;stroke-width:1px;stroke-linecap:butt;stroke-linejoin:miter;stroke-opacity:1"
       x="-385.48502"
       y="378.32047"
       id="text6640-9-5-0-96-7"
       sodipodi:linespacing="125%"><tspan
         sodipodi:role="line"
         id="tspan6642-4-35-6-6-76"
         x="-385.48502"
         y="378.32047"
         style="font-style:normal;font-variant:normal;font-weight:500;font-stretch:normal;font-size:15px;font-family:'URW Palladio L';-inkscape-font-specification:'URW Palladio L Medium'">W</tspan></text>
    <text
       xml:space="preserve"
       style="font-style:normal;font-weight:normal;font-size:12.5px;line-height:125%;font-family:sans-serif;letter-spacing:5px;word-spacing:0px;fill:#000000;fill-opacity:1;stroke:none;stroke-width:1px;stroke-linecap:butt;stroke-linejoin:miter;stroke-opacity:1"
       x="-369.56839"
       y="372.42896"
       id="text6640-9-5-0-96-2-7"
       sodipodi:linespacing="125%"><tspan
         sodipodi:role="line"
         id="tspan5656-3"
         style="font-style:normal;font-variant:normal;font-weight:500;font-stretch:normal;font-size:12.5px;font-family:'URW Palladio L';-inkscape-font-specification:'URW Palladio L Medium'"
         x="-369.56839"
         y="372.42896">±</tspan></text>
    <text
       xml:space="preserve"
       style="font-style:normal;font-weight:normal;font-size:15px;line-height:125%;font-family:sans-serif;letter-spacing:5px;word-spacing:0px;fill:#000000;fill-opacity:1;stroke:none;stroke-width:1px;stroke-linecap:butt;stroke-linejoin:miter;stroke-opacity:1"
       x="-408.80014"
       y="397.71927"
       id="text6640-9-5-0-94-7"
       sodipodi:linespacing="125%"><tspan
         sodipodi:role="line"
         id="tspan6642-4-35-6-90-7"
         x="-408.80014"
         y="397.71927"
         style="font-style:normal;font-variant:normal;font-weight:500;font-stretch:normal;font-size:15px;font-family:'URW Palladio L';-inkscape-font-specification:'URW Palladio L Medium'">b</tspan></text>
    <text
       xml:space="preserve"
       style="font-style:normal;font-weight:normal;font-size:15px;line-height:125%;font-family:sans-serif;letter-spacing:5px;word-spacing:0px;fill:#000000;fill-opacity:1;stroke:none;stroke-width:1px;stroke-linecap:butt;stroke-linejoin:miter;stroke-opacity:1"
       x="-359.80307"
       y="436.38824"
       id="text6640-9-5-0-9-2"
       sodipodi:linespacing="125%"><tspan
         sodipodi:role="line"
         id="tspan6642-4-35-6-9-7"
         x="-359.80307"
         y="436.38824"
         style="font-style:normal;font-variant:normal;font-weight:500;font-stretch:normal;font-size:15px;font-family:'URW Palladio L';-inkscape-font-specification:'URW Palladio L Medium'">b</tspan></text>
    <rect
       style="opacity:1;fill:#000000;fill-opacity:1;stroke:none;stroke-width:0.40000001;stroke-linecap:round;stroke-linejoin:round;stroke-miterlimit:4;stroke-dasharray:none;stroke-dashoffset:0;stroke-opacity:1"
       id="rect6662-7-9-6"
       width="5.2030087"
       height="0.90206528"
       x="-358.95792"
       y="422.68546" />
    <path
       style="fill:none;fill-rule:evenodd;stroke:#000000;stroke-width:1;stroke-linecap:round;stroke-linejoin:miter;stroke-miterlimit:4;stroke-dasharray:1, 3;stroke-dashoffset:0;stroke-opacity:1"
       d="m -408.03091,409.48874 -12.14183,-27.88616 -47.81613,0"
       id="path8070"
       inkscape:connector-curvature="0"
       sodipodi:nodetypes="ccc" />
    <text
       xml:space="preserve"
       style="font-style:normal;font-weight:normal;font-size:12.5px;line-height:125%;font-family:sans-serif;letter-spacing:0px;word-spacing:0px;fill:#000000;fill-opacity:1;stroke:none;stroke-width:1px;stroke-linecap:butt;stroke-linejoin:miter;stroke-opacity:1"
       x="-467.49652"
       y="376.64807"
       id="text6640-9-5-0-9-1-6-0-4-7-7-7-5-8-3"
       sodipodi:linespacing="125%"><tspan
         sodipodi:role="line"
         id="tspan6642-4-35-6-9-4-39-4-7-0-8-3-6-9-8"
         x="-467.49652"
         y="376.64807"
         style="font-style:normal;font-variant:normal;font-weight:500;font-stretch:normal;font-size:12.5px;font-family:'URW Palladio L';-inkscape-font-specification:'URW Palladio L Medium';letter-spacing:0px">5 FS</tspan></text>
    <text
       xml:space="preserve"
       style="font-style:normal;font-weight:normal;font-size:12.5px;line-height:125%;font-family:sans-serif;letter-spacing:0px;word-spacing:0px;fill:#000000;fill-opacity:1;stroke:none;stroke-width:1px;stroke-linecap:butt;stroke-linejoin:miter;stroke-opacity:1"
       x="-467.44913"
       y="457.44037"
       id="text6640-9-5-0-9-1-6-0-4-7-7-7-5-8-3-8"
       sodipodi:linespacing="125%"><tspan
         sodipodi:role="line"
         id="tspan6642-4-35-6-9-4-39-4-7-0-8-3-6-9-8-1"
         x="-467.44913"
         y="457.44037"
         style="font-style:normal;font-variant:normal;font-weight:500;font-stretch:normal;font-size:12.5px;font-family:'URW Palladio L';-inkscape-font-specification:'URW Palladio L Medium';letter-spacing:0px">4 FS</tspan></text>
    <path
       style="fill:none;fill-rule:evenodd;stroke:#000000;stroke-width:1;stroke-linecap:round;stroke-linejoin:miter;stroke-miterlimit:4;stroke-dasharray:1, 3;stroke-dashoffset:0;stroke-opacity:1"
       d="m -437.69969,410.8177 13.73031,31.53441 -44.90781,0"
       id="path8070-1"
       inkscape:connector-curvature="0"
       sodipodi:nodetypes="ccc" />
  </g>
</svg>
