<?xml version="1.0" encoding="UTF-8" standalone="no"?>
<!-- Created with Inkscape (http://www.inkscape.org/) -->

<svg
   xmlns:dc="http://purl.org/dc/elements/1.1/"
   xmlns:cc="http://creativecommons.org/ns#"
   xmlns:rdf="http://www.w3.org/1999/02/22-rdf-syntax-ns#"
   xmlns:svg="http://www.w3.org/2000/svg"
   xmlns="http://www.w3.org/2000/svg"
   xmlns:sodipodi="http://sodipodi.sourceforge.net/DTD/sodipodi-0.dtd"
   xmlns:inkscape="http://www.inkscape.org/namespaces/inkscape"
   width="38.163296mm"
   height="30mm"
   viewBox="0 0 135.22428 106.29921"
   id="svg9718"
   version="1.1"
   inkscape:version="0.91 r13725"
   sodipodi:docname="qq2tt_2.svg">
  <defs
     id="defs9720">
    <clipPath
       clipPathUnits="userSpaceOnUse"
       id="clipPath1928-4-0-6-7">
      <path
         d="m 1425.66,1274.15 0,0 c 0,-9.82 -7.95,-17.78 -17.78,-17.78 l 0,2.43 0,-2.43 c -9.82,0 -17.77,7.96 -17.77,17.78 l 2.42,0 -2.42,0 c 0,9.82 7.95,17.78 17.77,17.78 l 0,-2.43 0,2.43 c 9.83,0 17.78,-7.96 17.78,-17.78 l -2.43,0 2.43,0 m -4.85,0 0,0 c 0,7.14 -5.79,12.92 -12.93,12.92 l 0,0 c -7.13,0 -12.92,-5.78 -12.92,-12.92 l 0,0 c 0,-7.14 5.79,-12.92 12.92,-12.92 l 0,0 c 7.14,0 12.93,5.78 12.93,12.92 z"
         id="path1930-6-9-5-6"
         inkscape:connector-curvature="0" />
    </clipPath>
    <clipPath
       clipPathUnits="userSpaceOnUse"
       id="clipPath1918-8-8-2-8">
      <path
         d="m 1423.23,1274.15 c 0,-8.48 -6.87,-15.35 -15.35,-15.35 -8.47,0 -15.35,6.87 -15.35,15.35 0,8.48 6.88,15.35 15.35,15.35 8.48,0 15.35,-6.87 15.35,-15.35 z"
         id="path1920-1-1-6-7"
         inkscape:connector-curvature="0" />
    </clipPath>
    <clipPath
       clipPathUnits="userSpaceOnUse"
       id="clipPath1928-4-0-6">
      <path
         d="m 1425.66,1274.15 0,0 c 0,-9.82 -7.95,-17.78 -17.78,-17.78 l 0,2.43 0,-2.43 c -9.82,0 -17.77,7.96 -17.77,17.78 l 2.42,0 -2.42,0 c 0,9.82 7.95,17.78 17.77,17.78 l 0,-2.43 0,2.43 c 9.83,0 17.78,-7.96 17.78,-17.78 l -2.43,0 2.43,0 m -4.85,0 0,0 c 0,7.14 -5.79,12.92 -12.93,12.92 l 0,0 c -7.13,0 -12.92,-5.78 -12.92,-12.92 l 0,0 c 0,-7.14 5.79,-12.92 12.92,-12.92 l 0,0 c 7.14,0 12.93,5.78 12.93,12.92 z"
         id="path1930-6-9-5"
         inkscape:connector-curvature="0" />
    </clipPath>
    <clipPath
       clipPathUnits="userSpaceOnUse"
       id="clipPath1918-8-8-2">
      <path
         d="m 1423.23,1274.15 c 0,-8.48 -6.87,-15.35 -15.35,-15.35 -8.47,0 -15.35,6.87 -15.35,15.35 0,8.48 6.88,15.35 15.35,15.35 8.48,0 15.35,-6.87 15.35,-15.35 z"
         id="path1920-1-1-6"
         inkscape:connector-curvature="0" />
    </clipPath>
    <clipPath
       clipPathUnits="userSpaceOnUse"
       id="clipPath2398">
      <path
         d="m 2090.76,206.078 0,0 48.06,-20.598 5.87,-2.515 -6.06,-2.02 -20.59,-6.867 -0.77,2.305 2.3,-0.77 -6.87,-20.593 -2.01,-6.059 -2.51,5.867 -20.6,48.063 -2.39,5.578 5.57,-2.391 m -1.91,-4.465 0.95,2.231 2.24,0.957 20.6,-48.059 -2.24,-0.957 -2.3,0.766 6.87,20.597 0.38,1.153 1.15,0.383 20.6,6.867 0.77,-2.305 -0.96,-2.23 -48.06,20.597 z"
         id="path2400"
         inkscape:connector-curvature="0" />
    </clipPath>
    <clipPath
       clipPathUnits="userSpaceOnUse"
       id="clipPath2388">
      <path
         d="m 2089.8,203.844 48.07,-20.598 -20.6,-6.863 -6.87,-20.598 -20.6,48.059 z"
         id="path2390"
         inkscape:connector-curvature="0" />
    </clipPath>
    <clipPath
       clipPathUnits="userSpaceOnUse"
       id="clipPath2378">
      <path
         d="m 2258.89,27.8945 0,0 -310.7,310.7075 -3.44,3.433 6.87,6.863 3.43,-3.433 310.71,-310.7033 3.43,-3.4336 -6.87,-6.8672 -3.43,3.4336 z"
         id="path2380"
         inkscape:connector-curvature="0" />
    </clipPath>
    <clipPath
       clipPathUnits="userSpaceOnUse"
       id="clipPath2368">
      <path
         d="m 2126.37,513.598 0,0 -20.6,-48.063 -2.52,-5.871 -2.01,6.059 -6.87,20.593 2.31,0.774 -0.77,-2.305 -20.6,6.867 -6.06,2.016 5.87,2.516 48.06,20.597 5.58,2.387 -2.39,-5.57 m -4.47,1.906 2.24,-0.957 0.95,-2.227 -48.06,-20.597 -0.96,2.23 0.77,2.301 20.6,-6.863 1.15,-0.383 0.39,-1.153 6.86,-20.597 -2.3,-0.766 -2.24,0.953 20.6,48.059 z"
         id="path2370"
         inkscape:connector-curvature="0" />
    </clipPath>
    <clipPath
       clipPathUnits="userSpaceOnUse"
       id="clipPath2358">
      <path
         d="m 2124.14,514.547 -20.6,-48.055 -6.86,20.598 -20.61,6.863 48.07,20.594 z"
         id="path2360"
         inkscape:connector-curvature="0" />
    </clipPath>
    <clipPath
       clipPathUnits="userSpaceOnUse"
       id="clipPath2348">
      <path
         d="m 1948.19,345.465 0,0 310.7,310.707 3.43,3.433 6.87,-6.867 -3.43,-3.429 -310.71,-310.707 -3.43,-3.434 -6.87,6.867 3.44,3.43 z"
         id="path2350"
         inkscape:connector-curvature="0" />
    </clipPath>
    <clipPath
       clipPathUnits="userSpaceOnUse"
       id="clipPath2338">
      <path
         d="m 1636.16,343.047 0,0 c 3.1,14.516 15.55,28.117 41,28.117 l 0,-4.855 0,4.855 c 24.41,0 35.22,-18.344 35.22,-33.961 l 0,0 c 0,-11.332 -6.12,-24.297 -19.68,-24.297 l 0,4.852 0,-4.852 c -12.62,0 -18.93,11.36 -18.93,22.192 l 0,0 c 0,16.882 13.94,36.066 44.82,36.066 l 0,-4.855 0,4.855 c 30.88,0 44.82,-19.184 44.82,-36.066 l 0,0 c 0,-10.832 -6.31,-22.192 -18.93,-22.192 l 0,4.852 0,-4.852 c -12.62,0 -18.93,11.36 -18.93,22.192 l 0,0 c 0,16.882 13.94,36.066 44.83,36.066 l 0,-4.855 0,4.855 c 30.88,0 44.82,-19.184 44.82,-36.066 l 0,0 c 0,-10.832 -6.31,-22.192 -18.93,-22.192 l 0,4.852 0,-4.852 c -12.62,0 -18.93,11.36 -18.93,22.192 l 0,0 c 0,16.882 13.93,36.066 44.82,36.066 l 0,-4.855 0,4.855 c 30.88,0 44.82,-19.184 44.82,-36.066 l 0,0 c 0,-10.832 -6.31,-22.192 -18.93,-22.192 l 0,4.852 0,-4.852 c -12.62,0 -18.93,11.36 -18.93,22.192 l 0,0 c 0,16.882 13.94,36.066 44.82,36.066 l 0,-4.855 0,4.855 c 30.88,0 44.82,-19.184 44.82,-36.066 l 0,0 c 0,-10.832 -6.31,-22.192 -18.93,-22.192 l 0,4.852 0,-4.852 c -13.56,0 -19.68,12.965 -19.68,24.297 l 0,0 c 0,15.617 10.81,33.961 35.22,33.961 l 0,-4.855 0,4.855 c 25.45,0 37.9,-13.601 41,-28.117 l 1.01,-4.746 -9.49,-2.031 -1.02,4.75 c -2.08,9.757 -10.35,20.433 -31.5,20.433 l 0,0 c -17.96,0 -25.51,-12.848 -25.51,-24.25 l 0,0 c 0,-9.324 4.61,-14.59 9.97,-14.59 l 0,0 c 5.01,0 9.22,4.453 9.22,12.485 l 0,0 c 0,10.988 -9.04,26.355 -35.11,26.355 l 0,0 c -26.07,0 -35.11,-15.367 -35.11,-26.355 l 0,0 c 0,-8.032 4.21,-12.485 9.22,-12.485 l 0,0 c 5.01,0 9.22,4.453 9.22,12.485 l 0,0 c 0,10.988 -9.04,26.355 -35.11,26.355 l 0,0 c -26.07,0 -35.11,-15.367 -35.11,-26.355 l 0,0 c 0,-8.032 4.2,-12.485 9.22,-12.485 l 0,0 c 5.01,0 9.21,4.453 9.21,12.485 l 0,0 c 0,10.988 -9.03,26.355 -35.1,26.355 l 0,0 c -26.08,0 -35.12,-15.367 -35.12,-26.355 l 0,0 c 0,-8.032 4.21,-12.485 9.22,-12.485 l 0,0 c 5.01,0 9.22,4.453 9.22,12.485 l 0,0 c 0,10.988 -9.04,26.355 -35.11,26.355 l 0,0 c -26.07,0 -35.11,-15.367 -35.11,-26.355 l 0,0 c 0,-8.032 4.21,-12.485 9.22,-12.485 l 0,0 c 5.36,0 9.97,5.266 9.97,14.59 l 0,0 c 0,11.402 -7.54,24.25 -25.51,24.25 l 0,0 c -21.15,0 -29.42,-10.676 -31.5,-20.433 l -1.02,-4.75 -9.49,2.031 1.01,4.746 z"
         id="path2340"
         inkscape:connector-curvature="0" />
    </clipPath>
    <clipPath
       clipPathUnits="userSpaceOnUse"
       id="clipPath2328">
      <path
         d="m 1326.1,28.7383 0,0 c -8.02,12.7109 -8.15,31.5273 10.7,50.375 l 3.43,-3.4336 -3.43,3.4336 c 17.66,17.664 38.54,12.4883 49.68,1.3476 l 0,0 c 7.98,-7.9765 12.68,-21.3671 3.16,-30.8906 l -3.43,3.4336 3.43,-3.4336 c -8.83,-8.8359 -21.19,-5.4258 -28.81,2.1836 l 0,0 c -12.05,12.0508 -15.51,35.875 7.04,58.4301 l 3.43,-3.434 -3.43,3.434 c 22.55,22.55 46.37,19.086 58.42,7.035 l 0.01,0 c 7.61,-7.61 11.01,-19.9768 2.18,-28.8127 l -3.43,3.4335 3.43,-3.4335 c -8.83,-8.8321 -21.2,-5.4219 -28.81,2.1875 l 0,0 c -12.05,12.0512 -15.52,35.8752 7.03,58.4262 l 3.44,-3.434 -3.44,3.434 c 22.56,22.554 46.38,19.085 58.43,7.035 l 0,0 c 7.61,-7.61 11.02,-19.973 2.19,-28.809 l -3.43,3.434 3.43,-3.434 c -8.84,-8.836 -21.2,-5.426 -28.81,2.184 l 0,0 c -12.05,12.05 -15.52,35.875 7.03,58.429 l 3.43,-3.433 -3.43,3.433 c 22.56,22.551 46.38,19.086 58.43,7.036 l 0,0 c 7.61,-7.61 11.02,-19.977 2.19,-28.813 l -3.43,3.434 3.43,-3.434 c -8.84,-8.832 -21.2,-5.422 -28.81,2.188 l 0,0 c -12.05,12.05 -15.52,35.875 7.03,58.425 l 3.43,-3.429 -3.43,3.429 c 22.56,22.555 46.38,19.09 58.43,7.035 l 0,0 c 7.61,-7.609 11.02,-19.972 2.19,-28.808 l -3.43,3.433 3.43,-3.433 c -8.84,-8.836 -21.2,-5.426 -28.82,2.183 l 0,0 c -12.05,12.051 -15.51,35.879 7.04,58.43 l 3.43,-3.433 -3.43,3.433 c 22.55,22.555 46.38,19.086 58.42,7.035 l 0,0 c 7.62,-7.609 11.03,-19.976 2.2,-28.808 l -3.44,3.429 3.44,-3.429 c -8.84,-8.836 -21.21,-5.426 -28.82,2.183 l 0,0 c -12.05,12.051 -15.51,35.875 7.04,58.43 l 3.43,-3.434 -3.43,3.434 c 22.55,22.551 46.37,19.086 58.42,7.035 l 0,0 c 7.62,-7.613 11.02,-19.976 2.19,-28.812 l -3.43,3.433 3.43,-3.433 c -9.52,-9.524 -22.91,-4.817 -30.89,3.16 l 0,0 c -11.14,11.14 -16.32,32.023 1.35,49.687 l 0,0 0,0 c 18.84,18.848 37.66,18.715 50.37,10.696 l 4.11,-2.594 -5.18,-8.207 -4.11,2.586 c -8.34,5.262 -22.21,6.762 -38.32,-9.348 l -3.44,3.434 3.44,-3.434 c -13.22,-13.215 -9.39,-27.914 -1.35,-35.953 l 0,0 c 6.5,-6.504 13.39,-6.93 17.15,-3.16 l -7.72,-7.727 7.72,7.727 c 3.52,3.512 3.38,9.523 -2.18,15.082 l 0,0 c -7.73,7.726 -25.38,12.277 -44.69,-7.039 l 11.75,11.758 -11.75,-11.758 c -19.32,-19.313 -14.77,-36.969 -7.04,-44.695 l 0,0 c 5.56,-5.559 11.57,-5.7 15.07,-2.188 l -7.72,-7.723 7.72,7.723 c 3.52,3.512 3.38,9.523 -2.18,15.082 l 0,0 c -7.73,7.727 -25.38,12.277 -44.69,-7.039 l 11.75,11.758 -11.75,-11.758 c -19.32,-19.313 -14.77,-36.969 -7.04,-44.695 l 0,0 c 5.56,-5.555 11.57,-5.696 15.08,-2.184 l -5.15,-5.152 5.15,5.152 c 3.51,3.512 3.37,9.524 -2.19,15.078 l 0,0 c -7.73,7.727 -25.38,12.278 -44.69,-7.035 l 11.75,11.758 -11.75,-11.758 c -19.32,-19.316 -14.76,-36.969 -7.04,-44.695 l 0,0 c 5.56,-5.559 11.57,-5.699 15.08,-2.188 l -15.45,-15.449 15.45,15.449 c 3.51,3.512 3.37,9.524 -2.18,15.078 l 0,0 c -7.73,7.731 -25.39,12.282 -44.7,-7.035 l 11.49,11.488 -11.49,-11.488 c -19.32,-19.312 -14.76,-36.965 -7.04,-44.695 l 0,0 c 5.56,-5.555 11.57,-5.695 15.08,-2.184 l 0,0 c 3.51,3.512 3.37,9.524 -2.18,15.078 l 0,0 c -7.73,7.727 -25.38,12.278 -44.7,-7.035 l 0,0 c -19.31,-19.316 -14.76,-36.968 -7.03,-44.6951 l 0,0 c 5.55,-5.5586 11.56,-5.6992 15.07,-2.1875 l -15.45,-15.4492 15.45,15.4492 c 3.52,3.5118 3.38,9.5236 -2.18,15.0786 l 0,0 c -7.73,7.73 -25.38,12.277 -44.7,-7.036 l 0,0 c -19.31,-19.3121 -14.76,-36.9683 -7.03,-44.6949 l 0,0 c 5.55,-5.5586 11.57,-5.6992 15.07,-2.1875 l -15.44,-15.4453 15.44,15.4453 c 3.78,3.7695 3.35,10.6562 -3.16,17.1602 l 0,0 c -8.04,8.039 -22.73,11.871 -35.95,-1.3477 l 27.13,27.1211 -27.13,-27.1211 c -16.1,-16.1094 -14.61,-29.9883 -9.34,-38.3281 l 2.58,-4.1055 -8.21,-5.1797 -2.59,4.1055 z"
         id="path2330"
         inkscape:connector-curvature="0" />
    </clipPath>
    <clipPath
       clipPathUnits="userSpaceOnUse"
       id="clipPath2318">
      <path
         d="m 1327.61,656.848 0,0 c 12.72,8.019 31.54,8.148 50.38,-10.696 l 0,0 0,0 c 17.67,-17.668 12.49,-38.547 1.35,-49.683 l 0,0 c -7.98,-7.985 -21.37,-12.688 -30.89,-3.168 l 3.43,3.433 -3.43,-3.433 c -8.83,8.836 -5.43,21.203 2.18,28.812 l 0,0 c 12.06,12.051 35.88,15.52 58.43,-7.031 l -3.43,-3.437 3.43,3.437 c 22.55,-22.559 19.09,-46.379 7.04,-58.43 l 0,0 c -7.62,-7.609 -19.98,-11.019 -28.81,-2.187 l 3.43,3.43 -3.43,-3.43 c -8.84,8.836 -5.43,21.199 2.18,28.812 l 0,0 c 12.05,12.051 35.88,15.516 58.43,-7.035 l -3.43,-3.437 3.43,3.437 c 22.55,-22.554 19.08,-46.379 7.04,-58.433 l 0,0 c -7.62,-7.606 -19.98,-11.016 -28.81,-2.184 l 3.42,3.434 -3.42,-3.434 c -8.84,8.836 -5.43,21.203 2.18,28.813 l 0,0 c 12.05,12.05 35.87,15.515 58.43,-7.036 l -3.43,-3.433 3.43,3.433 c 22.55,-22.554 19.08,-46.375 7.03,-58.425 l 0,0 c -7.61,-7.614 -19.97,-11.02 -28.81,-2.188 l 3.43,3.43 -3.43,-3.43 c -8.83,8.836 -5.42,21.199 2.18,28.813 l 0,0 c 12.06,12.046 35.88,15.515 58.44,-7.036 l -3.44,-3.437 3.44,3.437 c 22.55,-22.554 19.08,-46.378 7.03,-58.425 l 0,0 c -7.61,-7.614 -19.97,-11.024 -28.81,-2.192 l 3.43,3.434 -3.43,-3.434 c -8.83,8.836 -5.42,21.199 2.18,28.813 l 0,0 c 12.06,12.051 35.88,15.515 58.44,-7.035 l -3.44,-3.438 3.44,3.438 c 22.54,-22.555 19.08,-46.375 7.03,-58.43 l 0,0 c -7.61,-7.609 -19.98,-11.016 -28.81,-2.188 l 3.43,3.434 -3.43,-3.434 c -8.83,8.836 -5.43,21.204 2.18,28.817 l 0,0 c 12.06,12.047 35.88,15.515 58.43,-7.035 l -3.43,-3.438 3.43,3.438 c 22.55,-22.555 19.09,-46.379 7.04,-58.434 l 0,0 c -7.61,-7.605 -19.98,-11.016 -28.81,-2.184 l 3.43,3.434 -3.43,-3.434 c -9.52,9.524 -4.82,22.915 3.16,30.891 l 0,0 c 11.14,11.141 32.02,16.316 49.68,-1.344 l 6.66,-6.66 -6.66,6.66 c 18.85,-18.847 18.72,-37.664 10.7,-50.379 l -2.59,-4.101 -8.21,5.18 2.58,4.105 c 5.27,8.336 6.77,22.215 -9.34,38.324 l 3.43,3.438 -3.43,-3.438 c -13.22,13.219 -27.92,9.391 -35.96,1.352 l 0,0 c -6.5,-6.504 -6.93,-13.391 -3.16,-17.16 l 0,0 0,0 c 3.52,-3.512 9.53,-3.371 15.09,2.187 l 0,0 c 7.72,7.727 12.27,25.379 -7.04,44.692 l -17.13,17.128 17.13,-17.128 c -19.32,19.316 -36.97,14.769 -44.7,7.035 l 0,0 c -5.56,-5.555 -5.7,-11.563 -2.18,-15.075 l 0,0 0,0 c 3.51,-3.515 9.52,-3.375 15.08,2.184 l 0,0 c 7.72,7.731 12.27,25.383 -7.04,44.695 l -17.13,17.125 17.13,-17.125 c -19.32,19.317 -36.97,14.766 -44.69,7.036 l 0,0 c -5.56,-5.555 -5.71,-11.567 -2.19,-15.075 l 0,0 0,0 c 3.51,-3.515 9.52,-3.375 15.08,2.184 l 0,0 c 7.72,7.726 12.28,25.379 -7.04,44.691 l -11.75,11.758 11.75,-11.758 c -19.32,19.317 -36.96,14.77 -44.69,7.035 l 0,0 c -5.56,-5.554 -5.7,-11.562 -2.19,-15.074 l 0,0 0,0 c 3.51,-3.515 9.52,-3.375 15.08,2.184 l 0,0 c 7.72,7.73 12.28,25.383 -7.04,44.695 l -11.75,11.758 11.75,-11.758 c -19.31,19.317 -36.96,14.77 -44.69,7.035 l 0,0 c -5.56,-5.554 -5.7,-11.566 -2.19,-15.074 l 5.15,-5.152 -5.15,5.152 c 3.51,-3.516 9.52,-3.375 15.08,2.184 l 0,0 c 7.73,7.73 12.28,25.379 -7.04,44.691 l -17.12,17.129 17.12,-17.129 c -19.31,19.32 -36.96,14.77 -44.69,7.035 l 0,0 c -5.56,-5.551 -5.7,-11.562 -2.18,-15.074 l 0,0 0,0 c 3.5,-3.512 9.52,-3.371 15.07,2.188 l 0,0 c 7.73,7.726 12.28,25.378 -7.03,44.691 l -11.76,11.758 11.76,-11.758 c -19.32,19.316 -36.97,14.769 -44.7,7.035 l 0,0 c -5.56,-5.555 -5.7,-11.566 -2.18,-15.074 l 0,0 0,0 c 3.76,-3.774 10.65,-3.344 17.15,3.16 l 0,0 c 8.04,8.039 11.87,22.734 -1.34,35.949 l 3.43,3.438 -3.43,-3.438 c -16.11,16.114 -29.99,14.614 -38.33,9.352 l -4.11,-2.59 -5.18,8.211 4.1,2.594 z"
         id="path2320"
         inkscape:connector-curvature="0" />
    </clipPath>
  </defs>
  <sodipodi:namedview
     id="base"
     pagecolor="#ffffff"
     bordercolor="#666666"
     borderopacity="1.0"
     inkscape:pageopacity="0.0"
     inkscape:pageshadow="2"
     inkscape:zoom="2.8"
     inkscape:cx="-0.017123429"
     inkscape:cy="13.382294"
     inkscape:document-units="px"
     inkscape:current-layer="layer1"
     showgrid="false"
     fit-margin-top="0.1"
     fit-margin-right="0.1"
     fit-margin-bottom="0.1"
     fit-margin-left="0.1"
     inkscape:window-width="1920"
     inkscape:window-height="1016"
     inkscape:window-x="0"
     inkscape:window-y="27"
     inkscape:window-maximized="1" />
  <metadata
     id="metadata9723">
    <rdf:RDF>
      <cc:Work
         rdf:about="">
        <dc:format>image/svg+xml</dc:format>
        <dc:type
           rdf:resource="http://purl.org/dc/dcmitype/StillImage" />
        <dc:title></dc:title>
      </cc:Work>
    </rdf:RDF>
  </metadata>
  <g
     inkscape:label="Layer 1"
     inkscape:groupmode="layer"
     id="layer1"
     transform="translate(659.04071,269.38392)">
    <g
       id="g2314"
       transform="matrix(0.125,0,0,-0.125,-813.87784,-173.45157)">
      <g
         clip-path="url(#clipPath2318)"
         id="g2316">
        <path
           inkscape:connector-curvature="0"
           id="path2322"
           style="fill:#000000;fill-opacity:1;fill-rule:nonzero;stroke:none"
           d="m 1327.61,656.848 0,0 c 12.72,8.019 31.54,8.148 50.38,-10.696 l 0,0 c 17.67,-17.668 12.49,-38.547 1.35,-49.683 l 0,0 c -7.98,-7.985 -21.37,-12.688 -30.89,-3.168 l 3.43,3.433 -3.43,-3.433 c -8.83,8.836 -5.43,21.203 2.18,28.812 l 0,0 c 12.06,12.051 35.88,15.52 58.43,-7.031 l -3.43,-3.437 3.43,3.437 c 22.55,-22.559 19.09,-46.379 7.04,-58.43 l 0,0 c -7.62,-7.609 -19.98,-11.019 -28.81,-2.187 l 3.43,3.43 -3.43,-3.43 c -8.84,8.836 -5.43,21.199 2.18,28.812 l 0,0 c 12.05,12.051 35.88,15.516 58.43,-7.035 l -3.43,-3.437 3.43,3.437 c 22.55,-22.554 19.08,-46.379 7.04,-58.433 l 0,0 c -7.62,-7.606 -19.98,-11.016 -28.81,-2.184 l 3.42,3.434 -3.42,-3.434 c -8.84,8.836 -5.43,21.203 2.18,28.813 l 0,0 c 12.05,12.05 35.87,15.515 58.43,-7.036 l -3.43,-3.433 3.43,3.433 c 22.55,-22.554 19.08,-46.375 7.03,-58.425 l 0,0 c -7.61,-7.614 -19.97,-11.02 -28.81,-2.188 l 3.43,3.43 -3.43,-3.43 c -8.83,8.836 -5.42,21.199 2.18,28.813 l 0,0 c 12.06,12.046 35.88,15.515 58.44,-7.036 l -3.44,-3.437 3.44,3.437 c 22.55,-22.554 19.08,-46.378 7.03,-58.425 l 0,0 c -7.61,-7.614 -19.97,-11.024 -28.81,-2.192 l 3.43,3.434 -3.43,-3.434 c -8.83,8.836 -5.42,21.199 2.18,28.813 l 0,0 c 12.06,12.051 35.88,15.515 58.44,-7.035 l -3.44,-3.438 3.44,3.438 c 22.54,-22.555 19.08,-46.375 7.03,-58.43 l 0,0 c -7.61,-7.609 -19.98,-11.016 -28.81,-2.188 l 3.43,3.434 -3.43,-3.434 c -8.83,8.836 -5.43,21.204 2.18,28.817 l 0,0 c 12.06,12.047 35.88,15.515 58.43,-7.035 l -3.43,-3.438 3.43,3.438 c 22.55,-22.555 19.09,-46.379 7.04,-58.434 l 0,0 c -7.61,-7.605 -19.98,-11.016 -28.81,-2.184 l 3.43,3.434 -3.43,-3.434 c -9.52,9.524 -4.82,22.915 3.16,30.891 l 0,0 c 11.14,11.141 32.02,16.316 49.68,-1.344 l 6.66,-6.66 -6.66,6.66 c 18.85,-18.847 18.72,-37.664 10.7,-50.379 l -2.59,-4.101 -8.21,5.18 2.58,4.105 c 5.27,8.336 6.77,22.215 -9.34,38.324 l 3.43,3.438 -3.43,-3.438 c -13.22,13.219 -27.92,9.391 -35.96,1.352 l 0,0 c -6.5,-6.504 -6.93,-13.391 -3.16,-17.16 l 0,0 c 3.52,-3.512 9.53,-3.371 15.09,2.187 l 0,0 c 7.72,7.727 12.27,25.379 -7.04,44.692 l -17.13,17.128 17.13,-17.128 c -19.32,19.316 -36.97,14.769 -44.7,7.035 l 0,0 c -5.56,-5.555 -5.7,-11.563 -2.18,-15.075 l 0,0 c 3.51,-3.515 9.52,-3.375 15.08,2.184 l 0,0 c 7.72,7.731 12.27,25.383 -7.04,44.695 l -17.13,17.125 17.13,-17.125 c -19.32,19.317 -36.97,14.766 -44.69,7.036 l 0,0 c -5.56,-5.555 -5.71,-11.567 -2.19,-15.075 l 0,0 c 3.51,-3.515 9.52,-3.375 15.08,2.184 l 0,0 c 7.72,7.726 12.28,25.379 -7.04,44.691 l -11.75,11.758 11.75,-11.758 c -19.32,19.317 -36.96,14.77 -44.69,7.035 l 0,0 c -5.56,-5.554 -5.7,-11.562 -2.19,-15.074 l 0,0 c 3.51,-3.515 9.52,-3.375 15.08,2.184 l 0,0 c 7.72,7.73 12.28,25.383 -7.04,44.695 l -11.75,11.758 11.75,-11.758 c -19.31,19.317 -36.96,14.77 -44.69,7.035 l 0,0 c -5.56,-5.554 -5.7,-11.566 -2.19,-15.074 l 5.15,-5.152 -5.15,5.152 c 3.51,-3.516 9.52,-3.375 15.08,2.184 l 0,0 c 7.73,7.73 12.28,25.379 -7.04,44.691 l -17.12,17.129 17.12,-17.129 c -19.31,19.32 -36.96,14.77 -44.69,7.035 l 0,0 c -5.56,-5.551 -5.7,-11.562 -2.18,-15.074 l 0,0 c 3.5,-3.512 9.52,-3.371 15.07,2.188 l 0,0 c 7.73,7.726 12.28,25.378 -7.03,44.691 l -11.76,11.758 11.76,-11.758 c -19.32,19.316 -36.97,14.769 -44.7,7.035 l 0,0 c -5.56,-5.555 -5.7,-11.566 -2.18,-15.074 l 0,0 c 3.76,-3.774 10.65,-3.344 17.15,3.16 l 0,0 c 8.04,8.039 11.87,22.734 -1.34,35.949 l 3.43,3.438 -3.43,-3.438 c -16.11,16.114 -29.99,14.614 -38.33,9.352 l -4.11,-2.59 -5.18,8.211" />
      </g>
    </g>
    <g
       id="g2324"
       transform="matrix(0.125,0,0,-0.125,-813.87784,-173.45157)">
      <g
         clip-path="url(#clipPath2328)"
         id="g2326">
        <path
           inkscape:connector-curvature="0"
           id="path2332"
           style="fill:#000000;fill-opacity:1;fill-rule:nonzero;stroke:none"
           d="m 1326.1,28.7383 0,0 c -8.02,12.7109 -8.15,31.5273 10.7,50.375 l 3.43,-3.4336 -3.43,3.4336 c 17.66,17.664 38.54,12.4883 49.68,1.3476 l 0,0 c 7.98,-7.9765 12.68,-21.3671 3.16,-30.8906 l -3.43,3.4336 3.43,-3.4336 c -8.83,-8.8359 -21.19,-5.4258 -28.81,2.1836 l 0,0 c -12.05,12.0508 -15.51,35.875 7.04,58.4301 l 3.43,-3.434 -3.43,3.434 c 22.55,22.55 46.37,19.086 58.42,7.035 l 0.01,0 c 7.61,-7.61 11.01,-19.9768 2.18,-28.8127 l -3.43,3.4335 3.43,-3.4335 c -8.83,-8.8321 -21.2,-5.4219 -28.81,2.1875 l 0,0 c -12.05,12.0512 -15.52,35.8752 7.03,58.4262 l 3.44,-3.434 -3.44,3.434 c 22.56,22.554 46.38,19.085 58.43,7.035 l 0,0 c 7.61,-7.61 11.02,-19.973 2.19,-28.809 l -3.43,3.434 3.43,-3.434 c -8.84,-8.836 -21.2,-5.426 -28.81,2.184 l 0,0 c -12.05,12.05 -15.52,35.875 7.03,58.429 l 3.43,-3.433 -3.43,3.433 c 22.56,22.551 46.38,19.086 58.43,7.036 l 0,0 c 7.61,-7.61 11.02,-19.977 2.19,-28.813 l -3.43,3.434 3.43,-3.434 c -8.84,-8.832 -21.2,-5.422 -28.81,2.188 l 0,0 c -12.05,12.05 -15.52,35.875 7.03,58.425 l 3.43,-3.429 -3.43,3.429 c 22.56,22.555 46.38,19.09 58.43,7.035 l 0,0 c 7.61,-7.609 11.02,-19.972 2.19,-28.808 l -3.43,3.433 3.43,-3.433 c -8.84,-8.836 -21.2,-5.426 -28.82,2.183 l 0,0 c -12.05,12.051 -15.51,35.879 7.04,58.43 l 3.43,-3.433 -3.43,3.433 c 22.55,22.555 46.38,19.086 58.42,7.035 l 0,0 c 7.62,-7.609 11.03,-19.976 2.2,-28.808 l -3.44,3.429 3.44,-3.429 c -8.84,-8.836 -21.21,-5.426 -28.82,2.183 l 0,0 c -12.05,12.051 -15.51,35.875 7.04,58.43 l 3.43,-3.434 -3.43,3.434 c 22.55,22.551 46.37,19.086 58.42,7.035 l 0,0 c 7.62,-7.613 11.02,-19.976 2.19,-28.812 l -3.43,3.433 3.43,-3.433 c -9.52,-9.524 -22.91,-4.817 -30.89,3.16 l 0,0 c -11.14,11.14 -16.32,32.023 1.35,49.687 l 0,0 c 18.84,18.848 37.66,18.715 50.37,10.696 l 4.11,-2.594 -5.18,-8.207 -4.11,2.586 c -8.34,5.262 -22.21,6.762 -38.32,-9.348 l -3.44,3.434 3.44,-3.434 c -13.22,-13.215 -9.39,-27.914 -1.35,-35.953 l 0,0 c 6.5,-6.504 13.39,-6.93 17.15,-3.16 l -7.72,-7.727 7.72,7.727 c 3.52,3.512 3.38,9.523 -2.18,15.082 l 0,0 c -7.73,7.726 -25.38,12.277 -44.69,-7.039 l 11.75,11.758 -11.75,-11.758 c -19.32,-19.313 -14.77,-36.969 -7.04,-44.695 l 0,0 c 5.56,-5.559 11.57,-5.7 15.07,-2.188 l -7.72,-7.723 7.72,7.723 c 3.52,3.512 3.38,9.523 -2.18,15.082 l 0,0 c -7.73,7.727 -25.38,12.277 -44.69,-7.039 l 11.75,11.758 -11.75,-11.758 c -19.32,-19.313 -14.77,-36.969 -7.04,-44.695 l 0,0 c 5.56,-5.555 11.57,-5.696 15.08,-2.184 l -5.15,-5.152 5.15,5.152 c 3.51,3.512 3.37,9.524 -2.19,15.078 l 0,0 c -7.73,7.727 -25.38,12.278 -44.69,-7.035 l 11.75,11.758 -11.75,-11.758 c -19.32,-19.316 -14.76,-36.969 -7.04,-44.695 l 0,0 c 5.56,-5.559 11.57,-5.699 15.08,-2.188 l -15.45,-15.449 15.45,15.449 c 3.51,3.512 3.37,9.524 -2.18,15.078 l 0,0 c -7.73,7.731 -25.39,12.282 -44.7,-7.035 l 11.49,11.488 -11.49,-11.488 c -19.32,-19.312 -14.76,-36.965 -7.04,-44.695 l 0,0 c 5.56,-5.555 11.57,-5.695 15.08,-2.184 l 0,0 c 3.51,3.512 3.37,9.524 -2.18,15.078 l 0,0 c -7.73,7.727 -25.38,12.278 -44.7,-7.035 l 0,0 c -19.31,-19.316 -14.76,-36.968 -7.03,-44.6951 l 0,0 c 5.55,-5.5586 11.56,-5.6992 15.07,-2.1875 l -15.45,-15.4492 15.45,15.4492 c 3.52,3.5118 3.38,9.5236 -2.18,15.0786 l 0,0 c -7.73,7.73 -25.38,12.277 -44.7,-7.036 l 0,0 c -19.31,-19.3121 -14.76,-36.9683 -7.03,-44.6949 l 0,0 c 5.55,-5.5586 11.57,-5.6992 15.07,-2.1875 l -15.44,-15.4453 15.44,15.4453 c 3.78,3.7695 3.35,10.6562 -3.16,17.1602 l 0,0 c -8.04,8.039 -22.73,11.871 -35.95,-1.3477 l 27.13,27.1211 -27.13,-27.1211 c -16.1,-16.1094 -14.61,-29.9883 -9.34,-38.3281 l 2.58,-4.1055 -8.21,-5.1797" />
      </g>
    </g>
    <g
       id="g2334"
       transform="matrix(0.125,0,0,-0.125,-813.87784,-173.45157)">
      <g
         clip-path="url(#clipPath2338)"
         id="g2336">
        <path
           inkscape:connector-curvature="0"
           id="path2342"
           style="fill:#000000;fill-opacity:1;fill-rule:nonzero;stroke:none"
           d="m 1636.16,343.047 0,0 c 3.1,14.516 15.55,28.117 41,28.117 l 0,-4.855 0,4.855 c 24.41,0 35.22,-18.344 35.22,-33.961 l 0,0 c 0,-11.332 -6.12,-24.297 -19.68,-24.297 l 0,4.852 0,-4.852 c -12.62,0 -18.93,11.36 -18.93,22.192 l 0,0 c 0,16.882 13.94,36.066 44.82,36.066 l 0,-4.855 0,4.855 c 30.88,0 44.82,-19.184 44.82,-36.066 l 0,0 c 0,-10.832 -6.31,-22.192 -18.93,-22.192 l 0,4.852 0,-4.852 c -12.62,0 -18.93,11.36 -18.93,22.192 l 0,0 c 0,16.882 13.94,36.066 44.83,36.066 l 0,-4.855 0,4.855 c 30.88,0 44.82,-19.184 44.82,-36.066 l 0,0 c 0,-10.832 -6.31,-22.192 -18.93,-22.192 l 0,4.852 0,-4.852 c -12.62,0 -18.93,11.36 -18.93,22.192 l 0,0 c 0,16.882 13.93,36.066 44.82,36.066 l 0,-4.855 0,4.855 c 30.88,0 44.82,-19.184 44.82,-36.066 l 0,0 c 0,-10.832 -6.31,-22.192 -18.93,-22.192 l 0,4.852 0,-4.852 c -12.62,0 -18.93,11.36 -18.93,22.192 l 0,0 c 0,16.882 13.94,36.066 44.82,36.066 l 0,-4.855 0,4.855 c 30.88,0 44.82,-19.184 44.82,-36.066 l 0,0 c 0,-10.832 -6.31,-22.192 -18.93,-22.192 l 0,4.852 0,-4.852 c -13.56,0 -19.68,12.965 -19.68,24.297 l 0,0 c 0,15.617 10.81,33.961 35.22,33.961 l 0,-4.855 0,4.855 c 25.45,0 37.9,-13.601 41,-28.117 l 1.01,-4.746 -9.49,-2.031 -1.02,4.75 c -2.08,9.757 -10.35,20.433 -31.5,20.433 l 0,0 c -17.96,0 -25.51,-12.848 -25.51,-24.25 l 0,0 c 0,-9.324 4.61,-14.59 9.97,-14.59 l 0,0 c 5.01,0 9.22,4.453 9.22,12.485 l 0,0 c 0,10.988 -9.04,26.355 -35.11,26.355 l 0,0 c -26.07,0 -35.11,-15.367 -35.11,-26.355 l 0,0 c 0,-8.032 4.21,-12.485 9.22,-12.485 l 0,0 c 5.01,0 9.22,4.453 9.22,12.485 l 0,0 c 0,10.988 -9.04,26.355 -35.11,26.355 l 0,0 c -26.07,0 -35.11,-15.367 -35.11,-26.355 l 0,0 c 0,-8.032 4.2,-12.485 9.22,-12.485 l 0,0 c 5.01,0 9.21,4.453 9.21,12.485 l 0,0 c 0,10.988 -9.03,26.355 -35.1,26.355 l 0,0 c -26.08,0 -35.12,-15.367 -35.12,-26.355 l 0,0 c 0,-8.032 4.21,-12.485 9.22,-12.485 l 0,0 c 5.01,0 9.22,4.453 9.22,12.485 l 0,0 c 0,10.988 -9.04,26.355 -35.11,26.355 l 0,0 c -26.07,0 -35.11,-15.367 -35.11,-26.355 l 0,0 c 0,-8.032 4.21,-12.485 9.22,-12.485 l 0,0 c 5.36,0 9.97,5.266 9.97,14.59 l 0,0 c 0,11.402 -7.54,24.25 -25.51,24.25 l 0,0 c -21.15,0 -29.42,-10.676 -31.5,-20.433 l -1.02,-4.75 -9.49,2.031" />
      </g>
    </g>
    <g
       id="g2344"
       transform="matrix(0.125,0,0,-0.125,-813.87784,-173.45157)">
      <g
         clip-path="url(#clipPath2348)"
         id="g2346">
        <path
           inkscape:connector-curvature="0"
           id="path2352"
           style="fill:#000000;fill-opacity:1;fill-rule:nonzero;stroke:none"
           d="m 1948.19,345.465 0,0 310.7,310.707 3.43,3.433 6.87,-6.867 -3.43,-3.429 -310.71,-310.707 -3.43,-3.434 -6.87,6.867" />
      </g>
    </g>
    <g
       id="g2354"
       transform="matrix(0.125,0,0,-0.125,-813.87784,-173.45157)">
      <g
         clip-path="url(#clipPath2358)"
         id="g2356">
        <path
           inkscape:connector-curvature="0"
           id="path2362"
           style="fill:#000000;fill-opacity:1;fill-rule:nonzero;stroke:none"
           d="m 2124.14,514.547 -20.6,-48.055 -6.86,20.598 -20.61,6.863" />
      </g>
    </g>
    <g
       id="g2364"
       transform="matrix(0.125,0,0,-0.125,-813.87784,-173.45157)">
      <g
         clip-path="url(#clipPath2368)"
         id="g2366">
        <path
           inkscape:connector-curvature="0"
           id="path2372"
           style="fill:#000000;fill-opacity:1;fill-rule:nonzero;stroke:none"
           d="m 2126.37,513.598 0,0 -20.6,-48.063 -2.52,-5.871 -2.01,6.059 -6.87,20.593 2.31,0.774 -0.77,-2.305 -20.6,6.867 -6.06,2.016 5.87,2.516 48.06,20.597 5.58,2.387 -2.39,-5.57 m -4.47,1.906 2.24,-0.957 0.95,-2.227 -48.06,-20.597 -0.96,2.23 0.77,2.301 20.6,-6.863 1.15,-0.383 0.39,-1.153 6.86,-20.597 -2.3,-0.766 -2.24,0.953 20.6,48.059" />
      </g>
    </g>
    <g
       id="g2374"
       transform="matrix(0.125,0,0,-0.125,-813.87784,-173.45157)">
      <g
         clip-path="url(#clipPath2378)"
         id="g2376">
        <path
           inkscape:connector-curvature="0"
           id="path2382"
           style="fill:#000000;fill-opacity:1;fill-rule:nonzero;stroke:none"
           d="m 2258.89,27.8945 0,0 -310.7,310.7075 -3.44,3.433 6.87,6.863 3.43,-3.433 310.71,-310.7033 3.43,-3.4336 -6.87,-6.8672" />
      </g>
    </g>
    <g
       id="g2384"
       transform="matrix(0.125,0,0,-0.125,-813.87784,-173.45157)">
      <g
         clip-path="url(#clipPath2388)"
         id="g2386">
        <path
           inkscape:connector-curvature="0"
           id="path2392"
           style="fill:#000000;fill-opacity:1;fill-rule:nonzero;stroke:none"
           d="m 2089.8,203.844 48.07,-20.598 -20.6,-6.863 -6.87,-20.598" />
      </g>
    </g>
    <g
       id="g2394"
       transform="matrix(0.125,0,0,-0.125,-813.87784,-173.45157)">
      <g
         clip-path="url(#clipPath2398)"
         id="g2396">
        <path
           inkscape:connector-curvature="0"
           id="path2402"
           style="fill:#000000;fill-opacity:1;fill-rule:nonzero;stroke:none"
           d="m 2090.76,206.078 0,0 48.06,-20.598 5.87,-2.515 -6.06,-2.02 -20.59,-6.867 -0.77,2.305 2.3,-0.77 -6.87,-20.593 -2.01,-6.059 -2.51,5.867 -20.6,48.063 -2.39,5.578 5.57,-2.391 m -1.91,-4.465 0.95,2.231 2.24,0.957 20.6,-48.059 -2.24,-0.957 -2.3,0.766 6.87,20.597 0.38,1.153 1.15,0.383 20.6,6.867 0.77,-2.305 -0.96,-2.23 -48.06,20.597" />
      </g>
    </g>
    <text
       xml:space="preserve"
       style="font-style:normal;font-weight:normal;font-size:15px;line-height:125%;font-family:sans-serif;letter-spacing:5px;word-spacing:0px;fill:#000000;fill-opacity:1;stroke:none;stroke-width:1px;stroke-linecap:butt;stroke-linejoin:miter;stroke-opacity:1"
       x="-659.13361"
       y="-254.89946"
       id="text6640-0"
       sodipodi:linespacing="125%"><tspan
         sodipodi:role="line"
         id="tspan6642-29"
         x="-659.13361"
         y="-254.89946"
         style="font-style:normal;font-variant:normal;font-weight:500;font-stretch:normal;font-size:15px;font-family:'URW Palladio L';-inkscape-font-specification:'URW Palladio L Medium'">g</tspan></text>
    <text
       xml:space="preserve"
       style="font-style:normal;font-weight:normal;font-size:15px;line-height:125%;font-family:sans-serif;letter-spacing:5px;word-spacing:0px;fill:#000000;fill-opacity:1;stroke:none;stroke-width:1px;stroke-linecap:butt;stroke-linejoin:miter;stroke-opacity:1"
       x="-659.16638"
       y="-172.32689"
       id="text6640-9-1"
       sodipodi:linespacing="125%"><tspan
         sodipodi:role="line"
         id="tspan6642-4-6"
         x="-659.16638"
         y="-172.32689"
         style="font-style:normal;font-variant:normal;font-weight:500;font-stretch:normal;font-size:15px;font-family:'URW Palladio L';-inkscape-font-specification:'URW Palladio L Medium'">g</tspan></text>
    <text
       xml:space="preserve"
       style="font-style:normal;font-weight:normal;font-size:15px;line-height:125%;font-family:sans-serif;letter-spacing:5px;word-spacing:0px;fill:#000000;fill-opacity:1;stroke:none;stroke-width:1px;stroke-linecap:butt;stroke-linejoin:miter;stroke-opacity:1"
       x="-594.89703"
       y="-226.6985"
       id="text6640-4-3"
       sodipodi:linespacing="125%"><tspan
         sodipodi:role="line"
         id="tspan6642-8-8"
         x="-594.89703"
         y="-226.6985"
         style="font-style:normal;font-variant:normal;font-weight:500;font-stretch:normal;font-size:15px;font-family:'URW Palladio L';-inkscape-font-specification:'URW Palladio L Medium'">g</tspan></text>
    <text
       xml:space="preserve"
       style="font-style:normal;font-weight:normal;font-size:15px;line-height:125%;font-family:sans-serif;letter-spacing:5px;word-spacing:0px;fill:#000000;fill-opacity:1;stroke:none;stroke-width:1px;stroke-linecap:butt;stroke-linejoin:miter;stroke-opacity:1"
       x="-529.01819"
       y="-252.87869"
       id="text6640-8-2"
       sodipodi:linespacing="125%"><tspan
         sodipodi:role="line"
         id="tspan6642-2-8"
         x="-529.01819"
         y="-252.87869"
         style="font-style:normal;font-variant:normal;font-weight:500;font-stretch:normal;font-size:15px;font-family:'URW Palladio L';-inkscape-font-specification:'URW Palladio L Medium'">t</tspan></text>
    <text
       xml:space="preserve"
       style="font-style:normal;font-weight:normal;font-size:15px;line-height:125%;font-family:sans-serif;letter-spacing:5px;word-spacing:0px;fill:#000000;fill-opacity:1;stroke:none;stroke-width:1px;stroke-linecap:butt;stroke-linejoin:miter;stroke-opacity:1"
       x="-529.05103"
       y="-172.30614"
       id="text6640-9-2-5"
       sodipodi:linespacing="125%"><tspan
         sodipodi:role="line"
         id="tspan6642-4-3-9"
         x="-529.05103"
         y="-172.30614"
         style="font-style:normal;font-variant:normal;font-weight:500;font-stretch:normal;font-size:15px;font-family:'URW Palladio L';-inkscape-font-specification:'URW Palladio L Medium'">t</tspan></text>
    <rect
       style="opacity:1;fill:#000000;fill-opacity:1;stroke:none;stroke-width:0.40000001;stroke-linecap:round;stroke-linejoin:round;stroke-miterlimit:4;stroke-dasharray:none;stroke-dashoffset:0;stroke-opacity:1"
       id="rect6662-3-2"
       width="5.2030087"
       height="0.90206528"
       x="-529.37378"
       y="-184.20441" />
    <g
       id="g1914-0-7-0"
       transform="matrix(0.125,0,0,-0.125,-784.69341,-57.075504)">
      <g
         clip-path="url(#clipPath1918-8-8-2)"
         id="g1916-5-3-5">
        <path
           inkscape:connector-curvature="0"
           id="path1922-1-9-4"
           style="fill:#000000;fill-opacity:1;fill-rule:nonzero;stroke:none"
           d="m 1423.23,1274.15 c 0,-8.48 -6.87,-15.35 -15.35,-15.35 -8.47,0 -15.35,6.87 -15.35,15.35 0,8.48 6.88,15.35 15.35,15.35 8.48,0 15.35,-6.87 15.35,-15.35" />
      </g>
    </g>
    <g
       id="g1924-8-1-3"
       transform="matrix(0.125,0,0,-0.125,-784.69341,-57.075504)">
      <g
         clip-path="url(#clipPath1928-4-0-6)"
         id="g1926-9-2-1">
        <path
           inkscape:connector-curvature="0"
           id="path1932-1-6-9"
           style="fill:#000000;fill-opacity:1;fill-rule:nonzero;stroke:none"
           d="m 1425.66,1274.15 0,0 c 0,-9.82 -7.95,-17.78 -17.78,-17.78 l 0,2.43 0,-2.43 c -9.82,0 -17.77,7.96 -17.77,17.78 l 2.42,0 -2.42,0 c 0,9.82 7.95,17.78 17.77,17.78 l 0,-2.43 0,2.43 c 9.83,0 17.78,-7.96 17.78,-17.78 l -2.43,0 2.43,0 m -4.85,0 0,0 c 0,7.14 -5.79,12.92 -12.93,12.92 l 0,0 c -7.13,0 -12.92,-5.78 -12.92,-12.92 l 0,0 c 0,-7.14 5.79,-12.92 12.92,-12.92 l 0,0 c 7.14,0 12.93,5.78 12.93,12.92" />
      </g>
    </g>
    <g
       id="g1914-0-7-0-8"
       transform="matrix(0.125,0,0,-0.125,-745.6134,-56.598914)">
      <g
         clip-path="url(#clipPath1918-8-8-2-8)"
         id="g1916-5-3-5-7">
        <path
           inkscape:connector-curvature="0"
           id="path1922-1-9-4-3"
           style="fill:#000000;fill-opacity:1;fill-rule:nonzero;stroke:none"
           d="m 1423.23,1274.15 c 0,-8.48 -6.87,-15.35 -15.35,-15.35 -8.47,0 -15.35,6.87 -15.35,15.35 0,8.48 6.88,15.35 15.35,15.35 8.48,0 15.35,-6.87 15.35,-15.35" />
      </g>
    </g>
    <g
       id="g1924-8-1-3-2"
       transform="matrix(0.125,0,0,-0.125,-745.6134,-56.598914)">
      <g
         clip-path="url(#clipPath1928-4-0-6-7)"
         id="g1926-9-2-1-5">
        <path
           inkscape:connector-curvature="0"
           id="path1932-1-6-9-4"
           style="fill:#000000;fill-opacity:1;fill-rule:nonzero;stroke:none"
           d="m 1425.66,1274.15 0,0 c 0,-9.82 -7.95,-17.78 -17.78,-17.78 l 0,2.43 0,-2.43 c -9.82,0 -17.77,7.96 -17.77,17.78 l 2.42,0 -2.42,0 c 0,9.82 7.95,17.78 17.77,17.78 l 0,-2.43 0,2.43 c 9.83,0 17.78,-7.96 17.78,-17.78 l -2.43,0 2.43,0 m -4.85,0 0,0 c 0,7.14 -5.79,12.92 -12.93,12.92 l 0,0 c -7.13,0 -12.92,-5.78 -12.92,-12.92 l 0,0 c 0,-7.14 5.79,-12.92 12.92,-12.92 l 0,0 c 7.14,0 12.93,5.78 12.93,12.92" />
      </g>
    </g>
  </g>
</svg>
