<?xml version="1.0" encoding="UTF-8" standalone="no"?>
<!-- Created with Inkscape (http://www.inkscape.org/) -->

<svg
   xmlns:dc="http://purl.org/dc/elements/1.1/"
   xmlns:cc="http://creativecommons.org/ns#"
   xmlns:rdf="http://www.w3.org/1999/02/22-rdf-syntax-ns#"
   xmlns:svg="http://www.w3.org/2000/svg"
   xmlns="http://www.w3.org/2000/svg"
   xmlns:sodipodi="http://sodipodi.sourceforge.net/DTD/sodipodi-0.dtd"
   xmlns:inkscape="http://www.inkscape.org/namespaces/inkscape"
   width="38.365051mm"
   height="30mm"
   viewBox="0 0 135.93916 106.29921"
   id="svg10654"
   version="1.1"
   inkscape:version="0.91 r13725"
   sodipodi:docname="qq2tt_3.svg">
  <defs
     id="defs10656">
    <clipPath
       clipPathUnits="userSpaceOnUse"
       id="clipPath1928-4-0-6-7-7-9">
      <path
         d="m 1425.66,1274.15 0,0 c 0,-9.82 -7.95,-17.78 -17.78,-17.78 l 0,2.43 0,-2.43 c -9.82,0 -17.77,7.96 -17.77,17.78 l 2.42,0 -2.42,0 c 0,9.82 7.95,17.78 17.77,17.78 l 0,-2.43 0,2.43 c 9.83,0 17.78,-7.96 17.78,-17.78 l -2.43,0 2.43,0 m -4.85,0 0,0 c 0,7.14 -5.79,12.92 -12.93,12.92 l 0,0 c -7.13,0 -12.92,-5.78 -12.92,-12.92 l 0,0 c 0,-7.14 5.79,-12.92 12.92,-12.92 l 0,0 c 7.14,0 12.93,5.78 12.93,12.92 z"
         id="path1930-6-9-5-6-5-9"
         inkscape:connector-curvature="0" />
    </clipPath>
    <clipPath
       clipPathUnits="userSpaceOnUse"
       id="clipPath1918-8-8-2-8-3-3">
      <path
         d="m 1423.23,1274.15 c 0,-8.48 -6.87,-15.35 -15.35,-15.35 -8.47,0 -15.35,6.87 -15.35,15.35 0,8.48 6.88,15.35 15.35,15.35 8.48,0 15.35,-6.87 15.35,-15.35 z"
         id="path1920-1-1-6-7-5-1"
         inkscape:connector-curvature="0" />
    </clipPath>
    <clipPath
       clipPathUnits="userSpaceOnUse"
       id="clipPath1928-4-0-6-7-7">
      <path
         d="m 1425.66,1274.15 0,0 c 0,-9.82 -7.95,-17.78 -17.78,-17.78 l 0,2.43 0,-2.43 c -9.82,0 -17.77,7.96 -17.77,17.78 l 2.42,0 -2.42,0 c 0,9.82 7.95,17.78 17.77,17.78 l 0,-2.43 0,2.43 c 9.83,0 17.78,-7.96 17.78,-17.78 l -2.43,0 2.43,0 m -4.85,0 0,0 c 0,7.14 -5.79,12.92 -12.93,12.92 l 0,0 c -7.13,0 -12.92,-5.78 -12.92,-12.92 l 0,0 c 0,-7.14 5.79,-12.92 12.92,-12.92 l 0,0 c 7.14,0 12.93,5.78 12.93,12.92 z"
         id="path1930-6-9-5-6-5"
         inkscape:connector-curvature="0" />
    </clipPath>
    <clipPath
       clipPathUnits="userSpaceOnUse"
       id="clipPath1918-8-8-2-8-3">
      <path
         d="m 1423.23,1274.15 c 0,-8.48 -6.87,-15.35 -15.35,-15.35 -8.47,0 -15.35,6.87 -15.35,15.35 0,8.48 6.88,15.35 15.35,15.35 8.48,0 15.35,-6.87 15.35,-15.35 z"
         id="path1920-1-1-6-7-5"
         inkscape:connector-curvature="0" />
    </clipPath>
    <clipPath
       clipPathUnits="userSpaceOnUse"
       id="clipPath2508">
      <path
         d="m 3297.29,650.488 0,0 -48.54,-19.422 -5.93,-2.375 2.85,5.715 9.71,19.422 2.17,-1.09 -2.17,-1.086 -9.71,19.418 -2.85,5.715 5.93,-2.375 48.54,-19.418 5.64,-2.254 -5.64,-2.25 m -1.8,4.504 0.9,-2.254 -0.9,-2.25 -48.55,19.418 0.9,2.25 2.17,1.09 9.71,-19.418 0.55,-1.09 -0.55,-1.086 -9.71,-19.418 -2.17,1.086 -0.9,2.254 48.55,19.418 z"
         id="path2510"
         inkscape:connector-curvature="0" />
    </clipPath>
    <clipPath
       clipPathUnits="userSpaceOnUse"
       id="clipPath2498">
      <path
         d="m 3296.39,652.738 -48.55,-19.418 9.71,19.418 -9.71,19.418 48.55,-19.418 z"
         id="path2500"
         inkscape:connector-curvature="0" />
    </clipPath>
    <clipPath
       clipPathUnits="userSpaceOnUse"
       id="clipPath2488">
      <path
         d="m 3039.09,657.594 0,0 466.05,0 4.86,0 0,-9.711 -4.86,0 -466.05,0 -4.86,0 0,9.711 4.86,0 z"
         id="path2490"
         inkscape:connector-curvature="0" />
    </clipPath>
    <clipPath
       clipPathUnits="userSpaceOnUse"
       id="clipPath2478">
      <path
         d="m 3041.34,367.211 0,0 19.42,-48.547 2.37,-5.93 -5.71,2.856 -19.42,9.711 1.09,2.168 1.09,-2.168 -19.43,-9.711 -5.71,-2.856 2.37,5.93 19.43,48.547 2.25,5.633 2.25,-5.633 m -4.5,-1.805 2.25,0.903 2.25,-0.903 -19.42,-48.551 -2.25,0.903 -1.09,2.172 19.42,9.711 1.09,0.543 1.09,-0.543 19.41,-9.711 -1.08,-2.172 -2.26,-0.903 -19.41,48.551 z"
         id="path2480"
         inkscape:connector-curvature="0" />
    </clipPath>
    <clipPath
       clipPathUnits="userSpaceOnUse"
       id="clipPath2468">
      <path
         d="m 3039.09,366.309 19.42,-48.551 -19.42,9.711 -19.42,-9.711 19.42,48.551 z"
         id="path2470"
         inkscape:connector-curvature="0" />
    </clipPath>
    <clipPath
       clipPathUnits="userSpaceOnUse"
       id="clipPath2458">
      <path
         d="m 3034.23,31.3281 0,0 0,621.4099 0,4.856 9.71,0 0,-4.856 0,-621.4099 0,-4.8554 -9.71,0 0,4.8554 z"
         id="path2460"
         inkscape:connector-curvature="0" />
    </clipPath>
    <clipPath
       clipPathUnits="userSpaceOnUse"
       id="clipPath2448">
      <path
         d="m 3246.94,33.582 0,0 48.55,19.418 5.92,2.3711 -2.85,-5.7109 -9.71,-19.418 -2.17,1.0859 2.17,1.086 9.71,-19.418 2.85,-5.71094 -5.92,2.37109 -48.55,19.41795 -5.63,2.2539 5.63,2.2539 m 1.81,-4.5078 -0.91,2.2539 0.91,2.2539 48.54,-19.4179 -0.9,-2.2539 -2.17,-1.086 -9.71,19.418 -0.55,1.0859 0.55,1.086 9.71,19.4179 2.17,-1.0859 0.9,-2.2539 -48.54,-19.418 z"
         id="path2450"
         inkscape:connector-curvature="0" />
    </clipPath>
    <clipPath
       clipPathUnits="userSpaceOnUse"
       id="clipPath2438">
      <path
         d="m 3247.84,31.3281 48.55,19.418 -9.71,-19.418 9.71,-19.4179 -48.55,19.4179 z"
         id="path2440"
         inkscape:connector-curvature="0" />
    </clipPath>
    <clipPath
       clipPathUnits="userSpaceOnUse"
       id="clipPath2428">
      <path
         d="m 3505.14,26.4727 0,0 -466.05,0 -4.86,0 0,9.7109 4.86,0 466.05,0 4.86,0 0,-9.7109 -4.86,0 z"
         id="path2430"
         inkscape:connector-curvature="0" />
    </clipPath>
    <clipPath
       clipPathUnits="userSpaceOnUse"
       id="clipPath2418">
      <path
         d="m 2568.28,32.3398 0,0 c 3.1,14.5157 15.54,28.1172 41,28.1172 l 0,-4.8554 0,4.8554 c 24.41,0 35.22,-18.3437 35.22,-33.9609 l 0,0 c 0,-11.332 -6.12,-24.29688 -19.68,-24.29688 l 0,4.85547 0,-4.85547 c -12.63,0 -18.93,11.36328 -18.93,22.19138 l 0,0 c 0,16.8867 13.93,36.0664 44.82,36.0664 l 0,-4.8554 0,4.8554 c 30.88,0 44.81,-19.1797 44.81,-36.0664 l 0,0 c 0,-10.8281 -6.3,-22.19138 -18.92,-22.19138 l 0,4.85547 0,-4.85547 c -12.62,0 -18.93,11.35938 -18.93,22.18748 l 0,0 c 0,16.8906 13.94,36.0703 44.82,36.0703 l 0,-4.8554 0,4.8554 c 30.88,0 44.82,-19.1797 44.82,-36.0664 l 0,0 c 0,-10.8281 -6.31,-22.19138 -18.93,-22.19138 l 0,4.85547 0,-4.85547 c -12.61,0 -18.93,11.36328 -18.93,22.19138 l 0,0 c 0,16.8867 13.94,36.0664 44.82,36.0664 l 0,-4.8554 0,4.8554 c 30.88,0 44.83,-19.1797 44.83,-36.0664 l 0,0 c 0,-10.832 -6.31,-22.19138 -18.93,-22.19138 l 0,4.85547 0,-4.85547 c -12.62,0 -18.93,11.36328 -18.93,22.19138 l 0,0 c 0,16.8867 13.94,36.0664 44.82,36.0664 l 0,-4.8554 0,4.8554 c 30.88,0 44.82,-19.1797 44.82,-36.0664 l 0,0 c 0,-10.8281 -6.31,-22.19138 -18.93,-22.19138 l 0,4.85547 0,-4.85547 c -12.62,0 -18.93,11.35938 -18.93,22.18748 l 0,0 c 0,16.8906 13.94,36.0703 44.82,36.0703 l 0,-4.8554 0,4.8554 c 30.88,0 44.82,-19.1797 44.82,-36.0664 l 0,0 c 0,-10.8281 -6.31,-22.19138 -18.93,-22.19138 l 0,4.85547 0,-4.85547 c -12.61,0 -18.93,11.36328 -18.93,22.19138 l 0,0 c 0,16.8867 13.95,36.0664 44.83,36.0664 l 0,-4.8554 0,4.8554 c 30.88,0 44.82,-19.1797 44.82,-36.0664 l 0,0 c 0,-10.832 -6.31,-22.19138 -18.93,-22.19138 l 0,4.85547 0,-4.85547 c -12.62,0 -18.93,11.36328 -18.93,22.19138 l 0,0 c 0,16.8867 13.94,36.0664 44.82,36.0664 l 0,-4.8554 0,4.8554 c 30.88,0 44.82,-19.1797 44.82,-36.0664 l 0,0 c 0,-10.8281 -6.31,-22.19138 -18.93,-22.19138 l 0,4.85547 0,-4.85547 c -13.56,0 -19.68,12.96488 -19.68,24.29688 l 0,0 c 0,15.6172 10.81,33.9609 35.22,33.9609 l 0,-4.8554 0,4.8554 c 25.45,0 37.9,-13.6015 41,-28.1172 l 1.01,-4.746 -9.49,-2.0274 -1.02,4.75 c -2.08,9.7578 -10.35,20.4297 -31.5,20.4297 l 0,0 c -17.96,0 -25.51,-12.8438 -25.51,-24.25 l 0,0 c 0,-9.3281 4.61,-14.5859 9.97,-14.5859 l 0,0 c 5.02,0 9.22,4.4492 9.22,12.4804 l 0,0 c 0,10.9883 -9.04,26.3555 -35.11,26.3555 l 0,0 c -26.07,0 -35.11,-15.3672 -35.11,-26.3555 l 0,0 c 0,-8.0312 4.2,-12.4804 9.22,-12.4804 l 0,0 c 5.01,0 9.22,4.4492 9.22,12.4804 l 0,0 c 0,10.9883 -9.04,26.3555 -35.11,26.3555 l 0,0 c -26.08,0 -35.11,-15.3672 -35.11,-26.3555 l 0,0 c 0,-8.0312 4.2,-12.4804 9.21,-12.4804 l 0,0 c 5.02,0 9.22,4.4492 9.22,12.4804 l 0,0 c 0,10.9883 -9.04,26.3555 -35.11,26.3555 l 0,0 c -26.07,0 -35.11,-15.3672 -35.11,-26.3594 l 0,0 c 0,-8.0273 4.21,-12.4765 9.22,-12.4765 l 0,0 c 5.01,0 9.22,4.4492 9.22,12.4804 l 0,0 c 0,10.9883 -9.04,26.3555 -35.11,26.3555 l 0,0 c -26.07,0 -35.11,-15.3672 -35.11,-26.3555 l 0,0 c 0,-8.0312 4.21,-12.4804 9.22,-12.4804 l 0,0 c 5.01,0 9.22,4.4492 9.22,12.4804 l 0,0 c 0,10.9883 -9.05,26.3555 -35.12,26.3555 l 0,0 c -26.07,0 -35.11,-15.3672 -35.11,-26.3555 l 0,0 c 0,-8.0312 4.21,-12.4804 9.22,-12.4804 l 0,0 c 5.01,0 9.22,4.4492 9.22,12.4804 l 0,0 c 0,10.9883 -9.04,26.3555 -35.11,26.3555 l 0,0 c -26.07,0 -35.11,-15.3672 -35.11,-26.3594 l 0,0 c 0,-8.0273 4.21,-12.4765 9.22,-12.4765 l 0,0 c 5.01,0 9.22,4.4492 9.22,12.4804 l 0,0 c 0,10.9883 -9.04,26.3555 -35.11,26.3555 l 0,0 c -26.07,0 -35.11,-15.3672 -35.11,-26.3555 l 0,0 c 0,-8.0312 4.2,-12.4804 9.22,-12.4804 l 0,0 c 5.36,0 9.97,5.2578 9.97,14.5859 l 0,0 c 0,11.4062 -7.55,24.25 -25.51,24.25 l 0,0 c -21.16,0 -29.42,-10.6719 -31.5,-20.4297 l -1.02,-4.75 -9.49,2.0274 1.01,4.746 z"
         id="path2420"
         inkscape:connector-curvature="0" />
    </clipPath>
    <clipPath
       clipPathUnits="userSpaceOnUse"
       id="clipPath2408">
      <path
         d="m 2568.28,653.754 0,0 c 3.1,14.516 15.54,28.113 41,28.113 l 0,-4.855 0,4.855 c 24.41,0 35.22,-18.34 35.22,-33.957 l 0,0 c 0,-11.332 -6.12,-24.301 -19.68,-24.301 l 0,4.856 0,-4.856 c -12.63,0 -18.93,11.36 -18.93,22.192 l 0,0 c 0,16.887 13.93,36.066 44.82,36.066 l 0,-4.855 0,4.855 c 30.88,0 44.81,-19.179 44.81,-36.066 l 0,0 c 0,-10.832 -6.3,-22.192 -18.92,-22.192 l 0,4.856 0,-4.856 c -12.62,0 -18.93,11.36 -18.93,22.192 l 0,0 c 0,16.887 13.94,36.066 44.82,36.066 l 0,-4.855 0,4.855 c 30.88,0 44.82,-19.179 44.82,-36.066 l 0,0 c 0,-10.832 -6.31,-22.192 -18.93,-22.192 l 0,4.856 0,-4.856 c -12.61,0 -18.93,11.36 -18.93,22.192 l 0,0 c 0,16.887 13.94,36.066 44.82,36.066 l 0,-4.855 0,4.855 c 30.88,0 44.83,-19.179 44.83,-36.066 l 0,0 c 0,-10.832 -6.31,-22.192 -18.93,-22.192 l 0,4.856 0,-4.856 c -12.62,0 -18.93,11.36 -18.93,22.192 l 0,0 c 0,16.887 13.94,36.066 44.82,36.066 l 0,-4.855 0,4.855 c 30.88,0 44.82,-19.179 44.82,-36.066 l 0,0 c 0,-10.832 -6.31,-22.192 -18.93,-22.192 l 0,4.856 0,-4.856 c -12.62,0 -18.93,11.36 -18.93,22.192 l 0,0 c 0,16.887 13.94,36.066 44.82,36.066 l 0,-4.855 0,4.855 c 30.88,0 44.82,-19.179 44.82,-36.066 l 0,0 c 0,-10.832 -6.31,-22.192 -18.93,-22.192 l 0,4.856 0,-4.856 c -12.61,0 -18.93,11.36 -18.93,22.192 l 0,0 c 0,16.887 13.95,36.066 44.83,36.066 l 0,-4.855 0,4.855 c 30.88,0 44.82,-19.179 44.82,-36.066 l 0,0 c 0,-10.832 -6.31,-22.192 -18.93,-22.192 l 0,4.856 0,-4.856 c -12.62,0 -18.93,11.36 -18.93,22.192 l 0,0 c 0,16.887 13.94,36.066 44.82,36.066 l 0,-4.855 0,4.855 c 30.88,0 44.82,-19.179 44.82,-36.066 l 0,0 c 0,-10.832 -6.31,-22.192 -18.93,-22.192 l 0,4.856 0,-4.856 c -13.56,0 -19.68,12.969 -19.68,24.301 l 0,0 c 0,15.617 10.81,33.957 35.22,33.957 l 0,-4.855 0,4.855 c 25.45,0 37.9,-13.597 41,-28.113 l 1.01,-4.75 -9.49,-2.027 -1.02,4.746 c -2.08,9.761 -10.35,20.433 -31.5,20.433 l 0,0 c -17.96,0 -25.51,-12.843 -25.51,-24.246 l 0,0 c 0,-9.328 4.61,-14.59 9.97,-14.59 l 0,0 c 5.02,0 9.22,4.446 9.22,12.481 l 0,0 c 0,10.992 -9.04,26.355 -35.11,26.355 l 0,0 c -26.07,0 -35.11,-15.363 -35.11,-26.355 l 0,0 c 0,-8.035 4.2,-12.481 9.22,-12.481 l 0,0 c 5.01,0 9.22,4.446 9.22,12.481 l 0,0 c 0,10.992 -9.04,26.355 -35.11,26.355 l 0,0 c -26.08,0 -35.11,-15.363 -35.11,-26.355 l 0,0 c 0,-8.035 4.2,-12.481 9.21,-12.481 l 0,0 c 5.02,0 9.22,4.446 9.22,12.481 l 0,0 c 0,10.992 -9.04,26.355 -35.11,26.355 l 0,0 c -26.07,0 -35.11,-15.363 -35.11,-26.355 l 0,0 c 0,-8.035 4.21,-12.481 9.22,-12.481 l 0,0 c 5.01,0 9.22,4.446 9.22,12.481 l 0,0 c 0,10.992 -9.04,26.355 -35.11,26.355 l 0,0 c -26.07,0 -35.11,-15.363 -35.11,-26.355 l 0,0 c 0,-8.035 4.21,-12.481 9.22,-12.481 l 0,0 c 5.01,0 9.22,4.446 9.22,12.481 l 0,0 c 0,10.992 -9.05,26.355 -35.12,26.355 l 0,0 c -26.07,0 -35.11,-15.363 -35.11,-26.355 l 0,0 c 0,-8.035 4.21,-12.481 9.22,-12.481 l 0,0 c 5.01,0 9.22,4.446 9.22,12.481 l 0,0 c 0,10.992 -9.04,26.355 -35.11,26.355 l 0,0 c -26.07,0 -35.11,-15.363 -35.11,-26.355 l 0,0 c 0,-8.035 4.21,-12.481 9.22,-12.481 l 0,0 c 5.01,0 9.22,4.446 9.22,12.481 l 0,0 c 0,10.992 -9.04,26.355 -35.11,26.355 l 0,0 c -26.07,0 -35.11,-15.363 -35.11,-26.355 l 0,0 c 0,-8.035 4.2,-12.481 9.22,-12.481 l 0,0 c 5.36,0 9.97,5.262 9.97,14.59 l 0,0 c 0,11.403 -7.55,24.246 -25.51,24.246 l 0,0 c -21.16,0 -29.42,-10.672 -31.5,-20.433 l -1.02,-4.746 -9.49,2.027 1.01,4.75 z"
         id="path2410"
         inkscape:connector-curvature="0" />
    </clipPath>
  </defs>
  <sodipodi:namedview
     id="base"
     pagecolor="#ffffff"
     bordercolor="#666666"
     borderopacity="1.0"
     inkscape:pageopacity="0.0"
     inkscape:pageshadow="2"
     inkscape:zoom="3.959798"
     inkscape:cx="37.155399"
     inkscape:cy="5.1732185"
     inkscape:document-units="px"
     inkscape:current-layer="layer1"
     showgrid="false"
     fit-margin-top="0.1"
     fit-margin-right="0.1"
     fit-margin-bottom="0.1"
     fit-margin-left="0.1"
     inkscape:window-width="1920"
     inkscape:window-height="1016"
     inkscape:window-x="0"
     inkscape:window-y="27"
     inkscape:window-maximized="1" />
  <metadata
     id="metadata10659">
    <rdf:RDF>
      <cc:Work
         rdf:about="">
        <dc:format>image/svg+xml</dc:format>
        <dc:type
           rdf:resource="http://purl.org/dc/dcmitype/StillImage" />
        <dc:title></dc:title>
      </cc:Work>
    </rdf:RDF>
  </metadata>
  <g
     inkscape:label="Layer 1"
     inkscape:groupmode="layer"
     id="layer1"
     transform="translate(327.96958,-362.62754)">
    <g
       id="g2404"
       transform="matrix(0.125,0,0,-0.125,-638.28973,458.24859)">
      <g
         clip-path="url(#clipPath2408)"
         id="g2406">
        <path
           inkscape:connector-curvature="0"
           id="path2412"
           style="fill:#000000;fill-opacity:1;fill-rule:nonzero;stroke:none"
           d="m 2568.28,653.754 0,0 c 3.1,14.516 15.54,28.113 41,28.113 l 0,-4.855 0,4.855 c 24.41,0 35.22,-18.34 35.22,-33.957 l 0,0 c 0,-11.332 -6.12,-24.301 -19.68,-24.301 l 0,4.856 0,-4.856 c -12.63,0 -18.93,11.36 -18.93,22.192 l 0,0 c 0,16.887 13.93,36.066 44.82,36.066 l 0,-4.855 0,4.855 c 30.88,0 44.81,-19.179 44.81,-36.066 l 0,0 c 0,-10.832 -6.3,-22.192 -18.92,-22.192 l 0,4.856 0,-4.856 c -12.62,0 -18.93,11.36 -18.93,22.192 l 0,0 c 0,16.887 13.94,36.066 44.82,36.066 l 0,-4.855 0,4.855 c 30.88,0 44.82,-19.179 44.82,-36.066 l 0,0 c 0,-10.832 -6.31,-22.192 -18.93,-22.192 l 0,4.856 0,-4.856 c -12.61,0 -18.93,11.36 -18.93,22.192 l 0,0 c 0,16.887 13.94,36.066 44.82,36.066 l 0,-4.855 0,4.855 c 30.88,0 44.83,-19.179 44.83,-36.066 l 0,0 c 0,-10.832 -6.31,-22.192 -18.93,-22.192 l 0,4.856 0,-4.856 c -12.62,0 -18.93,11.36 -18.93,22.192 l 0,0 c 0,16.887 13.94,36.066 44.82,36.066 l 0,-4.855 0,4.855 c 30.88,0 44.82,-19.179 44.82,-36.066 l 0,0 c 0,-10.832 -6.31,-22.192 -18.93,-22.192 l 0,4.856 0,-4.856 c -12.62,0 -18.93,11.36 -18.93,22.192 l 0,0 c 0,16.887 13.94,36.066 44.82,36.066 l 0,-4.855 0,4.855 c 30.88,0 44.82,-19.179 44.82,-36.066 l 0,0 c 0,-10.832 -6.31,-22.192 -18.93,-22.192 l 0,4.856 0,-4.856 c -12.61,0 -18.93,11.36 -18.93,22.192 l 0,0 c 0,16.887 13.95,36.066 44.83,36.066 l 0,-4.855 0,4.855 c 30.88,0 44.82,-19.179 44.82,-36.066 l 0,0 c 0,-10.832 -6.31,-22.192 -18.93,-22.192 l 0,4.856 0,-4.856 c -12.62,0 -18.93,11.36 -18.93,22.192 l 0,0 c 0,16.887 13.94,36.066 44.82,36.066 l 0,-4.855 0,4.855 c 30.88,0 44.82,-19.179 44.82,-36.066 l 0,0 c 0,-10.832 -6.31,-22.192 -18.93,-22.192 l 0,4.856 0,-4.856 c -13.56,0 -19.68,12.969 -19.68,24.301 l 0,0 c 0,15.617 10.81,33.957 35.22,33.957 l 0,-4.855 0,4.855 c 25.45,0 37.9,-13.597 41,-28.113 l 1.01,-4.75 -9.49,-2.027 -1.02,4.746 c -2.08,9.761 -10.35,20.433 -31.5,20.433 l 0,0 c -17.96,0 -25.51,-12.843 -25.51,-24.246 l 0,0 c 0,-9.328 4.61,-14.59 9.97,-14.59 l 0,0 c 5.02,0 9.22,4.446 9.22,12.481 l 0,0 c 0,10.992 -9.04,26.355 -35.11,26.355 l 0,0 c -26.07,0 -35.11,-15.363 -35.11,-26.355 l 0,0 c 0,-8.035 4.2,-12.481 9.22,-12.481 l 0,0 c 5.01,0 9.22,4.446 9.22,12.481 l 0,0 c 0,10.992 -9.04,26.355 -35.11,26.355 l 0,0 c -26.08,0 -35.11,-15.363 -35.11,-26.355 l 0,0 c 0,-8.035 4.2,-12.481 9.21,-12.481 l 0,0 c 5.02,0 9.22,4.446 9.22,12.481 l 0,0 c 0,10.992 -9.04,26.355 -35.11,26.355 l 0,0 c -26.07,0 -35.11,-15.363 -35.11,-26.355 l 0,0 c 0,-8.035 4.21,-12.481 9.22,-12.481 l 0,0 c 5.01,0 9.22,4.446 9.22,12.481 l 0,0 c 0,10.992 -9.04,26.355 -35.11,26.355 l 0,0 c -26.07,0 -35.11,-15.363 -35.11,-26.355 l 0,0 c 0,-8.035 4.21,-12.481 9.22,-12.481 l 0,0 c 5.01,0 9.22,4.446 9.22,12.481 l 0,0 c 0,10.992 -9.05,26.355 -35.12,26.355 l 0,0 c -26.07,0 -35.11,-15.363 -35.11,-26.355 l 0,0 c 0,-8.035 4.21,-12.481 9.22,-12.481 l 0,0 c 5.01,0 9.22,4.446 9.22,12.481 l 0,0 c 0,10.992 -9.04,26.355 -35.11,26.355 l 0,0 c -26.07,0 -35.11,-15.363 -35.11,-26.355 l 0,0 c 0,-8.035 4.21,-12.481 9.22,-12.481 l 0,0 c 5.01,0 9.22,4.446 9.22,12.481 l 0,0 c 0,10.992 -9.04,26.355 -35.11,26.355 l 0,0 c -26.07,0 -35.11,-15.363 -35.11,-26.355 l 0,0 c 0,-8.035 4.2,-12.481 9.22,-12.481 l 0,0 c 5.36,0 9.97,5.262 9.97,14.59 l 0,0 c 0,11.403 -7.55,24.246 -25.51,24.246 l 0,0 c -21.16,0 -29.42,-10.672 -31.5,-20.433 l -1.02,-4.746 -9.49,2.027" />
      </g>
    </g>
    <g
       id="g2414"
       transform="matrix(0.125,0,0,-0.125,-638.28973,458.24859)">
      <g
         clip-path="url(#clipPath2418)"
         id="g2416">
        <path
           inkscape:connector-curvature="0"
           id="path2422"
           style="fill:#000000;fill-opacity:1;fill-rule:nonzero;stroke:none"
           d="m 2568.28,32.3398 0,0 c 3.1,14.5157 15.54,28.1172 41,28.1172 l 0,-4.8554 0,4.8554 c 24.41,0 35.22,-18.3437 35.22,-33.9609 l 0,0 c 0,-11.332 -6.12,-24.29688 -19.68,-24.29688 l 0,4.85547 0,-4.85547 c -12.63,0 -18.93,11.36328 -18.93,22.19138 l 0,0 c 0,16.8867 13.93,36.0664 44.82,36.0664 l 0,-4.8554 0,4.8554 c 30.88,0 44.81,-19.1797 44.81,-36.0664 l 0,0 c 0,-10.8281 -6.3,-22.19138 -18.92,-22.19138 l 0,4.85547 0,-4.85547 c -12.62,0 -18.93,11.35938 -18.93,22.18748 l 0,0 c 0,16.8906 13.94,36.0703 44.82,36.0703 l 0,-4.8554 0,4.8554 c 30.88,0 44.82,-19.1797 44.82,-36.0664 l 0,0 c 0,-10.8281 -6.31,-22.19138 -18.93,-22.19138 l 0,4.85547 0,-4.85547 c -12.61,0 -18.93,11.36328 -18.93,22.19138 l 0,0 c 0,16.8867 13.94,36.0664 44.82,36.0664 l 0,-4.8554 0,4.8554 c 30.88,0 44.83,-19.1797 44.83,-36.0664 l 0,0 c 0,-10.832 -6.31,-22.19138 -18.93,-22.19138 l 0,4.85547 0,-4.85547 c -12.62,0 -18.93,11.36328 -18.93,22.19138 l 0,0 c 0,16.8867 13.94,36.0664 44.82,36.0664 l 0,-4.8554 0,4.8554 c 30.88,0 44.82,-19.1797 44.82,-36.0664 l 0,0 c 0,-10.8281 -6.31,-22.19138 -18.93,-22.19138 l 0,4.85547 0,-4.85547 c -12.62,0 -18.93,11.35938 -18.93,22.18748 l 0,0 c 0,16.8906 13.94,36.0703 44.82,36.0703 l 0,-4.8554 0,4.8554 c 30.88,0 44.82,-19.1797 44.82,-36.0664 l 0,0 c 0,-10.8281 -6.31,-22.19138 -18.93,-22.19138 l 0,4.85547 0,-4.85547 c -12.61,0 -18.93,11.36328 -18.93,22.19138 l 0,0 c 0,16.8867 13.95,36.0664 44.83,36.0664 l 0,-4.8554 0,4.8554 c 30.88,0 44.82,-19.1797 44.82,-36.0664 l 0,0 c 0,-10.832 -6.31,-22.19138 -18.93,-22.19138 l 0,4.85547 0,-4.85547 c -12.62,0 -18.93,11.36328 -18.93,22.19138 l 0,0 c 0,16.8867 13.94,36.0664 44.82,36.0664 l 0,-4.8554 0,4.8554 c 30.88,0 44.82,-19.1797 44.82,-36.0664 l 0,0 c 0,-10.8281 -6.31,-22.19138 -18.93,-22.19138 l 0,4.85547 0,-4.85547 c -13.56,0 -19.68,12.96488 -19.68,24.29688 l 0,0 c 0,15.6172 10.81,33.9609 35.22,33.9609 l 0,-4.8554 0,4.8554 c 25.45,0 37.9,-13.6015 41,-28.1172 l 1.01,-4.746 -9.49,-2.0274 -1.02,4.75 c -2.08,9.7578 -10.35,20.4297 -31.5,20.4297 l 0,0 c -17.96,0 -25.51,-12.8438 -25.51,-24.25 l 0,0 c 0,-9.3281 4.61,-14.5859 9.97,-14.5859 l 0,0 c 5.02,0 9.22,4.4492 9.22,12.4804 l 0,0 c 0,10.9883 -9.04,26.3555 -35.11,26.3555 l 0,0 c -26.07,0 -35.11,-15.3672 -35.11,-26.3555 l 0,0 c 0,-8.0312 4.2,-12.4804 9.22,-12.4804 l 0,0 c 5.01,0 9.22,4.4492 9.22,12.4804 l 0,0 c 0,10.9883 -9.04,26.3555 -35.11,26.3555 l 0,0 c -26.08,0 -35.11,-15.3672 -35.11,-26.3555 l 0,0 c 0,-8.0312 4.2,-12.4804 9.21,-12.4804 l 0,0 c 5.02,0 9.22,4.4492 9.22,12.4804 l 0,0 c 0,10.9883 -9.04,26.3555 -35.11,26.3555 l 0,0 c -26.07,0 -35.11,-15.3672 -35.11,-26.3594 l 0,0 c 0,-8.0273 4.21,-12.4765 9.22,-12.4765 l 0,0 c 5.01,0 9.22,4.4492 9.22,12.4804 l 0,0 c 0,10.9883 -9.04,26.3555 -35.11,26.3555 l 0,0 c -26.07,0 -35.11,-15.3672 -35.11,-26.3555 l 0,0 c 0,-8.0312 4.21,-12.4804 9.22,-12.4804 l 0,0 c 5.01,0 9.22,4.4492 9.22,12.4804 l 0,0 c 0,10.9883 -9.05,26.3555 -35.12,26.3555 l 0,0 c -26.07,0 -35.11,-15.3672 -35.11,-26.3555 l 0,0 c 0,-8.0312 4.21,-12.4804 9.22,-12.4804 l 0,0 c 5.01,0 9.22,4.4492 9.22,12.4804 l 0,0 c 0,10.9883 -9.04,26.3555 -35.11,26.3555 l 0,0 c -26.07,0 -35.11,-15.3672 -35.11,-26.3594 l 0,0 c 0,-8.0273 4.21,-12.4765 9.22,-12.4765 l 0,0 c 5.01,0 9.22,4.4492 9.22,12.4804 l 0,0 c 0,10.9883 -9.04,26.3555 -35.11,26.3555 l 0,0 c -26.07,0 -35.11,-15.3672 -35.11,-26.3555 l 0,0 c 0,-8.0312 4.2,-12.4804 9.22,-12.4804 l 0,0 c 5.36,0 9.97,5.2578 9.97,14.5859 l 0,0 c 0,11.4062 -7.55,24.25 -25.51,24.25 l 0,0 c -21.16,0 -29.42,-10.6719 -31.5,-20.4297 l -1.02,-4.75 -9.49,2.0274" />
      </g>
    </g>
    <g
       id="g2424"
       transform="matrix(0.125,0,0,-0.125,-638.28973,458.24859)">
      <g
         clip-path="url(#clipPath2428)"
         id="g2426">
        <path
           inkscape:connector-curvature="0"
           id="path2432"
           style="fill:#000000;fill-opacity:1;fill-rule:nonzero;stroke:none"
           d="m 3505.14,26.4727 -470.91,0 0,9.7109 475.77,0 0,-9.7109" />
      </g>
    </g>
    <g
       id="g2434"
       transform="matrix(0.125,0,0,-0.125,-638.28973,458.24859)">
      <g
         clip-path="url(#clipPath2438)"
         id="g2436">
        <path
           inkscape:connector-curvature="0"
           id="path2442"
           style="fill:#000000;fill-opacity:1;fill-rule:nonzero;stroke:none"
           d="m 3247.84,31.3281 48.55,19.418 -9.71,-19.418 9.71,-19.4179" />
      </g>
    </g>
    <g
       id="g2444"
       transform="matrix(0.125,0,0,-0.125,-638.28973,458.24859)">
      <g
         clip-path="url(#clipPath2448)"
         id="g2446">
        <path
           inkscape:connector-curvature="0"
           id="path2452"
           style="fill:#000000;fill-opacity:1;fill-rule:nonzero;stroke:none"
           d="m 3246.94,33.582 0,0 48.55,19.418 5.92,2.3711 -2.85,-5.7109 -9.71,-19.418 -2.17,1.0859 2.17,1.086 9.71,-19.418 2.85,-5.71094 -5.92,2.37109 -48.55,19.41795 -5.63,2.2539 5.63,2.2539 m 1.81,-4.5078 -0.91,2.2539 0.91,2.2539 48.54,-19.4179 -0.9,-2.2539 -2.17,-1.086 -9.71,19.418 -0.55,1.0859 0.55,1.086 9.71,19.4179 2.17,-1.0859 0.9,-2.2539 -48.54,-19.418" />
      </g>
    </g>
    <g
       id="g2454"
       transform="matrix(0.125,0,0,-0.125,-638.28973,458.24859)">
      <g
         clip-path="url(#clipPath2458)"
         id="g2456">
        <path
           inkscape:connector-curvature="0"
           id="path2462"
           style="fill:#000000;fill-opacity:1;fill-rule:nonzero;stroke:none"
           d="m 3034.23,31.3281 0,626.2659 9.71,0 0,-631.1213 -9.71,0" />
      </g>
    </g>
    <g
       id="g2464"
       transform="matrix(0.125,0,0,-0.125,-638.28973,458.24859)">
      <g
         clip-path="url(#clipPath2468)"
         id="g2466">
        <path
           inkscape:connector-curvature="0"
           id="path2472"
           style="fill:#000000;fill-opacity:1;fill-rule:nonzero;stroke:none"
           d="m 3039.09,366.309 19.42,-48.551 -19.42,9.711 -19.42,-9.711" />
      </g>
    </g>
    <g
       id="g2474"
       transform="matrix(0.125,0,0,-0.125,-638.28973,458.24859)">
      <g
         clip-path="url(#clipPath2478)"
         id="g2476">
        <path
           inkscape:connector-curvature="0"
           id="path2482"
           style="fill:#000000;fill-opacity:1;fill-rule:nonzero;stroke:none"
           d="m 3041.34,367.211 0,0 19.42,-48.547 2.37,-5.93 -5.71,2.856 -19.42,9.711 1.09,2.168 1.09,-2.168 -19.43,-9.711 -5.71,-2.856 2.37,5.93 19.43,48.547 2.25,5.633 2.25,-5.633 m -4.5,-1.805 2.25,0.903 2.25,-0.903 -19.42,-48.551 -2.25,0.903 -1.09,2.172 19.42,9.711 1.09,0.543 1.09,-0.543 19.41,-9.711 -1.08,-2.172 -2.26,-0.903 -19.41,48.551" />
      </g>
    </g>
    <g
       id="g2484"
       transform="matrix(0.125,0,0,-0.125,-638.28973,458.24859)">
      <g
         clip-path="url(#clipPath2488)"
         id="g2486">
        <path
           inkscape:connector-curvature="0"
           id="path2492"
           style="fill:#000000;fill-opacity:1;fill-rule:nonzero;stroke:none"
           d="m 3039.09,657.594 470.91,0 0,-9.711 -475.77,0 0,9.711" />
      </g>
    </g>
    <g
       id="g2494"
       transform="matrix(0.125,0,0,-0.125,-638.28973,458.24859)">
      <g
         clip-path="url(#clipPath2498)"
         id="g2496">
        <path
           inkscape:connector-curvature="0"
           id="path2502"
           style="fill:#000000;fill-opacity:1;fill-rule:nonzero;stroke:none"
           d="m 3296.39,652.738 -48.55,-19.418 9.71,19.418 -9.71,19.418" />
      </g>
    </g>
    <g
       id="g2504"
       transform="matrix(0.125,0,0,-0.125,-638.28973,458.24859)">
      <g
         clip-path="url(#clipPath2508)"
         id="g2506">
        <path
           inkscape:connector-curvature="0"
           id="path2512"
           style="fill:#000000;fill-opacity:1;fill-rule:nonzero;stroke:none"
           d="m 3297.29,650.488 0,0 -48.54,-19.422 -5.93,-2.375 2.85,5.715 9.71,19.422 2.17,-1.09 -2.17,-1.086 -9.71,19.418 -2.85,5.715 5.93,-2.375 48.54,-19.418 5.64,-2.254 -5.64,-2.25 m -1.8,4.504 0.9,-2.254 -0.9,-2.25 -48.55,19.418 0.9,2.25 2.17,1.09 9.71,-19.418 0.55,-1.09 -0.55,-1.086 -9.71,-19.418 -2.17,1.086 -0.9,2.254 48.55,19.418" />
      </g>
    </g>
    <text
       xml:space="preserve"
       style="font-style:normal;font-weight:normal;font-size:15px;line-height:125%;font-family:sans-serif;letter-spacing:5px;word-spacing:0px;fill:#000000;fill-opacity:1;stroke:none;stroke-width:1px;stroke-linecap:butt;stroke-linejoin:miter;stroke-opacity:1"
       x="-328.06247"
       y="378.21545"
       id="text6640-0-0"
       sodipodi:linespacing="125%"><tspan
         sodipodi:role="line"
         id="tspan6642-29-3"
         x="-328.06247"
         y="378.21545"
         style="font-style:normal;font-variant:normal;font-weight:500;font-stretch:normal;font-size:15px;font-family:'URW Palladio L';-inkscape-font-specification:'URW Palladio L Medium'">g</tspan></text>
    <text
       xml:space="preserve"
       style="font-style:normal;font-weight:normal;font-size:15px;line-height:125%;font-family:sans-serif;letter-spacing:5px;word-spacing:0px;fill:#000000;fill-opacity:1;stroke:none;stroke-width:1px;stroke-linecap:butt;stroke-linejoin:miter;stroke-opacity:1"
       x="-328.09525"
       y="456.49875"
       id="text6640-9-1-4"
       sodipodi:linespacing="125%"><tspan
         sodipodi:role="line"
         id="tspan6642-4-6-7"
         x="-328.09525"
         y="456.49875"
         style="font-style:normal;font-variant:normal;font-weight:500;font-stretch:normal;font-size:15px;font-family:'URW Palladio L';-inkscape-font-specification:'URW Palladio L Medium'">g</tspan></text>
    <text
       xml:space="preserve"
       style="font-style:normal;font-weight:normal;font-size:15px;line-height:125%;font-family:sans-serif;letter-spacing:5px;word-spacing:0px;fill:#000000;fill-opacity:1;stroke:none;stroke-width:1px;stroke-linecap:butt;stroke-linejoin:miter;stroke-opacity:1"
       x="-197.23219"
       y="380.80646"
       id="text6640-8-2-7"
       sodipodi:linespacing="125%"><tspan
         sodipodi:role="line"
         id="tspan6642-2-8-1"
         x="-197.23219"
         y="380.80646"
         style="font-style:normal;font-variant:normal;font-weight:500;font-stretch:normal;font-size:15px;font-family:'URW Palladio L';-inkscape-font-specification:'URW Palladio L Medium'">t</tspan></text>
    <text
       xml:space="preserve"
       style="font-style:normal;font-weight:normal;font-size:15px;line-height:125%;font-family:sans-serif;letter-spacing:5px;word-spacing:0px;fill:#000000;fill-opacity:1;stroke:none;stroke-width:1px;stroke-linecap:butt;stroke-linejoin:miter;stroke-opacity:1"
       x="-197.265"
       y="458.66412"
       id="text6640-9-2-5-6"
       sodipodi:linespacing="125%"><tspan
         sodipodi:role="line"
         id="tspan6642-4-3-9-5"
         x="-197.265"
         y="458.66412"
         style="font-style:normal;font-variant:normal;font-weight:500;font-stretch:normal;font-size:15px;font-family:'URW Palladio L';-inkscape-font-specification:'URW Palladio L Medium'">t</tspan></text>
    <rect
       style="opacity:1;fill:#000000;fill-opacity:1;stroke:none;stroke-width:0.40000001;stroke-linecap:round;stroke-linejoin:round;stroke-miterlimit:4;stroke-dasharray:none;stroke-dashoffset:0;stroke-opacity:1"
       id="rect6662-3-2-5"
       width="5.2030087"
       height="0.90206528"
       x="-197.58775"
       y="446.76587" />
    <g
       id="g1914-0-7-0-8-6"
       transform="matrix(0.125,0,0,-0.125,-434.19844,536.25951)">
      <g
         clip-path="url(#clipPath1918-8-8-2-8-3)"
         id="g1916-5-3-5-7-5">
        <path
           inkscape:connector-curvature="0"
           id="path1922-1-9-4-3-9"
           style="fill:#000000;fill-opacity:1;fill-rule:nonzero;stroke:none"
           d="m 1423.23,1274.15 c 0,-8.48 -6.87,-15.35 -15.35,-15.35 -8.47,0 -15.35,6.87 -15.35,15.35 0,8.48 6.88,15.35 15.35,15.35 8.48,0 15.35,-6.87 15.35,-15.35" />
      </g>
    </g>
    <g
       id="g1924-8-1-3-2-5"
       transform="matrix(0.125,0,0,-0.125,-434.19844,536.25951)">
      <g
         clip-path="url(#clipPath1928-4-0-6-7-7)"
         id="g1926-9-2-1-5-8">
        <path
           inkscape:connector-curvature="0"
           id="path1932-1-6-9-4-3"
           style="fill:#000000;fill-opacity:1;fill-rule:nonzero;stroke:none"
           d="m 1425.66,1274.15 0,0 c 0,-9.82 -7.95,-17.78 -17.78,-17.78 l 0,2.43 0,-2.43 c -9.82,0 -17.77,7.96 -17.77,17.78 l 2.42,0 -2.42,0 c 0,9.82 7.95,17.78 17.77,17.78 l 0,-2.43 0,2.43 c 9.83,0 17.78,-7.96 17.78,-17.78 l -2.43,0 2.43,0 m -4.85,0 0,0 c 0,7.14 -5.79,12.92 -12.93,12.92 l 0,0 c -7.13,0 -12.92,-5.78 -12.92,-12.92 l 0,0 c 0,-7.14 5.79,-12.92 12.92,-12.92 l 0,0 c 7.14,0 12.93,5.78 12.93,12.92" />
      </g>
    </g>
    <g
       id="g1914-0-7-0-8-6-6"
       transform="matrix(0.125,0,0,-0.125,-434.19844,614.18123)">
      <g
         clip-path="url(#clipPath1918-8-8-2-8-3-3)"
         id="g1916-5-3-5-7-5-1">
        <path
           inkscape:connector-curvature="0"
           id="path1922-1-9-4-3-9-7"
           style="fill:#000000;fill-opacity:1;fill-rule:nonzero;stroke:none"
           d="m 1423.23,1274.15 c 0,-8.48 -6.87,-15.35 -15.35,-15.35 -8.47,0 -15.35,6.87 -15.35,15.35 0,8.48 6.88,15.35 15.35,15.35 8.48,0 15.35,-6.87 15.35,-15.35" />
      </g>
    </g>
    <g
       id="g1924-8-1-3-2-5-1"
       transform="matrix(0.125,0,0,-0.125,-434.19844,614.18123)">
      <g
         clip-path="url(#clipPath1928-4-0-6-7-7-9)"
         id="g1926-9-2-1-5-8-4">
        <path
           inkscape:connector-curvature="0"
           id="path1932-1-6-9-4-3-0"
           style="fill:#000000;fill-opacity:1;fill-rule:nonzero;stroke:none"
           d="m 1425.66,1274.15 0,0 c 0,-9.82 -7.95,-17.78 -17.78,-17.78 l 0,2.43 0,-2.43 c -9.82,0 -17.77,7.96 -17.77,17.78 l 2.42,0 -2.42,0 c 0,9.82 7.95,17.78 17.77,17.78 l 0,-2.43 0,2.43 c 9.83,0 17.78,-7.96 17.78,-17.78 l -2.43,0 2.43,0 m -4.85,0 0,0 c 0,7.14 -5.79,12.92 -12.93,12.92 l 0,0 c -7.13,0 -12.92,-5.78 -12.92,-12.92 l 0,0 c 0,-7.14 5.79,-12.92 12.92,-12.92 l 0,0 c 7.14,0 12.93,5.78 12.93,12.92" />
      </g>
    </g>
  </g>
</svg>
