<?xml version="1.0" encoding="UTF-8" standalone="no"?>
<!-- Created with Inkscape (http://www.inkscape.org/) -->

<svg
   xmlns:dc="http://purl.org/dc/elements/1.1/"
   xmlns:cc="http://creativecommons.org/ns#"
   xmlns:rdf="http://www.w3.org/1999/02/22-rdf-syntax-ns#"
   xmlns:svg="http://www.w3.org/2000/svg"
   xmlns="http://www.w3.org/2000/svg"
   xmlns:sodipodi="http://sodipodi.sourceforge.net/DTD/sodipodi-0.dtd"
   xmlns:inkscape="http://www.inkscape.org/namespaces/inkscape"
   width="43.223995mm"
   height="34mm"
   viewBox="0 0 153.15589 120.47244"
   id="svg6492"
   version="1.1"
   inkscape:version="0.91 r13725"
   sodipodi:docname="ST_tWch2.svg">
  <defs
     id="defs6494">
    <clipPath
       clipPathUnits="userSpaceOnUse"
       id="clipPath2658">
      <path
         d="m 4144.34,4458.88 0,0 c 0,-9.82 -7.96,-17.78 -17.79,-17.78 l 0,2.43 0,-2.43 c -9.82,0 -17.77,7.96 -17.77,17.78 l 2.43,0 -2.43,0 c 0,9.82 7.95,17.78 17.77,17.78 l 0,-2.43 0,2.43 c 9.83,0 17.79,-7.96 17.79,-17.78 l -2.43,0 2.43,0 m -4.86,0 0,0 c 0,7.14 -5.79,12.92 -12.93,12.92 l 0,0 c -7.13,0 -12.92,-5.78 -12.92,-12.92 l 0,0 c 0,-7.14 5.79,-12.92 12.92,-12.92 l 0,0 c 7.14,0 12.93,5.78 12.93,12.92 z"
         id="path2660"
         inkscape:connector-curvature="0" />
    </clipPath>
    <clipPath
       clipPathUnits="userSpaceOnUse"
       id="clipPath2648">
      <path
         d="m 4141.91,4458.88 c 0,-8.48 -6.88,-15.35 -15.36,-15.35 -8.47,0 -15.34,6.87 -15.34,15.35 0,8.48 6.87,15.35 15.34,15.35 8.48,0 15.36,-6.87 15.36,-15.35 z"
         id="path2650"
         inkscape:connector-curvature="0" />
    </clipPath>
    <clipPath
       clipPathUnits="userSpaceOnUse"
       id="clipPath2638">
      <path
         d="m 4144.34,4924.94 0,0 c 0,-9.82 -7.96,-17.78 -17.79,-17.78 l 0,2.43 0,-2.43 c -9.82,0 -17.77,7.96 -17.77,17.78 l 2.43,0 -2.43,0 c 0,9.82 7.95,17.77 17.77,17.77 l 0,-2.42 0,2.42 c 9.83,0 17.79,-7.95 17.79,-17.77 l -2.43,0 2.43,0 m -4.86,0 0,0 c 0,7.13 -5.79,12.92 -12.93,12.92 l 0,0 c -7.13,0 -12.92,-5.79 -12.92,-12.92 l 0,0 c 0,-7.14 5.79,-12.92 12.92,-12.92 l 0,0 c 7.14,0 12.93,5.78 12.93,12.92 z"
         id="path2640"
         inkscape:connector-curvature="0" />
    </clipPath>
    <clipPath
       clipPathUnits="userSpaceOnUse"
       id="clipPath2628">
      <path
         d="m 4141.91,4924.94 c 0,-8.48 -6.88,-15.35 -15.36,-15.35 -8.47,0 -15.34,6.87 -15.34,15.35 0,8.47 6.87,15.35 15.34,15.35 8.48,0 15.36,-6.88 15.36,-15.35 z"
         id="path2630"
         inkscape:connector-curvature="0" />
    </clipPath>
    <clipPath
       clipPathUnits="userSpaceOnUse"
       id="clipPath2618">
      <path
         d="m 4121.85,4926.14 0,0 c 5.66,22.09 11.68,38.54 28.17,34.31 l 0,0 c 7.17,-1.83 15.7,-7.77 26.18,-16.19 l -3.04,-3.79 3.04,3.79 c 21.03,-16.89 25.96,-16.41 29.47,-12.04 l 0,0 c 3.12,3.87 5.98,11.64 9.39,24.99 l 4.71,-1.2 -4.71,1.2 c 5.66,22.09 11.68,38.54 28.17,34.31 l 0,0 c 7.17,-1.83 15.7,-7.77 26.18,-16.19 l -3.03,-3.79 3.03,3.79 c 21.03,-16.89 25.96,-16.41 29.47,-12.04 l 0,0 c 3.11,3.87 5.98,11.65 9.39,24.99 l 4.71,-1.2 -4.71,1.2 c 5.66,22.1 11.68,38.54 28.17,34.31 l 0,0 c 7.17,-1.83 15.7,-7.77 26.19,-16.19 l -3.04,-3.79 3.04,3.79 c 21.02,-16.89 25.95,-16.41 29.46,-12.04 l 0,0 c 3.11,3.87 5.98,11.65 9.4,25 l 4.7,-1.21 -4.7,1.21 c 5.65,22.09 11.67,38.53 28.16,34.3 l 0,0 c 7.17,-1.83 15.71,-7.77 26.19,-16.19 l -3.04,-3.79 3.04,3.79 c 21.02,-16.89 25.95,-16.41 29.46,-12.04 l 0,0 c 3.12,3.87 5.99,11.65 9.4,25 l 0,0 c 5.66,22.09 11.68,38.53 28.17,34.3 l 0,0 c 7.17,-1.83 15.7,-7.77 26.18,-16.19 l -1.09,0.87 1.09,-0.87 c 21.02,-16.89 25.96,-16.41 29.47,-12.04 l 0,0 c 3.11,3.88 5.98,11.64 9.39,25 l 1.2,4.7 9.41,-2.41 -1.2,-4.7 c -3.34,-13.03 -6.59,-22.89 -11.23,-28.67 l 0,0 c -10.66,-13.27 -25.34,-3.73 -43.12,10.55 l 3.04,3.78 -3.04,-3.78 c -10.74,8.63 -17.7,13.13 -22.51,14.36 l 0,0 c -5.44,1.39 -9.67,-1.19 -16.35,-27.31 l -4.71,1.2 4.71,-1.2 c -3.34,-13.03 -6.59,-22.89 -11.24,-28.67 l 0,0 c -10.66,-13.27 -25.33,-3.73 -43.11,10.55 l 0,0 0,0 c -10.74,8.63 -17.7,13.13 -22.51,14.36 l 0,0 c -5.44,1.39 -9.67,-1.19 -16.36,-27.31 l 0,0 c -3.33,-13.03 -6.59,-22.9 -11.23,-28.67 l 0,0 c -10.66,-13.27 -25.34,-3.74 -43.11,10.55 l 0,0 c -10.75,8.63 -17.7,13.12 -22.51,14.36 l 0,0 c -5.44,1.39 -9.67,-1.19 -16.36,-27.31 l -0.77,-3.02 0.77,3.02 c -3.33,-13.03 -6.59,-22.9 -11.23,-28.67 l 0,0 c -10.66,-13.27 -25.34,-3.74 -43.11,10.55 l 0,0 0,0 c -10.75,8.63 -17.7,13.12 -22.52,14.36 l 0,0 c -5.43,1.39 -9.66,-1.19 -16.35,-27.32 l 0,0 c -3.33,-13.02 -6.59,-22.89 -11.23,-28.66 l 0,0 c -10.66,-13.27 -25.34,-3.74 -43.12,10.55 l 0,0 c -10.74,8.63 -17.69,13.12 -22.51,14.36 l 0,0 c -5.43,1.38 -9.66,-1.19 -16.35,-27.32 l -1.21,-4.7 -9.4,2.41 1.2,4.7 z"
         id="path2620"
         inkscape:connector-curvature="0" />
    </clipPath>
    <clipPath
       clipPathUnits="userSpaceOnUse"
       id="clipPath2608">
      <path
         d="m 4382.76,4371.11 0,0 -52.2,-3.08 -6.38,-0.37 4.52,4.51 15.35,15.35 1.72,-1.71 -2.4,-0.35 -3.07,21.5 -0.91,6.32 4.88,-4.12 39.91,-33.78 4.64,-3.92 -6.06,-0.35 m -0.29,4.84 0.14,-2.42 -1.57,-1.86 -39.91,33.78 1.57,1.85 2.4,0.35 3.07,-21.5 0.17,-1.2 -0.85,-0.86 -15.36,-15.35 -1.71,1.72 -0.15,2.42 52.2,3.07 z"
         id="path2610"
         inkscape:connector-curvature="0" />
    </clipPath>
    <clipPath
       clipPathUnits="userSpaceOnUse"
       id="clipPath2598">
      <path
         d="m 4382.61,4373.53 -52.19,-3.07 15.35,15.35 -3.07,21.49 39.91,-33.77 z"
         id="path2600"
         inkscape:connector-curvature="0" />
    </clipPath>
    <clipPath
       clipPathUnits="userSpaceOnUse"
       id="clipPath2588">
      <path
         d="m 4128.09,4463.49 0,0 466.06,-155.36 4.6,-1.54 -3.07,-9.2 -4.6,1.53 -466.06,155.35 -4.61,1.54 3.08,9.21 4.6,-1.53 z"
         id="path2590"
         inkscape:connector-curvature="0" />
    </clipPath>
    <clipPath
       clipPathUnits="userSpaceOnUse"
       id="clipPath2578">
      <path
         d="m 4124.3,4666.73 0,0 -19.42,48.55 -2.37,5.93 5.71,-2.86 19.42,-9.71 -1.09,-2.17 -1.08,2.17 19.42,9.71 5.71,2.86 -2.37,-5.93 -19.42,-48.55 -2.26,-5.63 -2.25,5.63 m 4.51,1.81 -2.26,-0.9 -2.25,0.9 19.42,48.55 2.26,-0.91 1.08,-2.17 -19.42,-9.71 -1.09,-0.54 -1.08,0.54 -19.42,9.71 1.09,2.17 2.25,0.91 19.42,-48.55 z"
         id="path2580"
         inkscape:connector-curvature="0" />
    </clipPath>
    <clipPath
       clipPathUnits="userSpaceOnUse"
       id="clipPath2568">
      <path
         d="m 4126.55,4667.64 -19.41,48.54 19.41,-9.71 19.43,9.71 -19.43,-48.54 z"
         id="path2570"
         inkscape:connector-curvature="0" />
    </clipPath>
    <clipPath
       clipPathUnits="userSpaceOnUse"
       id="clipPath2558">
      <path
         d="m 4131.41,4924.94 0,0 0,-466.06 0,-4.86 -9.71,0 0,4.86 0,466.06 0,4.85 9.71,0 0,-4.85 z"
         id="path2560"
         inkscape:connector-curvature="0" />
    </clipPath>
    <clipPath
       clipPathUnits="userSpaceOnUse"
       id="clipPath2548">
      <path
         d="m 3655.67,4303.04 0,0 c -1.51,14.94 6.71,31.82 31.87,40.21 l 1.53,-4.61 -1.53,4.61 c 23.64,7.88 39.96,-6.09 44.94,-21.03 l 0,0 c 3.57,-10.7 1.8,-24.81 -10.99,-29.07 l -1.53,4.61 1.53,-4.61 c -11.86,-3.95 -21.4,4.65 -24.81,14.87 l 0,0 c -5.38,16.15 2.13,38.98 32.28,49.03 l 1.54,-4.6 -1.54,4.6 c 30.16,10.06 49.86,-3.7 55.25,-19.85 l 0,0 c 3.41,-10.22 0.93,-22.83 -10.93,-26.78 l 0,0 0,0 c -11.87,-3.96 -21.4,4.64 -24.82,14.86 l 0,0 c -5.38,16.15 2.13,38.99 32.29,49.04 l 1.54,-4.61 -1.54,4.61 c 30.15,10.04 49.86,-3.71 55.24,-19.87 l 0,0 c 3.4,-10.21 0.94,-22.82 -10.93,-26.77 l -1.53,4.6 1.53,-4.6 c -11.86,-3.96 -21.4,4.64 -24.81,14.86 l 0,0 c -5.38,16.15 2.13,38.98 32.28,49.04 l 1.54,-4.61 -1.54,4.61 c 30.15,10.05 49.86,-3.71 55.25,-19.86 l 0,0 c 3.4,-10.22 0.93,-22.83 -10.93,-26.78 l -1.54,4.61 1.54,-4.61 c -11.87,-3.96 -21.41,4.65 -24.81,14.86 l 0,0 c -5.39,16.16 2.12,38.99 32.28,49.04 l 1.53,-4.61 -1.53,4.61 c 30.15,10.05 49.86,-3.71 55.24,-19.86 l 0,0 c 3.41,-10.22 0.94,-22.83 -10.93,-26.78 l 0,0 0,0 c -11.86,-3.95 -21.4,4.65 -24.81,14.86 l 0,0 c -5.39,16.15 2.13,38.99 32.28,49.04 l 1.54,-4.61 -1.54,4.61 c 30.15,10.05 49.86,-3.71 55.24,-19.86 l 0,0 c 3.41,-10.22 0.94,-22.82 -10.93,-26.78 l -1.53,4.61 1.53,-4.61 c -11.86,-3.95 -21.4,4.65 -24.8,14.86 l 0,0 c -5.39,16.16 2.12,38.99 32.27,49.04 l 1.54,-4.6 -1.54,4.6 c 30.16,10.05 49.87,-3.71 55.25,-19.86 l 0,0 c 3.41,-10.21 0.93,-22.82 -10.93,-26.78 l -1.54,4.61 1.54,-4.61 c -11.87,-3.95 -21.41,4.65 -24.81,14.87 l 0,0 c -5.38,16.15 2.13,38.98 32.28,49.03 l 1.53,-4.6 -1.53,4.6 c 30.15,10.05 49.86,-3.71 55.24,-19.86 l 0,0 c 3.41,-10.22 0.94,-22.82 -10.93,-26.78 l 0,0 0,0 c -12.78,-4.26 -22.66,5.96 -26.23,16.66 l 0,0 c -4.98,14.94 -0.3,35.91 23.35,43.79 l 0,0 0,0 c 25.15,8.39 41.86,-0.19 49.61,-13.04 l 2.51,-4.16 -8.31,-5.02 -2.51,4.16 c -5.1,8.45 -16.79,16 -38.24,8.85 l -1.53,4.61 1.53,-4.61 c -17.65,-5.89 -20.79,-20.72 -17.2,-31.5 l 0,0 c 2.92,-8.74 8.89,-12.21 13.95,-10.52 l 1.54,-4.61 -1.54,4.61 c 4.72,1.57 7.29,7.02 4.79,14.49 l 0,0 c -3.45,10.38 -17.18,22.32 -42.96,13.72 l -0.26,-0.09 0.26,0.09 c -25.79,-8.59 -29.6,-26.38 -26.14,-36.75 l 0,0 c 2.49,-7.47 7.81,-10.3 12.53,-8.73 l 0,0 0,0 c 4.71,1.58 7.28,7.03 4.79,14.5 l 0,0 c -3.46,10.37 -17.18,22.31 -42.97,13.72 l 0,0 0,0 c -25.78,-8.59 -29.59,-26.38 -26.13,-36.76 l 0,0 c 2.48,-7.47 7.81,-10.29 12.52,-8.71 l 0,0 0,0 c 4.72,1.56 7.29,7.02 4.8,14.49 l 0,0 c -3.46,10.38 -17.18,22.31 -42.97,13.72 l 0,0 0,0 c -25.78,-8.6 -29.6,-26.38 -26.14,-36.75 l 0,0 c 2.49,-7.48 7.81,-10.3 12.53,-8.73 l 1.54,-4.61 -1.54,4.61 c 4.72,1.57 7.28,7.03 4.79,14.5 l 0,0 c -3.46,10.37 -17.18,22.31 -42.96,13.72 l -0.26,-0.09 0.26,0.09 c -25.79,-8.6 -29.6,-26.38 -26.14,-36.76 l 0,0 c 2.49,-7.47 7.81,-10.29 12.53,-8.72 l 0,0 0,0 c 4.71,1.57 7.27,7.02 4.79,14.49 l 0,0 c -3.46,10.38 -17.19,22.32 -42.97,13.72 l 0,0 c -25.78,-8.59 -29.6,-26.37 -26.14,-36.75 l 0,0 c 2.49,-7.47 7.81,-10.29 12.53,-8.72 l 0,0 0,0 c 4.72,1.57 7.28,7.02 4.8,14.5 l 0,0 c -3.47,10.37 -17.19,22.31 -42.97,13.72 l 0,0 c -25.78,-8.6 -29.6,-26.39 -26.14,-36.76 l 0,0 c 2.49,-7.47 7.81,-10.3 12.53,-8.72 l 1.54,-4.61 -1.54,4.61 c 4.72,1.57 7.28,7.02 4.79,14.49 l 0,0 c -3.46,10.38 -17.18,22.31 -42.97,13.72 l 0,0 0,0 c -25.78,-8.59 -29.6,-26.38 -26.14,-36.75 l 0,0 c 2.5,-7.48 7.82,-10.3 12.54,-8.72 l 0,0 0,0 c 5.05,1.68 7.75,8.05 4.84,16.79 l 0,0 c -3.6,10.78 -15,20.76 -32.66,14.88 l 0,0 0,0 c -21.45,-7.16 -26.27,-20.21 -25.28,-30.03 l 0.48,-4.83 -9.65,-0.97 -0.49,4.83 z"
         id="path2550"
         inkscape:connector-curvature="0" />
    </clipPath>
    <clipPath
       clipPathUnits="userSpaceOnUse"
       id="clipPath2538">
      <path
         d="m 3916.7,4992.52 0,0 -52.2,-3.08 -6.37,-0.37 4.51,4.52 15.35,15.34 1.72,-1.71 -2.4,-0.34 -3.07,21.49 -0.9,6.32 4.87,-4.12 39.91,-33.78 4.64,-3.92 -6.06,-0.35 m -0.29,4.84 0.14,-2.42 -1.57,-1.85 -39.91,33.77 1.57,1.85 2.41,0.35 3.06,-21.5 0.18,-1.2 -0.86,-0.86 -15.36,-15.35 -1.71,1.72 -0.15,2.42 52.2,3.07 z"
         id="path2540"
         inkscape:connector-curvature="0" />
    </clipPath>
    <clipPath
       clipPathUnits="userSpaceOnUse"
       id="clipPath2528">
      <path
         d="m 3916.55,4994.94 -52.19,-3.07 15.35,15.35 -3.07,21.49 39.91,-33.77 z"
         id="path2530"
         inkscape:connector-curvature="0" />
    </clipPath>
    <clipPath
       clipPathUnits="userSpaceOnUse"
       id="clipPath2518">
      <path
         d="m 3662.03,5084.9 0,0 466.06,-155.35 4.61,-1.54 -3.07,-9.21 -4.61,1.53 -466.06,155.35 -4.6,1.54 3.07,9.21 4.6,-1.53 z"
         id="path2520"
         inkscape:connector-curvature="0" />
    </clipPath>
  </defs>
  <sodipodi:namedview
     id="base"
     pagecolor="#ffffff"
     bordercolor="#666666"
     borderopacity="1.0"
     inkscape:pageopacity="0.0"
     inkscape:pageshadow="2"
     inkscape:zoom="5.6"
     inkscape:cx="58.02494"
     inkscape:cy="69.808287"
     inkscape:document-units="px"
     inkscape:current-layer="layer1"
     showgrid="false"
     fit-margin-top="0.1"
     fit-margin-left="0.1"
     fit-margin-bottom="0.1"
     fit-margin-right="0.1"
     inkscape:window-width="1920"
     inkscape:window-height="1016"
     inkscape:window-x="0"
     inkscape:window-y="27"
     inkscape:window-maximized="1" />
  <metadata
     id="metadata6497">
    <rdf:RDF>
      <cc:Work
         rdf:about="">
        <dc:format>image/svg+xml</dc:format>
        <dc:type
           rdf:resource="http://purl.org/dc/dcmitype/StillImage" />
        <dc:title></dc:title>
      </cc:Work>
    </rdf:RDF>
  </metadata>
  <g
     inkscape:label="Layer 1"
     inkscape:groupmode="layer"
     id="layer1"
     transform="translate(-74.850616,-70.236736)">
    <g
       id="g2514"
       transform="matrix(0.125,0,0,-0.125,-370.89907,717.52946)">
      <g
         clip-path="url(#clipPath2518)"
         id="g2516">
        <path
           inkscape:connector-curvature="0"
           id="path2522"
           style="fill:#000000;fill-opacity:1;fill-rule:nonzero;stroke:none"
           d="m 3662.03,5084.9 0,0 466.06,-155.35 4.61,-1.54 -3.07,-9.21 -4.61,1.53 -466.06,155.35 -4.6,1.54 3.07,9.21" />
      </g>
    </g>
    <g
       id="g2524"
       transform="matrix(0.125,0,0,-0.125,-370.89907,717.52946)">
      <g
         clip-path="url(#clipPath2528)"
         id="g2526">
        <path
           inkscape:connector-curvature="0"
           id="path2532"
           style="fill:#000000;fill-opacity:1;fill-rule:nonzero;stroke:none"
           d="m 3916.55,4994.94 -52.19,-3.07 15.35,15.35 -3.07,21.49" />
      </g>
    </g>
    <g
       id="g2534"
       transform="matrix(0.125,0,0,-0.125,-370.89907,717.52946)">
      <g
         clip-path="url(#clipPath2538)"
         id="g2536">
        <path
           inkscape:connector-curvature="0"
           id="path2542"
           style="fill:#000000;fill-opacity:1;fill-rule:nonzero;stroke:none"
           d="m 3916.7,4992.52 0,0 -52.2,-3.08 -6.37,-0.37 4.51,4.52 15.35,15.34 1.72,-1.71 -2.4,-0.34 -3.07,21.49 -0.9,6.32 4.87,-4.12 39.91,-33.78 4.64,-3.92 -6.06,-0.35 m -0.29,4.84 0.14,-2.42 -1.57,-1.85 -39.91,33.77 1.57,1.85 2.41,0.35 3.06,-21.5 0.18,-1.2 -0.86,-0.86 -15.36,-15.35 -1.71,1.72 -0.15,2.42 52.2,3.07" />
      </g>
    </g>
    <g
       id="g2544"
       transform="matrix(0.125,0,0,-0.125,-370.89907,717.52946)">
      <g
         clip-path="url(#clipPath2548)"
         id="g2546">
        <path
           inkscape:connector-curvature="0"
           id="path2552"
           style="fill:#000000;fill-opacity:1;fill-rule:nonzero;stroke:none"
           d="m 3655.67,4303.04 0,0 c -1.51,14.94 6.71,31.82 31.87,40.21 l 1.53,-4.61 -1.53,4.61 c 23.64,7.88 39.96,-6.09 44.94,-21.03 l 0,0 c 3.57,-10.7 1.8,-24.81 -10.99,-29.07 l -1.53,4.61 1.53,-4.61 c -11.86,-3.95 -21.4,4.65 -24.81,14.87 l 0,0 c -5.38,16.15 2.13,38.98 32.28,49.03 l 1.54,-4.6 -1.54,4.6 c 30.16,10.06 49.86,-3.7 55.25,-19.85 l 0,0 c 3.41,-10.22 0.93,-22.83 -10.93,-26.78 l 0,0 c -11.87,-3.96 -21.4,4.64 -24.82,14.86 l 0,0 c -5.38,16.15 2.13,38.99 32.29,49.04 l 1.54,-4.61 -1.54,4.61 c 30.15,10.04 49.86,-3.71 55.24,-19.87 l 0,0 c 3.4,-10.21 0.94,-22.82 -10.93,-26.77 l -1.53,4.6 1.53,-4.6 c -11.86,-3.96 -21.4,4.64 -24.81,14.86 l 0,0 c -5.38,16.15 2.13,38.98 32.28,49.04 l 1.54,-4.61 -1.54,4.61 c 30.15,10.05 49.86,-3.71 55.25,-19.86 l 0,0 c 3.4,-10.22 0.93,-22.83 -10.93,-26.78 l -1.54,4.61 1.54,-4.61 c -11.87,-3.96 -21.41,4.65 -24.81,14.86 l 0,0 c -5.39,16.16 2.12,38.99 32.28,49.04 l 1.53,-4.61 -1.53,4.61 c 30.15,10.05 49.86,-3.71 55.24,-19.86 l 0,0 c 3.41,-10.22 0.94,-22.83 -10.93,-26.78 l 0,0 c -11.86,-3.95 -21.4,4.65 -24.81,14.86 l 0,0 c -5.39,16.15 2.13,38.99 32.28,49.04 l 1.54,-4.61 -1.54,4.61 c 30.15,10.05 49.86,-3.71 55.24,-19.86 l 0,0 c 3.41,-10.22 0.94,-22.82 -10.93,-26.78 l -1.53,4.61 1.53,-4.61 c -11.86,-3.95 -21.4,4.65 -24.8,14.86 l 0,0 c -5.39,16.16 2.12,38.99 32.27,49.04 l 1.54,-4.6 -1.54,4.6 c 30.16,10.05 49.87,-3.71 55.25,-19.86 l 0,0 c 3.41,-10.21 0.93,-22.82 -10.93,-26.78 l -1.54,4.61 1.54,-4.61 c -11.87,-3.95 -21.41,4.65 -24.81,14.87 l 0,0 c -5.38,16.15 2.13,38.98 32.28,49.03 l 1.53,-4.6 -1.53,4.6 c 30.15,10.05 49.86,-3.71 55.24,-19.86 l 0,0 c 3.41,-10.22 0.94,-22.82 -10.93,-26.78 l 0,0 c -12.78,-4.26 -22.66,5.96 -26.23,16.66 l 0,0 c -4.98,14.94 -0.3,35.91 23.35,43.79 l 0,0 c 25.15,8.39 41.86,-0.19 49.61,-13.04 l 2.51,-4.16 -8.31,-5.02 -2.51,4.16 c -5.1,8.45 -16.79,16 -38.24,8.85 l -1.53,4.61 1.53,-4.61 c -17.65,-5.89 -20.79,-20.72 -17.2,-31.5 l 0,0 c 2.92,-8.74 8.89,-12.21 13.95,-10.52 l 1.54,-4.61 -1.54,4.61 c 4.72,1.57 7.29,7.02 4.79,14.49 l 0,0 c -3.45,10.38 -17.18,22.32 -42.96,13.72 l -0.26,-0.09 0.26,0.09 c -25.79,-8.59 -29.6,-26.38 -26.14,-36.75 l 0,0 c 2.49,-7.47 7.81,-10.3 12.53,-8.73 l 0,0 c 4.71,1.58 7.28,7.03 4.79,14.5 l 0,0 c -3.46,10.37 -17.18,22.31 -42.97,13.72 l 0,0 c -25.78,-8.59 -29.59,-26.38 -26.13,-36.76 l 0,0 c 2.48,-7.47 7.81,-10.29 12.52,-8.71 l 0,0 c 4.72,1.56 7.29,7.02 4.8,14.49 l 0,0 c -3.46,10.38 -17.18,22.31 -42.97,13.72 l 0,0 c -25.78,-8.6 -29.6,-26.38 -26.14,-36.75 l 0,0 c 2.49,-7.48 7.81,-10.3 12.53,-8.73 l 1.54,-4.61 -1.54,4.61 c 4.72,1.57 7.28,7.03 4.79,14.5 l 0,0 c -3.46,10.37 -17.18,22.31 -42.96,13.72 l -0.26,-0.09 0.26,0.09 c -25.79,-8.6 -29.6,-26.38 -26.14,-36.76 l 0,0 c 2.49,-7.47 7.81,-10.29 12.53,-8.72 l 0,0 c 4.71,1.57 7.27,7.02 4.79,14.49 l 0,0 c -3.46,10.38 -17.19,22.32 -42.97,13.72 l 0,0 c -25.78,-8.59 -29.6,-26.37 -26.14,-36.75 l 0,0 c 2.49,-7.47 7.81,-10.29 12.53,-8.72 l 0,0 c 4.72,1.57 7.28,7.02 4.8,14.5 l 0,0 c -3.47,10.37 -17.19,22.31 -42.97,13.72 l 0,0 c -25.78,-8.6 -29.6,-26.39 -26.14,-36.76 l 0,0 c 2.49,-7.47 7.81,-10.3 12.53,-8.72 l 1.54,-4.61 -1.54,4.61 c 4.72,1.57 7.28,7.02 4.79,14.49 l 0,0 c -3.46,10.38 -17.18,22.31 -42.97,13.72 l 0,0 c -25.78,-8.59 -29.6,-26.38 -26.14,-36.75 l 0,0 c 2.5,-7.48 7.82,-10.3 12.54,-8.72 l 0,0 c 5.05,1.68 7.75,8.05 4.84,16.79 l 0,0 c -3.6,10.78 -15,20.76 -32.66,14.88 l 0,0 c -21.45,-7.16 -26.27,-20.21 -25.28,-30.03 l 0.48,-4.83 -9.65,-0.97" />
      </g>
    </g>
    <g
       id="g2554"
       transform="matrix(0.125,0,0,-0.125,-370.89907,717.52946)">
      <g
         clip-path="url(#clipPath2558)"
         id="g2556">
        <path
           inkscape:connector-curvature="0"
           id="path2562"
           style="fill:#000000;fill-opacity:1;fill-rule:nonzero;stroke:none"
           d="m 4131.41,4924.94 0,-470.92 -9.71,0 0,475.77 9.71,0" />
      </g>
    </g>
    <g
       id="g2564"
       transform="matrix(0.125,0,0,-0.125,-370.89907,717.52946)">
      <g
         clip-path="url(#clipPath2568)"
         id="g2566">
        <path
           inkscape:connector-curvature="0"
           id="path2572"
           style="fill:#000000;fill-opacity:1;fill-rule:nonzero;stroke:none"
           d="m 4126.55,4667.64 -19.41,48.54 19.41,-9.71 19.43,9.71" />
      </g>
    </g>
    <g
       id="g2574"
       transform="matrix(0.125,0,0,-0.125,-370.89907,717.52946)">
      <g
         clip-path="url(#clipPath2578)"
         id="g2576">
        <path
           inkscape:connector-curvature="0"
           id="path2582"
           style="fill:#000000;fill-opacity:1;fill-rule:nonzero;stroke:none"
           d="m 4124.3,4666.73 0,0 -19.42,48.55 -2.37,5.93 5.71,-2.86 19.42,-9.71 -1.09,-2.17 -1.08,2.17 19.42,9.71 5.71,2.86 -2.37,-5.93 -19.42,-48.55 -2.26,-5.63 -2.25,5.63 m 4.51,1.81 -2.26,-0.9 -2.25,0.9 19.42,48.55 2.26,-0.91 1.08,-2.17 -19.42,-9.71 -1.09,-0.54 -1.08,0.54 -19.42,9.71 1.09,2.17 2.25,0.91 19.42,-48.55" />
      </g>
    </g>
    <g
       id="g2584"
       transform="matrix(0.125,0,0,-0.125,-370.89907,717.52946)">
      <g
         clip-path="url(#clipPath2588)"
         id="g2586">
        <path
           inkscape:connector-curvature="0"
           id="path2592"
           style="fill:#000000;fill-opacity:1;fill-rule:nonzero;stroke:none"
           d="m 4128.09,4463.49 0,0 466.06,-155.36 4.6,-1.54 -3.07,-9.2 -4.6,1.53 -466.06,155.35 -4.61,1.54 3.08,9.21" />
      </g>
    </g>
    <g
       id="g2594"
       transform="matrix(0.125,0,0,-0.125,-370.89907,717.52946)">
      <g
         clip-path="url(#clipPath2598)"
         id="g2596">
        <path
           inkscape:connector-curvature="0"
           id="path2602"
           style="fill:#000000;fill-opacity:1;fill-rule:nonzero;stroke:none"
           d="m 4382.61,4373.53 -52.19,-3.07 15.35,15.35 -3.07,21.49" />
      </g>
    </g>
    <g
       id="g2604"
       transform="matrix(0.125,0,0,-0.125,-370.89907,717.52946)">
      <g
         clip-path="url(#clipPath2608)"
         id="g2606">
        <path
           inkscape:connector-curvature="0"
           id="path2612"
           style="fill:#000000;fill-opacity:1;fill-rule:nonzero;stroke:none"
           d="m 4382.76,4371.11 0,0 -52.2,-3.08 -6.38,-0.37 4.52,4.51 15.35,15.35 1.72,-1.71 -2.4,-0.35 -3.07,21.5 -0.91,6.32 4.88,-4.12 39.91,-33.78 4.64,-3.92 -6.06,-0.35 m -0.29,4.84 0.14,-2.42 -1.57,-1.86 -39.91,33.78 1.57,1.85 2.4,0.35 3.07,-21.5 0.17,-1.2 -0.85,-0.86 -15.36,-15.35 -1.71,1.72 -0.15,2.42 52.2,3.07" />
      </g>
    </g>
    <g
       id="g2614"
       transform="matrix(0.125,0,0,-0.125,-370.89907,717.52946)">
      <g
         clip-path="url(#clipPath2618)"
         id="g2616">
        <path
           inkscape:connector-curvature="0"
           id="path2622"
           style="fill:#000000;fill-opacity:1;fill-rule:nonzero;stroke:none"
           d="m 4121.85,4926.14 0,0 c 5.66,22.09 11.68,38.54 28.17,34.31 l 0,0 c 7.17,-1.83 15.7,-7.77 26.18,-16.19 l -3.04,-3.79 3.04,3.79 c 21.03,-16.89 25.96,-16.41 29.47,-12.04 l 0,0 c 3.12,3.87 5.98,11.64 9.39,24.99 l 4.71,-1.2 -4.71,1.2 c 5.66,22.09 11.68,38.54 28.17,34.31 l 0,0 c 7.17,-1.83 15.7,-7.77 26.18,-16.19 l -3.03,-3.79 3.03,3.79 c 21.03,-16.89 25.96,-16.41 29.47,-12.04 l 0,0 c 3.11,3.87 5.98,11.65 9.39,24.99 l 4.71,-1.2 -4.71,1.2 c 5.66,22.1 11.68,38.54 28.17,34.31 l 0,0 c 7.17,-1.83 15.7,-7.77 26.19,-16.19 l -3.04,-3.79 3.04,3.79 c 21.02,-16.89 25.95,-16.41 29.46,-12.04 l 0,0 c 3.11,3.87 5.98,11.65 9.4,25 l 4.7,-1.21 -4.7,1.21 c 5.65,22.09 11.67,38.53 28.16,34.3 l 0,0 c 7.17,-1.83 15.71,-7.77 26.19,-16.19 l -3.04,-3.79 3.04,3.79 c 21.02,-16.89 25.95,-16.41 29.46,-12.04 l 0,0 c 3.12,3.87 5.99,11.65 9.4,25 l 0,0 c 5.66,22.09 11.68,38.53 28.17,34.3 l 0,0 c 7.17,-1.83 15.7,-7.77 26.18,-16.19 l -1.09,0.87 1.09,-0.87 c 21.02,-16.89 25.96,-16.41 29.47,-12.04 l 0,0 c 3.11,3.88 5.98,11.64 9.39,25 l 1.2,4.7 9.41,-2.41 -1.2,-4.7 c -3.34,-13.03 -6.59,-22.89 -11.23,-28.67 l 0,0 c -10.66,-13.27 -25.34,-3.73 -43.12,10.55 l 3.04,3.78 -3.04,-3.78 c -10.74,8.63 -17.7,13.13 -22.51,14.36 l 0,0 c -5.44,1.39 -9.67,-1.19 -16.35,-27.31 l -4.71,1.2 4.71,-1.2 c -3.34,-13.03 -6.59,-22.89 -11.24,-28.67 l 0,0 c -10.66,-13.27 -25.33,-3.73 -43.11,10.55 l 0,0 c -10.74,8.63 -17.7,13.13 -22.51,14.36 l 0,0 c -5.44,1.39 -9.67,-1.19 -16.36,-27.31 l 0,0 c -3.33,-13.03 -6.59,-22.9 -11.23,-28.67 l 0,0 c -10.66,-13.27 -25.34,-3.74 -43.11,10.55 l 0,0 c -10.75,8.63 -17.7,13.12 -22.51,14.36 l 0,0 c -5.44,1.39 -9.67,-1.19 -16.36,-27.31 l -0.77,-3.02 0.77,3.02 c -3.33,-13.03 -6.59,-22.9 -11.23,-28.67 l 0,0 c -10.66,-13.27 -25.34,-3.74 -43.11,10.55 l 0,0 c -10.75,8.63 -17.7,13.12 -22.52,14.36 l 0,0 c -5.43,1.39 -9.66,-1.19 -16.35,-27.32 l 0,0 c -3.33,-13.02 -6.59,-22.89 -11.23,-28.66 l 0,0 c -10.66,-13.27 -25.34,-3.74 -43.12,10.55 l 0,0 c -10.74,8.63 -17.69,13.12 -22.51,14.36 l 0,0 c -5.43,1.38 -9.66,-1.19 -16.35,-27.32 l -1.21,-4.7 -9.4,2.41" />
      </g>
    </g>
    <g
       id="g2624"
       transform="matrix(0.125,0,0,-0.125,-370.89907,717.52946)">
      <g
         clip-path="url(#clipPath2628)"
         id="g2626">
        <path
           inkscape:connector-curvature="0"
           id="path2632"
           style="fill:#000000;fill-opacity:1;fill-rule:nonzero;stroke:none"
           d="m 4141.91,4924.94 c 0,-8.48 -6.88,-15.35 -15.36,-15.35 -8.47,0 -15.34,6.87 -15.34,15.35 0,8.47 6.87,15.35 15.34,15.35 8.48,0 15.36,-6.88 15.36,-15.35" />
      </g>
    </g>
    <g
       id="g2634"
       transform="matrix(0.125,0,0,-0.125,-370.89907,717.52946)">
      <g
         clip-path="url(#clipPath2638)"
         id="g2636">
        <path
           inkscape:connector-curvature="0"
           id="path2642"
           style="fill:#000000;fill-opacity:1;fill-rule:nonzero;stroke:none"
           d="m 4144.34,4924.94 0,0 c 0,-9.82 -7.96,-17.78 -17.79,-17.78 l 0,2.43 0,-2.43 c -9.82,0 -17.77,7.96 -17.77,17.78 l 2.43,0 -2.43,0 c 0,9.82 7.95,17.77 17.77,17.77 l 0,-2.42 0,2.42 c 9.83,0 17.79,-7.95 17.79,-17.77 l -2.43,0 2.43,0 m -4.86,0 0,0 c 0,7.13 -5.79,12.92 -12.93,12.92 l 0,0 c -7.13,0 -12.92,-5.79 -12.92,-12.92 l 0,0 c 0,-7.14 5.79,-12.92 12.92,-12.92 l 0,0 c 7.14,0 12.93,5.78 12.93,12.92" />
      </g>
    </g>
    <g
       id="g2644"
       transform="matrix(0.125,0,0,-0.125,-370.89907,717.52946)">
      <g
         clip-path="url(#clipPath2648)"
         id="g2646">
        <path
           inkscape:connector-curvature="0"
           id="path2652"
           style="fill:#000000;fill-opacity:1;fill-rule:nonzero;stroke:none"
           d="m 4141.91,4458.88 c 0,-8.48 -6.88,-15.35 -15.36,-15.35 -8.47,0 -15.34,6.87 -15.34,15.35 0,8.48 6.87,15.35 15.34,15.35 8.48,0 15.36,-6.87 15.36,-15.35" />
      </g>
    </g>
    <g
       id="g2654"
       transform="matrix(0.125,0,0,-0.125,-370.89907,717.52946)">
      <g
         clip-path="url(#clipPath2658)"
         id="g2656">
        <path
           inkscape:connector-curvature="0"
           id="path2662"
           style="fill:#000000;fill-opacity:1;fill-rule:nonzero;stroke:none"
           d="m 4144.34,4458.88 0,0 c 0,-9.82 -7.96,-17.78 -17.79,-17.78 l 0,2.43 0,-2.43 c -9.82,0 -17.77,7.96 -17.77,17.78 l 2.43,0 -2.43,0 c 0,9.82 7.95,17.78 17.77,17.78 l 0,-2.43 0,2.43 c 9.83,0 17.79,-7.96 17.79,-17.78 l -2.43,0 2.43,0 m -4.86,0 0,0 c 0,7.14 -5.79,12.92 -12.93,12.92 l 0,0 c -7.13,0 -12.92,-5.78 -12.92,-12.92 l 0,0 c 0,-7.14 5.79,-12.92 12.92,-12.92 l 0,0 c 7.14,0 12.93,5.78 12.93,12.92" />
      </g>
    </g>
    <text
       xml:space="preserve"
       style="font-style:normal;font-weight:normal;font-size:15px;line-height:125%;font-family:sans-serif;letter-spacing:5px;word-spacing:0px;fill:#000000;fill-opacity:1;stroke:none;stroke-width:1px;stroke-linecap:butt;stroke-linejoin:miter;stroke-opacity:1"
       x="204.79805"
       y="85.768257"
       id="text6640-9-5-0-96-9-4-8"
       sodipodi:linespacing="125%"><tspan
         sodipodi:role="line"
         id="tspan6642-4-35-6-6-1-9-1"
         x="204.79805"
         y="85.768257"
         style="font-style:normal;font-variant:normal;font-weight:500;font-stretch:normal;font-size:15px;font-family:'URW Palladio L';-inkscape-font-specification:'URW Palladio L Medium'">W</tspan></text>
    <text
       xml:space="preserve"
       style="font-style:normal;font-weight:normal;font-size:12.5px;line-height:125%;font-family:sans-serif;letter-spacing:5px;word-spacing:0px;fill:#000000;fill-opacity:1;stroke:none;stroke-width:1px;stroke-linecap:butt;stroke-linejoin:miter;stroke-opacity:1"
       x="220.71468"
       y="79.876717"
       id="text6640-9-5-0-96-2-8-1-2"
       sodipodi:linespacing="125%"><tspan
         sodipodi:role="line"
         id="tspan5656-1-7-9"
         style="font-style:normal;font-variant:normal;font-weight:500;font-stretch:normal;font-size:12.5px;font-family:'URW Palladio L';-inkscape-font-specification:'URW Palladio L Medium'"
         x="220.71468"
         y="79.876717">±</tspan></text>
    <text
       xml:space="preserve"
       style="font-style:normal;font-weight:normal;font-size:15px;line-height:125%;font-family:sans-serif;letter-spacing:5px;word-spacing:0px;fill:#000000;fill-opacity:1;stroke:none;stroke-width:1px;stroke-linecap:butt;stroke-linejoin:miter;stroke-opacity:1"
       x="75.429947"
       y="84.707954"
       id="text6640-9-5-0-9-1-4"
       sodipodi:linespacing="125%"><tspan
         sodipodi:role="line"
         id="tspan6642-4-35-6-9-4-4"
         x="75.429947"
         y="84.707954"
         style="font-style:normal;font-variant:normal;font-weight:500;font-stretch:normal;font-size:15px;font-family:'URW Palladio L';-inkscape-font-specification:'URW Palladio L Medium'">b</tspan></text>
    <text
       xml:space="preserve"
       style="font-style:normal;font-weight:normal;font-size:15px;line-height:125%;font-family:sans-serif;letter-spacing:5px;word-spacing:0px;fill:#000000;fill-opacity:1;stroke:none;stroke-width:1px;stroke-linecap:butt;stroke-linejoin:miter;stroke-opacity:1"
       x="210.02071"
       y="186.70448"
       id="text6640-9-5-0-5-7-8-9"
       sodipodi:linespacing="125%"><tspan
         sodipodi:role="line"
         id="tspan6642-4-35-6-5-0-4-6"
         x="210.02071"
         y="186.70448"
         style="font-style:normal;font-variant:normal;font-weight:500;font-stretch:normal;font-size:15px;font-family:'URW Palladio L';-inkscape-font-specification:'URW Palladio L Medium'">t</tspan></text>
    <text
       xml:space="preserve"
       style="font-style:normal;font-weight:normal;font-size:15px;line-height:125%;font-family:sans-serif;letter-spacing:5px;word-spacing:0px;fill:#000000;fill-opacity:1;stroke:none;stroke-width:1px;stroke-linecap:butt;stroke-linejoin:miter;stroke-opacity:1"
       x="131.83742"
       y="133.79597"
       id="text6640-9-5-0-5-7-8-9-4"
       sodipodi:linespacing="125%"><tspan
         sodipodi:role="line"
         id="tspan6642-4-35-6-5-0-4-6-3"
         x="131.83742"
         y="133.79597"
         style="font-style:normal;font-variant:normal;font-weight:500;font-stretch:normal;font-size:15px;font-family:'URW Palladio L';-inkscape-font-specification:'URW Palladio L Medium'">t</tspan></text>
    <text
       xml:space="preserve"
       style="font-style:normal;font-weight:normal;font-size:15px;line-height:125%;font-family:sans-serif;letter-spacing:5px;word-spacing:0px;fill:#000000;fill-opacity:1;stroke:none;stroke-width:1px;stroke-linecap:butt;stroke-linejoin:miter;stroke-opacity:1"
       x="75.481461"
       y="185.217"
       id="text6640-9-5-0-5-7-4-3"
       sodipodi:linespacing="125%"><tspan
         sodipodi:role="line"
         id="tspan6642-4-35-6-5-0-2-6"
         x="75.481461"
         y="185.217"
         style="font-style:normal;font-variant:normal;font-weight:500;font-stretch:normal;font-size:15px;font-family:'URW Palladio L';-inkscape-font-specification:'URW Palladio L Medium'">g</tspan></text>
  </g>
</svg>
