<?xml version="1.0" encoding="UTF-8" standalone="no"?>
<!-- Created with Inkscape (http://www.inkscape.org/) -->

<svg
   xmlns:dc="http://purl.org/dc/elements/1.1/"
   xmlns:cc="http://creativecommons.org/ns#"
   xmlns:rdf="http://www.w3.org/1999/02/22-rdf-syntax-ns#"
   xmlns:svg="http://www.w3.org/2000/svg"
   xmlns="http://www.w3.org/2000/svg"
   xmlns:sodipodi="http://sodipodi.sourceforge.net/DTD/sodipodi-0.dtd"
   xmlns:inkscape="http://www.inkscape.org/namespaces/inkscape"
   width="46.546589mm"
   height="34mm"
   viewBox="0 0 164.92886 120.47244"
   id="svg8063"
   version="1.1"
   inkscape:version="0.91 r13725"
   sodipodi:docname="ST_tWch.svg">
  <defs
     id="defs8065">
    <clipPath
       clipPathUnits="userSpaceOnUse"
       id="clipPath498">
      <path
         d="m 3134.54,4691.91 0,0 c 0,-9.82 -7.95,-17.78 -17.78,-17.78 l 0,2.43 0,-2.43 c -9.82,0 -17.78,7.96 -17.78,17.78 l 2.43,0 -2.43,0 c 0,9.82 7.96,17.78 17.78,17.78 l 0,-2.43 0,2.43 c 9.83,0 17.78,-7.96 17.78,-17.78 l -2.43,0 2.43,0 m -4.85,0 0,0 c 0,7.14 -5.79,12.92 -12.93,12.92 l 0,0 c -7.13,0 -12.92,-5.78 -12.92,-12.92 l 0,0 c 0,-7.14 5.79,-12.93 12.92,-12.93 l 0,0 c 7.14,0 12.93,5.79 12.93,12.93 z"
         id="path500"
         inkscape:connector-curvature="0" />
    </clipPath>
    <clipPath
       clipPathUnits="userSpaceOnUse"
       id="clipPath488">
      <path
         d="m 3132.11,4691.91 c 0,-8.48 -6.87,-15.35 -15.35,-15.35 -8.47,0 -15.35,6.87 -15.35,15.35 0,8.48 6.88,15.35 15.35,15.35 8.48,0 15.35,-6.87 15.35,-15.35 z"
         id="path490"
         inkscape:connector-curvature="0" />
    </clipPath>
    <clipPath
       clipPathUnits="userSpaceOnUse"
       id="clipPath478">
      <path
         d="m 2746.16,4691.91 0,0 c 0,-9.82 -7.96,-17.78 -17.78,-17.78 l 0,2.43 0,-2.43 c -9.82,0 -17.77,7.96 -17.77,17.78 l 2.42,0 -2.42,0 c 0,9.82 7.95,17.78 17.77,17.78 l 0,-2.43 0,2.43 c 9.82,0 17.78,-7.96 17.78,-17.78 l -2.43,0 2.43,0 m -4.86,0 0,0 c 0,7.14 -5.78,12.92 -12.92,12.92 l 0,0 c -7.13,0 -12.92,-5.78 -12.92,-12.92 l 0,0 c 0,-7.14 5.79,-12.93 12.92,-12.93 l 0,0 c 7.14,0 12.92,5.79 12.92,12.93 z"
         id="path480"
         inkscape:connector-curvature="0" />
    </clipPath>
    <clipPath
       clipPathUnits="userSpaceOnUse"
       id="clipPath468">
      <path
         d="m 2743.73,4691.91 c 0,-8.48 -6.87,-15.35 -15.35,-15.35 -8.47,0 -15.35,6.87 -15.35,15.35 0,8.48 6.88,15.35 15.35,15.35 8.48,0 15.35,-6.87 15.35,-15.35 z"
         id="path470"
         inkscape:connector-curvature="0" />
    </clipPath>
    <clipPath
       clipPathUnits="userSpaceOnUse"
       id="clipPath378">
      <path
         d="m 3111.92,4691.54 0,0 c -1.72,22.45 -1.37,39.96 15.36,41.25 l 0,0 c 7.38,0.57 17.38,-2.44 30.04,-7.21 l -1.72,-4.54 1.72,4.54 c 25.07,-9.45 29.5,-7.45 31.38,-2.47 l 0,0 c 1.73,4.59 1.96,12.83 0.9,26.68 l 4.84,0.38 -4.84,-0.38 c -1.72,22.46 -1.37,39.97 15.36,41.25 l 0,0 c 7.38,0.57 17.38,-2.43 30.03,-7.2 l -1.71,-4.55 1.71,4.55 c 25.08,-9.45 29.51,-7.46 31.39,-2.47 l 0,0 c 1.73,4.58 1.96,12.83 0.9,26.68 l 4.84,0.37 -4.84,-0.37 c -1.73,22.45 -1.38,39.97 15.35,41.25 l 0,0 c 7.38,0.57 17.38,-2.44 30.04,-7.2 l -1.72,-4.55 1.72,4.55 c 25.07,-9.46 29.51,-7.46 31.38,-2.47 l 0,0 c 1.73,4.58 1.97,12.83 0.9,26.68 l 4.84,0.37 -4.84,-0.37 c -1.72,22.45 -1.37,39.97 15.36,41.25 l 0,0 c 7.38,0.57 17.38,-2.44 30.03,-7.21 l -1.71,-4.54 1.71,4.54 c 25.08,-9.45 29.51,-7.45 31.39,-2.47 l 0,0 c 1.73,4.58 1.96,12.83 0.9,26.68 l -0.38,4.85 9.69,0.74 0.37,-4.84 c 1.03,-13.49 1.12,-23.93 -1.49,-30.85 l 0,0 c -5.92,-15.71 -22.83,-11.13 -43.9,-3.19 l 0,0 0,0 c -13,4.89 -20.99,6.98 -25.87,6.61 l 0,0 c -5.31,-0.41 -8.46,-4.11 -6.42,-30.83 l 0,0 c 1.04,-13.48 1.12,-23.92 -1.49,-30.85 l 0,0 c -5.92,-15.7 -22.82,-11.13 -43.9,-3.19 l 0,0 c -12.99,4.9 -20.98,6.98 -25.86,6.61 l 0,0 c -5.32,-0.41 -8.47,-4.1 -6.42,-30.82 l 0,0 c 1.03,-13.49 1.11,-23.93 -1.5,-30.85 l 0,0 c -5.91,-15.71 -22.82,-11.14 -43.9,-3.2 l 0,0 c -12.99,4.9 -20.98,6.99 -25.86,6.61 l 0,0 c -5.31,-0.4 -8.47,-4.1 -6.42,-30.82 l 0,0 c 1.03,-13.49 1.12,-23.93 -1.49,-30.85 l 0,0 c -5.92,-15.71 -22.83,-11.14 -43.9,-3.2 l 0,0 c -13,4.9 -20.98,6.99 -25.86,6.62 l 0,0 c -5.32,-0.41 -8.48,-4.11 -6.42,-30.83 l 0.37,-4.84 -9.69,-0.74 -0.37,4.84 z"
         id="path380"
         inkscape:connector-curvature="0" />
    </clipPath>
    <clipPath
       clipPathUnits="userSpaceOnUse"
       id="clipPath368">
      <path
         d="m 3290.9,4558.48 0,0 -50.49,13.6 -6.16,1.66 5.71,2.85 19.42,9.71 1.08,-2.17 -2.39,0.44 3.89,21.36 1.14,6.28 3.32,-5.45 27.19,-44.67 3.16,-5.18 -5.87,1.57 m 1.27,4.7 -0.63,-2.35 -2.08,-1.26 -27.18,44.66 2.07,1.26 2.39,-0.43 -3.89,-21.36 -0.21,-1.19 -1.09,-0.55 -19.42,-9.71 -1.08,2.17 0.63,2.35 50.49,-13.59 z"
         id="path370"
         inkscape:connector-curvature="0" />
    </clipPath>
    <clipPath
       clipPathUnits="userSpaceOnUse"
       id="clipPath358">
      <path
         d="m 3291.54,4560.83 -50.49,13.59 19.41,9.71 3.89,21.36 27.19,-44.66 z"
         id="path360"
         inkscape:connector-curvature="0" />
    </clipPath>
    <clipPath
       clipPathUnits="userSpaceOnUse"
       id="clipPath348">
      <path
         d="m 3119.68,4695.79 0,0 310.7,-233.02 3.89,-2.92 -5.83,-7.77 -3.89,2.92 -310.7,233.02 -3.89,2.92 5.83,7.77 3.89,-2.92 z"
         id="path350"
         inkscape:connector-curvature="0" />
    </clipPath>
    <clipPath
       clipPathUnits="userSpaceOnUse"
       id="clipPath338">
      <path
         d="m 2947.75,4689.66 0,0 -48.55,-19.42 -5.93,-2.38 2.86,5.72 9.71,19.42 2.17,-1.09 -2.17,-1.09 -9.71,19.42 -2.86,5.71 5.93,-2.37 48.55,-19.42 5.63,-2.25 -5.63,-2.25 m -1.8,4.5 0.9,-2.25 -0.9,-2.25 -48.56,19.41 0.91,2.26 2.17,1.08 9.71,-19.41 0.54,-1.09 -0.54,-1.09 -9.71,-19.42 -2.17,1.09 -0.91,2.25 48.56,19.42 z"
         id="path340"
         inkscape:connector-curvature="0" />
    </clipPath>
    <clipPath
       clipPathUnits="userSpaceOnUse"
       id="clipPath328">
      <path
         d="m 2946.85,4691.91 -48.55,-19.42 9.71,19.42 -9.71,19.42 48.55,-19.42 z"
         id="path330"
         inkscape:connector-curvature="0" />
    </clipPath>
    <clipPath
       clipPathUnits="userSpaceOnUse"
       id="clipPath318">
      <path
         d="m 2728.38,4696.77 0,0 388.38,0 4.86,0 0,-9.72 -4.86,0 -388.38,0 -4.85,0 0,9.72 4.85,0 z"
         id="path320"
         inkscape:connector-curvature="0" />
    </clipPath>
    <clipPath
       clipPathUnits="userSpaceOnUse"
       id="clipPath308">
      <path
         d="m 2413.24,4456.9 0,0 c -6.12,13.77 -3.46,32.47 18.03,48.58 l 2.91,-3.88 -2.91,3.88 c 20.07,15.06 40.06,7 49.52,-5.62 l 0,0 c 6.76,-9.02 9.51,-22.93 -1.25,-30.99 l -0.1,-0.08 0.1,0.08 c -9.98,-7.48 -21.72,-2.39 -28.16,6.2 l 0,0 c -10.25,13.66 -10.26,37.8 15.4,57.05 l 1.2,0.9 -1.2,-0.9 c 25.66,19.24 48.83,12.47 59.07,-1.18 l 0,0 c 6.45,-8.6 8.06,-21.3 -1.92,-28.78 l -2.91,3.88 2.91,-3.88 c -9.98,-7.48 -21.72,-2.39 -28.18,6.21 l 0,0 c -10.23,13.65 -10.24,37.79 15.41,57.04 l 5.16,3.86 -5.16,-3.86 c 25.67,19.24 48.84,12.48 59.08,-1.18 l 0,0 c 6.45,-8.6 8.05,-21.3 -1.92,-28.78 l 0,0 0,0 c -9.98,-7.49 -21.73,-2.4 -28.18,6.21 l 0,0 c -10.24,13.66 -10.25,37.79 15.41,57.04 l 2.91,-3.89 -2.91,3.89 c 25.66,19.24 48.83,12.48 59.08,-1.18 l 0,0 c 6.45,-8.61 8.05,-21.3 -1.93,-28.78 l -2.91,3.88 2.91,-3.88 c -9.98,-7.49 -21.72,-2.4 -28.17,6.21 l 0,0 c -10.24,13.66 -10.25,37.79 15.41,57.04 l 2.91,-3.89 -2.91,3.89 c 25.66,19.24 48.83,12.47 59.07,-1.18 l 0,0 c 6.45,-8.6 8.06,-21.3 -1.92,-28.78 l 0,0 0,0 c -9.98,-7.49 -21.72,-2.4 -28.17,6.21 l 0,0 c -10.25,13.65 -10.26,37.79 15.4,57.04 l 2.34,1.75 -2.34,-1.75 c 25.66,19.24 48.84,12.47 59.08,-1.18 l 0,0 c 6.45,-8.6 8.05,-21.3 -1.93,-28.78 l -0.1,-0.08 0.1,0.08 c -10.76,-8.07 -23.33,-1.55 -30.1,7.47 l 0,0 c -9.46,12.62 -11.6,34.07 8.47,49.12 l 0,0 0,0 c 21.48,16.12 40.19,13.44 51.68,3.7 l 3.7,-3.13 -6.27,-7.41 -3.7,3.13 c -7.52,6.37 -21.14,9.78 -39.59,-4.06 l -2.91,3.88 2.91,-3.88 c -15.06,-11.29 -13.34,-26.43 -6.52,-35.52 l 0,0 c 5.5,-7.34 12.25,-8.73 16.5,-5.53 l 2.92,-3.89 -2.92,3.89 c 3.97,2.97 4.68,8.92 -0.01,15.18 l 0,0 c -6.55,8.74 -23.45,15.76 -45.48,-0.76 l -2.91,3.88 2.91,-3.88 c -22.03,-16.52 -20.02,-34.71 -13.47,-43.45 l 0,0 c 4.7,-6.26 10.61,-7.24 14.58,-4.26 l 2.91,-3.89 -2.91,3.89 c 3.97,2.97 4.68,8.92 -0.01,15.18 l 0,0 c -6.56,8.74 -23.46,15.76 -45.48,-0.76 l -7.29,-5.47 7.29,5.47 c -22.04,-16.52 -20.02,-34.71 -13.47,-43.45 l 0,0 c 4.69,-6.26 10.61,-7.24 14.57,-4.26 l 2.93,2.19 -2.93,-2.19 c 3.97,2.97 4.68,8.92 -0.01,15.18 l 0,0 c -6.55,8.74 -23.46,15.76 -45.48,-0.76 l 0,0 c -22.03,-16.52 -20.02,-34.71 -13.47,-43.45 l 0,0 c 4.7,-6.26 10.61,-7.24 14.58,-4.27 l 2.91,-3.88 -2.91,3.88 c 3.97,2.98 4.68,8.93 -0.02,15.19 l 0,0 c -6.55,8.74 -23.45,15.76 -45.48,-0.76 l -2.91,3.88 2.91,-3.88 c -22.03,-16.52 -20.02,-34.71 -13.47,-43.44 l 0,0 c 4.7,-6.27 10.62,-7.25 14.58,-4.28 l 0,0 0,0 c 3.97,2.98 4.68,8.93 -0.02,15.19 l 0,0 c -6.54,8.74 -23.45,15.76 -45.48,-0.76 l -2.91,3.88 2.91,-3.88 c -22.02,-16.52 -20.01,-34.71 -13.46,-43.45 l 0,0 c 4.7,-6.26 10.61,-7.24 14.57,-4.27 l 2.92,-3.88 -2.92,3.88 c 4.26,3.2 4.82,10.06 -0.68,17.41 l 0,0 c -6.83,9.08 -20.87,14.97 -35.94,3.68 l 0,0 0,0 c -18.45,-13.84 -18.98,-27.88 -14.98,-36.86 l 1.98,-4.44 -8.88,-3.95 -1.97,4.43 z"
         id="path310"
         inkscape:connector-curvature="0" />
    </clipPath>
    <clipPath
       clipPathUnits="userSpaceOnUse"
       id="clipPath298">
      <path
         d="m 2591.82,4791.52 0,0 -50.49,13.59 -6.17,1.66 5.71,2.85 19.42,9.71 1.09,-2.17 -2.39,0.43 3.88,21.37 1.15,6.28 3.32,-5.45 27.18,-44.67 3.16,-5.18 -5.86,1.58 m 1.26,4.68 -0.63,-2.34 -2.07,-1.26 -27.19,44.66 2.07,1.26 2.39,-0.43 -3.88,-21.36 -0.22,-1.19 -1.09,-0.55 -19.41,-9.71 -1.09,2.17 0.63,2.35 50.49,-13.6 z"
         id="path300"
         inkscape:connector-curvature="0" />
    </clipPath>
    <clipPath
       clipPathUnits="userSpaceOnUse"
       id="clipPath288">
      <path
         d="m 2592.45,4793.86 -50.49,13.59 19.42,9.71 3.88,21.36 27.19,-44.66 z"
         id="path290"
         inkscape:connector-curvature="0" />
    </clipPath>
    <clipPath
       clipPathUnits="userSpaceOnUse"
       id="clipPath278">
      <path
         d="m 2420.59,4928.82 0,0 310.7,-233.03 3.89,-2.91 -5.83,-7.77 -3.88,2.91 -310.71,233.03 -3.88,2.92 5.83,7.76 3.88,-2.91 z"
         id="path280"
         inkscape:connector-curvature="0" />
    </clipPath>
  </defs>
  <sodipodi:namedview
     id="base"
     pagecolor="#ffffff"
     bordercolor="#666666"
     borderopacity="1.0"
     inkscape:pageopacity="0.0"
     inkscape:pageshadow="2"
     inkscape:zoom="5.6"
     inkscape:cx="84.09315"
     inkscape:cy="70.469763"
     inkscape:document-units="px"
     inkscape:current-layer="layer1"
     showgrid="false"
     fit-margin-top="0.1"
     fit-margin-left="0.1"
     fit-margin-bottom="0.1"
     fit-margin-right="0.1"
     inkscape:window-width="1920"
     inkscape:window-height="1016"
     inkscape:window-x="0"
     inkscape:window-y="27"
     inkscape:window-maximized="1" />
  <metadata
     id="metadata8068">
    <rdf:RDF>
      <cc:Work
         rdf:about="">
        <dc:format>image/svg+xml</dc:format>
        <dc:type
           rdf:resource="http://purl.org/dc/dcmitype/StillImage" />
        <dc:title></dc:title>
      </cc:Work>
    </rdf:RDF>
  </metadata>
  <g
     inkscape:label="Layer 1"
     inkscape:groupmode="layer"
     id="layer1"
     transform="translate(196.75014,29.246666)">
    <g
       id="g274"
       transform="matrix(0.125,0,0,-0.125,-487.03051,618.50728)">
      <g
         clip-path="url(#clipPath278)"
         id="g276">
        <path
           inkscape:connector-curvature="0"
           id="path282"
           style="fill:#000000;fill-opacity:1;fill-rule:nonzero;stroke:none"
           d="m 2420.59,4928.82 0,0 310.7,-233.03 3.89,-2.91 -5.83,-7.77 -3.88,2.91 -310.71,233.03 -3.88,2.92 5.83,7.76" />
      </g>
    </g>
    <g
       id="g284"
       transform="matrix(0.125,0,0,-0.125,-487.03051,618.50728)">
      <g
         clip-path="url(#clipPath288)"
         id="g286">
        <path
           inkscape:connector-curvature="0"
           id="path292"
           style="fill:#000000;fill-opacity:1;fill-rule:nonzero;stroke:none"
           d="m 2592.45,4793.86 -50.49,13.59 19.42,9.71 3.88,21.36" />
      </g>
    </g>
    <g
       id="g294"
       transform="matrix(0.125,0,0,-0.125,-487.03051,618.50728)">
      <g
         clip-path="url(#clipPath298)"
         id="g296">
        <path
           inkscape:connector-curvature="0"
           id="path302"
           style="fill:#000000;fill-opacity:1;fill-rule:nonzero;stroke:none"
           d="m 2591.82,4791.52 0,0 -50.49,13.59 -6.17,1.66 5.71,2.85 19.42,9.71 1.09,-2.17 -2.39,0.43 3.88,21.37 1.15,6.28 3.32,-5.45 27.18,-44.67 3.16,-5.18 -5.86,1.58 m 1.26,4.68 -0.63,-2.34 -2.07,-1.26 -27.19,44.66 2.07,1.26 2.39,-0.43 -3.88,-21.36 -0.22,-1.19 -1.09,-0.55 -19.41,-9.71 -1.09,2.17 0.63,2.35 50.49,-13.6" />
      </g>
    </g>
    <g
       id="g304"
       transform="matrix(0.125,0,0,-0.125,-487.03051,618.50728)">
      <g
         clip-path="url(#clipPath308)"
         id="g306">
        <path
           inkscape:connector-curvature="0"
           id="path312"
           style="fill:#000000;fill-opacity:1;fill-rule:nonzero;stroke:none"
           d="m 2413.24,4456.9 0,0 c -6.12,13.77 -3.46,32.47 18.03,48.58 l 2.91,-3.88 -2.91,3.88 c 20.07,15.06 40.06,7 49.52,-5.62 l 0,0 c 6.76,-9.02 9.51,-22.93 -1.25,-30.99 l -0.1,-0.08 0.1,0.08 c -9.98,-7.48 -21.72,-2.39 -28.16,6.2 l 0,0 c -10.25,13.66 -10.26,37.8 15.4,57.05 l 1.2,0.9 -1.2,-0.9 c 25.66,19.24 48.83,12.47 59.07,-1.18 l 0,0 c 6.45,-8.6 8.06,-21.3 -1.92,-28.78 l -2.91,3.88 2.91,-3.88 c -9.98,-7.48 -21.72,-2.39 -28.18,6.21 l 0,0 c -10.23,13.65 -10.24,37.79 15.41,57.04 l 5.16,3.86 -5.16,-3.86 c 25.67,19.24 48.84,12.48 59.08,-1.18 l 0,0 c 6.45,-8.6 8.05,-21.3 -1.92,-28.78 l 0,0 c -9.98,-7.49 -21.73,-2.4 -28.18,6.21 l 0,0 c -10.24,13.66 -10.25,37.79 15.41,57.04 l 2.91,-3.89 -2.91,3.89 c 25.66,19.24 48.83,12.48 59.08,-1.18 l 0,0 c 6.45,-8.61 8.05,-21.3 -1.93,-28.78 l -2.91,3.88 2.91,-3.88 c -9.98,-7.49 -21.72,-2.4 -28.17,6.21 l 0,0 c -10.24,13.66 -10.25,37.79 15.41,57.04 l 2.91,-3.89 -2.91,3.89 c 25.66,19.24 48.83,12.47 59.07,-1.18 l 0,0 c 6.45,-8.6 8.06,-21.3 -1.92,-28.78 l 0,0 c -9.98,-7.49 -21.72,-2.4 -28.17,6.21 l 0,0 c -10.25,13.65 -10.26,37.79 15.4,57.04 l 2.34,1.75 -2.34,-1.75 c 25.66,19.24 48.84,12.47 59.08,-1.18 l 0,0 c 6.45,-8.6 8.05,-21.3 -1.93,-28.78 l -0.1,-0.08 0.1,0.08 c -10.76,-8.07 -23.33,-1.55 -30.1,7.47 l 0,0 c -9.46,12.62 -11.6,34.07 8.47,49.12 l 0,0 c 21.48,16.12 40.19,13.44 51.68,3.7 l 3.7,-3.13 -6.27,-7.41 -3.7,3.13 c -7.52,6.37 -21.14,9.78 -39.59,-4.06 l -2.91,3.88 2.91,-3.88 c -15.06,-11.29 -13.34,-26.43 -6.52,-35.52 l 0,0 c 5.5,-7.34 12.25,-8.73 16.5,-5.53 l 2.92,-3.89 -2.92,3.89 c 3.97,2.97 4.68,8.92 -0.01,15.18 l 0,0 c -6.55,8.74 -23.45,15.76 -45.48,-0.76 l -2.91,3.88 2.91,-3.88 c -22.03,-16.52 -20.02,-34.71 -13.47,-43.45 l 0,0 c 4.7,-6.26 10.61,-7.24 14.58,-4.26 l 2.91,-3.89 -2.91,3.89 c 3.97,2.97 4.68,8.92 -0.01,15.18 l 0,0 c -6.56,8.74 -23.46,15.76 -45.48,-0.76 l -7.29,-5.47 7.29,5.47 c -22.04,-16.52 -20.02,-34.71 -13.47,-43.45 l 0,0 c 4.69,-6.26 10.61,-7.24 14.57,-4.26 l 2.93,2.19 -2.93,-2.19 c 3.97,2.97 4.68,8.92 -0.01,15.18 l 0,0 c -6.55,8.74 -23.46,15.76 -45.48,-0.76 l 0,0 c -22.03,-16.52 -20.02,-34.71 -13.47,-43.45 l 0,0 c 4.7,-6.26 10.61,-7.24 14.58,-4.27 l 2.91,-3.88 -2.91,3.88 c 3.97,2.98 4.68,8.93 -0.02,15.19 l 0,0 c -6.55,8.74 -23.45,15.76 -45.48,-0.76 l -2.91,3.88 2.91,-3.88 c -22.03,-16.52 -20.02,-34.71 -13.47,-43.44 l 0,0 c 4.7,-6.27 10.62,-7.25 14.58,-4.28 l 0,0 c 3.97,2.98 4.68,8.93 -0.02,15.19 l 0,0 c -6.54,8.74 -23.45,15.76 -45.48,-0.76 l -2.91,3.88 2.91,-3.88 c -22.02,-16.52 -20.01,-34.71 -13.46,-43.45 l 0,0 c 4.7,-6.26 10.61,-7.24 14.57,-4.27 l 2.92,-3.88 -2.92,3.88 c 4.26,3.2 4.82,10.06 -0.68,17.41 l 0,0 c -6.83,9.08 -20.87,14.97 -35.94,3.68 l 0,0 c -18.45,-13.84 -18.98,-27.88 -14.98,-36.86 l 1.98,-4.44 -8.88,-3.95" />
      </g>
    </g>
    <g
       id="g314"
       transform="matrix(0.125,0,0,-0.125,-487.03051,618.50728)">
      <g
         clip-path="url(#clipPath318)"
         id="g316">
        <path
           inkscape:connector-curvature="0"
           id="path322"
           style="fill:#000000;fill-opacity:1;fill-rule:nonzero;stroke:none"
           d="m 2728.38,4696.77 393.24,0 0,-9.72 -398.09,0 0,9.72" />
      </g>
    </g>
    <g
       id="g324"
       transform="matrix(0.125,0,0,-0.125,-487.03051,618.50728)">
      <g
         clip-path="url(#clipPath328)"
         id="g326">
        <path
           inkscape:connector-curvature="0"
           id="path332"
           style="fill:#000000;fill-opacity:1;fill-rule:nonzero;stroke:none"
           d="m 2946.85,4691.91 -48.55,-19.42 9.71,19.42 -9.71,19.42" />
      </g>
    </g>
    <g
       id="g334"
       transform="matrix(0.125,0,0,-0.125,-487.03051,618.50728)">
      <g
         clip-path="url(#clipPath338)"
         id="g336">
        <path
           inkscape:connector-curvature="0"
           id="path342"
           style="fill:#000000;fill-opacity:1;fill-rule:nonzero;stroke:none"
           d="m 2947.75,4689.66 0,0 -48.55,-19.42 -5.93,-2.38 2.86,5.72 9.71,19.42 2.17,-1.09 -2.17,-1.09 -9.71,19.42 -2.86,5.71 5.93,-2.37 48.55,-19.42 5.63,-2.25 -5.63,-2.25 m -1.8,4.5 0.9,-2.25 -0.9,-2.25 -48.56,19.41 0.91,2.26 2.17,1.08 9.71,-19.41 0.54,-1.09 -0.54,-1.09 -9.71,-19.42 -2.17,1.09 -0.91,2.25 48.56,19.42" />
      </g>
    </g>
    <g
       id="g344"
       transform="matrix(0.125,0,0,-0.125,-487.03051,618.50728)">
      <g
         clip-path="url(#clipPath348)"
         id="g346">
        <path
           inkscape:connector-curvature="0"
           id="path352"
           style="fill:#000000;fill-opacity:1;fill-rule:nonzero;stroke:none"
           d="m 3119.68,4695.79 0,0 310.7,-233.02 3.89,-2.92 -5.83,-7.77 -3.89,2.92 -310.7,233.02 -3.89,2.92 5.83,7.77" />
      </g>
    </g>
    <g
       id="g354"
       transform="matrix(0.125,0,0,-0.125,-487.03051,618.50728)">
      <g
         clip-path="url(#clipPath358)"
         id="g356">
        <path
           inkscape:connector-curvature="0"
           id="path362"
           style="fill:#000000;fill-opacity:1;fill-rule:nonzero;stroke:none"
           d="m 3291.54,4560.83 -50.49,13.59 19.41,9.71 3.89,21.36" />
      </g>
    </g>
    <g
       id="g364"
       transform="matrix(0.125,0,0,-0.125,-487.03051,618.50728)">
      <g
         clip-path="url(#clipPath368)"
         id="g366">
        <path
           inkscape:connector-curvature="0"
           id="path372"
           style="fill:#000000;fill-opacity:1;fill-rule:nonzero;stroke:none"
           d="m 3290.9,4558.48 0,0 -50.49,13.6 -6.16,1.66 5.71,2.85 19.42,9.71 1.08,-2.17 -2.39,0.44 3.89,21.36 1.14,6.28 3.32,-5.45 27.19,-44.67 3.16,-5.18 -5.87,1.57 m 1.27,4.7 -0.63,-2.35 -2.08,-1.26 -27.18,44.66 2.07,1.26 2.39,-0.43 -3.89,-21.36 -0.21,-1.19 -1.09,-0.55 -19.42,-9.71 -1.08,2.17 0.63,2.35 50.49,-13.59" />
      </g>
    </g>
    <g
       id="g374"
       transform="matrix(0.125,0,0,-0.125,-487.03051,618.50728)">
      <g
         clip-path="url(#clipPath378)"
         id="g376">
        <path
           inkscape:connector-curvature="0"
           id="path382"
           style="fill:#000000;fill-opacity:1;fill-rule:nonzero;stroke:none"
           d="m 3111.92,4691.54 0,0 c -1.72,22.45 -1.37,39.96 15.36,41.25 l 0,0 c 7.38,0.57 17.38,-2.44 30.04,-7.21 l -1.72,-4.54 1.72,4.54 c 25.07,-9.45 29.5,-7.45 31.38,-2.47 l 0,0 c 1.73,4.59 1.96,12.83 0.9,26.68 l 4.84,0.38 -4.84,-0.38 c -1.72,22.46 -1.37,39.97 15.36,41.25 l 0,0 c 7.38,0.57 17.38,-2.43 30.03,-7.2 l -1.71,-4.55 1.71,4.55 c 25.08,-9.45 29.51,-7.46 31.39,-2.47 l 0,0 c 1.73,4.58 1.96,12.83 0.9,26.68 l 4.84,0.37 -4.84,-0.37 c -1.73,22.45 -1.38,39.97 15.35,41.25 l 0,0 c 7.38,0.57 17.38,-2.44 30.04,-7.2 l -1.72,-4.55 1.72,4.55 c 25.07,-9.46 29.51,-7.46 31.38,-2.47 l 0,0 c 1.73,4.58 1.97,12.83 0.9,26.68 l 4.84,0.37 -4.84,-0.37 c -1.72,22.45 -1.37,39.97 15.36,41.25 l 0,0 c 7.38,0.57 17.38,-2.44 30.03,-7.21 l -1.71,-4.54 1.71,4.54 c 25.08,-9.45 29.51,-7.45 31.39,-2.47 l 0,0 c 1.73,4.58 1.96,12.83 0.9,26.68 l -0.38,4.85 9.69,0.74 0.37,-4.84 c 1.03,-13.49 1.12,-23.93 -1.49,-30.85 l 0,0 c -5.92,-15.71 -22.83,-11.13 -43.9,-3.19 l 0,0 c -13,4.89 -20.99,6.98 -25.87,6.61 l 0,0 c -5.31,-0.41 -8.46,-4.11 -6.42,-30.83 l 0,0 c 1.04,-13.48 1.12,-23.92 -1.49,-30.85 l 0,0 c -5.92,-15.7 -22.82,-11.13 -43.9,-3.19 l 0,0 c -12.99,4.9 -20.98,6.98 -25.86,6.61 l 0,0 c -5.32,-0.41 -8.47,-4.1 -6.42,-30.82 l 0,0 c 1.03,-13.49 1.11,-23.93 -1.5,-30.85 l 0,0 c -5.91,-15.71 -22.82,-11.14 -43.9,-3.2 l 0,0 c -12.99,4.9 -20.98,6.99 -25.86,6.61 l 0,0 c -5.31,-0.4 -8.47,-4.1 -6.42,-30.82 l 0,0 c 1.03,-13.49 1.12,-23.93 -1.49,-30.85 l 0,0 c -5.92,-15.71 -22.83,-11.14 -43.9,-3.2 l 0,0 c -13,4.9 -20.98,6.99 -25.86,6.62 l 0,0 c -5.32,-0.41 -8.48,-4.11 -6.42,-30.83 l 0.37,-4.84 -9.69,-0.74" />
      </g>
    </g>
    <g
       id="g464"
       transform="matrix(0.125,0,0,-0.125,-487.03051,618.50728)">
      <g
         clip-path="url(#clipPath468)"
         id="g466">
        <path
           inkscape:connector-curvature="0"
           id="path472"
           style="fill:#000000;fill-opacity:1;fill-rule:nonzero;stroke:none"
           d="m 2743.73,4691.91 c 0,-8.48 -6.87,-15.35 -15.35,-15.35 -8.47,0 -15.35,6.87 -15.35,15.35 0,8.48 6.88,15.35 15.35,15.35 8.48,0 15.35,-6.87 15.35,-15.35" />
      </g>
    </g>
    <g
       id="g474"
       transform="matrix(0.125,0,0,-0.125,-487.03051,618.50728)">
      <g
         clip-path="url(#clipPath478)"
         id="g476">
        <path
           inkscape:connector-curvature="0"
           id="path482"
           style="fill:#000000;fill-opacity:1;fill-rule:nonzero;stroke:none"
           d="m 2746.16,4691.91 0,0 c 0,-9.82 -7.96,-17.78 -17.78,-17.78 l 0,2.43 0,-2.43 c -9.82,0 -17.77,7.96 -17.77,17.78 l 2.42,0 -2.42,0 c 0,9.82 7.95,17.78 17.77,17.78 l 0,-2.43 0,2.43 c 9.82,0 17.78,-7.96 17.78,-17.78 l -2.43,0 2.43,0 m -4.86,0 0,0 c 0,7.14 -5.78,12.92 -12.92,12.92 l 0,0 c -7.13,0 -12.92,-5.78 -12.92,-12.92 l 0,0 c 0,-7.14 5.79,-12.93 12.92,-12.93 l 0,0 c 7.14,0 12.92,5.79 12.92,12.93" />
      </g>
    </g>
    <g
       id="g484"
       transform="matrix(0.125,0,0,-0.125,-487.03051,618.50728)">
      <g
         clip-path="url(#clipPath488)"
         id="g486">
        <path
           inkscape:connector-curvature="0"
           id="path492"
           style="fill:#000000;fill-opacity:1;fill-rule:nonzero;stroke:none"
           d="m 3132.11,4691.91 c 0,-8.48 -6.87,-15.35 -15.35,-15.35 -8.47,0 -15.35,6.87 -15.35,15.35 0,8.48 6.88,15.35 15.35,15.35 8.48,0 15.35,-6.87 15.35,-15.35" />
      </g>
    </g>
    <g
       id="g494"
       transform="matrix(0.125,0,0,-0.125,-487.03051,618.50728)">
      <g
         clip-path="url(#clipPath498)"
         id="g496">
        <path
           inkscape:connector-curvature="0"
           id="path502"
           style="fill:#000000;fill-opacity:1;fill-rule:nonzero;stroke:none"
           d="m 3134.54,4691.91 0,0 c 0,-9.82 -7.95,-17.78 -17.78,-17.78 l 0,2.43 0,-2.43 c -9.82,0 -17.78,7.96 -17.78,17.78 l 2.43,0 -2.43,0 c 0,9.82 7.96,17.78 17.78,17.78 l 0,-2.43 0,2.43 c 9.83,0 17.78,-7.96 17.78,-17.78 l -2.43,0 2.43,0 m -4.85,0 0,0 c 0,7.14 -5.79,12.92 -12.93,12.92 l 0,0 c -7.13,0 -12.92,-5.78 -12.92,-12.92 l 0,0 c 0,-7.14 5.79,-12.93 12.92,-12.93 l 0,0 c 7.14,0 12.93,5.79 12.93,12.93" />
      </g>
    </g>
    <text
       xml:space="preserve"
       style="font-style:normal;font-weight:normal;font-size:15px;line-height:125%;font-family:sans-serif;letter-spacing:5px;word-spacing:0px;fill:#000000;fill-opacity:1;stroke:none;stroke-width:1px;stroke-linecap:butt;stroke-linejoin:miter;stroke-opacity:1"
       x="-55.029785"
       y="5.5224013"
       id="text6640-9-5-0-96-9-4"
       sodipodi:linespacing="125%"><tspan
         sodipodi:role="line"
         id="tspan6642-4-35-6-6-1-9"
         x="-55.029785"
         y="5.5224013"
         style="font-style:normal;font-variant:normal;font-weight:500;font-stretch:normal;font-size:15px;font-family:'URW Palladio L';-inkscape-font-specification:'URW Palladio L Medium'">W</tspan></text>
    <text
       xml:space="preserve"
       style="font-style:normal;font-weight:normal;font-size:12.5px;line-height:125%;font-family:sans-serif;letter-spacing:5px;word-spacing:0px;fill:#000000;fill-opacity:1;stroke:none;stroke-width:1px;stroke-linecap:butt;stroke-linejoin:miter;stroke-opacity:1"
       x="-39.113113"
       y="-0.36909539"
       id="text6640-9-5-0-96-2-8-1"
       sodipodi:linespacing="125%"><tspan
         sodipodi:role="line"
         id="tspan5656-1-7"
         style="font-style:normal;font-variant:normal;font-weight:500;font-stretch:normal;font-size:12.5px;font-family:'URW Palladio L';-inkscape-font-specification:'URW Palladio L Medium'"
         x="-39.113113"
         y="-0.36909539">±</tspan></text>
    <text
       xml:space="preserve"
       style="font-style:normal;font-weight:normal;font-size:15px;line-height:125%;font-family:sans-serif;letter-spacing:5px;word-spacing:0px;fill:#000000;fill-opacity:1;stroke:none;stroke-width:1px;stroke-linecap:butt;stroke-linejoin:miter;stroke-opacity:1"
       x="-196.17081"
       y="3.8501143"
       id="text6640-9-5-0-9-1"
       sodipodi:linespacing="125%"><tspan
         sodipodi:role="line"
         id="tspan6642-4-35-6-9-4"
         x="-196.17081"
         y="3.8501143"
         style="font-style:normal;font-variant:normal;font-weight:500;font-stretch:normal;font-size:15px;font-family:'URW Palladio L';-inkscape-font-specification:'URW Palladio L Medium'">b</tspan></text>
    <text
       xml:space="preserve"
       style="font-style:normal;font-weight:normal;font-size:15px;line-height:125%;font-family:sans-serif;letter-spacing:5px;word-spacing:0px;fill:#000000;fill-opacity:1;stroke:none;stroke-width:1px;stroke-linecap:butt;stroke-linejoin:miter;stroke-opacity:1"
       x="-196.41971"
       y="65.733582"
       id="text6640-9-5-0-5-7-4"
       sodipodi:linespacing="125%"><tspan
         sodipodi:role="line"
         id="tspan6642-4-35-6-5-0-2"
         x="-196.41971"
         y="65.733582"
         style="font-style:normal;font-variant:normal;font-weight:500;font-stretch:normal;font-size:15px;font-family:'URW Palladio L';-inkscape-font-specification:'URW Palladio L Medium'">g</tspan></text>
    <text
       xml:space="preserve"
       style="font-style:normal;font-weight:normal;font-size:15px;line-height:125%;font-family:sans-serif;letter-spacing:5px;word-spacing:0px;fill:#000000;fill-opacity:1;stroke:none;stroke-width:1px;stroke-linecap:butt;stroke-linejoin:miter;stroke-opacity:1"
       x="-53.177139"
       y="66.019035"
       id="text6640-9-5-0-5-7-8"
       sodipodi:linespacing="125%"><tspan
         sodipodi:role="line"
         id="tspan6642-4-35-6-5-0-4"
         x="-53.177139"
         y="66.019035"
         style="font-style:normal;font-variant:normal;font-weight:500;font-stretch:normal;font-size:15px;font-family:'URW Palladio L';-inkscape-font-specification:'URW Palladio L Medium'">t</tspan></text>
    <text
       xml:space="preserve"
       style="font-style:normal;font-weight:normal;font-size:15px;line-height:125%;font-family:sans-serif;letter-spacing:5px;word-spacing:0px;fill:#000000;fill-opacity:1;stroke:none;stroke-width:1px;stroke-linecap:butt;stroke-linejoin:miter;stroke-opacity:1"
       x="-127.44543"
       y="25.355927"
       id="text6640-9-5-0-9-1-9"
       sodipodi:linespacing="125%"><tspan
         sodipodi:role="line"
         id="tspan6642-4-35-6-9-4-3"
         x="-127.44543"
         y="25.355927"
         style="font-style:normal;font-variant:normal;font-weight:500;font-stretch:normal;font-size:15px;font-family:'URW Palladio L';-inkscape-font-specification:'URW Palladio L Medium'">b</tspan></text>
  </g>
</svg>
