<?xml version="1.0" encoding="UTF-8" standalone="no"?>
<!-- Created with Inkscape (http://www.inkscape.org/) -->

<svg
   xmlns:dc="http://purl.org/dc/elements/1.1/"
   xmlns:cc="http://creativecommons.org/ns#"
   xmlns:rdf="http://www.w3.org/1999/02/22-rdf-syntax-ns#"
   xmlns:svg="http://www.w3.org/2000/svg"
   xmlns="http://www.w3.org/2000/svg"
   xmlns:sodipodi="http://sodipodi.sourceforge.net/DTD/sodipodi-0.dtd"
   xmlns:inkscape="http://www.inkscape.org/namespaces/inkscape"
   width="41.407318mm"
   height="32mm"
   viewBox="0 0 146.71884 113.38583"
   id="svg14699"
   version="1.1"
   inkscape:version="0.91 r13725"
   sodipodi:docname="t-channel-contact.svg">
  <defs
     id="defs14701">
    <clipPath
       clipPathUnits="userSpaceOnUse"
       id="clipPath3588">
      <path
         d="m 4393.31,2405.95 0,0 c 0,-6.15 -4.98,-11.13 -11.13,-11.13 l 0,1.52 0,-1.52 c -6.14,0 -11.13,4.98 -11.13,11.13 l 1.52,0 -1.52,0 c 0,6.15 4.99,11.13 11.13,11.13 l 0,-1.52 0,1.52 c 6.15,0 11.13,-4.98 11.13,-11.13 l -1.52,0 1.52,0 m -3.04,0 0,0 c 0,4.46 -3.62,8.09 -8.09,8.09 l 0,0 c -4.47,0 -8.09,-3.63 -8.09,-8.09 l 0,0 c 0,-4.47 3.62,-8.09 8.09,-8.09 l 0,0 c 4.47,0 8.09,3.62 8.09,8.09 z"
         id="path3590"
         inkscape:connector-curvature="0" />
    </clipPath>
    <clipPath
       clipPathUnits="userSpaceOnUse"
       id="clipPath3578">
      <path
         d="m 4391.79,2405.95 c 0,-5.31 -4.3,-9.61 -9.61,-9.61 -5.3,0 -9.61,4.3 -9.61,9.61 0,5.3 4.31,9.61 9.61,9.61 5.31,0 9.61,-4.31 9.61,-9.61 z"
         id="path3580"
         inkscape:connector-curvature="0" />
    </clipPath>
    <clipPath
       clipPathUnits="userSpaceOnUse"
       id="clipPath3568">
      <path
         d="m 4250.21,2316.27 0,0 -18.55,-26.97 -2.26,-3.3 -0.49,3.97 -1.69,13.49 1.51,0.18 -0.76,-1.32 -11.8,6.75 -3.47,1.98 3.91,0.83 32.03,6.74 3.72,0.78 -2.15,-3.13 m -2.51,1.72 1.25,-0.86 0.32,-1.49 -32.03,-6.74 -0.31,1.49 0.75,1.32 11.8,-6.75 0.66,-0.37 0.09,-0.76 1.69,-13.48 -1.51,-0.19 -1.25,0.86 18.54,26.97 z"
         id="path3570"
         inkscape:connector-curvature="0" />
    </clipPath>
    <clipPath
       clipPathUnits="userSpaceOnUse"
       id="clipPath3558">
      <path
         d="m 4248.95,2317.13 -18.54,-26.97 -1.68,13.48 -11.8,6.75 32.02,6.74 z"
         id="path3560"
         inkscape:connector-curvature="0" />
    </clipPath>
    <clipPath
       clipPathUnits="userSpaceOnUse"
       id="clipPath3548">
      <path
         d="m 4088.76,2213.98 0,0 291.74,194.5 2.52,1.68 3.37,-5.05 -2.52,-1.69 -291.74,-194.49 -2.53,-1.69 -3.37,5.06 2.53,1.68 z"
         id="path3550"
         inkscape:connector-curvature="0" />
    </clipPath>
    <clipPath
       clipPathUnits="userSpaceOnUse"
       id="clipPath3538">
      <path
         d="m 4541.95,2510.76 0,0 -18.55,-26.97 -2.26,-3.29 -0.5,3.96 -1.68,13.49 1.5,0.19 -0.75,-1.32 -11.8,6.74 -3.47,1.98 3.91,0.83 32.03,6.74 3.72,0.78 -2.15,-3.13 m -2.51,1.72 1.26,-0.86 0.31,-1.48 -32.03,-6.75 -0.31,1.49 0.75,1.32 11.8,-6.74 0.66,-0.38 0.09,-0.75 1.69,-13.49 -1.51,-0.19 -1.25,0.87 18.54,26.96 z"
         id="path3540"
         inkscape:connector-curvature="0" />
    </clipPath>
    <clipPath
       clipPathUnits="userSpaceOnUse"
       id="clipPath3528">
      <path
         d="m 4540.7,2511.62 -18.55,-26.97 -1.69,13.49 -11.79,6.74 32.03,6.74 z"
         id="path3530"
         inkscape:connector-curvature="0" />
    </clipPath>
    <clipPath
       clipPathUnits="userSpaceOnUse"
       id="clipPath3518">
      <path
         d="m 4380.5,2408.48 0,0 291.74,194.49 2.53,1.69 3.37,-5.06 -2.53,-1.69 -291.74,-194.49 -2.53,-1.69 -3.37,5.06 2.53,1.69 z"
         id="path3520"
         inkscape:connector-curvature="0" />
    </clipPath>
    <clipPath
       clipPathUnits="userSpaceOnUse"
       id="clipPath3508">
      <path
         d="m 4540.38,2298.79 0,0 -32.03,6.74 -3.91,0.82 3.47,1.98 11.8,6.75 0.75,-1.32 -1.5,0.19 1.68,13.48 0.5,3.97 2.26,-3.29 18.55,-26.98 2.15,-3.13 -3.72,0.79 m 0.63,2.97 -0.31,-1.49 -1.26,-0.86 -18.54,26.97 1.25,0.87 1.51,-0.19 -1.69,-13.49 -0.09,-0.75 -0.66,-0.38 -11.8,-6.74 -0.75,1.32 0.31,1.48 32.03,-6.74 z"
         id="path3510"
         inkscape:connector-curvature="0" />
    </clipPath>
    <clipPath
       clipPathUnits="userSpaceOnUse"
       id="clipPath3498">
      <path
         d="m 4540.7,2300.27 -32.03,6.75 11.79,6.74 1.69,13.49 18.55,-26.98 z"
         id="path3500"
         inkscape:connector-curvature="0" />
    </clipPath>
    <clipPath
       clipPathUnits="userSpaceOnUse"
       id="clipPath3488">
      <path
         d="m 4383.87,2408.48 0,0 291.74,-194.5 2.53,-1.68 -3.37,-5.06 -2.53,1.69 -291.74,194.49 -2.53,1.69 3.37,5.05 2.53,-1.68 z"
         id="path3490"
         inkscape:connector-curvature="0" />
    </clipPath>
    <clipPath
       clipPathUnits="userSpaceOnUse"
       id="clipPath3478">
      <path
         d="m 4248.64,2493.28 0,0 -32.03,6.74 -3.91,0.83 3.47,1.98 11.8,6.74 0.76,-1.32 -1.51,0.19 1.69,13.49 0.49,3.96 2.26,-3.29 18.55,-26.97 2.15,-3.13 -3.72,0.78 m 0.63,2.97 -0.32,-1.48 -1.25,-0.86 -18.54,26.97 1.25,0.86 1.51,-0.19 -1.69,-13.49 -0.09,-0.75 -0.66,-0.38 -11.8,-6.74 -0.75,1.32 0.31,1.49 32.03,-6.75 z"
         id="path3480"
         inkscape:connector-curvature="0" />
    </clipPath>
    <clipPath
       clipPathUnits="userSpaceOnUse"
       id="clipPath3468">
      <path
         d="m 4248.95,2494.77 -32.02,6.74 11.8,6.74 1.68,13.49 18.54,-26.97 z"
         id="path3470"
         inkscape:connector-curvature="0" />
    </clipPath>
    <clipPath
       clipPathUnits="userSpaceOnUse"
       id="clipPath3458">
      <path
         d="m 4092.13,2602.97 0,0 291.74,-194.49 2.52,-1.69 -3.37,-5.06 -2.52,1.69 -291.74,194.49 -2.53,1.69 3.37,5.06 2.53,-1.69 z"
         id="path3460"
         inkscape:connector-curvature="0" />
    </clipPath>
  </defs>
  <sodipodi:namedview
     id="base"
     pagecolor="#ffffff"
     bordercolor="#666666"
     borderopacity="1.0"
     inkscape:pageopacity="0.0"
     inkscape:pageshadow="2"
     inkscape:zoom="3.959798"
     inkscape:cx="72.536178"
     inkscape:cy="46.062804"
     inkscape:document-units="px"
     inkscape:current-layer="layer1"
     showgrid="false"
     fit-margin-top="0.1"
     fit-margin-left="0.1"
     fit-margin-bottom="0.1"
     fit-margin-right="0.1"
     inkscape:window-width="1920"
     inkscape:window-height="1016"
     inkscape:window-x="0"
     inkscape:window-y="27"
     inkscape:window-maximized="1" />
  <metadata
     id="metadata14704">
    <rdf:RDF>
      <cc:Work
         rdf:about="">
        <dc:format>image/svg+xml</dc:format>
        <dc:type
           rdf:resource="http://purl.org/dc/dcmitype/StillImage" />
        <dc:title></dc:title>
      </cc:Work>
    </rdf:RDF>
  </metadata>
  <g
     inkscape:label="Layer 1"
     inkscape:groupmode="layer"
     id="layer1"
     transform="translate(161.93085,-155.73655)">
    <g
       id="g3454"
       transform="matrix(0.19936547,0,0,-0.19936547,-963.91863,692.40496)">
      <g
         clip-path="url(#clipPath3458)"
         id="g3456">
        <path
           inkscape:connector-curvature="0"
           id="path3462"
           style="fill:#000000;fill-opacity:1;fill-rule:nonzero;stroke:none"
           d="m 4092.13,2602.97 0,0 291.74,-194.49 2.52,-1.69 -3.37,-5.06 -2.52,1.69 -291.74,194.49 -2.53,1.69 3.37,5.06" />
      </g>
    </g>
    <g
       id="g3464"
       transform="matrix(0.19936547,0,0,-0.19936547,-963.91863,692.40496)">
      <g
         clip-path="url(#clipPath3468)"
         id="g3466">
        <path
           inkscape:connector-curvature="0"
           id="path3472"
           style="fill:#000000;fill-opacity:1;fill-rule:nonzero;stroke:none"
           d="m 4248.95,2494.77 -32.02,6.74 11.8,6.74 1.68,13.49" />
      </g>
    </g>
    <g
       id="g3474"
       transform="matrix(0.19936547,0,0,-0.19936547,-963.91863,692.40496)">
      <g
         clip-path="url(#clipPath3478)"
         id="g3476">
        <path
           inkscape:connector-curvature="0"
           id="path3482"
           style="fill:#000000;fill-opacity:1;fill-rule:nonzero;stroke:none"
           d="m 4248.64,2493.28 0,0 -32.03,6.74 -3.91,0.83 3.47,1.98 11.8,6.74 0.76,-1.32 -1.51,0.19 1.69,13.49 0.49,3.96 2.26,-3.29 18.55,-26.97 2.15,-3.13 -3.72,0.78 m 0.63,2.97 -0.32,-1.48 -1.25,-0.86 -18.54,26.97 1.25,0.86 1.51,-0.19 -1.69,-13.49 -0.09,-0.75 -0.66,-0.38 -11.8,-6.74 -0.75,1.32 0.31,1.49 32.03,-6.75" />
      </g>
    </g>
    <g
       id="g3484"
       transform="matrix(0.19936547,0,0,-0.19936547,-963.91863,692.40496)">
      <g
         clip-path="url(#clipPath3488)"
         id="g3486">
        <path
           inkscape:connector-curvature="0"
           id="path3492"
           style="fill:#000000;fill-opacity:1;fill-rule:nonzero;stroke:none"
           d="m 4383.87,2408.48 0,0 291.74,-194.5 2.53,-1.68 -3.37,-5.06 -2.53,1.69 -291.74,194.49 -2.53,1.69 3.37,5.05" />
      </g>
    </g>
    <g
       id="g3494"
       transform="matrix(0.19936547,0,0,-0.19936547,-963.91863,692.40496)">
      <g
         clip-path="url(#clipPath3498)"
         id="g3496">
        <path
           inkscape:connector-curvature="0"
           id="path3502"
           style="fill:#000000;fill-opacity:1;fill-rule:nonzero;stroke:none"
           d="m 4540.7,2300.27 -32.03,6.75 11.79,6.74 1.69,13.49" />
      </g>
    </g>
    <g
       id="g3504"
       transform="matrix(0.19936547,0,0,-0.19936547,-963.91863,692.40496)">
      <g
         clip-path="url(#clipPath3508)"
         id="g3506">
        <path
           inkscape:connector-curvature="0"
           id="path3512"
           style="fill:#000000;fill-opacity:1;fill-rule:nonzero;stroke:none"
           d="m 4540.38,2298.79 0,0 -32.03,6.74 -3.91,0.82 3.47,1.98 11.8,6.75 0.75,-1.32 -1.5,0.19 1.68,13.48 0.5,3.97 2.26,-3.29 18.55,-26.98 2.15,-3.13 -3.72,0.79 m 0.63,2.97 -0.31,-1.49 -1.26,-0.86 -18.54,26.97 1.25,0.87 1.51,-0.19 -1.69,-13.49 -0.09,-0.75 -0.66,-0.38 -11.8,-6.74 -0.75,1.32 0.31,1.48 32.03,-6.74" />
      </g>
    </g>
    <g
       id="g3514"
       transform="matrix(0.19936547,0,0,-0.19936547,-963.91863,692.40496)">
      <g
         clip-path="url(#clipPath3518)"
         id="g3516">
        <path
           inkscape:connector-curvature="0"
           id="path3522"
           style="fill:#000000;fill-opacity:1;fill-rule:nonzero;stroke:none"
           d="m 4380.5,2408.48 0,0 291.74,194.49 2.53,1.69 3.37,-5.06 -2.53,-1.69 -291.74,-194.49 -2.53,-1.69 -3.37,5.06" />
      </g>
    </g>
    <g
       id="g3524"
       transform="matrix(0.19936547,0,0,-0.19936547,-963.91863,692.40496)">
      <g
         clip-path="url(#clipPath3528)"
         id="g3526">
        <path
           inkscape:connector-curvature="0"
           id="path3532"
           style="fill:#000000;fill-opacity:1;fill-rule:nonzero;stroke:none"
           d="m 4540.7,2511.62 -18.55,-26.97 -1.69,13.49 -11.79,6.74" />
      </g>
    </g>
    <g
       id="g3534"
       transform="matrix(0.19936547,0,0,-0.19936547,-963.91863,692.40496)">
      <g
         clip-path="url(#clipPath3538)"
         id="g3536">
        <path
           inkscape:connector-curvature="0"
           id="path3542"
           style="fill:#000000;fill-opacity:1;fill-rule:nonzero;stroke:none"
           d="m 4541.95,2510.76 0,0 -18.55,-26.97 -2.26,-3.29 -0.5,3.96 -1.68,13.49 1.5,0.19 -0.75,-1.32 -11.8,6.74 -3.47,1.98 3.91,0.83 32.03,6.74 3.72,0.78 -2.15,-3.13 m -2.51,1.72 1.26,-0.86 0.31,-1.48 -32.03,-6.75 -0.31,1.49 0.75,1.32 11.8,-6.74 0.66,-0.38 0.09,-0.75 1.69,-13.49 -1.51,-0.19 -1.25,0.87 18.54,26.96" />
      </g>
    </g>
    <g
       id="g3544"
       transform="matrix(0.19936547,0,0,-0.19936547,-963.91863,692.40496)">
      <g
         clip-path="url(#clipPath3548)"
         id="g3546">
        <path
           inkscape:connector-curvature="0"
           id="path3552"
           style="fill:#000000;fill-opacity:1;fill-rule:nonzero;stroke:none"
           d="m 4088.76,2213.98 0,0 291.74,194.5 2.52,1.68 3.37,-5.05 -2.52,-1.69 -291.74,-194.49 -2.53,-1.69 -3.37,5.06" />
      </g>
    </g>
    <g
       id="g3554"
       transform="matrix(0.19936547,0,0,-0.19936547,-963.91863,692.40496)">
      <g
         clip-path="url(#clipPath3558)"
         id="g3556">
        <path
           inkscape:connector-curvature="0"
           id="path3562"
           style="fill:#000000;fill-opacity:1;fill-rule:nonzero;stroke:none"
           d="m 4248.95,2317.13 -18.54,-26.97 -1.68,13.48 -11.8,6.75" />
      </g>
    </g>
    <g
       id="g3564"
       transform="matrix(0.19936547,0,0,-0.19936547,-963.91863,692.40496)">
      <g
         clip-path="url(#clipPath3568)"
         id="g3566">
        <path
           inkscape:connector-curvature="0"
           id="path3572"
           style="fill:#000000;fill-opacity:1;fill-rule:nonzero;stroke:none"
           d="m 4250.21,2316.27 0,0 -18.55,-26.97 -2.26,-3.3 -0.49,3.97 -1.69,13.49 1.51,0.18 -0.76,-1.32 -11.8,6.75 -3.47,1.98 3.91,0.83 32.03,6.74 3.72,0.78 -2.15,-3.13 m -2.51,1.72 1.25,-0.86 0.32,-1.49 -32.03,-6.74 -0.31,1.49 0.75,1.32 11.8,-6.75 0.66,-0.37 0.09,-0.76 1.69,-13.48 -1.51,-0.19 -1.25,0.86 18.54,26.97" />
      </g>
    </g>
    <g
       id="g3574"
       transform="matrix(0.19936547,0,0,-0.19936547,-963.91863,692.40496)">
      <g
         clip-path="url(#clipPath3578)"
         id="g3576">
        <path
           inkscape:connector-curvature="0"
           id="path3582"
           style="fill:#000000;fill-opacity:1;fill-rule:nonzero;stroke:none"
           d="m 4391.79,2405.95 c 0,-5.31 -4.3,-9.61 -9.61,-9.61 -5.3,0 -9.61,4.3 -9.61,9.61 0,5.3 4.31,9.61 9.61,9.61 5.31,0 9.61,-4.31 9.61,-9.61" />
      </g>
    </g>
    <g
       id="g3584"
       transform="matrix(0.19936547,0,0,-0.19936547,-963.91863,692.40496)">
      <g
         clip-path="url(#clipPath3588)"
         id="g3586">
        <path
           inkscape:connector-curvature="0"
           id="path3592"
           style="fill:#000000;fill-opacity:1;fill-rule:nonzero;stroke:none"
           d="m 4393.31,2405.95 0,0 c 0,-6.15 -4.98,-11.13 -11.13,-11.13 l 0,1.52 0,-1.52 c -6.14,0 -11.13,4.98 -11.13,11.13 l 1.52,0 -1.52,0 c 0,6.15 4.99,11.13 11.13,11.13 l 0,-1.52 0,1.52 c 6.15,0 11.13,-4.98 11.13,-11.13 l -1.52,0 1.52,0 m -3.04,0 0,0 c 0,4.46 -3.62,8.09 -8.09,8.09 l 0,0 c -4.47,0 -8.09,-3.63 -8.09,-8.09 l 0,0 c 0,-4.47 3.62,-8.09 8.09,-8.09 l 0,0 c 4.47,0 8.09,3.62 8.09,8.09" />
      </g>
    </g>
    <text
       xml:space="preserve"
       style="font-style:normal;font-weight:normal;font-size:15px;line-height:125%;font-family:sans-serif;letter-spacing:5px;word-spacing:0px;fill:#000000;fill-opacity:1;stroke:none;stroke-width:1px;stroke-linecap:butt;stroke-linejoin:miter;stroke-opacity:1"
       x="-27.445185"
       y="176.32153"
       id="text6640-9-5-06-9-6-3"
       sodipodi:linespacing="125%"><tspan
         sodipodi:role="line"
         id="tspan6642-4-35-1-1-1-7"
         x="-27.445185"
         y="176.32153"
         style="font-style:normal;font-variant:normal;font-weight:500;font-stretch:normal;font-size:15px;font-family:'URW Palladio L';-inkscape-font-specification:'URW Palladio L Medium'">q</tspan></text>
    <text
       xml:space="preserve"
       style="font-style:normal;font-weight:normal;font-size:15px;line-height:125%;font-family:sans-serif;letter-spacing:5px;word-spacing:0px;fill:#000000;fill-opacity:1;stroke:none;stroke-width:1px;stroke-linecap:butt;stroke-linejoin:miter;stroke-opacity:1"
       x="-27.206842"
       y="256.21368"
       id="text6640-9-5-0-5-77-1-6"
       sodipodi:linespacing="125%"><tspan
         sodipodi:role="line"
         id="tspan6642-4-35-6-5-1-5-1"
         x="-27.206842"
         y="256.21368"
         style="font-style:normal;font-variant:normal;font-weight:500;font-stretch:normal;font-size:15px;font-family:'URW Palladio L';-inkscape-font-specification:'URW Palladio L Medium'">t</tspan></text>
    <text
       xml:space="preserve"
       style="font-style:normal;font-weight:normal;font-size:15.57585144px;line-height:125%;font-family:sans-serif;letter-spacing:4.450243px;word-spacing:0px;fill:#000000;fill-opacity:1;stroke:none;stroke-width:1px;stroke-linecap:butt;stroke-linejoin:miter;stroke-opacity:1"
       x="52.397385"
       y="155.3596"
       id="text5535-15-9-5"
       sodipodi:linespacing="125%"
       transform="matrix(0.82345048,0.33781035,-0.42642775,1.0394654,0,0)"><tspan
         sodipodi:role="line"
         id="tspan5537-9-8-0"
         x="52.397385"
         y="155.3596"
         style="font-style:normal;font-variant:normal;font-weight:500;font-stretch:normal;font-size:17.80097198px;font-family:'URW Palladio L';-inkscape-font-specification:'URW Palladio L Medium'">'</tspan></text>
    <text
       xml:space="preserve"
       style="font-style:normal;font-weight:normal;font-size:15px;line-height:125%;font-family:sans-serif;letter-spacing:5px;word-spacing:0px;fill:#000000;fill-opacity:1;stroke:none;stroke-width:1px;stroke-linecap:butt;stroke-linejoin:miter;stroke-opacity:1"
       x="-161.58986"
       y="175.85095"
       id="text6640-9-5-1-8"
       sodipodi:linespacing="125%"><tspan
         sodipodi:role="line"
         id="tspan6642-4-35-10-5"
         x="-161.58986"
         y="175.85095"
         style="font-style:normal;font-variant:normal;font-weight:500;font-stretch:normal;font-size:15px;font-family:'URW Palladio L';-inkscape-font-specification:'URW Palladio L Medium'">q</tspan></text>
    <text
       xml:space="preserve"
       style="font-style:normal;font-weight:normal;font-size:15px;line-height:125%;font-family:sans-serif;letter-spacing:5px;word-spacing:0px;fill:#000000;fill-opacity:1;stroke:none;stroke-width:1px;stroke-linecap:butt;stroke-linejoin:miter;stroke-opacity:1"
       x="-161.35152"
       y="255.74309"
       id="text6640-9-5-0-3-9"
       sodipodi:linespacing="125%"><tspan
         sodipodi:role="line"
         id="tspan6642-4-35-6-4-2"
         x="-161.35152"
         y="255.74309"
         style="font-style:normal;font-variant:normal;font-weight:500;font-stretch:normal;font-size:15px;font-family:'URW Palladio L';-inkscape-font-specification:'URW Palladio L Medium'">b</tspan></text>
  </g>
</svg>
