<?xml version="1.0" encoding="UTF-8" standalone="no"?>
<!-- Created with Inkscape (http://www.inkscape.org/) -->

<svg
   xmlns:dc="http://purl.org/dc/elements/1.1/"
   xmlns:cc="http://creativecommons.org/ns#"
   xmlns:rdf="http://www.w3.org/1999/02/22-rdf-syntax-ns#"
   xmlns:svg="http://www.w3.org/2000/svg"
   xmlns="http://www.w3.org/2000/svg"
   xmlns:sodipodi="http://sodipodi.sourceforge.net/DTD/sodipodi-0.dtd"
   xmlns:inkscape="http://www.inkscape.org/namespaces/inkscape"
   width="50mm"
   height="26mm"
   viewBox="0 0 177.16535 92.125984"
   id="svg5402"
   version="1.1"
   inkscape:version="0.91 r13725"
   sodipodi:docname="top_spins_left_allowed.svg">
  <defs
     id="defs5404">
    <clipPath
       clipPathUnits="userSpaceOnUse"
       id="clipPath638-2-4-0-4-6-5-4-0">
      <path
         d="m 695.137,3213.8 0,0 -48.551,-19.41 -5.926,-2.38 2.856,5.72 9.707,19.41 2.172,-1.08 -2.172,-1.09 -9.707,19.42 -2.856,5.72 5.926,-2.38 48.551,-19.42 5.629,-2.25 -5.629,-2.26 m -1.809,4.51 0.902,-2.25 -0.902,-2.26 -48.547,19.43 0.903,2.25 2.171,1.09 9.708,-19.43 0.546,-1.08 -0.546,-1.09 -9.708,-19.42 -2.171,1.09 -0.903,2.25 48.547,19.42 z"
         id="path640-9-9-93-3-62-0-4-8"
         inkscape:connector-curvature="0" />
    </clipPath>
    <clipPath
       clipPathUnits="userSpaceOnUse"
       id="clipPath628-3-9-6-7-9-9-3-3">
      <path
         d="m 694.23,3216.06 -48.546,-19.42 9.711,19.42 -9.711,19.42 48.546,-19.42 z"
         id="path630-1-9-0-90-7-6-97-8"
         inkscape:connector-curvature="0" />
    </clipPath>
    <clipPath
       clipPathUnits="userSpaceOnUse"
       id="clipPath618-1-4-62-0-0-3-2-7">
      <path
         d="m 475.77,3220.91 0,0 388.378,0 4.856,0 0,-9.71 -4.856,0 -388.378,0 -4.856,0 0,9.71 4.856,0 z"
         id="path620-2-9-6-2-37-8-5-3"
         inkscape:connector-curvature="0" />
    </clipPath>
    <clipPath
       clipPathUnits="userSpaceOnUse"
       id="clipPath638-2-4-0-4-6-5-1">
      <path
         d="m 695.137,3213.8 0,0 -48.551,-19.41 -5.926,-2.38 2.856,5.72 9.707,19.41 2.172,-1.08 -2.172,-1.09 -9.707,19.42 -2.856,5.72 5.926,-2.38 48.551,-19.42 5.629,-2.25 -5.629,-2.26 m -1.809,4.51 0.902,-2.25 -0.902,-2.26 -48.547,19.43 0.903,2.25 2.171,1.09 9.708,-19.43 0.546,-1.08 -0.546,-1.09 -9.708,-19.42 -2.171,1.09 -0.903,2.25 48.547,19.42 z"
         id="path640-9-9-93-3-62-0-0"
         inkscape:connector-curvature="0" />
    </clipPath>
    <clipPath
       clipPathUnits="userSpaceOnUse"
       id="clipPath628-3-9-6-7-9-9-05">
      <path
         d="m 694.23,3216.06 -48.546,-19.42 9.711,19.42 -9.711,19.42 48.546,-19.42 z"
         id="path630-1-9-0-90-7-6-0"
         inkscape:connector-curvature="0" />
    </clipPath>
    <clipPath
       clipPathUnits="userSpaceOnUse"
       id="clipPath618-1-4-62-0-0-3-3">
      <path
         d="m 475.77,3220.91 0,0 388.378,0 4.856,0 0,-9.71 -4.856,0 -388.378,0 -4.856,0 0,9.71 4.856,0 z"
         id="path620-2-9-6-2-37-8-1"
         inkscape:connector-curvature="0" />
    </clipPath>
    <clipPath
       clipPathUnits="userSpaceOnUse"
       id="clipPath638-2-4-0-4-6-8">
      <path
         d="m 695.137,3213.8 0,0 -48.551,-19.41 -5.926,-2.38 2.856,5.72 9.707,19.41 2.172,-1.08 -2.172,-1.09 -9.707,19.42 -2.856,5.72 5.926,-2.38 48.551,-19.42 5.629,-2.25 -5.629,-2.26 m -1.809,4.51 0.902,-2.25 -0.902,-2.26 -48.547,19.43 0.903,2.25 2.171,1.09 9.708,-19.43 0.546,-1.08 -0.546,-1.09 -9.708,-19.42 -2.171,1.09 -0.903,2.25 48.547,19.42 z"
         id="path640-9-9-93-3-62-01"
         inkscape:connector-curvature="0" />
    </clipPath>
    <clipPath
       clipPathUnits="userSpaceOnUse"
       id="clipPath628-3-9-6-7-9-7">
      <path
         d="m 694.23,3216.06 -48.546,-19.42 9.711,19.42 -9.711,19.42 48.546,-19.42 z"
         id="path630-1-9-0-90-7-9"
         inkscape:connector-curvature="0" />
    </clipPath>
    <clipPath
       clipPathUnits="userSpaceOnUse"
       id="clipPath618-1-4-62-0-0-1">
      <path
         d="m 475.77,3220.91 0,0 388.378,0 4.856,0 0,-9.71 -4.856,0 -388.378,0 -4.856,0 0,9.71 4.856,0 z"
         id="path620-2-9-6-2-37-0"
         inkscape:connector-curvature="0" />
    </clipPath>
  </defs>
  <sodipodi:namedview
     id="base"
     pagecolor="#ffffff"
     bordercolor="#666666"
     borderopacity="1.0"
     inkscape:pageopacity="0.0"
     inkscape:pageshadow="2"
     inkscape:zoom="5.6"
     inkscape:cx="35.881383"
     inkscape:cy="32.20218"
     inkscape:document-units="px"
     inkscape:current-layer="layer1"
     showgrid="false"
     fit-margin-top="0.1"
     fit-margin-left="0.1"
     fit-margin-bottom="0.1"
     fit-margin-right="0.1"
     inkscape:window-width="1920"
     inkscape:window-height="1016"
     inkscape:window-x="0"
     inkscape:window-y="27"
     inkscape:window-maximized="1" />
  <metadata
     id="metadata5407">
    <rdf:RDF>
      <cc:Work
         rdf:about="">
        <dc:format>image/svg+xml</dc:format>
        <dc:type
           rdf:resource="http://purl.org/dc/dcmitype/StillImage" />
        <dc:title></dc:title>
      </cc:Work>
    </rdf:RDF>
  </metadata>
  <g
     inkscape:label="Layer 1"
     inkscape:groupmode="layer"
     id="layer1"
     transform="translate(481.16075,-477.20079)">
    <path
       style="opacity:1;fill:none;fill-opacity:1;stroke:#000000;stroke-width:1;stroke-linecap:round;stroke-linejoin:round;stroke-miterlimit:4;stroke-dasharray:none;stroke-dashoffset:0;stroke-opacity:1"
       d="m -471.94669,481.49871 -9.8e-4,-2.97777 -8.29474,5.95556 8.29474,5.95558 9.8e-4,-2.97778 8.3655,0 0,-2.9778 0,-2.97779 z"
       id="rect8768-9-9"
       inkscape:connector-curvature="0"
       sodipodi:nodetypes="ccccccccc" />
    <path
       style="opacity:1;fill:none;fill-opacity:1;stroke:#000000;stroke-width:1;stroke-linecap:round;stroke-linejoin:round;stroke-miterlimit:4;stroke-dasharray:none;stroke-dashoffset:0;stroke-opacity:1"
       d="m -402.09914,481.37255 -9.8e-4,-2.97778 -8.29473,5.95557 8.29473,5.95557 9.8e-4,-2.97777 18.7622,0 0,-2.9778 0,-2.97779 z"
       id="rect8768-9-9-5"
       inkscape:connector-curvature="0"
       sodipodi:nodetypes="ccccccccc" />
    <circle
       style="opacity:1;fill:none;fill-opacity:1;stroke:#000000;stroke-width:1.25;stroke-linecap:round;stroke-linejoin:round;stroke-miterlimit:4;stroke-dasharray:none;stroke-dashoffset:0;stroke-opacity:1"
       id="path13097-2-1-3"
       cx="-469.46237"
       cy="510.34912"
       r="10.719047" />
    <text
       xml:space="preserve"
       style="font-style:normal;font-weight:normal;font-size:15px;line-height:125%;font-family:sans-serif;letter-spacing:5px;word-spacing:0px;fill:#000000;fill-opacity:1;stroke:none;stroke-width:1px;stroke-linecap:butt;stroke-linejoin:miter;stroke-opacity:1"
       x="-472.05215"
       y="514.93848"
       id="text6640-9-5-0-5-72-3-1-4-5"
       sodipodi:linespacing="125%"><tspan
         sodipodi:role="line"
         id="tspan6642-4-35-6-5-2-3-9-5-9"
         x="-472.05215"
         y="514.93848"
         style="font-style:normal;font-variant:normal;font-weight:500;font-stretch:normal;font-size:15px;font-family:'URW Palladio L';-inkscape-font-specification:'URW Palladio L Medium'">t</tspan></text>
    <text
       xml:space="preserve"
       style="font-style:normal;font-weight:normal;font-size:15px;line-height:125%;font-family:sans-serif;letter-spacing:5px;word-spacing:0px;fill:#000000;fill-opacity:1;stroke:none;stroke-width:1px;stroke-linecap:butt;stroke-linejoin:miter;stroke-opacity:1"
       x="-401.81744"
       y="514.09033"
       id="text6640-9-5-0-96-21-6-8-7-4"
       sodipodi:linespacing="125%"><tspan
         sodipodi:role="line"
         id="tspan6642-4-35-6-6-7-6-4-8-8"
         x="-401.81744"
         y="514.09033"
         style="font-style:normal;font-variant:normal;font-weight:500;font-stretch:normal;font-size:15px;font-family:'URW Palladio L';-inkscape-font-specification:'URW Palladio L Medium'">W</tspan></text>
    <g
       id="g614-9-8-1-2-9-4"
       transform="matrix(-0.12499999,0,0,-0.12499999,-346.56007,912.42645)">
      <g
         clip-path="url(#clipPath618-1-4-62-0-0-1)"
         id="g616-4-1-8-6-9-69">
        <path
           inkscape:connector-curvature="0"
           id="path622-7-6-79-9-3-2"
           style="fill:#000000;fill-opacity:1;fill-rule:nonzero;stroke:none"
           d="m 475.77,3220.91 393.234,0 0,-9.71 -398.09,0 0,9.71" />
      </g>
    </g>
    <g
       id="g624-8-3-2-0-9-9"
       transform="matrix(0.12499999,0,0,-0.12499999,-490.98555,912.42645)">
      <g
         clip-path="url(#clipPath628-3-9-6-7-9-7)"
         id="g626-4-9-0-3-4-0">
        <path
           inkscape:connector-curvature="0"
           id="path632-5-3-2-5-6-3"
           style="fill:#000000;fill-opacity:1;fill-rule:nonzero;stroke:none"
           d="m 694.23,3216.06 -48.546,-19.42 9.711,19.42 -9.711,19.42" />
      </g>
    </g>
    <g
       id="g634-0-3-3-5-4-0"
       transform="matrix(0.12499999,0,0,-0.12499999,-490.98555,912.42645)">
      <g
         clip-path="url(#clipPath638-2-4-0-4-6-8)"
         id="g636-3-4-7-8-5-3">
        <path
           inkscape:connector-curvature="0"
           id="path642-6-6-59-7-5-3"
           style="fill:#000000;fill-opacity:1;fill-rule:nonzero;stroke:none"
           d="m 695.137,3213.8 0,0 -48.551,-19.41 -5.926,-2.38 2.856,5.72 9.707,19.41 2.172,-1.08 -2.172,-1.09 -9.707,19.42 -2.856,5.72 5.926,-2.38 48.551,-19.42 5.629,-2.25 -5.629,-2.26 m -1.809,4.51 0.902,-2.25 -0.902,-2.26 -48.547,19.43 0.903,2.25 2.171,1.09 9.708,-19.43 0.546,-1.08 -0.546,-1.09 -9.708,-19.42 -2.171,1.09 -0.903,2.25 48.547,19.42" />
      </g>
    </g>
    <g
       id="g614-9-8-1-2-9-5-4"
       transform="matrix(-0.0709991,0,0,-0.12499999,-329.26615,943.61308)"
       style="fill:#000000;fill-opacity:1">
      <g
         clip-path="url(#clipPath618-1-4-62-0-0-3-3)"
         id="g616-4-1-8-6-9-6-99"
         style="fill:#000000;fill-opacity:1">
        <path
           inkscape:connector-curvature="0"
           id="path622-7-6-79-9-3-1-1"
           style="fill:#000000;fill-opacity:1;fill-rule:nonzero;stroke:none"
           d="m 475.77,3220.91 393.234,0 0,-9.71 -398.09,0 0,9.71" />
      </g>
    </g>
    <g
       id="g624-8-3-2-0-9-1-9"
       transform="matrix(0.12499999,0,0,-0.12499999,-448.26184,943.61308)">
      <g
         clip-path="url(#clipPath628-3-9-6-7-9-9-05)"
         id="g626-4-9-0-3-4-5-42">
        <path
           inkscape:connector-curvature="0"
           id="path632-5-3-2-5-6-9-0"
           style="fill:#000000;fill-opacity:1;fill-rule:nonzero;stroke:none"
           d="m 694.23,3216.06 -48.546,-19.42 9.711,19.42 -9.711,19.42" />
      </g>
    </g>
    <g
       id="g634-0-3-3-5-4-8-65"
       transform="matrix(0.12499999,0,0,-0.12499999,-448.26184,943.61308)">
      <g
         clip-path="url(#clipPath638-2-4-0-4-6-5-1)"
         id="g636-3-4-7-8-5-4-9">
        <path
           inkscape:connector-curvature="0"
           id="path642-6-6-59-7-5-8-5"
           style="fill:#000000;fill-opacity:1;fill-rule:nonzero;stroke:none"
           d="m 695.137,3213.8 0,0 -48.551,-19.41 -5.926,-2.38 2.856,5.72 9.707,19.41 2.172,-1.08 -2.172,-1.09 -9.707,19.42 -2.856,5.72 5.926,-2.38 48.551,-19.42 5.629,-2.25 -5.629,-2.26 m -1.809,4.51 0.902,-2.25 -0.902,-2.26 -48.547,19.43 0.903,2.25 2.171,1.09 9.708,-19.43 0.546,-1.08 -0.546,-1.09 -9.708,-19.42 -2.171,1.09 -0.903,2.25 48.547,19.42" />
      </g>
    </g>
    <path
       style="fill:none;fill-rule:evenodd;stroke:#000000;stroke-width:1.00000012;stroke-linecap:butt;stroke-linejoin:miter;stroke-miterlimit:4;stroke-dasharray:2.00000018, 2.00000018;stroke-dashoffset:0;stroke-opacity:1"
       d="m -393.8822,516.39758 0,26.00206"
       id="path4294-6"
       inkscape:connector-curvature="0" />
    <g
       id="g614-9-8-1-2-9-5-8-1"
       transform="matrix(0.0709991,0,0,-0.12499999,-458.49822,943.67133)"
       style="fill:#000000;fill-opacity:1">
      <g
         clip-path="url(#clipPath618-1-4-62-0-0-3-2-7)"
         id="g616-4-1-8-6-9-6-9-1"
         style="fill:#000000;fill-opacity:1">
        <path
           inkscape:connector-curvature="0"
           id="path622-7-6-79-9-3-1-0-4"
           style="fill:#000000;fill-opacity:1;fill-rule:nonzero;stroke:none"
           d="m 475.77,3220.91 393.234,0 0,-9.71 -398.09,0 0,9.71" />
      </g>
    </g>
    <g
       id="g624-8-3-2-0-9-1-2-3"
       transform="matrix(-0.12499999,0,0,-0.12499999,-339.50251,943.67133)">
      <g
         clip-path="url(#clipPath628-3-9-6-7-9-9-3-3)"
         id="g626-4-9-0-3-4-5-4-7">
        <path
           inkscape:connector-curvature="0"
           id="path632-5-3-2-5-6-9-7-2"
           style="fill:#000000;fill-opacity:1;fill-rule:nonzero;stroke:none"
           d="m 694.23,3216.06 -48.546,-19.42 9.711,19.42 -9.711,19.42" />
      </g>
    </g>
    <g
       id="g634-0-3-3-5-4-8-6-7"
       transform="matrix(-0.12499999,0,0,-0.12499999,-339.50251,943.67133)">
      <g
         clip-path="url(#clipPath638-2-4-0-4-6-5-4-0)"
         id="g636-3-4-7-8-5-4-5-3">
        <path
           inkscape:connector-curvature="0"
           id="path642-6-6-59-7-5-8-7-3"
           style="fill:#000000;fill-opacity:1;fill-rule:nonzero;stroke:none"
           d="m 695.137,3213.8 0,0 -48.551,-19.41 -5.926,-2.38 2.856,5.72 9.707,19.41 2.172,-1.08 -2.172,-1.09 -9.707,19.42 -2.856,5.72 5.926,-2.38 48.551,-19.42 5.629,-2.25 -5.629,-2.26 m -1.809,4.51 0.902,-2.25 -0.902,-2.26 -48.547,19.43 0.903,2.25 2.171,1.09 9.708,-19.43 0.546,-1.08 -0.546,-1.09 -9.708,-19.42 -2.171,1.09 -0.903,2.25 48.547,19.42" />
      </g>
    </g>
    <g
       transform="matrix(0.44283476,0,0,0.44283476,-548.3334,486.80773)"
       id="g7298-6-9">
      <g
         style="font-style:normal;font-variant:normal;font-weight:normal;font-stretch:normal;letter-spacing:normal;word-spacing:normal;text-anchor:start;fill:none;fill-opacity:1;fill-rule:evenodd;stroke:#000000;stroke-linecap:butt;stroke-linejoin:miter;stroke-miterlimit:10.43299961;stroke-dasharray:none;stroke-dashoffset:0;stroke-opacity:1"
         id="content-5-2"
         transform="matrix(0.83571429,0,0,-0.83571429,-146.25,477.1875)"
         xml:space="preserve"
         stroke-miterlimit="10.433"
         font-style="normal"
         font-variant="normal"
         font-weight="normal"
         font-stretch="normal"
         font-size-adjust="none"
         letter-spacing="normal"
         word-spacing="normal"><path
           style="fill:#000000;stroke-width:0"
           inkscape:connector-curvature="0"
           d="m 456.8,410.93 -0.02,-0.03 -0.02,-0.03 -0.02,-0.02 -0.02,-0.03 -0.02,-0.03 -0.03,-0.03 -0.02,-0.03 -0.01,-0.03 -0.02,-0.03 -0.01,-0.02 -0.01,-0.01 -0.01,-0.02 0,-0.01 -0.01,-0.02 -0.01,-0.02 0,-0.01 -0.01,-0.02 0,-0.02 -0.01,-0.01 0,-0.02 0,-0.02 0,-0.02 0,-0.02 c 0,-0.25 0.3,-0.64 0.59,-0.64 0.25,0 0.4,0.14 1.8,1.54 0.4,0.35 1.39,1.29 1.79,1.69 0.5,-3.93 1.95,-7.62 5.58,-7.62 1.99,0 3.74,1.15 4.78,1.9 0.7,0.49 3.04,2.43 3.04,2.93 0,0.15 -0.15,0.6 -0.59,0.6 -0.15,0 -0.2,-0.05 -0.65,-0.45 -3.19,-3.13 -5.03,-3.88 -6.48,-3.88 -2.24,0 -3.04,2.59 -3.04,6.47 0,0.3 0.1,2.59 0.25,2.84 0.1,0.15 0.1,0.25 1.1,1.25 4.03,4.03 11.1,12.45 11.1,20.17 0,0.85 0,3.89 -2.93,3.89 l 0.05,-1.1 c 1.69,0 1.69,-1.79 1.69,-2.59 0,-8.32 -8.37,-17.04 -10.76,-19.52 l 0,0 c 0.1,0.54 2.24,11.6 5.08,17.43 1.35,2.69 2.39,4.68 3.99,4.68 l -0.05,1.1 c -4.14,0 -7.82,-8.22 -8.32,-9.37 -2.39,-5.43 -3.94,-11.25 -3.94,-17.18 z"
           id="path7301-2-4" /></g>    </g>
    <text
       xml:space="preserve"
       style="font-style:normal;font-weight:normal;font-size:12.96949863px;line-height:125%;font-family:sans-serif;letter-spacing:0.36026382px;word-spacing:0px;fill:#000000;fill-opacity:1;stroke:none;stroke-width:1px;stroke-linecap:butt;stroke-linejoin:miter;stroke-opacity:1"
       x="-436.11456"
       y="539.29211"
       id="text11751-4-4"
       sodipodi:linespacing="125%"><tspan
         sodipodi:role="line"
         id="tspan11753-0-4"
         x="-436.11456"
         y="539.29211"
         style="font-style:normal;font-variant:normal;font-weight:500;font-stretch:normal;font-family:'URW Palladio L';-inkscape-font-specification:'URW Palladio L Medium'">+</tspan></text>
    <g
       id="g10263-0-9"
       transform="matrix(0.41580651,0,0,0.41580651,-453.43167,490.28176)">
      <g
         word-spacing="normal"
         letter-spacing="normal"
         font-size-adjust="none"
         font-stretch="normal"
         font-weight="normal"
         font-variant="normal"
         font-style="normal"
         stroke-miterlimit="10.433"
         xml:space="preserve"
         transform="matrix(0.83571429,0,0,-0.83571429,-146.25,477.1875)"
         id="g10265-6-9"
         style="font-style:normal;font-variant:normal;font-weight:normal;font-stretch:normal;letter-spacing:normal;word-spacing:normal;text-anchor:start;fill:none;fill-opacity:1;fill-rule:evenodd;stroke:#000000;stroke-linecap:butt;stroke-linejoin:miter;stroke-miterlimit:10.43299961;stroke-dasharray:none;stroke-dashoffset:0;stroke-opacity:1"><path
           id="path10267-8-3"
           d="m 467.16,427.47 0,0 0,0.01 0,0 0,0.01 -0.01,0.02 0,0.01 0,0.02 0,0.02 0,0.02 -0.01,0.02 0,0.02 -0.01,0.02 -0.01,0.02 -0.01,0.03 -0.01,0.02 -0.01,0.03 -0.01,0.02 -0.02,0.03 -0.02,0.02 -0.02,0.02 -0.02,0.03 -0.01,0.01 -0.02,0.01 -0.01,0.01 -0.01,0.01 -0.02,0.01 -0.01,0.01 -0.02,0.01 -0.02,0.01 -0.01,0.01 -0.02,0 -0.02,0.01 -0.02,0.01 -0.02,0.01 -0.02,0 -0.02,0.01 -0.03,0 -0.02,0.01 -0.02,0 -0.03,0.01 -0.02,0 -0.03,0 -0.03,0 -0.03,0.01 -0.03,0 c -1.15,0 -4.78,-0.4 -6.08,-0.5 -0.39,-0.05 -0.94,-0.1 -0.94,-1 0,-0.59 0.44,-0.59 1.19,-0.59 2.39,0 2.49,-0.35 2.49,-0.85 0,-0.35 -0.6,-2.69 -0.94,-4.04 l -3.04,-12.2 c -0.2,-0.75 -0.55,-2.14 -0.55,-2.24 0,-0.55 0.5,-0.6 0.8,-0.6 l 0.69,0 c 3.49,0.6 8.92,2.54 14.05,7.32 6.58,6.13 7.92,12.9 7.92,13.35 0,0.85 -0.6,1.35 -1.44,1.35 -0.4,0 -1.55,-0.2 -1.95,-1.64 -3.18,-11.31 -10.75,-16.89 -16.43,-18.74 z"
           inkscape:connector-curvature="0"
           style="fill:#000000;stroke-width:0" /></g>    </g>
    <path
       style="opacity:1;fill:none;fill-opacity:1;stroke:#000000;stroke-width:1;stroke-linecap:round;stroke-linejoin:round;stroke-miterlimit:4;stroke-dasharray:none;stroke-dashoffset:0;stroke-opacity:1"
       d="m -437.75502,558.82482 -9.8e-4,-2.97777 -8.29474,5.95556 8.29474,5.95559 9.8e-4,-2.97778 8.36551,0 0,-2.97781 0,-2.97779 z"
       id="rect8768-9-9-3"
       inkscape:connector-curvature="0"
       sodipodi:nodetypes="ccccccccc" />
    <path
       style="opacity:1;fill:none;fill-opacity:1;stroke:#000000;stroke-width:1;stroke-linecap:round;stroke-linejoin:round;stroke-miterlimit:4;stroke-dasharray:none;stroke-dashoffset:0;stroke-opacity:1"
       d="m -350.91624,558.82482 -9.8e-4,-2.97777 -8.29476,5.95556 8.29476,5.95559 9.8e-4,-2.97778 8.36551,0 0,-2.97781 0,-2.97779 z"
       id="rect8768-9-9-3-0"
       inkscape:connector-curvature="0"
       sodipodi:nodetypes="ccccccccc" />
  </g>
</svg>
