<?xml version="1.0" encoding="UTF-8" standalone="no"?>
<!-- Created with Inkscape (http://www.inkscape.org/) -->

<svg
   xmlns:dc="http://purl.org/dc/elements/1.1/"
   xmlns:cc="http://creativecommons.org/ns#"
   xmlns:rdf="http://www.w3.org/1999/02/22-rdf-syntax-ns#"
   xmlns:svg="http://www.w3.org/2000/svg"
   xmlns="http://www.w3.org/2000/svg"
   xmlns:sodipodi="http://sodipodi.sourceforge.net/DTD/sodipodi-0.dtd"
   xmlns:inkscape="http://www.inkscape.org/namespaces/inkscape"
   width="106.2144mm"
   height="48.258434mm"
   viewBox="0 0 106.2144 48.258434"
   version="1.1"
   id="svg8"
   inkscape:version="0.92.1 unknown"
   sodipodi:docname="seedingtree.svg">
  <defs
     id="defs2">
    <marker
       inkscape:isstock="true"
       style="overflow:visible"
       id="marker7427"
       refX="0"
       refY="0"
       orient="auto"
       inkscape:stockid="Arrow1Mend">
      <path
         transform="matrix(-0.4,0,0,-0.4,-4,0)"
         style="fill:#000000;fill-opacity:1;fill-rule:evenodd;stroke:#000000;stroke-width:1.00000003pt;stroke-opacity:1"
         d="M 0,0 5,-5 -12.5,0 5,5 Z"
         id="path7425"
         inkscape:connector-curvature="0" />
    </marker>
    <marker
       inkscape:isstock="true"
       style="overflow:visible"
       id="marker7369"
       refX="0"
       refY="0"
       orient="auto"
       inkscape:stockid="Arrow1Mend">
      <path
         transform="matrix(-0.4,0,0,-0.4,-4,0)"
         style="fill:#000000;fill-opacity:1;fill-rule:evenodd;stroke:#000000;stroke-width:1.00000003pt;stroke-opacity:1"
         d="M 0,0 5,-5 -12.5,0 5,5 Z"
         id="path7367"
         inkscape:connector-curvature="0" />
    </marker>
    <marker
       inkscape:isstock="true"
       style="overflow:visible"
       id="marker7317"
       refX="0"
       refY="0"
       orient="auto"
       inkscape:stockid="Arrow1Mend">
      <path
         transform="matrix(-0.4,0,0,-0.4,-4,0)"
         style="fill:#000000;fill-opacity:1;fill-rule:evenodd;stroke:#000000;stroke-width:1.00000003pt;stroke-opacity:1"
         d="M 0,0 5,-5 -12.5,0 5,5 Z"
         id="path7315"
         inkscape:connector-curvature="0" />
    </marker>
    <marker
       inkscape:isstock="true"
       style="overflow:visible"
       id="marker7271"
       refX="0"
       refY="0"
       orient="auto"
       inkscape:stockid="Arrow1Mend">
      <path
         transform="matrix(-0.4,0,0,-0.4,-4,0)"
         style="fill:#000000;fill-opacity:1;fill-rule:evenodd;stroke:#000000;stroke-width:1.00000003pt;stroke-opacity:1"
         d="M 0,0 5,-5 -12.5,0 5,5 Z"
         id="path7269"
         inkscape:connector-curvature="0" />
    </marker>
    <marker
       inkscape:isstock="true"
       style="overflow:visible"
       id="marker7231"
       refX="0"
       refY="0"
       orient="auto"
       inkscape:stockid="Arrow1Mend">
      <path
         transform="matrix(-0.4,0,0,-0.4,-4,0)"
         style="fill:#000000;fill-opacity:1;fill-rule:evenodd;stroke:#000000;stroke-width:1.00000003pt;stroke-opacity:1"
         d="M 0,0 5,-5 -12.5,0 5,5 Z"
         id="path7229"
         inkscape:connector-curvature="0" />
    </marker>
    <marker
       inkscape:isstock="true"
       style="overflow:visible"
       id="marker7197"
       refX="0"
       refY="0"
       orient="auto"
       inkscape:stockid="Arrow1Mend">
      <path
         transform="matrix(-0.4,0,0,-0.4,-4,0)"
         style="fill:#000000;fill-opacity:1;fill-rule:evenodd;stroke:#000000;stroke-width:1.00000003pt;stroke-opacity:1"
         d="M 0,0 5,-5 -12.5,0 5,5 Z"
         id="path7195"
         inkscape:connector-curvature="0" />
    </marker>
    <marker
       inkscape:isstock="true"
       style="overflow:visible"
       id="marker7169"
       refX="0"
       refY="0"
       orient="auto"
       inkscape:stockid="Arrow1Mend">
      <path
         transform="matrix(-0.4,0,0,-0.4,-4,0)"
         style="fill:#000000;fill-opacity:1;fill-rule:evenodd;stroke:#000000;stroke-width:1.00000003pt;stroke-opacity:1"
         d="M 0,0 5,-5 -12.5,0 5,5 Z"
         id="path7167"
         inkscape:connector-curvature="0" />
    </marker>
    <marker
       inkscape:stockid="Arrow1Mend"
       orient="auto"
       refY="0"
       refX="0"
       id="Arrow1Mend"
       style="overflow:visible"
       inkscape:isstock="true"
       inkscape:collect="always">
      <path
         id="path6305"
         d="M 0,0 5,-5 -12.5,0 5,5 Z"
         style="fill:#000000;fill-opacity:1;fill-rule:evenodd;stroke:#000000;stroke-width:1.00000003pt;stroke-opacity:1"
         transform="matrix(-0.4,0,0,-0.4,-4,0)"
         inkscape:connector-curvature="0" />
    </marker>
    <marker
       inkscape:stockid="Arrow1Lend"
       orient="auto"
       refY="0"
       refX="0"
       id="Arrow1Lend"
       style="overflow:visible"
       inkscape:isstock="true">
      <path
         id="path6299"
         d="M 0,0 5,-5 -12.5,0 5,5 Z"
         style="fill:#000000;fill-opacity:1;fill-rule:evenodd;stroke:#000000;stroke-width:1.00000003pt;stroke-opacity:1"
         transform="matrix(-0.8,0,0,-0.8,-10,0)"
         inkscape:connector-curvature="0" />
    </marker>
    <clipPath
       clipPathUnits="userSpaceOnUse"
       id="clipPath638-2-4-0-4-6-8-8-8-9-2-5-4-9-9-2-0-6-1">
      <path
         d="m 695.137,3213.8 v 0 l -48.551,-19.41 -5.926,-2.38 2.856,5.72 9.707,19.41 2.172,-1.08 -2.172,-1.09 -9.707,19.42 -2.856,5.72 5.926,-2.38 48.551,-19.42 5.629,-2.25 -5.629,-2.26 m -1.809,4.51 0.902,-2.25 -0.902,-2.26 -48.547,19.43 0.903,2.25 2.171,1.09 9.708,-19.43 0.546,-1.08 -0.546,-1.09 -9.708,-19.42 -2.171,1.09 -0.903,2.25 z"
         id="path640-9-9-93-3-62-01-7-21-90-8-0-2-7-4-4-5-18-6"
         inkscape:connector-curvature="0" />
    </clipPath>
    <clipPath
       clipPathUnits="userSpaceOnUse"
       id="clipPath628-3-9-6-7-9-7-8-1-8-9-9-2-0-0-6-0-42-0">
      <path
         d="m 694.23,3216.06 -48.546,-19.42 9.711,19.42 -9.711,19.42 z"
         id="path630-1-9-0-90-7-9-0-8-1-6-9-2-6-6-2-0-6-3"
         inkscape:connector-curvature="0" />
    </clipPath>
    <clipPath
       clipPathUnits="userSpaceOnUse"
       id="clipPath638-2-4-0-4-6-8-8-8-9-2-5-4-9-9-2-0-8">
      <path
         d="m 695.137,3213.8 v 0 l -48.551,-19.41 -5.926,-2.38 2.856,5.72 9.707,19.41 2.172,-1.08 -2.172,-1.09 -9.707,19.42 -2.856,5.72 5.926,-2.38 48.551,-19.42 5.629,-2.25 -5.629,-2.26 m -1.809,4.51 0.902,-2.25 -0.902,-2.26 -48.547,19.43 0.903,2.25 2.171,1.09 9.708,-19.43 0.546,-1.08 -0.546,-1.09 -9.708,-19.42 -2.171,1.09 -0.903,2.25 z"
         id="path640-9-9-93-3-62-01-7-21-90-8-0-2-7-4-4-5-2"
         inkscape:connector-curvature="0" />
    </clipPath>
    <clipPath
       clipPathUnits="userSpaceOnUse"
       id="clipPath628-3-9-6-7-9-7-8-1-8-9-9-2-0-0-6-0-1">
      <path
         d="m 694.23,3216.06 -48.546,-19.42 9.711,19.42 -9.711,19.42 z"
         id="path630-1-9-0-90-7-9-0-8-1-6-9-2-6-6-2-0-8"
         inkscape:connector-curvature="0" />
    </clipPath>
    <clipPath
       clipPathUnits="userSpaceOnUse"
       id="clipPath638-2-4-0-4-6-8-8-8-9-2-5-4-9-9-2-9-8">
      <path
         d="m 695.137,3213.8 v 0 l -48.551,-19.41 -5.926,-2.38 2.856,5.72 9.707,19.41 2.172,-1.08 -2.172,-1.09 -9.707,19.42 -2.856,5.72 5.926,-2.38 48.551,-19.42 5.629,-2.25 -5.629,-2.26 m -1.809,4.51 0.902,-2.25 -0.902,-2.26 -48.547,19.43 0.903,2.25 2.171,1.09 9.708,-19.43 0.546,-1.08 -0.546,-1.09 -9.708,-19.42 -2.171,1.09 -0.903,2.25 z"
         id="path640-9-9-93-3-62-01-7-21-90-8-0-2-7-4-4-2-9"
         inkscape:connector-curvature="0" />
    </clipPath>
    <clipPath
       clipPathUnits="userSpaceOnUse"
       id="clipPath628-3-9-6-7-9-7-8-1-8-9-9-2-0-0-6-02-8">
      <path
         d="m 694.23,3216.06 -48.546,-19.42 9.711,19.42 -9.711,19.42 z"
         id="path630-1-9-0-90-7-9-0-8-1-6-9-2-6-6-2-7-2"
         inkscape:connector-curvature="0" />
    </clipPath>
    <clipPath
       clipPathUnits="userSpaceOnUse"
       id="clipPath638-2-4-0-4-6-8-8-8-9-2-5-4-9-9-2-1">
      <path
         d="m 695.137,3213.8 v 0 l -48.551,-19.41 -5.926,-2.38 2.856,5.72 9.707,19.41 2.172,-1.08 -2.172,-1.09 -9.707,19.42 -2.856,5.72 5.926,-2.38 48.551,-19.42 5.629,-2.25 -5.629,-2.26 m -1.809,4.51 0.902,-2.25 -0.902,-2.26 -48.547,19.43 0.903,2.25 2.171,1.09 9.708,-19.43 0.546,-1.08 -0.546,-1.09 -9.708,-19.42 -2.171,1.09 -0.903,2.25 z"
         id="path640-9-9-93-3-62-01-7-21-90-8-0-2-7-4-4-0"
         inkscape:connector-curvature="0" />
    </clipPath>
    <clipPath
       clipPathUnits="userSpaceOnUse"
       id="clipPath628-3-9-6-7-9-7-8-1-8-9-9-2-0-0-6-72">
      <path
         d="m 694.23,3216.06 -48.546,-19.42 9.711,19.42 -9.711,19.42 z"
         id="path630-1-9-0-90-7-9-0-8-1-6-9-2-6-6-2-3"
         inkscape:connector-curvature="0" />
    </clipPath>
    <clipPath
       clipPathUnits="userSpaceOnUse"
       id="clipPath638-2-4-0-4-6-8-8-8-9-2-5-4-9-9-2-0-6">
      <path
         d="m 695.137,3213.8 v 0 l -48.551,-19.41 -5.926,-2.38 2.856,5.72 9.707,19.41 2.172,-1.08 -2.172,-1.09 -9.707,19.42 -2.856,5.72 5.926,-2.38 48.551,-19.42 5.629,-2.25 -5.629,-2.26 m -1.809,4.51 0.902,-2.25 -0.902,-2.26 -48.547,19.43 0.903,2.25 2.171,1.09 9.708,-19.43 0.546,-1.08 -0.546,-1.09 -9.708,-19.42 -2.171,1.09 -0.903,2.25 z"
         id="path640-9-9-93-3-62-01-7-21-90-8-0-2-7-4-4-5-18"
         inkscape:connector-curvature="0" />
    </clipPath>
    <clipPath
       clipPathUnits="userSpaceOnUse"
       id="clipPath628-3-9-6-7-9-7-8-1-8-9-9-2-0-0-6-0-42">
      <path
         d="m 694.23,3216.06 -48.546,-19.42 9.711,19.42 -9.711,19.42 z"
         id="path630-1-9-0-90-7-9-0-8-1-6-9-2-6-6-2-0-6"
         inkscape:connector-curvature="0" />
    </clipPath>
    <clipPath
       clipPathUnits="userSpaceOnUse"
       id="clipPath638-2-4-0-4-6-8-8-8-9-2-5-4-9-9-2-9">
      <path
         d="m 695.137,3213.8 v 0 l -48.551,-19.41 -5.926,-2.38 2.856,5.72 9.707,19.41 2.172,-1.08 -2.172,-1.09 -9.707,19.42 -2.856,5.72 5.926,-2.38 48.551,-19.42 5.629,-2.25 -5.629,-2.26 m -1.809,4.51 0.902,-2.25 -0.902,-2.26 -48.547,19.43 0.903,2.25 2.171,1.09 9.708,-19.43 0.546,-1.08 -0.546,-1.09 -9.708,-19.42 -2.171,1.09 -0.903,2.25 z"
         id="path640-9-9-93-3-62-01-7-21-90-8-0-2-7-4-4-2"
         inkscape:connector-curvature="0" />
    </clipPath>
    <clipPath
       clipPathUnits="userSpaceOnUse"
       id="clipPath628-3-9-6-7-9-7-8-1-8-9-9-2-0-0-6-02">
      <path
         d="m 694.23,3216.06 -48.546,-19.42 9.711,19.42 -9.711,19.42 z"
         id="path630-1-9-0-90-7-9-0-8-1-6-9-2-6-6-2-7"
         inkscape:connector-curvature="0" />
    </clipPath>
    <clipPath
       clipPathUnits="userSpaceOnUse"
       id="clipPath638-2-4-0-4-6-8-8-8-9-2-5-4-9-9-2-0">
      <path
         d="m 695.137,3213.8 v 0 l -48.551,-19.41 -5.926,-2.38 2.856,5.72 9.707,19.41 2.172,-1.08 -2.172,-1.09 -9.707,19.42 -2.856,5.72 5.926,-2.38 48.551,-19.42 5.629,-2.25 -5.629,-2.26 m -1.809,4.51 0.902,-2.25 -0.902,-2.26 -48.547,19.43 0.903,2.25 2.171,1.09 9.708,-19.43 0.546,-1.08 -0.546,-1.09 -9.708,-19.42 -2.171,1.09 -0.903,2.25 z"
         id="path640-9-9-93-3-62-01-7-21-90-8-0-2-7-4-4-5"
         inkscape:connector-curvature="0" />
    </clipPath>
    <clipPath
       clipPathUnits="userSpaceOnUse"
       id="clipPath628-3-9-6-7-9-7-8-1-8-9-9-2-0-0-6-0">
      <path
         d="m 694.23,3216.06 -48.546,-19.42 9.711,19.42 -9.711,19.42 z"
         id="path630-1-9-0-90-7-9-0-8-1-6-9-2-6-6-2-0"
         inkscape:connector-curvature="0" />
    </clipPath>
    <clipPath
       clipPathUnits="userSpaceOnUse"
       id="clipPath638-2-4-0-4-6-8-8-8-9-2-5-4-9-9-2">
      <path
         d="m 695.137,3213.8 v 0 l -48.551,-19.41 -5.926,-2.38 2.856,5.72 9.707,19.41 2.172,-1.08 -2.172,-1.09 -9.707,19.42 -2.856,5.72 5.926,-2.38 48.551,-19.42 5.629,-2.25 -5.629,-2.26 m -1.809,4.51 0.902,-2.25 -0.902,-2.26 -48.547,19.43 0.903,2.25 2.171,1.09 9.708,-19.43 0.546,-1.08 -0.546,-1.09 -9.708,-19.42 -2.171,1.09 -0.903,2.25 z"
         id="path640-9-9-93-3-62-01-7-21-90-8-0-2-7-4-4"
         inkscape:connector-curvature="0" />
    </clipPath>
    <clipPath
       clipPathUnits="userSpaceOnUse"
       id="clipPath628-3-9-6-7-9-7-8-1-8-9-9-2-0-0-6">
      <path
         d="m 694.23,3216.06 -48.546,-19.42 9.711,19.42 -9.711,19.42 z"
         id="path630-1-9-0-90-7-9-0-8-1-6-9-2-6-6-2"
         inkscape:connector-curvature="0" />
    </clipPath>
    <clipPath
       clipPathUnits="userSpaceOnUse"
       id="clipPath638-2-4-0-4-6-8-8-8-9-2-5-4-9-4-2">
      <path
         d="m 695.137,3213.8 v 0 l -48.551,-19.41 -5.926,-2.38 2.856,5.72 9.707,19.41 2.172,-1.08 -2.172,-1.09 -9.707,19.42 -2.856,5.72 5.926,-2.38 48.551,-19.42 5.629,-2.25 -5.629,-2.26 m -1.809,4.51 0.902,-2.25 -0.902,-2.26 -48.547,19.43 0.903,2.25 2.171,1.09 9.708,-19.43 0.546,-1.08 -0.546,-1.09 -9.708,-19.42 -2.171,1.09 -0.903,2.25 z"
         id="path640-9-9-93-3-62-01-7-21-90-8-0-2-7-0-9"
         inkscape:connector-curvature="0" />
    </clipPath>
    <clipPath
       clipPathUnits="userSpaceOnUse"
       id="clipPath628-3-9-6-7-9-7-8-1-8-9-9-2-0-6-5">
      <path
         d="m 694.23,3216.06 -48.546,-19.42 9.711,19.42 -9.711,19.42 z"
         id="path630-1-9-0-90-7-9-0-8-1-6-9-2-6-2-2"
         inkscape:connector-curvature="0" />
    </clipPath>
    <clipPath
       clipPathUnits="userSpaceOnUse"
       id="clipPath638-2-4-0-4-6-8-8-8-9-2-5-4-9-9">
      <path
         d="m 695.137,3213.8 v 0 l -48.551,-19.41 -5.926,-2.38 2.856,5.72 9.707,19.41 2.172,-1.08 -2.172,-1.09 -9.707,19.42 -2.856,5.72 5.926,-2.38 48.551,-19.42 5.629,-2.25 -5.629,-2.26 m -1.809,4.51 0.902,-2.25 -0.902,-2.26 -48.547,19.43 0.903,2.25 2.171,1.09 9.708,-19.43 0.546,-1.08 -0.546,-1.09 -9.708,-19.42 -2.171,1.09 -0.903,2.25 z"
         id="path640-9-9-93-3-62-01-7-21-90-8-0-2-7-4"
         inkscape:connector-curvature="0" />
    </clipPath>
    <clipPath
       clipPathUnits="userSpaceOnUse"
       id="clipPath628-3-9-6-7-9-7-8-1-8-9-9-2-0-0">
      <path
         d="m 694.23,3216.06 -48.546,-19.42 9.711,19.42 -9.711,19.42 z"
         id="path630-1-9-0-90-7-9-0-8-1-6-9-2-6-6"
         inkscape:connector-curvature="0" />
    </clipPath>
  </defs>
  <sodipodi:namedview
     id="base"
     pagecolor="#ffffff"
     bordercolor="#666666"
     borderopacity="1.0"
     inkscape:pageopacity="0.0"
     inkscape:pageshadow="2"
     inkscape:zoom="1.4"
     inkscape:cx="207.9541"
     inkscape:cy="-0.10684719"
     inkscape:document-units="px"
     inkscape:current-layer="layer1"
     showgrid="false"
     showguides="true"
     inkscape:guide-bbox="true"
     inkscape:window-width="1920"
     inkscape:window-height="1016"
     inkscape:window-x="0"
     inkscape:window-y="27"
     inkscape:window-maximized="1"
     units="mm"
     fit-margin-top="0.1"
     fit-margin-left="0.1"
     fit-margin-bottom="0.1"
     fit-margin-right="0.1">
    <sodipodi:guide
       position="9.7720704,47.999684"
       orientation="0,1"
       id="guide4502"
       inkscape:locked="false" />
    <sodipodi:guide
       position="41.144093,28.533914"
       orientation="0,1"
       id="guide6629"
       inkscape:locked="false" />
    <sodipodi:guide
       position="66.279508,90.144043"
       orientation="1,0"
       id="guide6733"
       inkscape:locked="false" />
    <sodipodi:guide
       position="36.166113,9.0681442"
       orientation="0,1"
       id="guide6797"
       inkscape:locked="false" />
    <sodipodi:guide
       position="61.936629,28.533914"
       orientation="1,0"
       id="guide6820"
       inkscape:locked="false" />
    <sodipodi:guide
       position="88.289018,28.533914"
       orientation="1,0"
       id="guide6960"
       inkscape:locked="false" />
    <sodipodi:guide
       position="39.927114,9.0681542"
       orientation="1,0"
       id="guide7084"
       inkscape:locked="false" />
  </sodipodi:namedview>
  <metadata
     id="metadata5">
    <rdf:RDF>
      <cc:Work
         rdf:about="">
        <dc:format>image/svg+xml</dc:format>
        <dc:type
           rdf:resource="http://purl.org/dc/dcmitype/StillImage" />
        <dc:title></dc:title>
      </cc:Work>
    </rdf:RDF>
  </metadata>
  <g
     inkscape:label="Layer 1"
     inkscape:groupmode="layer"
     id="layer1"
     transform="translate(19.977428,-21.007621)">
    <text
       xml:space="preserve"
       style="font-style:normal;font-weight:normal;font-size:3.38666677px;line-height:0%;font-family:sans-serif;letter-spacing:1.41111112px;word-spacing:0px;fill:#000000;fill-opacity:1;stroke:none;stroke-width:0.28222224px;stroke-linecap:butt;stroke-linejoin:miter;stroke-opacity:1"
       x="27.680193"
       y="26.822439"
       id="text6640-9-5-0-9-1-6-0-4-7-0-6-8-3-8-5"><tspan
         sodipodi:role="line"
         x="27.680193"
         y="26.822439"
         style="font-style:normal;font-variant:normal;font-weight:500;font-stretch:normal;font-size:4.23333311px;line-height:1.25;font-family:'URW Palladio L';-inkscape-font-specification:'URW Palladio L Medium';letter-spacing:0px;stroke-width:0.28222224px"
         id="tspan6604">BPX 1</tspan></text>
    <text
       xml:space="preserve"
       style="font-style:normal;font-weight:normal;font-size:3.38666677px;line-height:0%;font-family:sans-serif;letter-spacing:1.41111112px;word-spacing:0px;fill:#000000;fill-opacity:1;stroke:none;stroke-width:0.28222224px;stroke-linecap:butt;stroke-linejoin:miter;stroke-opacity:1"
       x="18.599615"
       y="26.192484"
       id="text6640-9-5-0-9-1-6-0-4-7-0-6-8-3-8-5-5"><tspan
         sodipodi:role="line"
         id="tspan6642-4-35-6-9-4-39-4-7-0-4-6-7-8-1-3-6"
         x="18.599615"
         y="26.192484"
         style="font-style:normal;font-variant:normal;font-weight:500;font-stretch:normal;font-size:4.23333311px;line-height:1.25;font-family:'URW Palladio L';-inkscape-font-specification:'URW Palladio L Medium';letter-spacing:0px;stroke-width:0.28222224px"> </tspan></text>
    <text
       xml:space="preserve"
       style="font-style:normal;font-weight:normal;font-size:3.38666677px;line-height:0%;font-family:sans-serif;letter-spacing:1.41111112px;word-spacing:0px;fill:#000000;fill-opacity:1;stroke:none;stroke-width:0.28222224px;stroke-linecap:butt;stroke-linejoin:miter;stroke-opacity:1"
       x="5.3527136"
       y="46.765877"
       id="text6640-9-5-0-9-1-6-0-4-7-0-6-8-3-8-5-57"><tspan
         sodipodi:role="line"
         x="5.3527136"
         y="46.765877"
         style="font-style:normal;font-variant:normal;font-weight:500;font-stretch:normal;font-size:4.23333311px;line-height:1.25;font-family:'URW Palladio L';-inkscape-font-specification:'URW Palladio L Medium';letter-spacing:0px;stroke-width:0.28222224px"
         id="tspan6604-6">BPX 2</tspan></text>
    <text
       xml:space="preserve"
       style="font-style:normal;font-weight:normal;font-size:3.38666677px;line-height:0%;font-family:sans-serif;letter-spacing:1.41111112px;word-spacing:0px;fill:#000000;fill-opacity:1;stroke:none;stroke-width:0.28222224px;stroke-linecap:butt;stroke-linejoin:miter;stroke-opacity:1"
       x="48.642239"
       y="46.765877"
       id="text6640-9-5-0-9-1-6-0-4-7-0-6-8-3-8-5-57-4"><tspan
         sodipodi:role="line"
         x="48.642239"
         y="46.765877"
         style="font-style:normal;font-variant:normal;font-weight:500;font-stretch:normal;font-size:4.23333311px;line-height:1.25;font-family:'URW Palladio L';-inkscape-font-specification:'URW Palladio L Medium';letter-spacing:0px;stroke-width:0.28222224px"
         id="tspan6604-6-2">FPX+ 1</tspan></text>
    <text
       xml:space="preserve"
       style="font-style:normal;font-weight:normal;font-size:3.38666677px;line-height:0%;font-family:sans-serif;letter-spacing:1.41111112px;word-spacing:0px;fill:#000000;fill-opacity:1;stroke:none;stroke-width:0.28222224px;stroke-linecap:butt;stroke-linejoin:miter;stroke-opacity:1"
       x="71.162003"
       y="46.753162"
       id="text6640-9-5-0-9-1-6-0-4-7-0-6-8-3-8-5-57-4-5"><tspan
         sodipodi:role="line"
         x="71.162003"
         y="46.753162"
         style="font-style:normal;font-variant:normal;font-weight:500;font-stretch:normal;font-size:4.23333311px;line-height:1.25;font-family:'URW Palladio L';-inkscape-font-specification:'URW Palladio L Medium';letter-spacing:0px;stroke-width:0.28222224px"
         id="tspan6604-6-2-0">FPX- 1</tspan></text>
    <rect
       style="opacity:1;fill:none;fill-opacity:1;stroke:#000000;stroke-width:0.3175;stroke-linecap:square;stroke-linejoin:round;stroke-miterlimit:4;stroke-dasharray:none;stroke-dashoffset:0;stroke-opacity:1"
       id="rect4294-7-2-52"
       width="17.666632"
       height="7.7510567"
       x="24.29257"
       y="21.266371"
       rx="1.3229166"
       ry="1.3229166" />
    <rect
       style="opacity:1;fill:none;fill-opacity:1;stroke:#000000;stroke-width:0.3175;stroke-linecap:square;stroke-linejoin:round;stroke-miterlimit:4;stroke-dasharray:none;stroke-dashoffset:0;stroke-opacity:1"
       id="rect4294-7-2-52-9"
       width="17.666632"
       height="7.7510567"
       x="68.311569"
       y="41.261307"
       rx="1.3229166"
       ry="1.3229166" />
    <rect
       style="opacity:1;fill:none;fill-opacity:1;stroke:#000000;stroke-width:0.3175;stroke-linecap:square;stroke-linejoin:round;stroke-miterlimit:4;stroke-dasharray:none;stroke-dashoffset:0;stroke-opacity:1"
       id="rect4294-7-2-52-9-7"
       width="17.666632"
       height="7.7510567"
       x="46.302059"
       y="41.261307"
       rx="1.3229166"
       ry="1.3229166" />
    <rect
       style="opacity:1;fill:none;fill-opacity:1;stroke:#000000;stroke-width:0.3175;stroke-linecap:square;stroke-linejoin:round;stroke-miterlimit:4;stroke-dasharray:none;stroke-dashoffset:0;stroke-opacity:1"
       id="rect4294-7-2-52-9-7-7"
       width="17.666632"
       height="7.7510567"
       x="2.2830553"
       y="41.261307"
       rx="1.3229166"
       ry="1.3229166" />
    <text
       xml:space="preserve"
       style="font-style:normal;font-weight:normal;font-size:3.38666677px;line-height:0%;font-family:sans-serif;letter-spacing:1.41111112px;word-spacing:0px;fill:#000000;fill-opacity:1;stroke:none;stroke-width:0.28222224px;stroke-linecap:butt;stroke-linejoin:miter;stroke-opacity:1"
       x="4.6232305"
       y="66.760818"
       id="text6640-9-5-0-9-1-6-0-4-7-0-6-8-3-8-5-57-4-6"><tspan
         sodipodi:role="line"
         x="4.6232305"
         y="66.760818"
         style="font-style:normal;font-variant:normal;font-weight:500;font-stretch:normal;font-size:4.23333311px;line-height:1.25;font-family:'URW Palladio L';-inkscape-font-specification:'URW Palladio L Medium';letter-spacing:0px;stroke-width:0.28222224px"
         id="tspan6604-6-2-3">FPX+ 1</tspan></text>
    <rect
       style="opacity:1;fill:none;fill-opacity:1;stroke:#000000;stroke-width:0.3175;stroke-linecap:square;stroke-linejoin:round;stroke-miterlimit:4;stroke-dasharray:none;stroke-dashoffset:0;stroke-opacity:1"
       id="rect4294-7-2-52-9-7-8"
       width="17.666632"
       height="7.7510567"
       x="2.2830555"
       y="61.256245"
       rx="1.3229166"
       ry="1.3229166" />
    <text
       xml:space="preserve"
       style="font-style:normal;font-weight:normal;font-size:3.38666677px;line-height:0%;font-family:sans-serif;letter-spacing:1.41111112px;word-spacing:0px;fill:#000000;fill-opacity:1;stroke:none;stroke-width:0.28222224px;stroke-linecap:butt;stroke-linejoin:miter;stroke-opacity:1"
       x="26.632751"
       y="66.760818"
       id="text6640-9-5-0-9-1-6-0-4-7-0-6-8-3-8-5-57-4-6-0"><tspan
         sodipodi:role="line"
         x="26.632751"
         y="66.760818"
         style="font-style:normal;font-variant:normal;font-weight:500;font-stretch:normal;font-size:4.23333311px;line-height:1.25;font-family:'URW Palladio L';-inkscape-font-specification:'URW Palladio L Medium';letter-spacing:0px;stroke-width:0.28222224px"
         id="tspan6604-6-2-3-4">FPX- 1</tspan></text>
    <rect
       style="opacity:1;fill:none;fill-opacity:1;stroke:#000000;stroke-width:0.3175;stroke-linecap:square;stroke-linejoin:round;stroke-miterlimit:4;stroke-dasharray:none;stroke-dashoffset:0;stroke-opacity:1"
       id="rect4294-7-2-52-9-7-8-9"
       width="17.666632"
       height="7.7510567"
       x="24.29257"
       y="61.256245"
       rx="1.3229166"
       ry="1.3229166" />
    <text
       xml:space="preserve"
       style="font-style:normal;font-weight:normal;font-size:3.38666677px;line-height:0%;font-family:sans-serif;letter-spacing:1.41111112px;word-spacing:0px;fill:#000000;fill-opacity:1;stroke:none;stroke-width:0.28222224px;stroke-linecap:butt;stroke-linejoin:miter;stroke-opacity:1"
       x="-16.649014"
       y="66.760818"
       id="text6640-9-5-0-9-1-6-0-4-7-0-6-8-3-8-5-57-7"><tspan
         sodipodi:role="line"
         x="-16.649014"
         y="66.760818"
         style="font-style:normal;font-variant:normal;font-weight:500;font-stretch:normal;font-size:4.23333311px;line-height:1.25;font-family:'URW Palladio L';-inkscape-font-specification:'URW Palladio L Medium';letter-spacing:0px;stroke-width:0.28222224px"
         id="tspan6604-6-9">BPX 3</tspan></text>
    <rect
       style="opacity:1;fill:none;fill-opacity:1;stroke:#000000;stroke-width:0.3175;stroke-linecap:square;stroke-linejoin:round;stroke-miterlimit:4;stroke-dasharray:none;stroke-dashoffset:0;stroke-opacity:1"
       id="rect4294-7-2-52-9-7-7-7"
       width="17.666632"
       height="7.7510567"
       x="-19.718678"
       y="61.256248"
       rx="1.3229166"
       ry="1.3229166" />
    <text
       xml:space="preserve"
       style="font-style:normal;font-weight:normal;font-size:3.38666677px;line-height:0%;font-family:sans-serif;letter-spacing:1.41111112px;word-spacing:0px;fill:#000000;fill-opacity:1;stroke:none;stroke-width:0.28222224px;stroke-linecap:butt;stroke-linejoin:miter;stroke-opacity:1"
       x="48.642258"
       y="66.760826"
       id="text6640-9-5-0-9-1-6-0-4-7-0-6-8-3-8-5-57-4-6-1"><tspan
         sodipodi:role="line"
         x="48.642258"
         y="66.760826"
         style="font-style:normal;font-variant:normal;font-weight:500;font-stretch:normal;font-size:4.23333311px;line-height:1.25;font-family:'URW Palladio L';-inkscape-font-specification:'URW Palladio L Medium';letter-spacing:0px;stroke-width:0.28222224px"
         id="tspan6604-6-2-3-3">FPX+ 2</tspan></text>
    <rect
       style="opacity:1;fill:none;fill-opacity:1;stroke:#000000;stroke-width:0.3175;stroke-linecap:square;stroke-linejoin:round;stroke-miterlimit:4;stroke-dasharray:none;stroke-dashoffset:0;stroke-opacity:1"
       id="rect4294-7-2-52-9-7-8-7"
       width="17.666632"
       height="7.7510567"
       x="46.302082"
       y="61.256245"
       rx="1.3229166"
       ry="1.3229166" />
    <text
       xml:space="preserve"
       style="font-style:normal;font-weight:normal;font-size:3.38666677px;line-height:0%;font-family:sans-serif;letter-spacing:1.41111112px;word-spacing:0px;fill:#000000;fill-opacity:1;stroke:none;stroke-width:0.28222224px;stroke-linecap:butt;stroke-linejoin:miter;stroke-opacity:1"
       x="70.651772"
       y="66.760826"
       id="text6640-9-5-0-9-1-6-0-4-7-0-6-8-3-8-5-57-4-6-0-8"><tspan
         sodipodi:role="line"
         x="70.651772"
         y="66.760826"
         style="font-style:normal;font-variant:normal;font-weight:500;font-stretch:normal;font-size:4.23333311px;line-height:1.25;font-family:'URW Palladio L';-inkscape-font-specification:'URW Palladio L Medium';letter-spacing:0px;stroke-width:0.28222224px"
         id="tspan6604-6-2-3-4-0">FPX- 2</tspan></text>
    <rect
       style="opacity:1;fill:none;fill-opacity:1;stroke:#000000;stroke-width:0.3175;stroke-linecap:square;stroke-linejoin:round;stroke-miterlimit:4;stroke-dasharray:none;stroke-dashoffset:0;stroke-opacity:1"
       id="rect4294-7-2-52-9-7-8-9-9"
       width="17.666632"
       height="7.7510567"
       x="68.311592"
       y="61.256245"
       rx="1.3229166"
       ry="1.3229166" />
    <path
       style="fill:none;fill-rule:evenodd;stroke:#000000;stroke-width:0.35274819;stroke-linecap:butt;stroke-linejoin:miter;stroke-miterlimit:4;stroke-dasharray:none;stroke-opacity:1;marker-end:url(#marker7369)"
       d="M 32.694642,29.091209 10.960429,40.732141"
       id="path7086"
       inkscape:connector-curvature="0" />
    <path
       style="fill:none;fill-rule:evenodd;stroke:#000000;stroke-width:0.35274819;stroke-linecap:butt;stroke-linejoin:miter;stroke-miterlimit:4;stroke-dasharray:none;stroke-opacity:1;marker-end:url(#marker7317)"
       d="M 32.694642,29.091209 54.995833,40.732141"
       id="path7088"
       inkscape:connector-curvature="0" />
    <path
       style="fill:none;fill-rule:evenodd;stroke:#000000;stroke-width:0.35274819;stroke-linecap:butt;stroke-linejoin:miter;stroke-miterlimit:4;stroke-dasharray:none;stroke-opacity:1;marker-end:url(#marker7271)"
       d="M 32.694642,29.091209 76.730046,40.732141"
       id="path7090"
       inkscape:connector-curvature="0" />
    <path
       style="fill:none;fill-rule:evenodd;stroke:#000000;stroke-width:0.35277778;stroke-linecap:butt;stroke-linejoin:miter;stroke-miterlimit:4;stroke-dasharray:none;stroke-opacity:1;marker-end:url(#marker7197)"
       d="M 10.772321,49.079105 V 60.728662"
       id="path7092"
       inkscape:connector-curvature="0" />
    <path
       style="fill:none;fill-rule:evenodd;stroke:#000000;stroke-width:0.35277778;stroke-linecap:butt;stroke-linejoin:miter;stroke-miterlimit:4;stroke-dasharray:none;stroke-opacity:1;marker-end:url(#Arrow1Mend)"
       d="M 54.995536,48.820834 V 60.727078"
       id="path7092-1"
       inkscape:connector-curvature="0" />
    <path
       style="fill:none;fill-rule:evenodd;stroke:#000000;stroke-width:0.35277778;stroke-linecap:butt;stroke-linejoin:miter;stroke-miterlimit:4;stroke-dasharray:none;stroke-opacity:1;marker-end:url(#marker7427)"
       d="M 77.107143,48.820834 V 60.727078"
       id="path7092-1-6"
       inkscape:connector-curvature="0" />
    <path
       style="fill:none;fill-rule:evenodd;stroke:#000000;stroke-width:0.35277778;stroke-linecap:butt;stroke-linejoin:miter;stroke-miterlimit:4;stroke-dasharray:none;stroke-opacity:1;marker-end:url(#marker7231)"
       d="M 10.772321,49.079105 -11.151225,60.728662"
       id="path7124"
       inkscape:connector-curvature="0" />
    <path
       style="fill:none;fill-rule:evenodd;stroke:#000000;stroke-width:0.35277778;stroke-linecap:butt;stroke-linejoin:miter;stroke-miterlimit:4;stroke-dasharray:none;stroke-opacity:1;marker-end:url(#marker7169)"
       d="M 10.772321,49.079105 32.695867,60.728662"
       id="path7124-0"
       inkscape:connector-curvature="0" />
  </g>
</svg>
